<svg width="34" height="34" viewBox="0 0 34 34" fill="none" xmlns="http://www.w3.org/2000/svg">
<path d="M32.3536 5.35355L32.7071 5L32.3536 4.64645L29.3536 1.64645L29 1.29289L28.6464 1.64645L17 13.2929L5.35355 1.64645L5 1.29289L4.64645 1.64645L1.64645 4.64645L1.29289 5L1.64645 5.35355L13.2929 17L1.64645 28.6464L1.29289 29L1.64645 29.3536L4.64645 32.3536L5 32.7071L5.35355 32.3536L17 20.7071L28.6464 32.3536L29 32.7071L29.3536 32.3536L32.3536 29.3536L32.7071 29L32.3536 28.6464L20.7071 17L32.3536 5.35355Z" fill="#1D1D1B" stroke="#FCFCFC"/>
</svg>
