<svg width="300" height="36" viewBox="0 0 300 36" fill="none" xmlns="http://www.w3.org/2000/svg">
<path opacity="0.8" d="M1.52 9.064V8.064H0.52V9.064H1.52ZM5.084 9.064L6.07395 8.92258L5.9513 8.064H5.084V9.064ZM5.444 11.584L4.45405 11.7254L4.5767 12.584H5.444V11.584ZM5.696 11.584V12.584H6.22346L6.52131 12.1487L5.696 11.584ZM8 9.424L7.50865 8.55297L7.49896 8.55857L8 9.424ZM16.136 11.584L15.2204 11.986L15.4829 12.584H16.136V11.584ZM16.424 11.584V12.584H16.9435L17.2422 12.1589L16.424 11.584ZM18.836 9.46L19.3088 10.3412L19.3171 10.3367L19.3253 10.3321L18.836 9.46ZM26.36 10.144L27.0587 9.42862L26.36 10.144ZM27.908 28V29H28.908V28H27.908ZM23.588 28H22.588V29H23.588V28ZM17.936 13.672L17.1678 13.0318L17.1625 13.0382L17.1572 13.0447L17.936 13.672ZM16.892 28V29H17.892V28H16.892ZM12.572 28H11.572V29H12.572V28ZM6.92 13.672L6.15178 13.0318L6.92 13.672ZM5.84 28V29H6.84V28H5.84ZM1.52 28H0.52V29H1.52V28ZM1.52 10.064H5.084V8.064H1.52V10.064ZM4.09405 9.20542L4.45405 11.7254L6.43395 11.4426L6.07395 8.92258L4.09405 9.20542ZM5.444 12.584H5.696V10.584H5.444V12.584ZM6.52131 12.1487C7.06522 11.3537 7.72451 10.739 8.50104 10.2894L7.49896 8.55857C6.45149 9.165 5.57478 9.99026 4.87069 11.0193L6.52131 12.1487ZM8.49132 10.295C9.26049 9.86109 10.1557 9.632 11.204 9.632V7.632C9.85235 7.632 8.61151 7.93091 7.50868 8.55302L8.49132 10.295ZM11.204 9.632C12.2825 9.632 13.1108 9.85057 13.7414 10.228C14.364 10.6007 14.8612 11.1679 15.2204 11.986L17.0516 11.182C16.5468 10.0321 15.79 9.12334 14.7686 8.51195C13.7552 7.90543 12.5495 7.632 11.204 7.632V9.632ZM16.136 12.584H16.424V10.584H16.136V12.584ZM17.2422 12.1589C17.7739 11.4023 18.4581 10.7976 19.3088 10.3412L18.3632 8.57884C17.2459 9.17837 16.3221 9.98968 15.6058 11.0091L17.2422 12.1589ZM19.3253 10.3321C20.1503 9.86932 21.0721 9.632 22.112 9.632V7.632C20.7519 7.632 19.4897 7.94668 18.3467 8.58786L19.3253 10.3321ZM22.112 9.632C23.719 9.632 24.8597 10.0765 25.6613 10.8594L27.0587 9.42862C25.7963 8.19552 24.105 7.632 22.112 7.632V9.632ZM25.6613 10.8594C26.4191 11.5996 26.908 12.8887 26.908 14.968H28.908C28.908 12.6313 28.3649 10.7044 27.0587 9.42862L25.6613 10.8594ZM26.908 14.968V28H28.908V14.968H26.908ZM27.908 27H23.588V29H27.908V27ZM24.588 28V15.832H22.588V28H24.588ZM24.588 15.832C24.588 14.5586 24.3159 13.4169 23.5975 12.586C22.855 11.7272 21.7911 11.376 20.6 11.376V13.376C21.4009 13.376 21.831 13.6008 22.0845 13.894C22.3621 14.2151 22.588 14.8014 22.588 15.832H24.588ZM20.6 11.376C19.2258 11.376 18.0637 11.9568 17.1678 13.0318L18.7042 14.3122C19.2484 13.6592 19.8622 13.376 20.6 13.376V11.376ZM17.1572 13.0447C16.2896 14.1217 15.892 15.4617 15.892 16.984H17.892C17.892 15.8183 18.1904 14.9503 18.7148 14.2993L17.1572 13.0447ZM15.892 16.984V28H17.892V16.984H15.892ZM16.892 27H12.572V29H16.892V27ZM13.572 28V15.832H11.572V28H13.572ZM13.572 15.832C13.572 14.5586 13.2999 13.4169 12.5815 12.586C11.839 11.7272 10.7751 11.376 9.584 11.376V13.376C10.3849 13.376 10.815 13.6008 11.0685 13.894C11.3461 14.2151 11.572 14.8014 11.572 15.832H13.572ZM9.584 11.376C8.20985 11.376 7.04765 11.9568 6.15178 13.0318L7.68822 14.3122C8.23235 13.6592 8.84615 13.376 9.584 13.376V11.376ZM6.15178 13.0318C5.25413 14.109 4.84 15.4537 4.84 16.984H6.84C6.84 15.8263 7.14587 14.963 7.68822 14.3122L6.15178 13.0318ZM4.84 16.984V28H6.84V16.984H4.84ZM5.84 27H1.52V29H5.84V27ZM2.52 28V9.064H0.52V28H2.52ZM32.7362 9.064V8.064H31.7362V9.064H32.7362ZM37.0562 9.064H38.0562V8.064H37.0562V9.064ZM37.9202 23.86L37.2283 24.582L37.2357 24.589L37.2432 24.5959L37.9202 23.86ZM43.5722 23.392L44.2992 24.0786L43.5722 23.392ZM44.7962 9.064V8.064H43.7962V9.064H44.7962ZM49.1162 9.064H50.1162V8.064H49.1162V9.064ZM49.1162 28V29H50.1162V28H49.1162ZM45.5522 28L44.5623 28.1414L44.6849 29H45.5522V28ZM45.1922 25.48L46.1822 25.3386L46.0595 24.48H45.1922V25.48ZM44.9402 25.48V24.48H44.4376L44.1378 24.8833L44.9402 25.48ZM42.3482 27.676L42.7955 28.5705L42.8037 28.5662L42.3482 27.676ZM38.8562 27.432C36.99 27.432 35.7688 26.9332 34.9989 26.1044C34.216 25.2617 33.7362 23.9034 33.7362 21.844H31.7362C31.7362 24.1766 32.2764 26.1123 33.5336 27.4656C34.8036 28.8328 36.6424 29.432 38.8562 29.432V27.432ZM33.7362 21.844V9.064H31.7362V21.844H33.7362ZM32.7362 10.064H37.0562V8.064H32.7362V10.064ZM36.0562 9.064V21.088H38.0562V9.064H36.0562ZM36.0562 21.088C36.0562 22.4928 36.3623 23.7521 37.2283 24.582L38.6121 23.138C38.3261 22.8639 38.0562 22.2752 38.0562 21.088H36.0562ZM37.2432 24.5959C38.0919 25.3768 39.2489 25.688 40.5482 25.688V23.688C39.5436 23.688 38.9485 23.4472 38.5973 23.1241L37.2432 24.5959ZM40.5482 25.688C42.0203 25.688 43.2922 25.1448 44.2992 24.0786L42.8452 22.7054C42.2202 23.3672 41.4761 23.688 40.5482 23.688V25.688ZM44.2992 24.0786C45.3139 23.0043 45.7962 21.6432 45.7962 20.08H43.7962C43.7962 21.2048 43.4626 22.0517 42.8452 22.7054L44.2992 24.0786ZM45.7962 20.08V9.064H43.7962V20.08H45.7962ZM44.7962 10.064H49.1162V8.064H44.7962V10.064ZM48.1162 9.064V28H50.1162V9.064H48.1162ZM49.1162 27H45.5522V29H49.1162V27ZM46.5422 27.8586L46.1822 25.3386L44.2023 25.6214L44.5623 28.1414L46.5422 27.8586ZM45.1922 24.48H44.9402V26.48H45.1922V24.48ZM44.1378 24.8833C43.5328 25.6969 42.7872 26.3281 41.8927 26.7858L42.8037 28.5662C43.9732 27.9679 44.9557 27.1351 45.7427 26.0767L44.1378 24.8833ZM41.901 26.7816C41.0538 27.2052 40.0475 27.432 38.8562 27.432V29.432C40.305 29.432 41.6267 29.1548 42.7954 28.5704L41.901 26.7816ZM55.2289 26.812L54.6224 27.6071L54.6289 27.612L55.2289 26.812ZM53.1049 22.168L52.1562 21.8518L52.1049 22.0057V22.168H53.1049ZM53.1409 22.024V21.024H52.1409V22.024H53.1409ZM57.3529 22.024H58.3529V21.024H57.3529V22.024ZM57.3529 22.312H56.3529V22.3248L56.3532 22.3376L57.3529 22.312ZM58.5409 24.4L58.0304 25.2599L58.046 25.2692L58.0621 25.2779L58.5409 24.4ZM64.1929 24.544L64.6045 25.4554L64.6166 25.4499L64.6285 25.4442L64.1929 24.544ZM64.6969 21.628L64.0353 22.3778L64.0481 22.3891L64.0612 22.3999L64.6969 21.628ZM63.1849 20.8L62.8462 21.7409L62.8631 21.747L62.8801 21.7524L63.1849 20.8ZM60.6289 20.08L60.3938 21.052L60.3963 21.0526L60.6289 20.08ZM56.9569 19L56.5979 19.9334L56.6058 19.9363L56.9569 19ZM54.5449 17.308L53.7923 17.9665L54.5449 17.308ZM55.7689 10.108L56.3205 10.9421L55.7689 10.108ZM68.1529 11.116L67.3674 11.7349L67.3778 11.748L67.3886 11.7609L68.1529 11.116ZM69.1249 13.78L70.1239 13.8254L70.1249 13.8027V13.78H69.1249ZM69.0889 14.572V15.572H70.0445L70.0879 14.6174L69.0889 14.572ZM64.8769 14.572H63.8769V15.572H64.8769V14.572ZM63.9409 12.7L63.3566 13.5115L63.3748 13.5247L63.3937 13.537L63.9409 12.7ZM58.7569 12.592L59.2608 13.4558L59.274 13.4481L59.2869 13.44L58.7569 12.592ZM58.9369 15.436L58.5022 16.3366L58.5206 16.3454L58.5393 16.3536L58.9369 15.436ZM62.2129 16.372L62.4345 15.3968L62.4213 15.394L62.2129 16.372ZM66.0289 17.488L65.6575 18.4165L65.6713 18.422L65.6853 18.4271L66.0289 17.488ZM68.5849 19.216L67.845 19.8887H67.845L68.5849 19.216ZM67.3969 26.992L66.8609 26.1478L66.8548 26.1517L67.3969 26.992ZM61.3129 27.432C58.8189 27.432 57.0331 26.9151 55.8289 26.012L54.6289 27.612C56.3047 28.8689 58.5749 29.432 61.3129 29.432V27.432ZM55.8354 26.0169C54.6585 25.1193 54.1049 24.0051 54.1049 22.6H52.1049C52.1049 24.6509 52.9673 26.3447 54.6225 27.6071L55.8354 26.0169ZM54.1049 22.6C54.1049 22.5996 54.1049 22.5992 54.1049 22.5987C54.1049 22.5983 54.1049 22.5979 54.1049 22.5975C54.1049 22.5971 54.1049 22.5966 54.1049 22.5962C54.1049 22.5958 54.1049 22.5954 54.1049 22.5949C54.1049 22.5945 54.1049 22.5941 54.1049 22.5937C54.1049 22.5933 54.1049 22.5929 54.1049 22.5924C54.1049 22.592 54.1049 22.5916 54.1049 22.5912C54.1049 22.5908 54.1049 22.5903 54.1049 22.5899C54.1049 22.5895 54.1049 22.5891 54.1049 22.5887C54.1049 22.5883 54.1049 22.5878 54.1049 22.5874C54.1049 22.587 54.1049 22.5866 54.1049 22.5862C54.1049 22.5858 54.1049 22.5853 54.1049 22.5849C54.1049 22.5845 54.1049 22.5841 54.1049 22.5837C54.1049 22.5833 54.1049 22.5829 54.1049 22.5824C54.1049 22.582 54.1049 22.5816 54.1049 22.5812C54.1049 22.5808 54.1049 22.5804 54.1049 22.58C54.1049 22.5795 54.1049 22.5791 54.1049 22.5787C54.1049 22.5783 54.1049 22.5779 54.1049 22.5775C54.1049 22.5771 54.1049 22.5767 54.1049 22.5763C54.1049 22.5758 54.1049 22.5754 54.1049 22.575C54.1049 22.5746 54.1049 22.5742 54.1049 22.5738C54.1049 22.5734 54.1049 22.573 54.1049 22.5726C54.1049 22.5721 54.1049 22.5717 54.1049 22.5713C54.1049 22.5709 54.1049 22.5705 54.1049 22.5701C54.1049 22.5697 54.1049 22.5693 54.1049 22.5689C54.1049 22.5685 54.1049 22.5681 54.1049 22.5676C54.1049 22.5672 54.1049 22.5668 54.1049 22.5664C54.1049 22.566 54.1049 22.5656 54.1049 22.5652C54.1049 22.5648 54.1049 22.5644 54.1049 22.564C54.1049 22.5636 54.1049 22.5632 54.1049 22.5628C54.1049 22.5624 54.1049 22.562 54.1049 22.5616C54.1049 22.5612 54.1049 22.5607 54.1049 22.5603C54.1049 22.5599 54.1049 22.5595 54.1049 22.5591C54.1049 22.5587 54.1049 22.5583 54.1049 22.5579C54.1049 22.5575 54.1049 22.5571 54.1049 22.5567C54.1049 22.5563 54.1049 22.5559 54.1049 22.5555C54.1049 22.5551 54.1049 22.5547 54.1049 22.5543C54.1049 22.5539 54.1049 22.5535 54.1049 22.5531C54.1049 22.5527 54.1049 22.5523 54.1049 22.5519C54.1049 22.5515 54.1049 22.5511 54.1049 22.5507C54.1049 22.5503 54.1049 22.5499 54.1049 22.5495C54.1049 22.5491 54.1049 22.5487 54.1049 22.5483C54.1049 22.5479 54.1049 22.5475 54.1049 22.5471C54.1049 22.5467 54.1049 22.5463 54.1049 22.5459C54.1049 22.5455 54.1049 22.5451 54.1049 22.5447C54.1049 22.5443 54.1049 22.5439 54.1049 22.5435C54.1049 22.5431 54.1049 22.5427 54.1049 22.5423C54.1049 22.5419 54.1049 22.5415 54.1049 22.5411C54.1049 22.5408 54.1049 22.5404 54.1049 22.54C54.1049 22.5396 54.1049 22.5392 54.1049 22.5388C54.1049 22.5384 54.1049 22.538 54.1049 22.5376C54.1049 22.5372 54.1049 22.5368 54.1049 22.5364C54.1049 22.536 54.1049 22.5356 54.1049 22.5352C54.1049 22.5348 54.1049 22.5345 54.1049 22.5341C54.1049 22.5337 54.1049 22.5333 54.1049 22.5329C54.1049 22.5325 54.1049 22.5321 54.1049 22.5317C54.1049 22.5313 54.1049 22.5309 54.1049 22.5305C54.1049 22.5301 54.1049 22.5298 54.1049 22.5294C54.1049 22.529 54.1049 22.5286 54.1049 22.5282C54.1049 22.5278 54.1049 22.5274 54.1049 22.527C54.1049 22.5266 54.1049 22.5263 54.1049 22.5259C54.1049 22.5255 54.1049 22.5251 54.1049 22.5247C54.1049 22.5243 54.1049 22.5239 54.1049 22.5235C54.1049 22.5231 54.1049 22.5228 54.1049 22.5224C54.1049 22.522 54.1049 22.5216 54.1049 22.5212C54.1049 22.5208 54.1049 22.5204 54.1049 22.5201C54.1049 22.5197 54.1049 22.5193 54.1049 22.5189C54.1049 22.5185 54.1049 22.5181 54.1049 22.5177C54.1049 22.5174 54.1049 22.517 54.1049 22.5166C54.1049 22.5162 54.1049 22.5158 54.1049 22.5154C54.1049 22.5151 54.1049 22.5147 54.1049 22.5143C54.1049 22.5139 54.1049 22.5135 54.1049 22.5131C54.1049 22.5128 54.1049 22.5124 54.1049 22.512C54.1049 22.5116 54.1049 22.5112 54.1049 22.5109C54.1049 22.5105 54.1049 22.5101 54.1049 22.5097C54.1049 22.5093 54.1049 22.509 54.1049 22.5086C54.1049 22.5082 54.1049 22.5078 54.1049 22.5074C54.1049 22.5071 54.1049 22.5067 54.1049 22.5063C54.1049 22.5059 54.1049 22.5055 54.1049 22.5052C54.1049 22.5048 54.1049 22.5044 54.1049 22.504C54.1049 22.5036 54.1049 22.5033 54.1049 22.5029C54.1049 22.5025 54.1049 22.5021 54.1049 22.5018C54.1049 22.5014 54.1049 22.501 54.1049 22.5006C54.1049 22.5003 54.1049 22.4999 54.1049 22.4995C54.1049 22.4991 54.1049 22.4988 54.1049 22.4984C54.1049 22.498 54.1049 22.4976 54.1049 22.4972C54.1049 22.4969 54.1049 22.4965 54.1049 22.4961C54.1049 22.4958 54.1049 22.4954 54.1049 22.495C54.1049 22.4946 54.1049 22.4943 54.1049 22.4939C54.1049 22.4935 54.1049 22.4931 54.1049 22.4928C54.1049 22.4924 54.1049 22.492 54.1049 22.4917C54.1049 22.4913 54.1049 22.4909 54.1049 22.4905C54.1049 22.4902 54.1049 22.4898 54.1049 22.4894C54.1049 22.4891 54.1049 22.4887 54.1049 22.4883C54.1049 22.4879 54.1049 22.4876 54.1049 22.4872C54.1049 22.4868 54.1049 22.4865 54.1049 22.4861C54.1049 22.4857 54.1049 22.4854 54.1049 22.485C54.1049 22.4846 54.1049 22.4842 54.1049 22.4839C54.1049 22.4835 54.1049 22.4831 54.1049 22.4828C54.1049 22.4824 54.1049 22.482 54.1049 22.4817C54.1049 22.4813 54.1049 22.4809 54.1049 22.4806C54.1049 22.4802 54.1049 22.4798 54.1049 22.4795C54.1049 22.4791 54.1049 22.4787 54.1049 22.4784C54.1049 22.478 54.1049 22.4777 54.1049 22.4773C54.1049 22.4769 54.1049 22.4766 54.1049 22.4762C54.1049 22.4758 54.1049 22.4755 54.1049 22.4751C54.1049 22.4747 54.1049 22.4744 54.1049 22.474C54.1049 22.4736 54.1049 22.4733 54.1049 22.4729C54.1049 22.4726 54.1049 22.4722 54.1049 22.4718C54.1049 22.4715 54.1049 22.4711 54.1049 22.4708C54.1049 22.4704 54.1049 22.47 54.1049 22.4697C54.1049 22.4693 54.1049 22.4689 54.1049 22.4686C54.1049 22.4682 54.1049 22.4679 54.1049 22.4675C54.1049 22.4671 54.1049 22.4668 54.1049 22.4664C54.1049 22.4661 54.1049 22.4657 54.1049 22.4653C54.1049 22.465 54.1049 22.4646 54.1049 22.4643C54.1049 22.4639 54.1049 22.4636 54.1049 22.4632C54.1049 22.4628 54.1049 22.4625 54.1049 22.4621C54.1049 22.4618 54.1049 22.4614 54.1049 22.4611C54.1049 22.4607 54.1049 22.4603 54.1049 22.46C54.1049 22.4596 54.1049 22.4593 54.1049 22.4589C54.1049 22.4586 54.1049 22.4582 54.1049 22.4579C54.1049 22.4575 54.1049 22.4571 54.1049 22.4568C54.1049 22.4564 54.1049 22.4561 54.1049 22.4557C54.1049 22.4554 54.1049 22.455 54.1049 22.4547C54.1049 22.4543 54.1049 22.454 54.1049 22.4536C54.1049 22.4533 54.1049 22.4529 54.1049 22.4526C54.1049 22.4522 54.1049 22.4519 54.1049 22.4515C54.1049 22.4511 54.1049 22.4508 54.1049 22.4504C54.1049 22.4501 54.1049 22.4497 54.1049 22.4494C54.1049 22.449 54.1049 22.4487 54.1049 22.4483C54.1049 22.448 54.1049 22.4476 54.1049 22.4473C54.1049 22.4469 54.1049 22.4466 54.1049 22.4462C54.1049 22.4459 54.1049 22.4455 54.1049 22.4452C54.1049 22.4449 54.1049 22.4445 54.1049 22.4442C54.1049 22.4438 54.1049 22.4435 54.1049 22.4431C54.1049 22.4428 54.1049 22.4424 54.1049 22.4421C54.1049 22.4417 54.1049 22.4414 54.1049 22.441C54.1049 22.4407 54.1049 22.4403 54.1049 22.44C54.1049 22.4397 54.1049 22.4393 54.1049 22.439C54.1049 22.4386 54.1049 22.4383 54.1049 22.4379C54.1049 22.4376 54.1049 22.4372 54.1049 22.4369C54.1049 22.4366 54.1049 22.4362 54.1049 22.4359C54.1049 22.4355 54.1049 22.4352 54.1049 22.4348C54.1049 22.4345 54.1049 22.4342 54.1049 22.4338C54.1049 22.4335 54.1049 22.4331 54.1049 22.4328C54.1049 22.4324 54.1049 22.4321 54.1049 22.4318C54.1049 22.4314 54.1049 22.4311 54.1049 22.4307C54.1049 22.4304 54.1049 22.4301 54.1049 22.4297C54.1049 22.4294 54.1049 22.429 54.1049 22.4287C54.1049 22.4284 54.1049 22.428 54.1049 22.4277C54.1049 22.4273 54.1049 22.427 54.1049 22.4267C54.1049 22.4263 54.1049 22.426 54.1049 22.4256C54.1049 22.4253 54.1049 22.425 54.1049 22.4246C54.1049 22.4243 54.1049 22.424 54.1049 22.4236C54.1049 22.4233 54.1049 22.423 54.1049 22.4226C54.1049 22.4223 54.1049 22.4219 54.1049 22.4216C54.1049 22.4213 54.1049 22.4209 54.1049 22.4206C54.1049 22.4203 54.1049 22.4199 54.1049 22.4196C54.1049 22.4193 54.1049 22.4189 54.1049 22.4186C54.1049 22.4183 54.1049 22.4179 54.1049 22.4176C54.1049 22.4173 54.1049 22.4169 54.1049 22.4166C54.1049 22.4163 54.1049 22.4159 54.1049 22.4156C54.1049 22.4153 54.1049 22.4149 54.1049 22.4146C54.1049 22.4143 54.1049 22.4139 54.1049 22.4136C54.1049 22.4133 54.1049 22.4129 54.1049 22.4126C54.1049 22.4123 54.1049 22.412 54.1049 22.4116C54.1049 22.4113 54.1049 22.411 54.1049 22.4106C54.1049 22.4103 54.1049 22.41 54.1049 22.4096C54.1049 22.4093 54.1049 22.409 54.1049 22.4087C54.1049 22.4083 54.1049 22.408 54.1049 22.4077C54.1049 22.4073 54.1049 22.407 54.1049 22.4067C54.1049 22.4064 54.1049 22.406 54.1049 22.4057C54.1049 22.4054 54.1049 22.4051 54.1049 22.4047C54.1049 22.4044 54.1049 22.4041 54.1049 22.4037C54.1049 22.4034 54.1049 22.4031 54.1049 22.4028C54.1049 22.4024 54.1049 22.4021 54.1049 22.4018C54.1049 22.4015 54.1049 22.4011 54.1049 22.4008C54.1049 22.4005 54.1049 22.4002 54.1049 22.3999C54.1049 22.3995 54.1049 22.3992 54.1049 22.3989C54.1049 22.3986 54.1049 22.3982 54.1049 22.3979C54.1049 22.3976 54.1049 22.3973 54.1049 22.3969C54.1049 22.3966 54.1049 22.3963 54.1049 22.396C54.1049 22.3957 54.1049 22.3953 54.1049 22.395C54.1049 22.3947 54.1049 22.3944 54.1049 22.3941C54.1049 22.3937 54.1049 22.3934 54.1049 22.3931C54.1049 22.3928 54.1049 22.3925 54.1049 22.3921C54.1049 22.3918 54.1049 22.3915 54.1049 22.3912C54.1049 22.3909 54.1049 22.3905 54.1049 22.3902C54.1049 22.3899 54.1049 22.3896 54.1049 22.3893C54.1049 22.389 54.1049 22.3886 54.1049 22.3883C54.1049 22.388 54.1049 22.3877 54.1049 22.3874C54.1049 22.3871 54.1049 22.3867 54.1049 22.3864C54.1049 22.3861 54.1049 22.3858 54.1049 22.3855C54.1049 22.3852 54.1049 22.3848 54.1049 22.3845C54.1049 22.3842 54.1049 22.3839 54.1049 22.3836C54.1049 22.3833 54.1049 22.383 54.1049 22.3826C54.1049 22.3823 54.1049 22.382 54.1049 22.3817C54.1049 22.3814 54.1049 22.3811 54.1049 22.3808C54.1049 22.3805 54.1049 22.3801 54.1049 22.3798C54.1049 22.3795 54.1049 22.3792 54.1049 22.3789C54.1049 22.3786 54.1049 22.3783 54.1049 22.378C54.1049 22.3777 54.1049 22.3773 54.1049 22.377C54.1049 22.3767 54.1049 22.3764 54.1049 22.3761C54.1049 22.3758 54.1049 22.3755 54.1049 22.3752C54.1049 22.3749 54.1049 22.3746 54.1049 22.3742C54.1049 22.3739 54.1049 22.3736 54.1049 22.3733C54.1049 22.373 54.1049 22.3727 54.1049 22.3724C54.1049 22.3721 54.1049 22.3718 54.1049 22.3715C54.1049 22.3712 54.1049 22.3709 54.1049 22.3706C54.1049 22.3702 54.1049 22.3699 54.1049 22.3696C54.1049 22.3693 54.1049 22.369 54.1049 22.3687C54.1049 22.3684 54.1049 22.3681 54.1049 22.3678C54.1049 22.3675 54.1049 22.3672 54.1049 22.3669C54.1049 22.3666 54.1049 22.3663 54.1049 22.366C54.1049 22.3657 54.1049 22.3654 54.1049 22.3651C54.1049 22.3648 54.1049 22.3645 54.1049 22.3642C54.1049 22.3639 54.1049 22.3636 54.1049 22.3633C54.1049 22.3629 54.1049 22.3626 54.1049 22.3623C54.1049 22.362 54.1049 22.3617 54.1049 22.3614C54.1049 22.3611 54.1049 22.3608 54.1049 22.3605C54.1049 22.3602 54.1049 22.3599 54.1049 22.3596C54.1049 22.3593 54.1049 22.359 54.1049 22.3587C54.1049 22.3584 54.1049 22.3581 54.1049 22.3578C54.1049 22.3575 54.1049 22.3572 54.1049 22.3569C54.1049 22.3566 54.1049 22.3564 54.1049 22.3561C54.1049 22.3558 54.1049 22.3555 54.1049 22.3552C54.1049 22.3549 54.1049 22.3546 54.1049 22.3543C54.1049 22.354 54.1049 22.3537 54.1049 22.3534C54.1049 22.3531 54.1049 22.3528 54.1049 22.3525C54.1049 22.3522 54.1049 22.3519 54.1049 22.3516C54.1049 22.3513 54.1049 22.351 54.1049 22.3507C54.1049 22.3504 54.1049 22.3501 54.1049 22.3498C54.1049 22.3495 54.1049 22.3493 54.1049 22.349C54.1049 22.3487 54.1049 22.3484 54.1049 22.3481C54.1049 22.3478 54.1049 22.3475 54.1049 22.3472C54.1049 22.3469 54.1049 22.3466 54.1049 22.3463C54.1049 22.346 54.1049 22.3457 54.1049 22.3455C54.1049 22.3452 54.1049 22.3449 54.1049 22.3446C54.1049 22.3443 54.1049 22.344 54.1049 22.3437C54.1049 22.3434 54.1049 22.3431 54.1049 22.3428C54.1049 22.3426 54.1049 22.3423 54.1049 22.342C54.1049 22.3417 54.1049 22.3414 54.1049 22.3411C54.1049 22.3408 54.1049 22.3405 54.1049 22.3402C54.1049 22.34 54.1049 22.3397 54.1049 22.3394C54.1049 22.3391 54.1049 22.3388 54.1049 22.3385C54.1049 22.3382 54.1049 22.3379 54.1049 22.3377C54.1049 22.3374 54.1049 22.3371 54.1049 22.3368C54.1049 22.3365 54.1049 22.3362 54.1049 22.3359C54.1049 22.3357 54.1049 22.3354 54.1049 22.3351C54.1049 22.3348 54.1049 22.3345 54.1049 22.3342C54.1049 22.334 54.1049 22.3337 54.1049 22.3334C54.1049 22.3331 54.1049 22.3328 54.1049 22.3325C54.1049 22.3323 54.1049 22.332 54.1049 22.3317C54.1049 22.3314 54.1049 22.3311 54.1049 22.3308C54.1049 22.3306 54.1049 22.3303 54.1049 22.33C54.1049 22.3297 54.1049 22.3294 54.1049 22.3292C54.1049 22.3289 54.1049 22.3286 54.1049 22.3283C54.1049 22.328 54.1049 22.3278 54.1049 22.3275C54.1049 22.3272 54.1049 22.3269 54.1049 22.3266C54.1049 22.3264 54.1049 22.3261 54.1049 22.3258C54.1049 22.3255 54.1049 22.3252 54.1049 22.325C54.1049 22.3247 54.1049 22.3244 54.1049 22.3241C54.1049 22.3239 54.1049 22.3236 54.1049 22.3233C54.1049 22.323 54.1049 22.3227 54.1049 22.3225C54.1049 22.3222 54.1049 22.3219 54.1049 22.3216C54.1049 22.3214 54.1049 22.3211 54.1049 22.3208C54.1049 22.3205 54.1049 22.3203 54.1049 22.32C54.1049 22.3197 54.1049 22.3194 54.1049 22.3192C54.1049 22.3189 54.1049 22.3186 54.1049 22.3183C54.1049 22.3181 54.1049 22.3178 54.1049 22.3175C54.1049 22.3173 54.1049 22.317 54.1049 22.3167C54.1049 22.3164 54.1049 22.3162 54.1049 22.3159C54.1049 22.3156 54.1049 22.3154 54.1049 22.3151C54.1049 22.3148 54.1049 22.3145 54.1049 22.3143C54.1049 22.314 54.1049 22.3137 54.1049 22.3135C54.1049 22.3132 54.1049 22.3129 54.1049 22.3126C54.1049 22.3124 54.1049 22.3121 54.1049 22.3118C54.1049 22.3116 54.1049 22.3113 54.1049 22.311C54.1049 22.3108 54.1049 22.3105 54.1049 22.3102C54.1049 22.31 54.1049 22.3097 54.1049 22.3094C54.1049 22.3092 54.1049 22.3089 54.1049 22.3086C54.1049 22.3084 54.1049 22.3081 54.1049 22.3078C54.1049 22.3076 54.1049 22.3073 54.1049 22.307C54.1049 22.3068 54.1049 22.3065 54.1049 22.3062C54.1049 22.306 54.1049 22.3057 54.1049 22.3054C54.1049 22.3052 54.1049 22.3049 54.1049 22.3046C54.1049 22.3044 54.1049 22.3041 54.1049 22.3038C54.1049 22.3036 54.1049 22.3033 54.1049 22.3031C54.1049 22.3028 54.1049 22.3025 54.1049 22.3023C54.1049 22.302 54.1049 22.3017 54.1049 22.3015C54.1049 22.3012 54.1049 22.301 54.1049 22.3007C54.1049 22.3004 54.1049 22.3002 54.1049 22.2999C54.1049 22.2996 54.1049 22.2994 54.1049 22.2991C54.1049 22.2989 54.1049 22.2986 54.1049 22.2983C54.1049 22.2981 54.1049 22.2978 54.1049 22.2976C54.1049 22.2973 54.1049 22.2971 54.1049 22.2968C54.1049 22.2965 54.1049 22.2963 54.1049 22.296C54.1049 22.2958 54.1049 22.2955 54.1049 22.2952C54.1049 22.295 54.1049 22.2947 54.1049 22.2945C54.1049 22.2942 54.1049 22.294 54.1049 22.2937C54.1049 22.2934 54.1049 22.2932 54.1049 22.2929C54.1049 22.2927 54.1049 22.2924 54.1049 22.2922C54.1049 22.2919 54.1049 22.2917 54.1049 22.2914C54.1049 22.2911 54.1049 22.2909 54.1049 22.2906C54.1049 22.2904 54.1049 22.2901 54.1049 22.2899C54.1049 22.2896 54.1049 22.2894 54.1049 22.2891C54.1049 22.2889 54.1049 22.2886 54.1049 22.2884C54.1049 22.2881 54.1049 22.2878 54.1049 22.2876C54.1049 22.2873 54.1049 22.2871 54.1049 22.2868C54.1049 22.2866 54.1049 22.2863 54.1049 22.2861C54.1049 22.2858 54.1049 22.2856 54.1049 22.2853C54.1049 22.2851 54.1049 22.2848 54.1049 22.2846C54.1049 22.2843 54.1049 22.2841 54.1049 22.2838C54.1049 22.2836 54.1049 22.2833 54.1049 22.2831C54.1049 22.2828 54.1049 22.2826 54.1049 22.2823C54.1049 22.2821 54.1049 22.2818 54.1049 22.2816C54.1049 22.2813 54.1049 22.2811 54.1049 22.2809C54.1049 22.2806 54.1049 22.2804 54.1049 22.2801C54.1049 22.2799 54.1049 22.2796 54.1049 22.2794C54.1049 22.2791 54.1049 22.2789 54.1049 22.2786C54.1049 22.2784 54.1049 22.2781 54.1049 22.2779C54.1049 22.2777 54.1049 22.2774 54.1049 22.2772C54.1049 22.2769 54.1049 22.2767 54.1049 22.2764C54.1049 22.2762 54.1049 22.2759 54.1049 22.2757C54.1049 22.2755 54.1049 22.2752 54.1049 22.275C54.1049 22.2747 54.1049 22.2745 54.1049 22.2742C54.1049 22.274 54.1049 22.2738 54.1049 22.2735C54.1049 22.2733 54.1049 22.273 54.1049 22.2728C54.1049 22.2726 54.1049 22.2723 54.1049 22.2721C54.1049 22.2718 54.1049 22.2716 54.1049 22.2714C54.1049 22.2711 54.1049 22.2709 54.1049 22.2706C54.1049 22.2704 54.1049 22.2702 54.1049 22.2699C54.1049 22.2697 54.1049 22.2694 54.1049 22.2692C54.1049 22.269 54.1049 22.2687 54.1049 22.2685C54.1049 22.2682 54.1049 22.268 54.1049 22.2678C54.1049 22.2675 54.1049 22.2673 54.1049 22.2671C54.1049 22.2668 54.1049 22.2666 54.1049 22.2664C54.1049 22.2661 54.1049 22.2659 54.1049 22.2656C54.1049 22.2654 54.1049 22.2652 54.1049 22.2649C54.1049 22.2647 54.1049 22.2645 54.1049 22.2642C54.1049 22.264 54.1049 22.2638 54.1049 22.2635C54.1049 22.2633 54.1049 22.2631 54.1049 22.2628C54.1049 22.2626 54.1049 22.2624 54.1049 22.2621C54.1049 22.2619 54.1049 22.2617 54.1049 22.2614C54.1049 22.2612 54.1049 22.261 54.1049 22.2607C54.1049 22.2605 54.1049 22.2603 54.1049 22.26C54.1049 22.2598 54.1049 22.2596 54.1049 22.2593C54.1049 22.2591 54.1049 22.2589 54.1049 22.2587C54.1049 22.2584 54.1049 22.2582 54.1049 22.258C54.1049 22.2577 54.1049 22.2575 54.1049 22.2573C54.1049 22.2571 54.1049 22.2568 54.1049 22.2566C54.1049 22.2564 54.1049 22.2561 54.1049 22.2559C54.1049 22.2557 54.1049 22.2555 54.1049 22.2552C54.1049 22.255 54.1049 22.2548 54.1049 22.2545C54.1049 22.2543 54.1049 22.2541 54.1049 22.2539C54.1049 22.2536 54.1049 22.2534 54.1049 22.2532C54.1049 22.253 54.1049 22.2527 54.1049 22.2525C54.1049 22.2523 54.1049 22.2521 54.1049 22.2518C54.1049 22.2516 54.1049 22.2514 54.1049 22.2512C54.1049 22.2509 54.1049 22.2507 54.1049 22.2505C54.1049 22.2503 54.1049 22.25 54.1049 22.2498C54.1049 22.2496 54.1049 22.2494 54.1049 22.2492C54.1049 22.2489 54.1049 22.2487 54.1049 22.2485C54.1049 22.2483 54.1049 22.248 54.1049 22.2478C54.1049 22.2476 54.1049 22.2474 54.1049 22.2472C54.1049 22.2469 54.1049 22.2467 54.1049 22.2465C54.1049 22.2463 54.1049 22.2461 54.1049 22.2458C54.1049 22.2456 54.1049 22.2454 54.1049 22.2452C54.1049 22.245 54.1049 22.2447 54.1049 22.2445C54.1049 22.2443 54.1049 22.2441 54.1049 22.2439C54.1049 22.2436 54.1049 22.2434 54.1049 22.2432C54.1049 22.243 54.1049 22.2428 54.1049 22.2426C54.1049 22.2423 54.1049 22.2421 54.1049 22.2419C54.1049 22.2417 54.1049 22.2415 54.1049 22.2413C54.1049 22.241 54.1049 22.2408 54.1049 22.2406C54.1049 22.2404 54.1049 22.2402 54.1049 22.24C54.1049 22.2398 54.1049 22.2395 54.1049 22.2393C54.1049 22.2391 54.1049 22.2389 54.1049 22.2387C54.1049 22.2385 54.1049 22.2383 54.1049 22.238C54.1049 22.2378 54.1049 22.2376 54.1049 22.2374C54.1049 22.2372 54.1049 22.237 54.1049 22.2368C54.1049 22.2366 54.1049 22.2363 54.1049 22.2361C54.1049 22.2359 54.1049 22.2357 54.1049 22.2355C54.1049 22.2353 54.1049 22.2351 54.1049 22.2349C54.1049 22.2347 54.1049 22.2344 54.1049 22.2342C54.1049 22.234 54.1049 22.2338 54.1049 22.2336C54.1049 22.2334 54.1049 22.2332 54.1049 22.233C54.1049 22.2328 54.1049 22.2326 54.1049 22.2324C54.1049 22.2321 54.1049 22.2319 54.1049 22.2317C54.1049 22.2315 54.1049 22.2313 54.1049 22.2311C54.1049 22.2309 54.1049 22.2307 54.1049 22.2305C54.1049 22.2303 54.1049 22.2301 54.1049 22.2299C54.1049 22.2297 54.1049 22.2295 54.1049 22.2293C54.1049 22.229 54.1049 22.2288 54.1049 22.2286C54.1049 22.2284 54.1049 22.2282 54.1049 22.228C54.1049 22.2278 54.1049 22.2276 54.1049 22.2274C54.1049 22.2272 54.1049 22.227 54.1049 22.2268C54.1049 22.2266 54.1049 22.2264 54.1049 22.2262C54.1049 22.226 54.1049 22.2258 54.1049 22.2256C54.1049 22.2254 54.1049 22.2252 54.1049 22.225C54.1049 22.2248 54.1049 22.2246 54.1049 22.2244C54.1049 22.2242 54.1049 22.224 54.1049 22.2238C54.1049 22.2236 54.1049 22.2234 54.1049 22.2232C54.1049 22.223 54.1049 22.2228 54.1049 22.2226C54.1049 22.2224 54.1049 22.2222 54.1049 22.222C54.1049 22.2218 54.1049 22.2216 54.1049 22.2214C54.1049 22.2212 54.1049 22.221 54.1049 22.2208C54.1049 22.2206 54.1049 22.2204 54.1049 22.2202C54.1049 22.22 54.1049 22.2198 54.1049 22.2196C54.1049 22.2194 54.1049 22.2192 54.1049 22.219C54.1049 22.2188 54.1049 22.2186 54.1049 22.2184C54.1049 22.2182 54.1049 22.218 54.1049 22.2178C54.1049 22.2176 54.1049 22.2175 54.1049 22.2173C54.1049 22.2171 54.1049 22.2169 54.1049 22.2167C54.1049 22.2165 54.1049 22.2163 54.1049 22.2161C54.1049 22.2159 54.1049 22.2157 54.1049 22.2155C54.1049 22.2153 54.1049 22.2151 54.1049 22.2149C54.1049 22.2147 54.1049 22.2146 54.1049 22.2144C54.1049 22.2142 54.1049 22.214 54.1049 22.2138C54.1049 22.2136 54.1049 22.2134 54.1049 22.2132C54.1049 22.213 54.1049 22.2128 54.1049 22.2126C54.1049 22.2125 54.1049 22.2123 54.1049 22.2121C54.1049 22.2119 54.1049 22.2117 54.1049 22.2115C54.1049 22.2113 54.1049 22.2111 54.1049 22.2109C54.1049 22.2108 54.1049 22.2106 54.1049 22.2104C54.1049 22.2102 54.1049 22.21 54.1049 22.2098C54.1049 22.2096 54.1049 22.2094 54.1049 22.2093C54.1049 22.2091 54.1049 22.2089 54.1049 22.2087C54.1049 22.2085 54.1049 22.2083 54.1049 22.2081C54.1049 22.2079 54.1049 22.2078 54.1049 22.2076C54.1049 22.2074 54.1049 22.2072 54.1049 22.207C54.1049 22.2068 54.1049 22.2067 54.1049 22.2065C54.1049 22.2063 54.1049 22.2061 54.1049 22.2059C54.1049 22.2057 54.1049 22.2056 54.1049 22.2054C54.1049 22.2052 54.1049 22.205 54.1049 22.2048C54.1049 22.2046 54.1049 22.2045 54.1049 22.2043C54.1049 22.2041 54.1049 22.2039 54.1049 22.2037C54.1049 22.2036 54.1049 22.2034 54.1049 22.2032C54.1049 22.203 54.1049 22.2028 54.1049 22.2026C54.1049 22.2025 54.1049 22.2023 54.1049 22.2021C54.1049 22.2019 54.1049 22.2017 54.1049 22.2016C54.1049 22.2014 54.1049 22.2012 54.1049 22.201C54.1049 22.2009 54.1049 22.2007 54.1049 22.2005C54.1049 22.2003 54.1049 22.2001 54.1049 22.2C54.1049 22.1998 54.1049 22.1996 54.1049 22.1994C54.1049 22.1993 54.1049 22.1991 54.1049 22.1989C54.1049 22.1987 54.1049 22.1986 54.1049 22.1984C54.1049 22.1982 54.1049 22.198 54.1049 22.1978C54.1049 22.1977 54.1049 22.1975 54.1049 22.1973C54.1049 22.1971 54.1049 22.197 54.1049 22.1968C54.1049 22.1966 54.1049 22.1965 54.1049 22.1963C54.1049 22.1961 54.1049 22.1959 54.1049 22.1958C54.1049 22.1956 54.1049 22.1954 54.1049 22.1952C54.1049 22.1951 54.1049 22.1949 54.1049 22.1947C54.1049 22.1946 54.1049 22.1944 54.1049 22.1942C54.1049 22.194 54.1049 22.1939 54.1049 22.1937C54.1049 22.1935 54.1049 22.1934 54.1049 22.1932C54.1049 22.193 54.1049 22.1928 54.1049 22.1927C54.1049 22.1925 54.1049 22.1923 54.1049 22.1922C54.1049 22.192 54.1049 22.1918 54.1049 22.1917C54.1049 22.1915 54.1049 22.1913 54.1049 22.1912C54.1049 22.191 54.1049 22.1908 54.1049 22.1907C54.1049 22.1905 54.1049 22.1903 54.1049 22.1901C54.1049 22.19 54.1049 22.1898 54.1049 22.1896C54.1049 22.1895 54.1049 22.1893 54.1049 22.1891C54.1049 22.189 54.1049 22.1888 54.1049 22.1887C54.1049 22.1885 54.1049 22.1883 54.1049 22.1882C54.1049 22.188 54.1049 22.1878 54.1049 22.1877C54.1049 22.1875 54.1049 22.1873 54.1049 22.1872C54.1049 22.187 54.1049 22.1868 54.1049 22.1867C54.1049 22.1865 54.1049 22.1864 54.1049 22.1862C54.1049 22.186 54.1049 22.1859 54.1049 22.1857C54.1049 22.1855 54.1049 22.1854 54.1049 22.1852C54.1049 22.1851 54.1049 22.1849 54.1049 22.1847C54.1049 22.1846 54.1049 22.1844 54.1049 22.1843C54.1049 22.1841 54.1049 22.1839 54.1049 22.1838C54.1049 22.1836 54.1049 22.1835 54.1049 22.1833C54.1049 22.1831 54.1049 22.183 54.1049 22.1828C54.1049 22.1827 54.1049 22.1825 54.1049 22.1823C54.1049 22.1822 54.1049 22.182 54.1049 22.1819C54.1049 22.1817 54.1049 22.1816 54.1049 22.1814C54.1049 22.1812 54.1049 22.1811 54.1049 22.1809C54.1049 22.1808 54.1049 22.1806 54.1049 22.1805C54.1049 22.1803 54.1049 22.1801 54.1049 22.18C54.1049 22.1798 54.1049 22.1797 54.1049 22.1795C54.1049 22.1794 54.1049 22.1792 54.1049 22.1791C54.1049 22.1789 54.1049 22.1788 54.1049 22.1786C54.1049 22.1784 54.1049 22.1783 54.1049 22.1781C54.1049 22.178 54.1049 22.1778 54.1049 22.1777C54.1049 22.1775 54.1049 22.1774 54.1049 22.1772C54.1049 22.1771 54.1049 22.1769 54.1049 22.1768C54.1049 22.1766 54.1049 22.1765 54.1049 22.1763C54.1049 22.1762 54.1049 22.176 54.1049 22.1759C54.1049 22.1757 54.1049 22.1756 54.1049 22.1754C54.1049 22.1753 54.1049 22.1751 54.1049 22.175C54.1049 22.1748 54.1049 22.1747 54.1049 22.1745C54.1049 22.1744 54.1049 22.1742 54.1049 22.1741C54.1049 22.1739 54.1049 22.1738 54.1049 22.1736C54.1049 22.1735 54.1049 22.1733 54.1049 22.1732C54.1049 22.173 54.1049 22.1729 54.1049 22.1727C54.1049 22.1726 54.1049 22.1724 54.1049 22.1723C54.1049 22.1722 54.1049 22.172 54.1049 22.1719C54.1049 22.1717 54.1049 22.1716 54.1049 22.1714C54.1049 22.1713 54.1049 22.1711 54.1049 22.171C54.1049 22.1708 54.1049 22.1707 54.1049 22.1706C54.1049 22.1704 54.1049 22.1703 54.1049 22.1701C54.1049 22.17 54.1049 22.1698 54.1049 22.1697C54.1049 22.1696 54.1049 22.1694 54.1049 22.1693C54.1049 22.1691 54.1049 22.169 54.1049 22.1688C54.1049 22.1687 54.1049 22.1686 54.1049 22.1684C54.1049 22.1683 54.1049 22.1681 54.1049 22.168H52.1049C52.1049 22.1681 52.1049 22.1683 52.1049 22.1684C52.1049 22.1686 52.1049 22.1687 52.1049 22.1688C52.1049 22.169 52.1049 22.1691 52.1049 22.1693C52.1049 22.1694 52.1049 22.1696 52.1049 22.1697C52.1049 22.1698 52.1049 22.17 52.1049 22.1701C52.1049 22.1703 52.1049 22.1704 52.1049 22.1706C52.1049 22.1707 52.1049 22.1708 52.1049 22.171C52.1049 22.1711 52.1049 22.1713 52.1049 22.1714C52.1049 22.1716 52.1049 22.1717 52.1049 22.1719C52.1049 22.172 52.1049 22.1722 52.1049 22.1723C52.1049 22.1724 52.1049 22.1726 52.1049 22.1727C52.1049 22.1729 52.1049 22.173 52.1049 22.1732C52.1049 22.1733 52.1049 22.1735 52.1049 22.1736C52.1049 22.1738 52.1049 22.1739 52.1049 22.1741C52.1049 22.1742 52.1049 22.1744 52.1049 22.1745C52.1049 22.1747 52.1049 22.1748 52.1049 22.175C52.1049 22.1751 52.1049 22.1753 52.1049 22.1754C52.1049 22.1756 52.1049 22.1757 52.1049 22.1759C52.1049 22.176 52.1049 22.1762 52.1049 22.1763C52.1049 22.1765 52.1049 22.1766 52.1049 22.1768C52.1049 22.1769 52.1049 22.1771 52.1049 22.1772C52.1049 22.1774 52.1049 22.1775 52.1049 22.1777C52.1049 22.1778 52.1049 22.178 52.1049 22.1781C52.1049 22.1783 52.1049 22.1784 52.1049 22.1786C52.1049 22.1788 52.1049 22.1789 52.1049 22.1791C52.1049 22.1792 52.1049 22.1794 52.1049 22.1795C52.1049 22.1797 52.1049 22.1798 52.1049 22.18C52.1049 22.1801 52.1049 22.1803 52.1049 22.1805C52.1049 22.1806 52.1049 22.1808 52.1049 22.1809C52.1049 22.1811 52.1049 22.1812 52.1049 22.1814C52.1049 22.1816 52.1049 22.1817 52.1049 22.1819C52.1049 22.182 52.1049 22.1822 52.1049 22.1823C52.1049 22.1825 52.1049 22.1827 52.1049 22.1828C52.1049 22.183 52.1049 22.1831 52.1049 22.1833C52.1049 22.1835 52.1049 22.1836 52.1049 22.1838C52.1049 22.1839 52.1049 22.1841 52.1049 22.1843C52.1049 22.1844 52.1049 22.1846 52.1049 22.1847C52.1049 22.1849 52.1049 22.1851 52.1049 22.1852C52.1049 22.1854 52.1049 22.1855 52.1049 22.1857C52.1049 22.1859 52.1049 22.186 52.1049 22.1862C52.1049 22.1864 52.1049 22.1865 52.1049 22.1867C52.1049 22.1868 52.1049 22.187 52.1049 22.1872C52.1049 22.1873 52.1049 22.1875 52.1049 22.1877C52.1049 22.1878 52.1049 22.188 52.1049 22.1882C52.1049 22.1883 52.1049 22.1885 52.1049 22.1887C52.1049 22.1888 52.1049 22.189 52.1049 22.1891C52.1049 22.1893 52.1049 22.1895 52.1049 22.1896C52.1049 22.1898 52.1049 22.19 52.1049 22.1901C52.1049 22.1903 52.1049 22.1905 52.1049 22.1907C52.1049 22.1908 52.1049 22.191 52.1049 22.1912C52.1049 22.1913 52.1049 22.1915 52.1049 22.1917C52.1049 22.1918 52.1049 22.192 52.1049 22.1922C52.1049 22.1923 52.1049 22.1925 52.1049 22.1927C52.1049 22.1928 52.1049 22.193 52.1049 22.1932C52.1049 22.1934 52.1049 22.1935 52.1049 22.1937C52.1049 22.1939 52.1049 22.194 52.1049 22.1942C52.1049 22.1944 52.1049 22.1946 52.1049 22.1947C52.1049 22.1949 52.1049 22.1951 52.1049 22.1952C52.1049 22.1954 52.1049 22.1956 52.1049 22.1958C52.1049 22.1959 52.1049 22.1961 52.1049 22.1963C52.1049 22.1965 52.1049 22.1966 52.1049 22.1968C52.1049 22.197 52.1049 22.1971 52.1049 22.1973C52.1049 22.1975 52.1049 22.1977 52.1049 22.1978C52.1049 22.198 52.1049 22.1982 52.1049 22.1984C52.1049 22.1986 52.1049 22.1987 52.1049 22.1989C52.1049 22.1991 52.1049 22.1993 52.1049 22.1994C52.1049 22.1996 52.1049 22.1998 52.1049 22.2C52.1049 22.2001 52.1049 22.2003 52.1049 22.2005C52.1049 22.2007 52.1049 22.2009 52.1049 22.201C52.1049 22.2012 52.1049 22.2014 52.1049 22.2016C52.1049 22.2017 52.1049 22.2019 52.1049 22.2021C52.1049 22.2023 52.1049 22.2025 52.1049 22.2026C52.1049 22.2028 52.1049 22.203 52.1049 22.2032C52.1049 22.2034 52.1049 22.2036 52.1049 22.2037C52.1049 22.2039 52.1049 22.2041 52.1049 22.2043C52.1049 22.2045 52.1049 22.2046 52.1049 22.2048C52.1049 22.205 52.1049 22.2052 52.1049 22.2054C52.1049 22.2056 52.1049 22.2057 52.1049 22.2059C52.1049 22.2061 52.1049 22.2063 52.1049 22.2065C52.1049 22.2067 52.1049 22.2068 52.1049 22.207C52.1049 22.2072 52.1049 22.2074 52.1049 22.2076C52.1049 22.2078 52.1049 22.2079 52.1049 22.2081C52.1049 22.2083 52.1049 22.2085 52.1049 22.2087C52.1049 22.2089 52.1049 22.2091 52.1049 22.2093C52.1049 22.2094 52.1049 22.2096 52.1049 22.2098C52.1049 22.21 52.1049 22.2102 52.1049 22.2104C52.1049 22.2106 52.1049 22.2108 52.1049 22.2109C52.1049 22.2111 52.1049 22.2113 52.1049 22.2115C52.1049 22.2117 52.1049 22.2119 52.1049 22.2121C52.1049 22.2123 52.1049 22.2125 52.1049 22.2126C52.1049 22.2128 52.1049 22.213 52.1049 22.2132C52.1049 22.2134 52.1049 22.2136 52.1049 22.2138C52.1049 22.214 52.1049 22.2142 52.1049 22.2144C52.1049 22.2146 52.1049 22.2147 52.1049 22.2149C52.1049 22.2151 52.1049 22.2153 52.1049 22.2155C52.1049 22.2157 52.1049 22.2159 52.1049 22.2161C52.1049 22.2163 52.1049 22.2165 52.1049 22.2167C52.1049 22.2169 52.1049 22.2171 52.1049 22.2173C52.1049 22.2175 52.1049 22.2176 52.1049 22.2178C52.1049 22.218 52.1049 22.2182 52.1049 22.2184C52.1049 22.2186 52.1049 22.2188 52.1049 22.219C52.1049 22.2192 52.1049 22.2194 52.1049 22.2196C52.1049 22.2198 52.1049 22.22 52.1049 22.2202C52.1049 22.2204 52.1049 22.2206 52.1049 22.2208C52.1049 22.221 52.1049 22.2212 52.1049 22.2214C52.1049 22.2216 52.1049 22.2218 52.1049 22.222C52.1049 22.2222 52.1049 22.2224 52.1049 22.2226C52.1049 22.2228 52.1049 22.223 52.1049 22.2232C52.1049 22.2234 52.1049 22.2236 52.1049 22.2238C52.1049 22.224 52.1049 22.2242 52.1049 22.2244C52.1049 22.2246 52.1049 22.2248 52.1049 22.225C52.1049 22.2252 52.1049 22.2254 52.1049 22.2256C52.1049 22.2258 52.1049 22.226 52.1049 22.2262C52.1049 22.2264 52.1049 22.2266 52.1049 22.2268C52.1049 22.227 52.1049 22.2272 52.1049 22.2274C52.1049 22.2276 52.1049 22.2278 52.1049 22.228C52.1049 22.2282 52.1049 22.2284 52.1049 22.2286C52.1049 22.2288 52.1049 22.229 52.1049 22.2293C52.1049 22.2295 52.1049 22.2297 52.1049 22.2299C52.1049 22.2301 52.1049 22.2303 52.1049 22.2305C52.1049 22.2307 52.1049 22.2309 52.1049 22.2311C52.1049 22.2313 52.1049 22.2315 52.1049 22.2317C52.1049 22.2319 52.1049 22.2321 52.1049 22.2324C52.1049 22.2326 52.1049 22.2328 52.1049 22.233C52.1049 22.2332 52.1049 22.2334 52.1049 22.2336C52.1049 22.2338 52.1049 22.234 52.1049 22.2342C52.1049 22.2344 52.1049 22.2347 52.1049 22.2349C52.1049 22.2351 52.1049 22.2353 52.1049 22.2355C52.1049 22.2357 52.1049 22.2359 52.1049 22.2361C52.1049 22.2363 52.1049 22.2366 52.1049 22.2368C52.1049 22.237 52.1049 22.2372 52.1049 22.2374C52.1049 22.2376 52.1049 22.2378 52.1049 22.238C52.1049 22.2383 52.1049 22.2385 52.1049 22.2387C52.1049 22.2389 52.1049 22.2391 52.1049 22.2393C52.1049 22.2395 52.1049 22.2398 52.1049 22.24C52.1049 22.2402 52.1049 22.2404 52.1049 22.2406C52.1049 22.2408 52.1049 22.241 52.1049 22.2413C52.1049 22.2415 52.1049 22.2417 52.1049 22.2419C52.1049 22.2421 52.1049 22.2423 52.1049 22.2426C52.1049 22.2428 52.1049 22.243 52.1049 22.2432C52.1049 22.2434 52.1049 22.2436 52.1049 22.2439C52.1049 22.2441 52.1049 22.2443 52.1049 22.2445C52.1049 22.2447 52.1049 22.245 52.1049 22.2452C52.1049 22.2454 52.1049 22.2456 52.1049 22.2458C52.1049 22.2461 52.1049 22.2463 52.1049 22.2465C52.1049 22.2467 52.1049 22.2469 52.1049 22.2472C52.1049 22.2474 52.1049 22.2476 52.1049 22.2478C52.1049 22.248 52.1049 22.2483 52.1049 22.2485C52.1049 22.2487 52.1049 22.2489 52.1049 22.2492C52.1049 22.2494 52.1049 22.2496 52.1049 22.2498C52.1049 22.25 52.1049 22.2503 52.1049 22.2505C52.1049 22.2507 52.1049 22.2509 52.1049 22.2512C52.1049 22.2514 52.1049 22.2516 52.1049 22.2518C52.1049 22.2521 52.1049 22.2523 52.1049 22.2525C52.1049 22.2527 52.1049 22.253 52.1049 22.2532C52.1049 22.2534 52.1049 22.2536 52.1049 22.2539C52.1049 22.2541 52.1049 22.2543 52.1049 22.2545C52.1049 22.2548 52.1049 22.255 52.1049 22.2552C52.1049 22.2555 52.1049 22.2557 52.1049 22.2559C52.1049 22.2561 52.1049 22.2564 52.1049 22.2566C52.1049 22.2568 52.1049 22.2571 52.1049 22.2573C52.1049 22.2575 52.1049 22.2577 52.1049 22.258C52.1049 22.2582 52.1049 22.2584 52.1049 22.2587C52.1049 22.2589 52.1049 22.2591 52.1049 22.2593C52.1049 22.2596 52.1049 22.2598 52.1049 22.26C52.1049 22.2603 52.1049 22.2605 52.1049 22.2607C52.1049 22.261 52.1049 22.2612 52.1049 22.2614C52.1049 22.2617 52.1049 22.2619 52.1049 22.2621C52.1049 22.2624 52.1049 22.2626 52.1049 22.2628C52.1049 22.2631 52.1049 22.2633 52.1049 22.2635C52.1049 22.2638 52.1049 22.264 52.1049 22.2642C52.1049 22.2645 52.1049 22.2647 52.1049 22.2649C52.1049 22.2652 52.1049 22.2654 52.1049 22.2656C52.1049 22.2659 52.1049 22.2661 52.1049 22.2664C52.1049 22.2666 52.1049 22.2668 52.1049 22.2671C52.1049 22.2673 52.1049 22.2675 52.1049 22.2678C52.1049 22.268 52.1049 22.2682 52.1049 22.2685C52.1049 22.2687 52.1049 22.269 52.1049 22.2692C52.1049 22.2694 52.1049 22.2697 52.1049 22.2699C52.1049 22.2702 52.1049 22.2704 52.1049 22.2706C52.1049 22.2709 52.1049 22.2711 52.1049 22.2714C52.1049 22.2716 52.1049 22.2718 52.1049 22.2721C52.1049 22.2723 52.1049 22.2726 52.1049 22.2728C52.1049 22.273 52.1049 22.2733 52.1049 22.2735C52.1049 22.2738 52.1049 22.274 52.1049 22.2742C52.1049 22.2745 52.1049 22.2747 52.1049 22.275C52.1049 22.2752 52.1049 22.2755 52.1049 22.2757C52.1049 22.2759 52.1049 22.2762 52.1049 22.2764C52.1049 22.2767 52.1049 22.2769 52.1049 22.2772C52.1049 22.2774 52.1049 22.2777 52.1049 22.2779C52.1049 22.2781 52.1049 22.2784 52.1049 22.2786C52.1049 22.2789 52.1049 22.2791 52.1049 22.2794C52.1049 22.2796 52.1049 22.2799 52.1049 22.2801C52.1049 22.2804 52.1049 22.2806 52.1049 22.2809C52.1049 22.2811 52.1049 22.2813 52.1049 22.2816C52.1049 22.2818 52.1049 22.2821 52.1049 22.2823C52.1049 22.2826 52.1049 22.2828 52.1049 22.2831C52.1049 22.2833 52.1049 22.2836 52.1049 22.2838C52.1049 22.2841 52.1049 22.2843 52.1049 22.2846C52.1049 22.2848 52.1049 22.2851 52.1049 22.2853C52.1049 22.2856 52.1049 22.2858 52.1049 22.2861C52.1049 22.2863 52.1049 22.2866 52.1049 22.2868C52.1049 22.2871 52.1049 22.2873 52.1049 22.2876C52.1049 22.2878 52.1049 22.2881 52.1049 22.2884C52.1049 22.2886 52.1049 22.2889 52.1049 22.2891C52.1049 22.2894 52.1049 22.2896 52.1049 22.2899C52.1049 22.2901 52.1049 22.2904 52.1049 22.2906C52.1049 22.2909 52.1049 22.2911 52.1049 22.2914C52.1049 22.2917 52.1049 22.2919 52.1049 22.2922C52.1049 22.2924 52.1049 22.2927 52.1049 22.2929C52.1049 22.2932 52.1049 22.2934 52.1049 22.2937C52.1049 22.294 52.1049 22.2942 52.1049 22.2945C52.1049 22.2947 52.1049 22.295 52.1049 22.2952C52.1049 22.2955 52.1049 22.2958 52.1049 22.296C52.1049 22.2963 52.1049 22.2965 52.1049 22.2968C52.1049 22.2971 52.1049 22.2973 52.1049 22.2976C52.1049 22.2978 52.1049 22.2981 52.1049 22.2983C52.1049 22.2986 52.1049 22.2989 52.1049 22.2991C52.1049 22.2994 52.1049 22.2996 52.1049 22.2999C52.1049 22.3002 52.1049 22.3004 52.1049 22.3007C52.1049 22.301 52.1049 22.3012 52.1049 22.3015C52.1049 22.3017 52.1049 22.302 52.1049 22.3023C52.1049 22.3025 52.1049 22.3028 52.1049 22.3031C52.1049 22.3033 52.1049 22.3036 52.1049 22.3038C52.1049 22.3041 52.1049 22.3044 52.1049 22.3046C52.1049 22.3049 52.1049 22.3052 52.1049 22.3054C52.1049 22.3057 52.1049 22.306 52.1049 22.3062C52.1049 22.3065 52.1049 22.3068 52.1049 22.307C52.1049 22.3073 52.1049 22.3076 52.1049 22.3078C52.1049 22.3081 52.1049 22.3084 52.1049 22.3086C52.1049 22.3089 52.1049 22.3092 52.1049 22.3094C52.1049 22.3097 52.1049 22.31 52.1049 22.3102C52.1049 22.3105 52.1049 22.3108 52.1049 22.311C52.1049 22.3113 52.1049 22.3116 52.1049 22.3118C52.1049 22.3121 52.1049 22.3124 52.1049 22.3126C52.1049 22.3129 52.1049 22.3132 52.1049 22.3135C52.1049 22.3137 52.1049 22.314 52.1049 22.3143C52.1049 22.3145 52.1049 22.3148 52.1049 22.3151C52.1049 22.3154 52.1049 22.3156 52.1049 22.3159C52.1049 22.3162 52.1049 22.3164 52.1049 22.3167C52.1049 22.317 52.1049 22.3173 52.1049 22.3175C52.1049 22.3178 52.1049 22.3181 52.1049 22.3183C52.1049 22.3186 52.1049 22.3189 52.1049 22.3192C52.1049 22.3194 52.1049 22.3197 52.1049 22.32C52.1049 22.3203 52.1049 22.3205 52.1049 22.3208C52.1049 22.3211 52.1049 22.3214 52.1049 22.3216C52.1049 22.3219 52.1049 22.3222 52.1049 22.3225C52.1049 22.3227 52.1049 22.323 52.1049 22.3233C52.1049 22.3236 52.1049 22.3239 52.1049 22.3241C52.1049 22.3244 52.1049 22.3247 52.1049 22.325C52.1049 22.3252 52.1049 22.3255 52.1049 22.3258C52.1049 22.3261 52.1049 22.3264 52.1049 22.3266C52.1049 22.3269 52.1049 22.3272 52.1049 22.3275C52.1049 22.3278 52.1049 22.328 52.1049 22.3283C52.1049 22.3286 52.1049 22.3289 52.1049 22.3292C52.1049 22.3294 52.1049 22.3297 52.1049 22.33C52.1049 22.3303 52.1049 22.3306 52.1049 22.3308C52.1049 22.3311 52.1049 22.3314 52.1049 22.3317C52.1049 22.332 52.1049 22.3323 52.1049 22.3325C52.1049 22.3328 52.1049 22.3331 52.1049 22.3334C52.1049 22.3337 52.1049 22.334 52.1049 22.3342C52.1049 22.3345 52.1049 22.3348 52.1049 22.3351C52.1049 22.3354 52.1049 22.3357 52.1049 22.3359C52.1049 22.3362 52.1049 22.3365 52.1049 22.3368C52.1049 22.3371 52.1049 22.3374 52.1049 22.3377C52.1049 22.3379 52.1049 22.3382 52.1049 22.3385C52.1049 22.3388 52.1049 22.3391 52.1049 22.3394C52.1049 22.3397 52.1049 22.34 52.1049 22.3402C52.1049 22.3405 52.1049 22.3408 52.1049 22.3411C52.1049 22.3414 52.1049 22.3417 52.1049 22.342C52.1049 22.3423 52.1049 22.3426 52.1049 22.3428C52.1049 22.3431 52.1049 22.3434 52.1049 22.3437C52.1049 22.344 52.1049 22.3443 52.1049 22.3446C52.1049 22.3449 52.1049 22.3452 52.1049 22.3455C52.1049 22.3457 52.1049 22.346 52.1049 22.3463C52.1049 22.3466 52.1049 22.3469 52.1049 22.3472C52.1049 22.3475 52.1049 22.3478 52.1049 22.3481C52.1049 22.3484 52.1049 22.3487 52.1049 22.349C52.1049 22.3493 52.1049 22.3495 52.1049 22.3498C52.1049 22.3501 52.1049 22.3504 52.1049 22.3507C52.1049 22.351 52.1049 22.3513 52.1049 22.3516C52.1049 22.3519 52.1049 22.3522 52.1049 22.3525C52.1049 22.3528 52.1049 22.3531 52.1049 22.3534C52.1049 22.3537 52.1049 22.354 52.1049 22.3543C52.1049 22.3546 52.1049 22.3549 52.1049 22.3552C52.1049 22.3555 52.1049 22.3558 52.1049 22.3561C52.1049 22.3564 52.1049 22.3566 52.1049 22.3569C52.1049 22.3572 52.1049 22.3575 52.1049 22.3578C52.1049 22.3581 52.1049 22.3584 52.1049 22.3587C52.1049 22.359 52.1049 22.3593 52.1049 22.3596C52.1049 22.3599 52.1049 22.3602 52.1049 22.3605C52.1049 22.3608 52.1049 22.3611 52.1049 22.3614C52.1049 22.3617 52.1049 22.362 52.1049 22.3623C52.1049 22.3626 52.1049 22.3629 52.1049 22.3633C52.1049 22.3636 52.1049 22.3639 52.1049 22.3642C52.1049 22.3645 52.1049 22.3648 52.1049 22.3651C52.1049 22.3654 52.1049 22.3657 52.1049 22.366C52.1049 22.3663 52.1049 22.3666 52.1049 22.3669C52.1049 22.3672 52.1049 22.3675 52.1049 22.3678C52.1049 22.3681 52.1049 22.3684 52.1049 22.3687C52.1049 22.369 52.1049 22.3693 52.1049 22.3696C52.1049 22.3699 52.1049 22.3702 52.1049 22.3706C52.1049 22.3709 52.1049 22.3712 52.1049 22.3715C52.1049 22.3718 52.1049 22.3721 52.1049 22.3724C52.1049 22.3727 52.1049 22.373 52.1049 22.3733C52.1049 22.3736 52.1049 22.3739 52.1049 22.3742C52.1049 22.3746 52.1049 22.3749 52.1049 22.3752C52.1049 22.3755 52.1049 22.3758 52.1049 22.3761C52.1049 22.3764 52.1049 22.3767 52.1049 22.377C52.1049 22.3773 52.1049 22.3777 52.1049 22.378C52.1049 22.3783 52.1049 22.3786 52.1049 22.3789C52.1049 22.3792 52.1049 22.3795 52.1049 22.3798C52.1049 22.3801 52.1049 22.3805 52.1049 22.3808C52.1049 22.3811 52.1049 22.3814 52.1049 22.3817C52.1049 22.382 52.1049 22.3823 52.1049 22.3826C52.1049 22.383 52.1049 22.3833 52.1049 22.3836C52.1049 22.3839 52.1049 22.3842 52.1049 22.3845C52.1049 22.3848 52.1049 22.3852 52.1049 22.3855C52.1049 22.3858 52.1049 22.3861 52.1049 22.3864C52.1049 22.3867 52.1049 22.3871 52.1049 22.3874C52.1049 22.3877 52.1049 22.388 52.1049 22.3883C52.1049 22.3886 52.1049 22.389 52.1049 22.3893C52.1049 22.3896 52.1049 22.3899 52.1049 22.3902C52.1049 22.3905 52.1049 22.3909 52.1049 22.3912C52.1049 22.3915 52.1049 22.3918 52.1049 22.3921C52.1049 22.3925 52.1049 22.3928 52.1049 22.3931C52.1049 22.3934 52.1049 22.3937 52.1049 22.3941C52.1049 22.3944 52.1049 22.3947 52.1049 22.395C52.1049 22.3953 52.1049 22.3957 52.1049 22.396C52.1049 22.3963 52.1049 22.3966 52.1049 22.3969C52.1049 22.3973 52.1049 22.3976 52.1049 22.3979C52.1049 22.3982 52.1049 22.3986 52.1049 22.3989C52.1049 22.3992 52.1049 22.3995 52.1049 22.3999C52.1049 22.4002 52.1049 22.4005 52.1049 22.4008C52.1049 22.4011 52.1049 22.4015 52.1049 22.4018C52.1049 22.4021 52.1049 22.4024 52.1049 22.4028C52.1049 22.4031 52.1049 22.4034 52.1049 22.4037C52.1049 22.4041 52.1049 22.4044 52.1049 22.4047C52.1049 22.4051 52.1049 22.4054 52.1049 22.4057C52.1049 22.406 52.1049 22.4064 52.1049 22.4067C52.1049 22.407 52.1049 22.4073 52.1049 22.4077C52.1049 22.408 52.1049 22.4083 52.1049 22.4087C52.1049 22.409 52.1049 22.4093 52.1049 22.4096C52.1049 22.41 52.1049 22.4103 52.1049 22.4106C52.1049 22.411 52.1049 22.4113 52.1049 22.4116C52.1049 22.412 52.1049 22.4123 52.1049 22.4126C52.1049 22.4129 52.1049 22.4133 52.1049 22.4136C52.1049 22.4139 52.1049 22.4143 52.1049 22.4146C52.1049 22.4149 52.1049 22.4153 52.1049 22.4156C52.1049 22.4159 52.1049 22.4163 52.1049 22.4166C52.1049 22.4169 52.1049 22.4173 52.1049 22.4176C52.1049 22.4179 52.1049 22.4183 52.1049 22.4186C52.1049 22.4189 52.1049 22.4193 52.1049 22.4196C52.1049 22.4199 52.1049 22.4203 52.1049 22.4206C52.1049 22.4209 52.1049 22.4213 52.1049 22.4216C52.1049 22.4219 52.1049 22.4223 52.1049 22.4226C52.1049 22.423 52.1049 22.4233 52.1049 22.4236C52.1049 22.424 52.1049 22.4243 52.1049 22.4246C52.1049 22.425 52.1049 22.4253 52.1049 22.4256C52.1049 22.426 52.1049 22.4263 52.1049 22.4267C52.1049 22.427 52.1049 22.4273 52.1049 22.4277C52.1049 22.428 52.1049 22.4284 52.1049 22.4287C52.1049 22.429 52.1049 22.4294 52.1049 22.4297C52.1049 22.4301 52.1049 22.4304 52.1049 22.4307C52.1049 22.4311 52.1049 22.4314 52.1049 22.4318C52.1049 22.4321 52.1049 22.4324 52.1049 22.4328C52.1049 22.4331 52.1049 22.4335 52.1049 22.4338C52.1049 22.4342 52.1049 22.4345 52.1049 22.4348C52.1049 22.4352 52.1049 22.4355 52.1049 22.4359C52.1049 22.4362 52.1049 22.4366 52.1049 22.4369C52.1049 22.4372 52.1049 22.4376 52.1049 22.4379C52.1049 22.4383 52.1049 22.4386 52.1049 22.439C52.1049 22.4393 52.1049 22.4397 52.1049 22.44C52.1049 22.4403 52.1049 22.4407 52.1049 22.441C52.1049 22.4414 52.1049 22.4417 52.1049 22.4421C52.1049 22.4424 52.1049 22.4428 52.1049 22.4431C52.1049 22.4435 52.1049 22.4438 52.1049 22.4442C52.1049 22.4445 52.1049 22.4449 52.1049 22.4452C52.1049 22.4455 52.1049 22.4459 52.1049 22.4462C52.1049 22.4466 52.1049 22.4469 52.1049 22.4473C52.1049 22.4476 52.1049 22.448 52.1049 22.4483C52.1049 22.4487 52.1049 22.449 52.1049 22.4494C52.1049 22.4497 52.1049 22.4501 52.1049 22.4504C52.1049 22.4508 52.1049 22.4511 52.1049 22.4515C52.1049 22.4519 52.1049 22.4522 52.1049 22.4526C52.1049 22.4529 52.1049 22.4533 52.1049 22.4536C52.1049 22.454 52.1049 22.4543 52.1049 22.4547C52.1049 22.455 52.1049 22.4554 52.1049 22.4557C52.1049 22.4561 52.1049 22.4564 52.1049 22.4568C52.1049 22.4571 52.1049 22.4575 52.1049 22.4579C52.1049 22.4582 52.1049 22.4586 52.1049 22.4589C52.1049 22.4593 52.1049 22.4596 52.1049 22.46C52.1049 22.4603 52.1049 22.4607 52.1049 22.4611C52.1049 22.4614 52.1049 22.4618 52.1049 22.4621C52.1049 22.4625 52.1049 22.4628 52.1049 22.4632C52.1049 22.4636 52.1049 22.4639 52.1049 22.4643C52.1049 22.4646 52.1049 22.465 52.1049 22.4653C52.1049 22.4657 52.1049 22.4661 52.1049 22.4664C52.1049 22.4668 52.1049 22.4671 52.1049 22.4675C52.1049 22.4679 52.1049 22.4682 52.1049 22.4686C52.1049 22.4689 52.1049 22.4693 52.1049 22.4697C52.1049 22.47 52.1049 22.4704 52.1049 22.4708C52.1049 22.4711 52.1049 22.4715 52.1049 22.4718C52.1049 22.4722 52.1049 22.4726 52.1049 22.4729C52.1049 22.4733 52.1049 22.4736 52.1049 22.474C52.1049 22.4744 52.1049 22.4747 52.1049 22.4751C52.1049 22.4755 52.1049 22.4758 52.1049 22.4762C52.1049 22.4766 52.1049 22.4769 52.1049 22.4773C52.1049 22.4777 52.1049 22.478 52.1049 22.4784C52.1049 22.4787 52.1049 22.4791 52.1049 22.4795C52.1049 22.4798 52.1049 22.4802 52.1049 22.4806C52.1049 22.4809 52.1049 22.4813 52.1049 22.4817C52.1049 22.482 52.1049 22.4824 52.1049 22.4828C52.1049 22.4831 52.1049 22.4835 52.1049 22.4839C52.1049 22.4842 52.1049 22.4846 52.1049 22.485C52.1049 22.4854 52.1049 22.4857 52.1049 22.4861C52.1049 22.4865 52.1049 22.4868 52.1049 22.4872C52.1049 22.4876 52.1049 22.4879 52.1049 22.4883C52.1049 22.4887 52.1049 22.4891 52.1049 22.4894C52.1049 22.4898 52.1049 22.4902 52.1049 22.4905C52.1049 22.4909 52.1049 22.4913 52.1049 22.4917C52.1049 22.492 52.1049 22.4924 52.1049 22.4928C52.1049 22.4931 52.1049 22.4935 52.1049 22.4939C52.1049 22.4943 52.1049 22.4946 52.1049 22.495C52.1049 22.4954 52.1049 22.4958 52.1049 22.4961C52.1049 22.4965 52.1049 22.4969 52.1049 22.4972C52.1049 22.4976 52.1049 22.498 52.1049 22.4984C52.1049 22.4988 52.1049 22.4991 52.1049 22.4995C52.1049 22.4999 52.1049 22.5003 52.1049 22.5006C52.1049 22.501 52.1049 22.5014 52.1049 22.5018C52.1049 22.5021 52.1049 22.5025 52.1049 22.5029C52.1049 22.5033 52.1049 22.5036 52.1049 22.504C52.1049 22.5044 52.1049 22.5048 52.1049 22.5052C52.1049 22.5055 52.1049 22.5059 52.1049 22.5063C52.1049 22.5067 52.1049 22.5071 52.1049 22.5074C52.1049 22.5078 52.1049 22.5082 52.1049 22.5086C52.1049 22.509 52.1049 22.5093 52.1049 22.5097C52.1049 22.5101 52.1049 22.5105 52.1049 22.5109C52.1049 22.5112 52.1049 22.5116 52.1049 22.512C52.1049 22.5124 52.1049 22.5128 52.1049 22.5131C52.1049 22.5135 52.1049 22.5139 52.1049 22.5143C52.1049 22.5147 52.1049 22.5151 52.1049 22.5154C52.1049 22.5158 52.1049 22.5162 52.1049 22.5166C52.1049 22.517 52.1049 22.5174 52.1049 22.5177C52.1049 22.5181 52.1049 22.5185 52.1049 22.5189C52.1049 22.5193 52.1049 22.5197 52.1049 22.5201C52.1049 22.5204 52.1049 22.5208 52.1049 22.5212C52.1049 22.5216 52.1049 22.522 52.1049 22.5224C52.1049 22.5228 52.1049 22.5231 52.1049 22.5235C52.1049 22.5239 52.1049 22.5243 52.1049 22.5247C52.1049 22.5251 52.1049 22.5255 52.1049 22.5259C52.1049 22.5263 52.1049 22.5266 52.1049 22.527C52.1049 22.5274 52.1049 22.5278 52.1049 22.5282C52.1049 22.5286 52.1049 22.529 52.1049 22.5294C52.1049 22.5298 52.1049 22.5301 52.1049 22.5305C52.1049 22.5309 52.1049 22.5313 52.1049 22.5317C52.1049 22.5321 52.1049 22.5325 52.1049 22.5329C52.1049 22.5333 52.1049 22.5337 52.1049 22.5341C52.1049 22.5345 52.1049 22.5348 52.1049 22.5352C52.1049 22.5356 52.1049 22.536 52.1049 22.5364C52.1049 22.5368 52.1049 22.5372 52.1049 22.5376C52.1049 22.538 52.1049 22.5384 52.1049 22.5388C52.1049 22.5392 52.1049 22.5396 52.1049 22.54C52.1049 22.5404 52.1049 22.5408 52.1049 22.5411C52.1049 22.5415 52.1049 22.5419 52.1049 22.5423C52.1049 22.5427 52.1049 22.5431 52.1049 22.5435C52.1049 22.5439 52.1049 22.5443 52.1049 22.5447C52.1049 22.5451 52.1049 22.5455 52.1049 22.5459C52.1049 22.5463 52.1049 22.5467 52.1049 22.5471C52.1049 22.5475 52.1049 22.5479 52.1049 22.5483C52.1049 22.5487 52.1049 22.5491 52.1049 22.5495C52.1049 22.5499 52.1049 22.5503 52.1049 22.5507C52.1049 22.5511 52.1049 22.5515 52.1049 22.5519C52.1049 22.5523 52.1049 22.5527 52.1049 22.5531C52.1049 22.5535 52.1049 22.5539 52.1049 22.5543C52.1049 22.5547 52.1049 22.5551 52.1049 22.5555C52.1049 22.5559 52.1049 22.5563 52.1049 22.5567C52.1049 22.5571 52.1049 22.5575 52.1049 22.5579C52.1049 22.5583 52.1049 22.5587 52.1049 22.5591C52.1049 22.5595 52.1049 22.5599 52.1049 22.5603C52.1049 22.5607 52.1049 22.5612 52.1049 22.5616C52.1049 22.562 52.1049 22.5624 52.1049 22.5628C52.1049 22.5632 52.1049 22.5636 52.1049 22.564C52.1049 22.5644 52.1049 22.5648 52.1049 22.5652C52.1049 22.5656 52.1049 22.566 52.1049 22.5664C52.1049 22.5668 52.1049 22.5672 52.1049 22.5676C52.1049 22.5681 52.1049 22.5685 52.1049 22.5689C52.1049 22.5693 52.1049 22.5697 52.1049 22.5701C52.1049 22.5705 52.1049 22.5709 52.1049 22.5713C52.1049 22.5717 52.1049 22.5721 52.1049 22.5726C52.1049 22.573 52.1049 22.5734 52.1049 22.5738C52.1049 22.5742 52.1049 22.5746 52.1049 22.575C52.1049 22.5754 52.1049 22.5758 52.1049 22.5763C52.1049 22.5767 52.1049 22.5771 52.1049 22.5775C52.1049 22.5779 52.1049 22.5783 52.1049 22.5787C52.1049 22.5791 52.1049 22.5795 52.1049 22.58C52.1049 22.5804 52.1049 22.5808 52.1049 22.5812C52.1049 22.5816 52.1049 22.582 52.1049 22.5824C52.1049 22.5829 52.1049 22.5833 52.1049 22.5837C52.1049 22.5841 52.1049 22.5845 52.1049 22.5849C52.1049 22.5853 52.1049 22.5858 52.1049 22.5862C52.1049 22.5866 52.1049 22.587 52.1049 22.5874C52.1049 22.5878 52.1049 22.5883 52.1049 22.5887C52.1049 22.5891 52.1049 22.5895 52.1049 22.5899C52.1049 22.5903 52.1049 22.5908 52.1049 22.5912C52.1049 22.5916 52.1049 22.592 52.1049 22.5924C52.1049 22.5929 52.1049 22.5933 52.1049 22.5937C52.1049 22.5941 52.1049 22.5945 52.1049 22.5949C52.1049 22.5954 52.1049 22.5958 52.1049 22.5962C52.1049 22.5966 52.1049 22.5971 52.1049 22.5975C52.1049 22.5979 52.1049 22.5983 52.1049 22.5987C52.1049 22.5992 52.1049 22.5996 52.1049 22.6H54.1049ZM54.0536 22.4842C54.0699 22.4353 54.0875 22.3787 54.102 22.3205C54.1116 22.2824 54.1409 22.1651 54.1409 22.024H52.1409C52.1409 21.9866 52.1432 21.956 52.1453 21.9346C52.1475 21.9127 52.1501 21.8948 52.1523 21.8821C52.1564 21.8575 52.1604 21.8409 52.1618 21.8355C52.1643 21.8253 52.1639 21.8287 52.1562 21.8518L54.0536 22.4842ZM53.1409 23.024H57.3529V21.024H53.1409V23.024ZM56.3529 22.024V22.312H58.3529V22.024H56.3529ZM56.3532 22.3376C56.3855 23.5972 56.9499 24.6183 58.0304 25.2599L59.0514 23.5401C58.5959 23.2697 58.3683 22.8988 58.3526 22.2864L56.3532 22.3376ZM58.0621 25.2779C59.0388 25.8107 60.1988 26.048 61.4929 26.048V24.048C60.435 24.048 59.627 23.8533 59.0198 23.5221L58.0621 25.2779ZM61.4929 26.048C62.6509 26.048 63.6991 25.8643 64.6045 25.4554L63.7813 23.6326C63.1987 23.8957 62.447 24.048 61.4929 24.048V26.048ZM64.6285 25.4442C65.1115 25.2104 65.54 24.8902 65.8474 24.454C66.1615 24.0081 66.3089 23.4974 66.3089 22.96H64.3089C64.3089 23.1187 64.2703 23.2199 64.2124 23.302C64.1478 23.3938 64.0183 23.5176 63.7573 23.6438L64.6285 25.4442ZM66.3089 22.96C66.3089 22.1245 65.9828 21.3915 65.3326 20.8561L64.0612 22.3999C64.227 22.5365 64.3089 22.6915 64.3089 22.96H66.3089ZM65.3585 20.8782C64.8318 20.4134 64.2007 20.0751 63.4897 19.8476L62.8801 21.7524C63.3691 21.9089 63.746 22.1226 64.0353 22.3778L65.3585 20.8782ZM63.5236 19.8591C62.872 19.6245 61.9784 19.3745 60.8615 19.1074L60.3963 21.0526C61.4874 21.3135 62.2978 21.5435 62.8462 21.7409L63.5236 19.8591ZM60.8641 19.108C59.3983 18.7534 58.2166 18.4044 57.308 18.0637L56.6058 19.9363C57.6172 20.3156 58.8836 20.6866 60.3938 21.052L60.8641 19.108ZM57.3159 18.0667C56.5342 17.766 55.8645 17.2975 55.2975 16.6495L53.7923 17.9665C54.5693 18.8545 55.5076 19.514 56.5979 19.9333L57.3159 18.0667ZM55.2975 16.6495C54.8185 16.1021 54.5369 15.3461 54.5369 14.284H52.5369C52.5369 15.7179 52.9273 16.9779 53.7923 17.9665L55.2975 16.6495ZM54.5369 14.284C54.5369 12.816 55.1155 11.7389 56.3205 10.9421L55.2173 9.27389C53.4463 10.445 52.5369 12.152 52.5369 14.284H54.5369ZM56.3205 10.9421C57.5988 10.0968 59.3213 9.632 61.5649 9.632V7.632C59.0565 7.632 56.9151 8.15118 55.2173 9.27389L56.3205 10.9421ZM61.5649 9.632C62.9312 9.632 64.1171 9.83359 65.1378 10.2163L65.84 8.34367C64.5567 7.86241 63.1266 7.632 61.5649 7.632V9.632ZM65.1378 10.2163C66.1564 10.5983 66.879 11.115 67.3674 11.7349L68.9384 10.4971C68.1788 9.53299 67.1254 8.82569 65.84 8.34367L65.1378 10.2163ZM67.3886 11.7609C67.8839 12.3478 68.1249 13.0072 68.1249 13.78H70.1249C70.1249 12.5368 69.7179 11.4202 68.9172 10.4711L67.3886 11.7609ZM68.1259 13.7346L68.0899 14.5266L70.0879 14.6174L70.1239 13.8254L68.1259 13.7346ZM69.0889 13.572H64.8769V15.572H69.0889V13.572ZM65.8769 14.572V14.428H63.8769V14.572H65.8769ZM65.8769 14.428C65.8769 13.3456 65.3939 12.4553 64.4882 11.863L63.3937 13.537C63.7359 13.7607 63.8769 14.0224 63.8769 14.428H65.8769ZM64.5252 11.8885C63.6839 11.2827 62.5656 11.052 61.3129 11.052V13.052C62.3643 13.052 62.9979 13.2533 63.3566 13.5115L64.5252 11.8885ZM61.3129 11.052C60.1082 11.052 59.035 11.2389 58.2269 11.744L59.2869 13.44C59.6308 13.2251 60.2616 13.052 61.3129 13.052V11.052ZM58.253 11.7282C57.445 12.1996 56.8929 12.9372 56.8929 13.924H58.8929C58.8929 13.8068 58.9168 13.6564 59.2608 13.4558L58.253 11.7282ZM56.8929 13.924C56.8929 14.4423 57.0305 14.9389 57.331 15.3742C57.626 15.8014 58.0384 16.1126 58.5022 16.3366L59.3717 14.5354C59.1395 14.4234 59.0298 14.3146 58.9768 14.2378C58.9293 14.1691 58.8929 14.0777 58.8929 13.924H56.8929ZM58.5393 16.3536C59.3525 16.7059 60.5227 17.0343 62.0045 17.35L62.4213 15.394C60.9751 15.0857 59.9613 14.7901 59.3345 14.5184L58.5393 16.3536ZM61.9913 17.3471C63.5495 17.7013 64.7654 18.0596 65.6575 18.4165L66.4003 16.5595C65.3724 16.1484 64.0443 15.7627 62.4345 15.3969L61.9913 17.3471ZM65.6853 18.4271C66.5143 18.7304 67.2312 19.2135 67.845 19.8887L69.3248 18.5433C68.4986 17.6345 67.5116 16.9656 66.3725 16.5489L65.6853 18.4271ZM67.845 19.8887C68.3579 20.4529 68.6649 21.2586 68.6649 22.42H70.6649C70.6649 20.8934 70.2519 19.5631 69.3248 18.5433L67.845 19.8887ZM68.6649 22.42C68.6649 24.2321 68.032 25.4042 66.8609 26.1478L67.9329 27.8362C69.7858 26.6598 70.6649 24.7839 70.6649 22.42H68.6649ZM66.8548 26.1517C65.5857 26.9705 63.7706 27.432 61.3129 27.432V29.432C63.9912 29.432 66.2321 28.9335 67.939 27.8323L66.8548 26.1517ZM73.4848 1.972V0.971998H72.4848V1.972H73.4848ZM77.7328 1.972H78.7328V0.971998H77.7328V1.972ZM77.7328 6.22V7.22H78.7328V6.22H77.7328ZM73.4848 6.22H72.4848V7.22H73.4848V6.22ZM73.4848 9.064V8.064H72.4848V9.064H73.4848ZM77.8048 9.064H78.8048V8.064H77.8048V9.064ZM77.8048 28V29H78.8048V28H77.8048ZM73.4848 28H72.4848V29H73.4848V28ZM73.4848 2.972H77.7328V0.971998H73.4848V2.972ZM76.7328 1.972V6.22H78.7328V1.972H76.7328ZM77.7328 5.22H73.4848V7.22H77.7328V5.22ZM74.4848 6.22V1.972H72.4848V6.22H74.4848ZM73.4848 10.064H77.8048V8.064H73.4848V10.064ZM76.8048 9.064V28H78.8048V9.064H76.8048ZM77.8048 27H73.4848V29H77.8048V27ZM74.4848 28V9.064H72.4848V28H74.4848ZM83.7732 26.02L83.0283 26.6871L83.7732 26.02ZM83.7732 11.044L83.0338 10.3708L83.0283 10.3769L83.7732 11.044ZM96.3372 10.54L95.6627 11.2782V11.2782L96.3372 10.54ZM98.4252 16.156V17.156H99.4252V16.156H98.4252ZM94.0332 16.156H93.0332V17.156H94.0332V16.156ZM87.0492 13.672L87.8722 14.2402L87.8783 14.2311L87.0492 13.672ZM87.0492 23.464L86.2264 24.0322L86.2341 24.0435L86.2422 24.0545L87.0492 23.464ZM93.2773 23.896L92.5454 23.2146L92.539 23.2215L92.5327 23.2285L93.2773 23.896ZM94.2493 20.908V19.908H93.2493V20.908H94.2493ZM98.4252 20.908H99.4252V19.908H98.4252V20.908ZM96.3013 26.452L95.6193 25.7205L95.6132 25.7264L96.3013 26.452ZM90.3972 27.432C87.5937 27.432 85.7049 26.678 84.5182 25.3529L83.0283 26.6871C84.7216 28.578 87.2488 29.432 90.3972 29.432V27.432ZM84.5182 25.3529C83.3138 24.008 82.6133 21.8033 82.6133 18.532H80.6133C80.6133 22.0287 81.3527 24.816 83.0283 26.6871L84.5182 25.3529ZM82.6133 18.532C82.6133 15.2607 83.3138 13.056 84.5182 11.7111L83.0283 10.3769C81.3527 12.248 80.6133 15.0353 80.6133 18.532H82.6133ZM84.5127 11.7172C85.7265 10.384 87.6219 9.632 90.3972 9.632V7.632C87.2686 7.632 84.748 8.48802 83.0338 10.3708L84.5127 11.7172ZM90.3972 9.632C92.807 9.632 94.5128 10.2275 95.6627 11.2782L97.0118 9.80179C95.3777 8.3085 93.1235 7.632 90.3972 7.632V9.632ZM95.6627 11.2782C96.7879 12.3065 97.4252 13.8728 97.4252 16.156H99.4252C99.4252 13.4952 98.6706 11.3175 97.0118 9.80179L95.6627 11.2782ZM98.4252 15.156H94.0332V17.156H98.4252V15.156ZM95.0332 16.156C95.0332 14.684 94.7071 13.3933 93.8792 12.466L92.3873 13.798C92.7594 14.2147 93.0332 14.94 93.0332 16.156H95.0332ZM93.8792 12.466C93.0216 11.5055 91.7612 11.124 90.3252 11.124V13.124C91.4333 13.124 92.0449 13.4145 92.3873 13.798L93.8792 12.466ZM90.3252 11.124C88.5794 11.124 87.1402 11.7487 86.2202 13.1129L87.8783 14.2311C88.3503 13.5313 89.0951 13.124 90.3252 13.124V11.124ZM86.2264 13.1038C85.3582 14.3612 85.0052 16.1676 85.0052 18.352H87.0052C87.0052 16.3124 87.3483 14.9988 87.8721 14.2402L86.2264 13.1038ZM85.0052 18.352V18.784H87.0052V18.352H85.0052ZM85.0052 18.784C85.0052 20.9684 85.3582 22.7748 86.2264 24.0322L87.8721 22.8958C87.3483 22.1371 87.0052 20.8236 87.0052 18.784H85.0052ZM86.2422 24.0545C87.2049 25.3702 88.7072 25.94 90.5052 25.94V23.94C89.1353 23.94 88.3336 23.5258 87.8563 22.8735L86.2422 24.0545ZM90.5052 25.94C91.9204 25.94 93.1538 25.5317 94.0218 24.5635L92.5327 23.2285C92.1527 23.6523 91.5381 23.94 90.5052 23.94V25.94ZM94.0091 24.5774C94.8838 23.638 95.2493 22.3638 95.2493 20.908H93.2493C93.2493 22.0442 92.9667 22.762 92.5454 23.2146L94.0091 24.5774ZM94.2493 21.908H98.4252V19.908H94.2493V21.908ZM97.4252 20.908C97.4252 23.0744 96.7877 24.6314 95.6194 25.7205L96.9831 27.1835C98.6468 25.6326 99.4252 23.4936 99.4252 20.908H97.4252ZM95.6132 25.7264C94.461 26.8189 92.771 27.432 90.3972 27.432V29.432C93.1115 29.432 95.3575 28.7251 96.9893 27.1776L95.6132 25.7264ZM112.157 9.064V8.064H111.157V9.064H112.157ZM115.721 9.064L116.711 8.92258L116.588 8.064H115.721V9.064ZM116.081 11.584L115.091 11.7254L115.213 12.584H116.081V11.584ZM116.297 11.584V12.584H116.839L117.135 12.129L116.297 11.584ZM118.745 9.388L119.192 10.2824V10.2824L118.745 9.388ZM127.673 11.08L128.45 10.4511L127.673 11.08ZM127.673 25.948L128.455 26.5713L127.673 25.948ZM116.693 25.804L117.528 25.2546L117.232 24.804H116.693V25.804ZM116.477 25.804V24.804H115.477V25.804H116.477ZM116.477 34.228V35.228H117.477V34.228H116.477ZM112.157 34.228H111.157V35.228H112.157V34.228ZM124.181 23.32L124.993 23.9032L125 23.8935L124.181 23.32ZM124.181 13.78L123.361 14.3535L123.368 14.3632L124.181 13.78ZM117.521 13.852L118.344 14.4202L117.521 13.852ZM117.521 23.212L116.698 23.7802L117.521 23.212ZM112.157 10.064H115.721V8.064H112.157V10.064ZM114.731 9.20542L115.091 11.7254L117.071 11.4426L116.711 8.92258L114.731 9.20542ZM116.081 12.584H116.297V10.584H116.081V12.584ZM117.135 12.129C117.664 11.3157 118.346 10.7055 119.192 10.2824L118.298 8.49357C117.128 9.07849 116.178 9.9323 115.458 11.039L117.135 12.129ZM119.192 10.2824C120.049 9.8537 121.01 9.632 122.093 9.632V7.632C120.727 7.632 119.456 7.9143 118.298 8.49357L119.192 10.2824ZM122.093 9.632C124.24 9.632 125.794 10.347 126.895 11.7089L128.45 10.4511C126.912 8.54895 124.746 7.632 122.093 7.632V9.632ZM126.895 11.7089C128.007 13.0836 128.653 15.3084 128.653 18.568H130.653C130.653 15.1076 129.978 12.3404 128.45 10.4511L126.895 11.7089ZM128.653 18.568C128.653 21.7216 128.011 23.9191 126.891 25.3247L128.455 26.5713C129.974 24.6649 130.653 21.9424 130.653 18.568H128.653ZM126.891 25.3247C125.77 26.7311 124.299 27.432 122.381 27.432V29.432C124.878 29.432 126.936 28.4769 128.455 26.5713L126.891 25.3247ZM122.381 27.432C119.978 27.432 118.447 26.6517 117.528 25.2546L115.857 26.3534C117.243 28.4603 119.503 29.432 122.381 29.432V27.432ZM116.693 24.804H116.477V26.804H116.693V24.804ZM115.477 25.804V34.228H117.477V25.804H115.477ZM116.477 33.228H112.157V35.228H116.477V33.228ZM113.157 34.228V9.064H111.157V34.228H113.157ZM120.797 25.724C122.572 25.724 124.068 25.1914 124.993 23.9032L123.368 22.7368C122.949 23.3207 122.189 23.724 120.797 23.724V25.724ZM125 23.8935C125.849 22.6799 126.189 20.9155 126.189 18.784H124.189C124.189 20.7805 123.856 22.0401 123.361 22.7465L125 23.8935ZM126.189 18.784V18.316H124.189V18.784H126.189ZM126.189 18.316C126.189 16.167 125.852 14.3929 124.993 13.1968L123.368 14.3632C123.854 15.0391 124.189 16.289 124.189 18.316H126.189ZM125 13.2065C124.079 11.8907 122.582 11.34 120.797 11.34V13.34C122.18 13.34 122.939 13.7493 123.361 14.3535L125 13.2065ZM120.797 11.34C119.06 11.34 117.622 11.9455 116.698 13.2838L118.344 14.4202C118.812 13.7425 119.557 13.34 120.797 13.34V11.34ZM116.698 13.2838C115.836 14.5323 115.477 16.2578 115.477 18.316H117.477C117.477 16.4382 117.814 15.1877 118.344 14.4202L116.698 13.2838ZM115.477 18.316V18.748H117.477V18.316H115.477ZM115.477 18.748C115.477 20.8062 115.836 22.5317 116.698 23.7802L118.344 22.6438C117.814 21.8763 117.477 20.6258 117.477 18.748H115.477ZM116.698 23.7802C117.622 25.1185 119.06 25.724 120.797 25.724V23.724C119.557 23.724 118.812 23.3215 118.344 22.6438L116.698 23.7802ZM133.461 9.064V8.064H132.461V9.064H133.461ZM137.025 9.064L138.017 8.93262L137.902 8.064H137.025V9.064ZM137.421 12.052L136.43 12.1834L136.545 13.052H137.421V12.052ZM137.673 12.052V13.052H138.364L138.609 12.4064L137.673 12.052ZM143.721 8.956H144.721V8.28465L144.1 8.03045L143.721 8.956ZM143.721 13.024V14.024H144.721V13.024H143.721ZM137.781 28V29H138.781V28H137.781ZM133.461 28H132.461V29H133.461V28ZM133.461 10.064H137.025V8.064H133.461V10.064ZM136.034 9.19538L136.43 12.1834L138.413 11.9206L138.017 8.93262L136.034 9.19538ZM137.421 13.052H137.673V11.052H137.421V13.052ZM138.609 12.4064C138.998 11.3779 139.481 10.6925 140.011 10.2659C140.526 9.85114 141.145 9.632 141.921 9.632V7.632C140.729 7.632 139.657 7.98285 138.756 8.70807C137.87 9.42146 137.213 10.4461 136.738 11.6976L138.609 12.4064ZM141.921 9.632C142.486 9.632 142.954 9.72264 143.343 9.88155L144.1 8.03045C143.432 7.75736 142.701 7.632 141.921 7.632V9.632ZM142.721 8.956V13.024H144.721V8.956H142.721ZM143.721 12.024H142.353V14.024H143.721V12.024ZM142.353 12.024C140.645 12.024 139.188 12.5068 138.179 13.6354C137.189 14.7427 136.781 16.3037 136.781 18.136H138.781C138.781 16.5603 139.136 15.5653 139.67 14.9686C140.184 14.3932 141.014 14.024 142.353 14.024V12.024ZM136.781 18.136V28H138.781V18.136H136.781ZM137.781 27H133.461V29H137.781V27ZM134.461 28V9.064H132.461V28H134.461ZM147.902 26.02L147.178 26.7108L147.184 26.7163L147.902 26.02ZM147.902 11.044L147.184 10.3477L147.179 10.3533L147.902 11.044ZM161.906 11.044L161.182 11.7348L161.188 11.7403L161.906 11.044ZM161.906 26.02L161.188 25.3237L161.183 25.3293L161.906 26.02ZM158.63 23.428L159.418 24.0433L159.425 24.034L158.63 23.428ZM158.63 13.672L157.834 14.2781L157.841 14.2873L158.63 13.672ZM151.178 13.672L150.382 13.066L150.38 13.0689L151.178 13.672ZM151.178 23.428L150.373 24.0219L150.381 24.0327L150.389 24.0433L151.178 23.428ZM154.922 27.432C151.964 27.432 149.927 26.6715 148.619 25.3237L147.184 26.7163C148.996 28.5845 151.64 29.432 154.922 29.432V27.432ZM148.625 25.3293C147.34 23.9843 146.598 21.7897 146.598 18.532H144.598C144.598 22.0423 145.391 24.8397 147.179 26.7107L148.625 25.3293ZM146.598 18.532C146.598 15.2743 147.34 13.0797 148.625 11.7347L147.179 10.3533C145.391 12.2243 144.598 15.0217 144.598 18.532H146.598ZM148.619 11.7403C149.927 10.3925 151.964 9.632 154.922 9.632V7.632C151.64 7.632 148.996 8.47948 147.184 10.3477L148.619 11.7403ZM154.922 9.632C157.881 9.632 159.901 10.393 161.183 11.7347L162.629 10.3533C160.838 8.479 158.202 7.632 154.922 7.632V9.632ZM161.188 11.7403C162.493 13.0855 163.246 15.2778 163.246 18.532H165.246C165.246 15.0182 164.438 12.2185 162.623 10.3477L161.188 11.7403ZM163.246 18.532C163.246 21.7862 162.493 23.9785 161.188 25.3237L162.623 26.7163C164.438 24.8455 165.246 22.0458 165.246 18.532H163.246ZM161.183 25.3293C159.901 26.671 157.881 27.432 154.922 27.432V29.432C158.202 29.432 160.838 28.585 162.629 26.7107L161.183 25.3293ZM154.922 25.904C156.814 25.904 158.397 25.3512 159.418 24.0433L157.841 22.8127C157.326 23.4728 156.438 23.904 154.922 23.904V25.904ZM159.425 24.034C160.387 22.771 160.782 20.961 160.782 18.784H158.782C158.782 20.783 158.408 22.069 157.834 22.822L159.425 24.034ZM160.782 18.784V18.28H158.782V18.784H160.782ZM160.782 18.28C160.782 16.106 160.389 14.3003 159.418 13.0567L157.841 14.2873C158.407 15.0117 158.782 16.278 158.782 18.28H160.782ZM159.425 13.066C158.407 11.7301 156.822 11.16 154.922 11.16V13.16C156.43 13.16 157.316 13.5979 157.834 14.278L159.425 13.066ZM154.922 11.16C153.003 11.16 151.403 11.7267 150.382 13.066L151.973 14.278C152.489 13.6013 153.384 13.16 154.922 13.16V11.16ZM150.38 13.0689C149.441 14.3106 149.062 16.1107 149.062 18.28H151.062C151.062 16.2733 151.426 15.0014 151.975 14.2751L150.38 13.0689ZM149.062 18.28V18.784H151.062V18.28H149.062ZM149.062 18.784C149.062 20.9563 149.442 22.7608 150.373 24.0219L151.982 22.8341C151.425 22.0792 151.062 20.7877 151.062 18.784H149.062ZM150.389 24.0433C151.413 25.3544 153.011 25.904 154.922 25.904V23.904C153.376 23.904 152.479 23.4696 151.966 22.8127L150.389 24.0433ZM168.846 25.984L168.069 26.6129L168.846 25.984ZM168.846 11.116L169.628 11.7393L168.846 11.116ZM179.826 11.26L178.991 11.8094L179.287 12.26H179.826V11.26ZM180.042 11.26V12.26H181.042V11.26H180.042ZM180.042 1.972V0.971998H179.042V1.972H180.042ZM184.362 1.972H185.362V0.971998H184.362V1.972ZM184.362 28V29H185.362V28H184.362ZM180.798 28L179.808 28.1414L179.931 29H180.798V28ZM180.438 25.48L181.428 25.3386L181.306 24.48H180.438V25.48ZM180.222 25.48V24.48H179.68L179.384 24.935L180.222 25.48ZM178.998 23.248L179.815 23.8255L179.821 23.8162L178.998 23.248ZM172.338 13.78L173.151 14.3632L173.158 14.3535L172.338 13.78ZM172.338 23.32L171.519 23.8935L171.526 23.9032L172.338 23.32ZM174.426 27.432C172.279 27.432 170.725 26.717 169.624 25.3551L168.069 26.6129C169.607 28.515 171.773 29.432 174.426 29.432V27.432ZM169.624 25.3551C168.512 23.9804 167.866 21.7556 167.866 18.496H165.866C165.866 21.9564 166.541 24.7236 168.069 26.6129L169.624 25.3551ZM167.866 18.496C167.866 15.3424 168.508 13.1449 169.628 11.7393L168.064 10.4927C166.545 12.3991 165.866 15.1216 165.866 18.496H167.866ZM169.628 11.7393C170.749 10.3329 172.22 9.632 174.138 9.632V7.632C171.641 7.632 169.583 8.58714 168.064 10.4927L169.628 11.7393ZM174.138 9.632C176.541 9.632 178.072 10.4123 178.991 11.8094L180.662 10.7106C179.277 8.60369 177.016 7.632 174.138 7.632V9.632ZM179.826 12.26H180.042V10.26H179.826V12.26ZM181.042 11.26V1.972H179.042V11.26H181.042ZM180.042 2.972H184.362V0.971998H180.042V2.972ZM183.362 1.972V28H185.362V1.972H183.362ZM184.362 27H180.798V29H184.362V27ZM181.788 27.8586L181.428 25.3386L179.448 25.6214L179.808 28.1414L181.788 27.8586ZM180.438 24.48H180.222V26.48H180.438V24.48ZM179.384 24.935C178.855 25.7483 178.173 26.3585 177.327 26.7816L178.222 28.5704C179.391 27.9855 180.341 27.1317 181.061 26.025L179.384 24.935ZM177.327 26.7816C176.47 27.2103 175.509 27.432 174.426 27.432V29.432C175.792 29.432 177.063 29.1497 178.222 28.5704L177.327 26.7816ZM175.722 25.724C177.449 25.724 178.887 25.1375 179.815 23.8255L178.182 22.6705C177.718 23.3265 176.971 23.724 175.722 23.724V25.724ZM179.821 23.8162C180.683 22.5677 181.042 20.8422 181.042 18.784H179.042C179.042 20.6618 178.705 21.9123 178.175 22.6798L179.821 23.8162ZM181.042 18.784V18.352H179.042V18.784H181.042ZM181.042 18.352C181.042 16.2583 180.672 14.5081 179.774 13.2595C178.833 11.9498 177.423 11.34 175.722 11.34V13.34C176.902 13.34 177.651 13.7322 178.15 14.4265C178.693 15.1819 179.042 16.4377 179.042 18.352H181.042ZM175.722 11.34C173.937 11.34 172.44 11.8907 171.519 13.2065L173.158 14.3535C173.58 13.7493 174.339 13.34 175.722 13.34V11.34ZM171.526 13.1968C170.667 14.3929 170.33 16.167 170.33 18.316H172.33C172.33 16.289 172.665 15.0391 173.151 14.3632L171.526 13.1968ZM170.33 18.316V18.784H172.33V18.316H170.33ZM170.33 18.784C170.33 20.9155 170.67 22.6799 171.519 23.8935L173.158 22.7465C172.663 22.0401 172.33 20.7805 172.33 18.784H170.33ZM171.526 23.9032C172.451 25.1914 173.947 25.724 175.722 25.724V23.724C174.33 23.724 173.57 23.3207 173.151 22.7368L171.526 23.9032ZM189.287 9.064V8.064H188.287V9.064H189.287ZM193.607 9.064H194.607V8.064H193.607V9.064ZM194.471 23.86L193.779 24.582L193.786 24.589L193.794 24.5959L194.471 23.86ZM200.123 23.392L200.85 24.0786L200.123 23.392ZM201.347 9.064V8.064H200.347V9.064H201.347ZM205.667 9.064H206.667V8.064H205.667V9.064ZM205.667 28V29H206.667V28H205.667ZM202.103 28L201.113 28.1414L201.236 29H202.103V28ZM201.743 25.48L202.733 25.3386L202.61 24.48H201.743V25.48ZM201.491 25.48V24.48H200.988L200.689 24.8833L201.491 25.48ZM198.899 27.676L199.346 28.5705L199.354 28.5662L198.899 27.676ZM195.407 27.432C193.541 27.432 192.32 26.9332 191.55 26.1044C190.767 25.2617 190.287 23.9034 190.287 21.844H188.287C188.287 24.1766 188.827 26.1123 190.084 27.4656C191.354 28.8328 193.193 29.432 195.407 29.432V27.432ZM190.287 21.844V9.064H188.287V21.844H190.287ZM189.287 10.064H193.607V8.064H189.287V10.064ZM192.607 9.064V21.088H194.607V9.064H192.607ZM192.607 21.088C192.607 22.4928 192.913 23.7521 193.779 24.582L195.163 23.138C194.877 22.8639 194.607 22.2752 194.607 21.088H192.607ZM193.794 24.5959C194.643 25.3768 195.8 25.688 197.099 25.688V23.688C196.094 23.688 195.499 23.4472 195.148 23.1241L193.794 24.5959ZM197.099 25.688C198.571 25.688 199.843 25.1448 200.85 24.0786L199.396 22.7054C198.771 23.3672 198.027 23.688 197.099 23.688V25.688ZM200.85 24.0786C201.865 23.0043 202.347 21.6432 202.347 20.08H200.347C200.347 21.2048 200.013 22.0517 199.396 22.7054L200.85 24.0786ZM202.347 20.08V9.064H200.347V20.08H202.347ZM201.347 10.064H205.667V8.064H201.347V10.064ZM204.667 9.064V28H206.667V9.064H204.667ZM205.667 27H202.103V29H205.667V27ZM203.093 27.8586L202.733 25.3386L200.753 25.6214L201.113 28.1414L203.093 27.8586ZM201.743 24.48H201.491V26.48H201.743V24.48ZM200.689 24.8833C200.084 25.6969 199.338 26.3281 198.444 26.7858L199.354 28.5662C200.524 27.9679 201.506 27.1351 202.293 26.0767L200.689 24.8833ZM198.452 26.7816C197.605 27.2052 196.598 27.432 195.407 27.432V29.432C196.856 29.432 198.177 29.1548 199.346 28.5704L198.452 26.7816ZM211.672 26.02L210.927 26.6871L211.672 26.02ZM211.672 11.044L210.932 10.3708L210.927 10.3769L211.672 11.044ZM224.236 10.54L223.561 11.2782V11.2782L224.236 10.54ZM226.324 16.156V17.156H227.324V16.156H226.324ZM221.932 16.156H220.932V17.156H221.932V16.156ZM214.948 13.672L215.771 14.2402L215.777 14.2311L214.948 13.672ZM214.948 23.464L214.125 24.0322L214.133 24.0435L214.141 24.0545L214.948 23.464ZM221.176 23.896L220.444 23.2146L220.437 23.2215L220.431 23.2285L221.176 23.896ZM222.148 20.908V19.908H221.148V20.908H222.148ZM226.324 20.908H227.324V19.908H226.324V20.908ZM224.2 26.452L223.518 25.7205L223.512 25.7264L224.2 26.452ZM218.296 27.432C215.492 27.432 213.603 26.678 212.417 25.3529L210.927 26.6871C212.62 28.578 215.147 29.432 218.296 29.432V27.432ZM212.417 25.3529C211.212 24.008 210.512 21.8033 210.512 18.532H208.512C208.512 22.0287 209.251 24.816 210.927 26.6871L212.417 25.3529ZM210.512 18.532C210.512 15.2607 211.212 13.056 212.417 11.7111L210.927 10.3769C209.251 12.248 208.512 15.0353 208.512 18.532H210.512ZM212.411 11.7172C213.625 10.384 215.52 9.632 218.296 9.632V7.632C215.167 7.632 212.646 8.48802 210.932 10.3708L212.411 11.7172ZM218.296 9.632C220.705 9.632 222.411 10.2275 223.561 11.2782L224.91 9.80179C223.276 8.3085 221.022 7.632 218.296 7.632V9.632ZM223.561 11.2782C224.686 12.3065 225.324 13.8728 225.324 16.156H227.324C227.324 13.4952 226.569 11.3175 224.91 9.80179L223.561 11.2782ZM226.324 15.156H221.932V17.156H226.324V15.156ZM222.932 16.156C222.932 14.684 222.606 13.3933 221.778 12.466L220.286 13.798C220.658 14.2147 220.932 14.94 220.932 16.156H222.932ZM221.778 12.466C220.92 11.5055 219.66 11.124 218.224 11.124V13.124C219.332 13.124 219.943 13.4145 220.286 13.798L221.778 12.466ZM218.224 11.124C216.478 11.124 215.039 11.7487 214.119 13.1129L215.777 14.2311C216.249 13.5313 216.994 13.124 218.224 13.124V11.124ZM214.125 13.1038C213.257 14.3612 212.904 16.1676 212.904 18.352H214.904C214.904 16.3124 215.247 14.9988 215.771 14.2402L214.125 13.1038ZM212.904 18.352V18.784H214.904V18.352H212.904ZM212.904 18.784C212.904 20.9684 213.257 22.7748 214.125 24.0322L215.771 22.8958C215.247 22.1371 214.904 20.8236 214.904 18.784H212.904ZM214.141 24.0545C215.103 25.3702 216.606 25.94 218.404 25.94V23.94C217.034 23.94 216.232 23.5258 215.755 22.8735L214.141 24.0545ZM218.404 25.94C219.819 25.94 221.052 25.5317 221.92 24.5635L220.431 23.2285C220.051 23.6523 219.437 23.94 218.404 23.94V25.94ZM221.908 24.5774C222.782 23.638 223.148 22.3638 223.148 20.908H221.148C221.148 22.0442 220.865 22.762 220.444 23.2146L221.908 24.5774ZM222.148 21.908H226.324V19.908H222.148V21.908ZM225.324 20.908C225.324 23.0744 224.686 24.6314 223.518 25.7205L224.882 27.1835C226.545 25.6326 227.324 23.4936 227.324 20.908H225.324ZM223.512 25.7264C222.359 26.8189 220.669 27.432 218.296 27.432V29.432C221.01 29.432 223.256 28.7251 224.888 27.1776L223.512 25.7264ZM231.332 27.1L230.537 27.7067L230.546 27.7184L230.555 27.7298L231.332 27.1ZM230.288 12.592H231.288V11.592H230.288V12.592ZM227.984 12.592H226.984V13.592H227.984V12.592ZM227.984 9.064V8.064H226.984V9.064H227.984ZM230.36 9.064V10.064H231.221L231.349 9.21201L230.36 9.064ZM231.152 3.772V2.772H230.29L230.163 3.62399L231.152 3.772ZM234.608 3.772H235.608V2.772H234.608V3.772ZM234.608 9.064H233.608V10.064H234.608V9.064ZM237.848 9.064H238.848V8.064H237.848V9.064ZM237.848 12.592V13.592H238.848V12.592H237.848ZM234.608 12.592V11.592H233.608V12.592H234.608ZM237.848 24.904H238.848V23.904H237.848V24.904ZM237.848 27.856L238.199 28.7923L238.848 28.549V27.856H237.848ZM236.408 28.252L236.204 27.273L236.408 28.252ZM234.824 27.432C233.389 27.432 232.57 27.0397 232.108 26.4702L230.555 27.7298C231.533 28.9363 233.043 29.432 234.824 29.432V27.432ZM232.127 26.4933C231.585 25.7843 231.288 24.8798 231.288 23.716H229.288C229.288 25.2402 229.686 26.5917 230.537 27.7067L232.127 26.4933ZM231.288 23.716V12.592H229.288V23.716H231.288ZM230.288 11.592H227.984V13.592H230.288V11.592ZM228.984 12.592V9.064H226.984V12.592H228.984ZM227.984 10.064H230.36V8.064H227.984V10.064ZM231.349 9.21201L232.141 3.92001L230.163 3.62399L229.371 8.91599L231.349 9.21201ZM231.152 4.772H234.608V2.772H231.152V4.772ZM233.608 3.772V9.064H235.608V3.772H233.608ZM234.608 10.064H237.848V8.064H234.608V10.064ZM236.848 9.064V12.592H238.848V9.064H236.848ZM237.848 11.592H234.608V13.592H237.848V11.592ZM233.608 12.592V23.284H235.608V12.592H233.608ZM233.608 23.284C233.608 23.9671 233.77 24.665 234.272 25.1899C234.781 25.7232 235.474 25.904 236.156 25.904V23.904C235.806 23.904 235.724 23.8148 235.718 23.8081C235.703 23.793 235.608 23.6809 235.608 23.284H233.608ZM236.156 25.904H237.848V23.904H236.156V25.904ZM236.848 24.904V27.856H238.848V24.904H236.848ZM237.497 26.9197C237.176 27.0398 236.749 27.1594 236.204 27.273L236.612 29.231C237.218 29.1046 237.751 28.9602 238.199 28.7923L237.497 26.9197ZM236.204 27.273C235.68 27.382 235.222 27.432 234.824 27.432V29.432C235.385 29.432 235.983 29.362 236.612 29.231L236.204 27.273ZM241.356 1.972V0.971998H240.356V1.972H241.356ZM245.604 1.972H246.604V0.971998H245.604V1.972ZM245.604 6.22V7.22H246.604V6.22H245.604ZM241.356 6.22H240.356V7.22H241.356V6.22ZM241.356 9.064V8.064H240.356V9.064H241.356ZM245.676 9.064H246.676V8.064H245.676V9.064ZM245.676 28V29H246.676V28H245.676ZM241.356 28H240.356V29H241.356V28ZM241.356 2.972H245.604V0.971998H241.356V2.972ZM244.604 1.972V6.22H246.604V1.972H244.604ZM245.604 5.22H241.356V7.22H245.604V5.22ZM242.356 6.22V1.972H240.356V6.22H242.356ZM241.356 10.064H245.676V8.064H241.356V10.064ZM244.676 9.064V28H246.676V9.064H244.676ZM245.676 27H241.356V29H245.676V27ZM242.356 28V9.064H240.356V28H242.356ZM251.788 26.02L251.065 26.7108L251.071 26.7163L251.788 26.02ZM251.788 11.044L251.071 10.3477L251.065 10.3533L251.788 11.044ZM265.792 11.044L265.069 11.7348L265.075 11.7403L265.792 11.044ZM265.792 26.02L265.075 25.3237L265.069 25.3293L265.792 26.02ZM262.516 23.428L263.305 24.0433L263.312 24.034L262.516 23.428ZM262.516 13.672L261.721 14.2781L261.728 14.2873L262.516 13.672ZM255.064 13.672L254.269 13.066L254.267 13.0689L255.064 13.672ZM255.064 23.428L254.26 24.0219L254.268 24.0327L254.276 24.0433L255.064 23.428ZM258.808 27.432C255.85 27.432 253.814 26.6715 252.506 25.3237L251.071 26.7163C252.883 28.5845 255.526 29.432 258.808 29.432V27.432ZM252.511 25.3293C251.227 23.9843 250.484 21.7897 250.484 18.532H248.484C248.484 22.0423 249.278 24.8397 251.065 26.7107L252.511 25.3293ZM250.484 18.532C250.484 15.2743 251.227 13.0797 252.511 11.7347L251.065 10.3533C249.278 12.2243 248.484 15.0217 248.484 18.532H250.484ZM252.506 11.7403C253.814 10.3925 255.85 9.632 258.808 9.632V7.632C255.526 7.632 252.883 8.47948 251.071 10.3477L252.506 11.7403ZM258.808 9.632C261.768 9.632 263.788 10.393 265.069 11.7347L266.515 10.3533C264.725 8.479 262.089 7.632 258.808 7.632V9.632ZM265.075 11.7403C266.38 13.0855 267.132 15.2778 267.132 18.532H269.132C269.132 15.0182 268.325 12.2185 266.51 10.3477L265.075 11.7403ZM267.132 18.532C267.132 21.7862 266.38 23.9785 265.075 25.3237L266.51 26.7163C268.325 24.8455 269.132 22.0458 269.132 18.532H267.132ZM265.069 25.3293C263.788 26.671 261.768 27.432 258.808 27.432V29.432C262.089 29.432 264.725 28.585 266.515 26.7107L265.069 25.3293ZM258.808 25.904C260.7 25.904 262.284 25.3512 263.305 24.0433L261.728 22.8127C261.213 23.4728 260.324 23.904 258.808 23.904V25.904ZM263.312 24.034C264.274 22.771 264.668 20.961 264.668 18.784H262.668C262.668 20.783 262.295 22.069 261.721 22.822L263.312 24.034ZM264.668 18.784V18.28H262.668V18.784H264.668ZM264.668 18.28C264.668 16.106 264.275 14.3003 263.305 13.0567L261.728 14.2873C262.293 15.0117 262.668 16.278 262.668 18.28H264.668ZM263.312 13.066C262.294 11.7301 260.708 11.16 258.808 11.16V13.16C260.316 13.16 261.203 13.5979 261.721 14.278L263.312 13.066ZM258.808 11.16C256.89 11.16 255.289 11.7267 254.269 13.066L255.86 14.278C256.375 13.6013 257.271 13.16 258.808 13.16V11.16ZM254.267 13.0689C253.328 14.3106 252.948 16.1107 252.948 18.28H254.948C254.948 16.2733 255.313 15.0014 255.862 14.2751L254.267 13.0689ZM252.948 18.28V18.784H254.948V18.28H252.948ZM252.948 18.784C252.948 20.9563 253.329 22.7608 254.26 24.0219L255.869 22.8341C255.312 22.0792 254.948 20.7877 254.948 18.784H252.948ZM254.276 24.0433C255.299 25.3544 256.898 25.904 258.808 25.904V23.904C257.263 23.904 256.365 23.4696 255.853 22.8127L254.276 24.0433ZM271.977 9.064V8.064H270.977V9.064H271.977ZM275.541 9.064L276.531 8.92258L276.408 8.064H275.541V9.064ZM275.901 11.584L274.911 11.7254L275.034 12.584H275.901V11.584ZM276.153 11.584V12.584H276.656L276.956 12.1807L276.153 11.584ZM278.709 9.424L279.156 10.3185L279.165 10.3142L278.709 9.424ZM286.737 10.216L286.038 10.9311L286.046 10.939L286.737 10.216ZM288.357 28V29H289.357V28H288.357ZM284.037 28H283.037V29H284.037V28ZM283.137 13.204L282.445 13.926L282.452 13.933L282.46 13.9399L283.137 13.204ZM277.521 13.672L276.794 12.9854V12.9854L277.521 13.672ZM276.297 28V29H277.297V28H276.297ZM271.977 28H270.977V29H271.977V28ZM271.977 10.064H275.541V8.064H271.977V10.064ZM274.551 9.20542L274.911 11.7254L276.891 11.4426L276.531 8.92258L274.551 9.20542ZM275.901 12.584H276.153V10.584H275.901V12.584ZM276.956 12.1807C277.561 11.3659 278.293 10.7499 279.156 10.3184L278.262 8.52957C277.109 9.10611 276.137 9.93015 275.351 10.9873L276.956 12.1807ZM279.165 10.3142C280.037 9.86783 281.053 9.632 282.237 9.632V7.632C280.781 7.632 279.445 7.92417 278.254 8.53375L279.165 10.3142ZM282.237 9.632C283.97 9.632 285.192 10.1037 286.038 10.931L287.436 9.50099C286.122 8.21628 284.344 7.632 282.237 7.632V9.632ZM286.046 10.939C286.844 11.701 287.357 13.0433 287.357 15.22H289.357C289.357 12.7887 288.79 10.795 287.428 9.49301L286.046 10.939ZM287.357 15.22V28H289.357V15.22H287.357ZM288.357 27H284.037V29H288.357V27ZM285.037 28V15.976H283.037V28H285.037ZM285.037 15.976C285.037 14.5615 284.714 13.2963 283.814 12.4681L282.46 13.9399C282.76 14.2157 283.037 14.7985 283.037 15.976H285.037ZM283.829 12.482C282.998 11.6858 281.841 11.376 280.545 11.376V13.376C281.553 13.376 282.124 13.6182 282.445 13.926L283.829 12.482ZM280.545 11.376C279.073 11.376 277.801 11.9192 276.794 12.9854L278.248 14.3586C278.873 13.6968 279.617 13.376 280.545 13.376V11.376ZM276.794 12.9854C275.779 14.0597 275.297 15.4208 275.297 16.984H277.297C277.297 15.8592 277.631 15.0123 278.248 14.3586L276.794 12.9854ZM275.297 16.984V28H277.297V16.984H275.297ZM276.297 27H271.977V29H276.297V27ZM272.977 28V9.064H270.977V28H272.977ZM293.534 23.428V22.428H292.534V23.428H293.534ZM298.034 23.428H299.034V22.428H298.034V23.428ZM298.034 28V29H299.034V28H298.034ZM293.534 28H292.534V29H293.534V28ZM293.534 24.428H298.034V22.428H293.534V24.428ZM297.034 23.428V28H299.034V23.428H297.034ZM298.034 27H293.534V29H298.034V27ZM294.534 28V23.428H292.534V28H294.534Z" fill="#858484"/>
</svg>
