<svg width="341" height="30" viewBox="0 0 341 30" fill="none" xmlns="http://www.w3.org/2000/svg">
<path opacity="0.8" d="M2.144 9.064V8.064H0.79948L1.18627 9.35168L2.144 9.064ZM6.608 9.064L7.5743 8.80658L7.37648 8.064H6.608V9.064ZM8.948 17.848L7.98161 18.1054L7.98535 18.1187L8.948 17.848ZM10.064 22.96L9.08342 23.1561L9.2442 23.96H10.064V22.96ZM10.244 22.96V23.96H11.0653L11.2249 23.1543L10.244 22.96ZM11.324 17.884L12.2925 18.133L12.2944 18.1256L12.2962 18.1181L11.324 17.884ZM13.448 9.064V8.064H12.6602L12.4758 8.82988L13.448 9.064ZM18.092 9.064L19.0607 8.81591L18.8682 8.064H18.092V9.064ZM20.36 17.92L21.3344 17.6951L21.3317 17.6835L21.3287 17.6719L20.36 17.92ZM21.44 22.96L20.4609 23.1636L20.6265 23.96H21.44V22.96ZM21.62 22.96V23.96H22.4296L22.5981 23.1681L21.62 22.96ZM22.736 17.92L21.7673 17.6719L21.7653 17.6797L21.7634 17.6874L22.736 17.92ZM25.004 9.064V8.064H24.2278L24.0353 8.81591L25.004 9.064ZM29.144 9.064L30.1022 9.35001L30.4861 8.064H29.144V9.064ZM23.492 28V29H24.2371L24.4502 28.286L23.492 28ZM18.956 28L17.9832 28.2316L18.1661 29H18.956V28ZM16.616 18.172L17.5888 17.9404L17.5875 17.935L16.616 18.172ZM15.752 14.104L16.7336 13.9131L16.5763 13.104H15.752V14.104ZM15.572 14.104V13.104H14.7268L14.586 13.9373L15.572 14.104ZM14.78 18.136L15.7514 18.3735L15.7515 18.373L14.78 18.136ZM12.368 28V29H13.1529L13.3394 28.2375L12.368 28ZM7.832 28L6.87427 28.2877L7.08824 29H7.832V28ZM2.144 10.064H6.608V8.064H2.144V10.064ZM5.6417 9.32141L7.9817 18.1054L9.9143 17.5906L7.5743 8.80658L5.6417 9.32141ZM7.98535 18.1187C8.18893 18.8426 8.5535 20.5065 9.08342 23.1561L11.0446 22.7639C10.5185 20.1335 10.1391 18.3894 9.91065 17.5773L7.98535 18.1187ZM10.064 23.96H10.244V21.96H10.064V23.96ZM11.2249 23.1543C11.7298 20.6058 12.0846 18.9414 12.2925 18.133L10.3555 17.635C10.1314 18.5066 9.76617 20.2262 9.26307 22.7657L11.2249 23.1543ZM12.2962 18.1181L14.4202 9.29812L12.4758 8.82988L10.3518 17.6499L12.2962 18.1181ZM13.448 10.064H18.092V8.064H13.448V10.064ZM17.1233 9.31209L19.3913 18.1681L21.3287 17.6719L19.0607 8.81591L17.1233 9.31209ZM19.3856 18.1449C19.5989 19.0689 19.9568 20.739 20.4609 23.1636L22.4191 22.7564C21.9152 20.333 21.5532 18.6431 21.3344 17.6951L19.3856 18.1449ZM21.44 23.96H21.62V21.96H21.44V23.96ZM22.5981 23.1681C23.0778 20.9138 23.4476 19.2438 23.7086 18.1526L21.7634 17.6874C21.4964 18.8042 21.1222 20.4942 20.6419 22.7519L22.5981 23.1681ZM23.7047 18.1681L25.9727 9.31209L24.0353 8.81591L21.7673 17.6719L23.7047 18.1681ZM25.004 10.064H29.144V8.064H25.004V10.064ZM28.1858 8.77799L22.5338 27.714L24.4502 28.286L30.1022 9.35001L28.1858 8.77799ZM23.492 27H18.956V29H23.492V27ZM19.9288 27.7684L17.5888 17.9404L15.6432 18.4036L17.9832 28.2316L19.9288 27.7684ZM17.5875 17.935C17.353 16.9735 17.0685 15.6351 16.7336 13.9131L14.7704 14.2949C15.1076 16.0289 15.399 17.4025 15.6445 18.409L17.5875 17.935ZM15.752 13.104H15.572V15.104H15.752V13.104ZM14.586 13.9373C14.2996 15.6317 14.0402 16.9489 13.8085 17.899L15.7515 18.373C15.9998 17.3551 16.2684 15.9843 16.558 14.2707L14.586 13.9373ZM13.8086 17.8985L11.3966 27.7625L13.3394 28.2375L15.7514 18.3735L13.8086 17.8985ZM12.368 27H7.832V29H12.368V27ZM8.78973 27.7123L3.10173 8.77632L1.18627 9.35168L6.87427 28.2877L8.78973 27.7123ZM32.8804 26.02L32.1464 26.6992L32.8804 26.02ZM32.8804 11.044L32.1519 10.359L32.1464 10.3648L32.8804 11.044ZM45.9484 10.972L45.1965 11.6313L45.2023 11.6378L45.9484 10.972ZM48.0364 19.576V20.576H49.0364V19.576H48.0364ZM35.0404 19.576V18.576H34.0012L34.0411 19.6144L35.0404 19.576ZM36.2284 23.716L35.4516 24.3458L35.461 24.3573L35.4706 24.3685L36.2284 23.716ZM42.6724 24.112L43.3002 24.8904L43.3076 24.8844L43.315 24.8782L42.6724 24.112ZM43.7884 21.376V20.376H42.7884V21.376H43.7884ZM48.0364 21.376H49.0364V20.376H48.0364V21.376ZM45.7324 26.668L46.3403 27.462L46.3481 27.456L45.7324 26.668ZM43.5364 16.516V17.516H44.5364V16.516H43.5364ZM36.4444 13.168L35.7373 12.4609L36.4444 13.168ZM35.1124 16.516L34.1185 16.4056L33.9951 17.516H35.1124V16.516ZM39.7204 27.432C36.812 27.432 34.847 26.6728 33.6144 25.3408L32.1464 26.6992C33.8898 28.5832 36.4848 29.432 39.7204 29.432V27.432ZM33.6144 25.3408C32.37 23.9961 31.6484 21.7966 31.6484 18.532H29.6484C29.6484 22.0354 30.4148 24.8279 32.1464 26.6992L33.6144 25.3408ZM31.6484 18.532C31.6484 15.2674 32.37 13.0679 33.6144 11.7232L32.1464 10.3648C30.4148 12.2361 29.6484 15.0286 29.6484 18.532H31.6484ZM33.6089 11.729C34.8688 10.3892 36.84 9.632 39.7204 9.632V7.632C36.5048 7.632 33.9161 8.48279 32.1519 10.359L33.6089 11.729ZM39.7204 9.632C42.3201 9.632 44.0775 10.3552 45.1965 11.6313L46.7003 10.3127C45.0834 8.46882 42.6888 7.632 39.7204 7.632V9.632ZM45.2023 11.6378C46.3584 12.9334 47.0364 15.0772 47.0364 18.28H49.0364C49.0364 14.8588 48.3224 12.1306 46.6945 10.3062L45.2023 11.6378ZM47.0364 18.28V19.576H49.0364V18.28H47.0364ZM48.0364 18.576H35.0404V20.576H48.0364V18.576ZM34.0411 19.6144C34.1166 21.576 34.533 23.2128 35.4516 24.3458L37.0052 23.0862C36.4838 22.4432 36.1082 21.32 36.0397 19.5376L34.0411 19.6144ZM35.4706 24.3685C36.4728 25.5323 37.9811 26.012 39.7564 26.012V24.012C38.3157 24.012 37.4721 23.6277 36.9862 23.0635L35.4706 24.3685ZM39.7564 26.012C41.1251 26.012 42.3369 25.6673 43.3002 24.8904L42.0447 23.3336C41.5199 23.7567 40.7877 24.012 39.7564 24.012V26.012ZM43.315 24.8782C44.338 24.0202 44.7884 22.7956 44.7884 21.376H42.7884C42.7884 22.3564 42.4948 22.9558 42.0298 23.3458L43.315 24.8782ZM43.7884 22.376H48.0364V20.376H43.7884V22.376ZM47.0364 21.376C47.0364 23.463 46.362 24.9072 45.1168 25.88L46.3481 27.456C48.1749 26.0288 49.0364 23.945 49.0364 21.376H47.0364ZM45.1245 25.874C43.8063 26.8832 42.0343 27.432 39.7204 27.432V29.432C42.3505 29.432 44.5865 28.8048 46.3403 27.462L45.1245 25.874ZM44.5364 16.516C44.5364 14.9089 44.1963 13.517 43.3425 12.5182C42.4631 11.4895 41.1911 11.052 39.7204 11.052V13.052C40.7937 13.052 41.4297 13.3585 41.8223 13.8178C42.2405 14.307 42.5364 15.1471 42.5364 16.516H44.5364ZM39.7204 11.052C38.1152 11.052 36.7294 11.4688 35.7373 12.4609L37.1515 13.8751C37.6474 13.3792 38.4456 13.052 39.7204 13.052V11.052ZM35.7373 12.4609C34.7943 13.4039 34.2997 14.7749 34.1185 16.4056L36.1063 16.6264C36.2611 15.2331 36.6545 14.3721 37.1515 13.8751L35.7373 12.4609ZM35.1124 17.516H43.5364V15.516H35.1124V17.516ZM62.2918 27.316L61.7604 28.1631L61.77 28.1691L61.7798 28.1749L62.2918 27.316ZM63.5518 17.992L63.1215 17.0893L63.5518 17.992ZM72.3358 16.516V17.516H73.3358V16.516H72.3358ZM71.6158 12.808L70.8743 13.4789L70.8829 13.4884L70.8917 13.4977L71.6158 12.808ZM66.3958 12.664L65.7844 11.8727L66.3958 12.664ZM65.6038 14.68V15.68H66.6038V14.68H65.6038ZM61.4278 14.68L60.4414 14.8444L60.5807 15.68H61.4278V14.68ZM63.4798 10.036L62.9284 9.20175L62.9218 9.20616L63.4798 10.036ZM74.7478 10.18L74.1105 10.9507L74.1178 10.9566L74.7478 10.18ZM77.0158 24.616L76.3469 25.3593L76.3685 25.3787L76.3912 25.3969L77.0158 24.616ZM79.0678 24.904H80.0678V23.904H79.0678V24.904ZM79.0678 27.856L79.4923 28.7615L80.0678 28.4917V27.856H79.0678ZM74.0278 27.712L74.6179 26.9046L74.0278 27.712ZM72.7678 25.84L73.7326 25.5769L73.5316 24.84H72.7678V25.84ZM72.5158 25.84V24.84H72.0424L71.7424 25.2062L72.5158 25.84ZM72.3358 19.576H73.3358V18.576H72.3358V19.576ZM66.8638 20.26L67.1749 21.2104L67.1826 21.2079L67.1904 21.2052L66.8638 20.26ZM66.4678 27.432C65.1014 27.432 63.8881 27.1034 62.8039 26.4571L61.7798 28.1749C63.1916 29.0166 64.7623 29.432 66.4678 29.432V27.432ZM62.8233 26.4689C62.0019 25.9535 61.4558 24.9553 61.4558 23.104H59.4558C59.4558 25.3327 60.1338 27.1425 61.7604 28.1631L62.8233 26.4689ZM61.4558 23.104C61.4558 22.035 61.6824 21.1911 62.0852 20.526C62.4858 19.8646 63.0996 19.3154 63.9822 18.8947L63.1215 17.0893C61.9401 17.6526 61.0059 18.4474 60.3745 19.49C59.7453 20.5289 59.4558 21.749 59.4558 23.104H61.4558ZM63.9822 18.8947C65.8513 18.0036 68.6068 17.516 72.3358 17.516V15.516C68.4809 15.516 65.3804 16.0124 63.1215 17.0893L63.9822 18.8947ZM73.3358 16.516V14.932H71.3358V16.516H73.3358ZM73.3358 14.932C73.3358 13.8454 73.0466 12.8603 72.34 12.1183L70.8917 13.4977C71.1451 13.7637 71.3358 14.1946 71.3358 14.932H73.3358ZM72.3574 12.1371C71.6061 11.3068 70.3926 11.052 69.0958 11.052V13.052C70.2471 13.052 70.7135 13.3012 70.8743 13.4789L72.3574 12.1371ZM69.0958 11.052C67.7749 11.052 66.5872 11.2524 65.7844 11.8727L67.0073 13.4553C67.2605 13.2596 67.8728 13.052 69.0958 13.052V11.052ZM65.7844 11.8727C65.0428 12.4458 64.6038 13.2286 64.6038 14.176H66.6038C66.6038 13.9234 66.6929 13.6982 67.0073 13.4553L65.7844 11.8727ZM64.6038 14.176V14.68H66.6038V14.176H64.6038ZM65.6038 13.68H61.4278V15.68H65.6038V13.68ZM62.4142 14.5156C62.4056 14.4639 62.3918 14.2778 62.3918 13.888H60.3918C60.3918 14.2662 60.4021 14.6081 60.4414 14.8444L62.4142 14.5156ZM62.3918 13.888C62.3918 12.5999 62.9129 11.6223 64.0378 10.8658L62.9218 9.20616C61.2628 10.3217 60.3918 11.9121 60.3918 13.888H62.3918ZM64.0313 10.8702C65.2333 10.0756 66.8933 9.632 69.0958 9.632V7.632C66.6424 7.632 64.5584 8.12436 62.9284 9.20178L64.0313 10.8702ZM69.0958 9.632C71.5058 9.632 73.1178 10.1297 74.1106 10.9506L75.3851 9.40935C73.8818 8.16627 71.7258 7.632 69.0958 7.632V9.632ZM74.1178 10.9566C75.1142 11.765 75.6558 12.9314 75.6558 14.608H77.6558C77.6558 12.4446 76.9255 10.659 75.3779 9.40344L74.1178 10.9566ZM75.6558 14.608V23.644H77.6558V14.608H75.6558ZM75.6558 23.644C75.6558 24.259 75.8315 24.8955 76.3469 25.3593L77.6848 23.8727C77.6935 23.8805 77.6914 23.8848 77.6836 23.8637C77.6736 23.8368 77.6558 23.77 77.6558 23.644H75.6558ZM76.3912 25.3969C76.8378 25.7542 77.3694 25.904 77.9158 25.904V23.904C77.7423 23.904 77.6739 23.8618 77.6405 23.8351L76.3912 25.3969ZM77.9158 25.904H79.0678V23.904H77.9158V25.904ZM78.0678 24.904V27.856H80.0678V24.904H78.0678ZM78.6434 26.9505C78.0339 27.2363 77.2843 27.396 76.3678 27.396V29.396C77.5154 29.396 78.5658 29.1957 79.4923 28.7615L78.6434 26.9505ZM76.3678 27.396C75.5982 27.396 75.037 27.2109 74.6179 26.9046L73.4378 28.5194C74.2667 29.1251 75.2655 29.396 76.3678 29.396V27.396ZM74.6179 26.9046C74.1887 26.591 73.893 26.1648 73.7326 25.5769L71.8031 26.1031C72.0747 27.0992 72.619 27.921 73.4378 28.5194L74.6179 26.9046ZM72.7678 24.84H72.5158V26.84H72.7678V24.84ZM71.7424 25.2062C70.5498 26.6616 68.8413 27.432 66.4678 27.432V29.432C69.3264 29.432 71.6499 28.4744 73.2893 26.4738L71.7424 25.2062ZM67.7638 25.976C69.3811 25.976 70.7746 25.5035 71.819 24.4591L70.4047 23.0449C69.8171 23.6325 68.9786 23.976 67.7638 23.976V25.976ZM71.819 24.4591C72.8601 23.4179 73.3358 22.0388 73.3358 20.44H71.3358C71.3358 21.6252 70.9956 22.4541 70.4047 23.0449L71.819 24.4591ZM73.3358 20.44V19.576H71.3358V20.44H73.3358ZM72.3358 18.576C69.9605 18.576 68.0093 18.8063 66.5373 19.3148L67.1904 21.2052C68.3584 20.8017 70.0552 20.576 72.3358 20.576V18.576ZM66.5528 19.3096C65.771 19.5655 65.0909 19.9617 64.6059 20.5525C64.11 21.1566 63.8838 21.8846 63.8838 22.672H65.8838C65.8838 22.2834 65.9877 22.0214 66.1518 21.8215C66.3268 21.6083 66.6366 21.3865 67.1749 21.2104L66.5528 19.3096ZM63.8838 22.672C63.8838 23.6607 64.2039 24.5606 64.9791 25.1809C65.7118 25.767 66.697 25.976 67.7638 25.976V23.976C66.9107 23.976 66.4559 23.801 66.2285 23.6191C66.0438 23.4714 65.8838 23.2193 65.8838 22.672H63.8838ZM81.8637 9.064V8.064H80.8637V9.064H81.8637ZM85.4277 9.064L86.4191 8.93262L86.304 8.064H85.4277V9.064ZM85.8238 12.052L84.8324 12.1834L84.9475 13.052H85.8238V12.052ZM86.0758 12.052V13.052H86.7662L87.0109 12.4064L86.0758 12.052ZM92.1237 8.956H93.1237V8.28465L92.5024 8.03045L92.1237 8.956ZM92.1237 13.024V14.024H93.1237V13.024H92.1237ZM86.1838 28V29H87.1838V28H86.1838ZM81.8637 28H80.8637V29H81.8637V28ZM81.8637 10.064H85.4277V8.064H81.8637V10.064ZM84.4364 9.19538L84.8324 12.1834L86.8151 11.9206L86.4191 8.93262L84.4364 9.19538ZM85.8238 13.052H86.0758V11.052H85.8238V13.052ZM87.0109 12.4064C87.4006 11.3779 87.883 10.6925 88.4129 10.2659C88.9281 9.85114 89.5477 9.632 90.3238 9.632V7.632C89.1318 7.632 88.0594 7.98285 87.1586 8.70807C86.2725 9.42146 85.6149 10.4461 85.1406 11.6976L87.0109 12.4064ZM90.3238 9.632C90.8886 9.632 91.3567 9.72264 91.7451 9.88155L92.5024 8.03045C91.8348 7.75736 91.1029 7.632 90.3238 7.632V9.632ZM91.1237 8.956V13.024H93.1237V8.956H91.1237ZM92.1237 12.024H90.7558V14.024H92.1237V12.024ZM90.7558 12.024C89.0469 12.024 87.5907 12.5068 86.5814 13.6354C85.591 14.7427 85.1838 16.3037 85.1838 18.136H87.1838C87.1838 16.5603 87.5385 15.5653 88.0721 14.9686C88.5868 14.3932 89.4166 14.024 90.7558 14.024V12.024ZM85.1838 18.136V28H87.1838V18.136H85.1838ZM86.1838 27H81.8637V29H86.1838V27ZM82.8637 28V9.064H80.8637V28H82.8637ZM96.232 26.02L95.498 26.6992L96.232 26.02ZM96.232 11.044L95.5034 10.359L95.498 10.3648L96.232 11.044ZM109.3 10.972L108.548 11.6313L108.554 11.6378L109.3 10.972ZM111.388 19.576V20.576H112.388V19.576H111.388ZM98.392 19.576V18.576H97.3528L97.3927 19.6144L98.392 19.576ZM99.58 23.716L98.8032 24.3458L98.8125 24.3573L98.8222 24.3685L99.58 23.716ZM106.024 24.112L106.652 24.8904L106.659 24.8844L106.667 24.8782L106.024 24.112ZM107.14 21.376V20.376H106.14V21.376H107.14ZM111.388 21.376H112.388V20.376H111.388V21.376ZM109.084 26.668L109.692 27.462L109.7 27.456L109.084 26.668ZM106.888 16.516V17.516H107.888V16.516H106.888ZM99.796 13.168L99.0889 12.4609L99.796 13.168ZM98.464 16.516L97.4701 16.4056L97.3467 17.516H98.464V16.516ZM103.072 27.432C100.164 27.432 98.1986 26.6728 96.9659 25.3408L95.498 26.6992C97.2414 28.5832 99.8364 29.432 103.072 29.432V27.432ZM96.9659 25.3408C95.7215 23.9961 95 21.7966 95 18.532H93C93 22.0354 93.7664 24.8279 95.498 26.6992L96.9659 25.3408ZM95 18.532C95 15.2674 95.7215 13.0679 96.9659 11.7232L95.498 10.3648C93.7664 12.2361 93 15.0286 93 18.532H95ZM96.9605 11.729C98.2203 10.3892 100.192 9.632 103.072 9.632V7.632C99.8563 7.632 97.2676 8.48279 95.5034 10.359L96.9605 11.729ZM103.072 9.632C105.672 9.632 107.429 10.3552 108.548 11.6313L110.052 10.3127C108.435 8.46882 106.04 7.632 103.072 7.632V9.632ZM108.554 11.6378C109.71 12.9334 110.388 15.0772 110.388 18.28H112.388C112.388 14.8588 111.674 12.1306 110.046 10.3062L108.554 11.6378ZM110.388 18.28V19.576H112.388V18.28H110.388ZM111.388 18.576H98.392V20.576H111.388V18.576ZM97.3927 19.6144C97.4682 21.576 97.8846 23.2128 98.8032 24.3458L100.357 23.0862C99.8354 22.4432 99.4598 21.32 99.3912 19.5376L97.3927 19.6144ZM98.8222 24.3685C99.8243 25.5323 101.333 26.012 103.108 26.012V24.012C101.667 24.012 100.824 23.6277 100.338 23.0635L98.8222 24.3685ZM103.108 26.012C104.477 26.012 105.688 25.6673 106.652 24.8904L105.396 23.3336C104.872 23.7567 104.139 24.012 103.108 24.012V26.012ZM106.667 24.8782C107.69 24.0202 108.14 22.7956 108.14 21.376H106.14C106.14 22.3564 105.846 22.9558 105.381 23.3458L106.667 24.8782ZM107.14 22.376H111.388V20.376H107.14V22.376ZM110.388 21.376C110.388 23.463 109.714 24.9072 108.468 25.88L109.7 27.456C111.526 26.0288 112.388 23.945 112.388 21.376H110.388ZM108.476 25.874C107.158 26.8832 105.386 27.432 103.072 27.432V29.432C105.702 29.432 107.938 28.8048 109.692 27.462L108.476 25.874ZM107.888 16.516C107.888 14.9089 107.548 13.517 106.694 12.5182C105.815 11.4895 104.543 11.052 103.072 11.052V13.052C104.145 13.052 104.781 13.3585 105.174 13.8178C105.592 14.307 105.888 15.1471 105.888 16.516H107.888ZM103.072 11.052C101.467 11.052 100.081 11.4688 99.0889 12.4609L100.503 13.8751C100.999 13.3792 101.797 13.052 103.072 13.052V11.052ZM99.0889 12.4609C98.1459 13.4039 97.6513 14.7749 97.4701 16.4056L99.4579 16.6264C99.6127 15.2331 100.006 14.3721 100.503 13.8751L99.0889 12.4609ZM98.464 17.516H106.888V15.516H98.464V17.516ZM126.291 26.812L125.685 27.6071L125.691 27.612L126.291 26.812ZM124.167 22.168L123.219 21.8518L123.167 22.0057V22.168H124.167ZM124.203 22.024V21.024H123.203V22.024H124.203ZM128.415 22.024H129.415V21.024H128.415V22.024ZM128.415 22.312H127.415V22.3248L127.416 22.3376L128.415 22.312ZM129.603 24.4L129.093 25.2599L129.109 25.2692L129.125 25.2779L129.603 24.4ZM135.255 24.544L135.667 25.4554L135.679 25.4499L135.691 25.4442L135.255 24.544ZM135.759 21.628L135.098 22.3778L135.111 22.3891L135.124 22.3999L135.759 21.628ZM134.247 20.8L133.909 21.7409L133.926 21.747L133.943 21.7524L134.247 20.8ZM131.691 20.08L131.456 21.052L131.459 21.0526L131.691 20.08ZM128.019 19L127.66 19.9334L127.668 19.9363L128.019 19ZM125.607 17.308L124.855 17.9665L125.607 17.308ZM126.831 10.108L127.383 10.9421L126.831 10.108ZM139.215 11.116L138.43 11.7349L138.44 11.748L138.451 11.7609L139.215 11.116ZM140.187 13.78L141.186 13.8254L141.187 13.8027V13.78H140.187ZM140.151 14.572V15.572H141.107L141.15 14.6174L140.151 14.572ZM135.939 14.572H134.939V15.572H135.939V14.572ZM135.003 12.7L134.419 13.5115L134.437 13.5247L134.456 13.537L135.003 12.7ZM129.819 12.592L130.323 13.4558L130.336 13.4481L130.349 13.44L129.819 12.592ZM129.999 15.436L129.565 16.3366L129.583 16.3454L129.602 16.3536L129.999 15.436ZM133.275 16.372L133.497 15.3968L133.484 15.394L133.275 16.372ZM137.091 17.488L136.72 18.4165L136.734 18.422L136.748 18.4271L137.091 17.488ZM139.647 19.216L138.907 19.8887L139.647 19.216ZM138.459 26.992L137.923 26.1478L137.917 26.1517L138.459 26.992ZM132.375 27.432C129.881 27.432 128.096 26.9151 126.891 26.012L125.691 27.612C127.367 28.8689 129.637 29.432 132.375 29.432V27.432ZM126.898 26.0169C125.721 25.1193 125.167 24.0051 125.167 22.6H123.167C123.167 24.6509 124.03 26.3447 125.685 27.6071L126.898 26.0169ZM125.167 22.6C125.167 22.5996 125.167 22.5992 125.167 22.5987C125.167 22.5983 125.167 22.5979 125.167 22.5975C125.167 22.5971 125.167 22.5966 125.167 22.5962C125.167 22.5958 125.167 22.5954 125.167 22.5949C125.167 22.5945 125.167 22.5941 125.167 22.5937C125.167 22.5933 125.167 22.5929 125.167 22.5924C125.167 22.592 125.167 22.5916 125.167 22.5912C125.167 22.5908 125.167 22.5903 125.167 22.5899C125.167 22.5895 125.167 22.5891 125.167 22.5887C125.167 22.5883 125.167 22.5878 125.167 22.5874C125.167 22.587 125.167 22.5866 125.167 22.5862C125.167 22.5858 125.167 22.5853 125.167 22.5849C125.167 22.5845 125.167 22.5841 125.167 22.5837C125.167 22.5833 125.167 22.5829 125.167 22.5824C125.167 22.582 125.167 22.5816 125.167 22.5812C125.167 22.5808 125.167 22.5804 125.167 22.58C125.167 22.5795 125.167 22.5791 125.167 22.5787C125.167 22.5783 125.167 22.5779 125.167 22.5775C125.167 22.5771 125.167 22.5767 125.167 22.5763C125.167 22.5758 125.167 22.5754 125.167 22.575C125.167 22.5746 125.167 22.5742 125.167 22.5738C125.167 22.5734 125.167 22.573 125.167 22.5726C125.167 22.5721 125.167 22.5717 125.167 22.5713C125.167 22.5709 125.167 22.5705 125.167 22.5701C125.167 22.5697 125.167 22.5693 125.167 22.5689C125.167 22.5685 125.167 22.5681 125.167 22.5676C125.167 22.5672 125.167 22.5668 125.167 22.5664C125.167 22.566 125.167 22.5656 125.167 22.5652C125.167 22.5648 125.167 22.5644 125.167 22.564C125.167 22.5636 125.167 22.5632 125.167 22.5628C125.167 22.5624 125.167 22.562 125.167 22.5616C125.167 22.5612 125.167 22.5607 125.167 22.5603C125.167 22.5599 125.167 22.5595 125.167 22.5591C125.167 22.5587 125.167 22.5583 125.167 22.5579C125.167 22.5575 125.167 22.5571 125.167 22.5567C125.167 22.5563 125.167 22.5559 125.167 22.5555C125.167 22.5551 125.167 22.5547 125.167 22.5543C125.167 22.5539 125.167 22.5535 125.167 22.5531C125.167 22.5527 125.167 22.5523 125.167 22.5519C125.167 22.5515 125.167 22.5511 125.167 22.5507C125.167 22.5503 125.167 22.5499 125.167 22.5495C125.167 22.5491 125.167 22.5487 125.167 22.5483C125.167 22.5479 125.167 22.5475 125.167 22.5471C125.167 22.5467 125.167 22.5463 125.167 22.5459C125.167 22.5455 125.167 22.5451 125.167 22.5447C125.167 22.5443 125.167 22.5439 125.167 22.5435C125.167 22.5431 125.167 22.5427 125.167 22.5423C125.167 22.5419 125.167 22.5415 125.167 22.5411C125.167 22.5408 125.167 22.5404 125.167 22.54C125.167 22.5396 125.167 22.5392 125.167 22.5388C125.167 22.5384 125.167 22.538 125.167 22.5376C125.167 22.5372 125.167 22.5368 125.167 22.5364C125.167 22.536 125.167 22.5356 125.167 22.5352C125.167 22.5348 125.167 22.5345 125.167 22.5341C125.167 22.5337 125.167 22.5333 125.167 22.5329C125.167 22.5325 125.167 22.5321 125.167 22.5317C125.167 22.5313 125.167 22.5309 125.167 22.5305C125.167 22.5301 125.167 22.5298 125.167 22.5294C125.167 22.529 125.167 22.5286 125.167 22.5282C125.167 22.5278 125.167 22.5274 125.167 22.527C125.167 22.5266 125.167 22.5263 125.167 22.5259C125.167 22.5255 125.167 22.5251 125.167 22.5247C125.167 22.5243 125.167 22.5239 125.167 22.5235C125.167 22.5231 125.167 22.5228 125.167 22.5224C125.167 22.522 125.167 22.5216 125.167 22.5212C125.167 22.5208 125.167 22.5204 125.167 22.5201C125.167 22.5197 125.167 22.5193 125.167 22.5189C125.167 22.5185 125.167 22.5181 125.167 22.5177C125.167 22.5174 125.167 22.517 125.167 22.5166C125.167 22.5162 125.167 22.5158 125.167 22.5154C125.167 22.5151 125.167 22.5147 125.167 22.5143C125.167 22.5139 125.167 22.5135 125.167 22.5131C125.167 22.5128 125.167 22.5124 125.167 22.512C125.167 22.5116 125.167 22.5112 125.167 22.5109C125.167 22.5105 125.167 22.5101 125.167 22.5097C125.167 22.5093 125.167 22.509 125.167 22.5086C125.167 22.5082 125.167 22.5078 125.167 22.5074C125.167 22.5071 125.167 22.5067 125.167 22.5063C125.167 22.5059 125.167 22.5055 125.167 22.5052C125.167 22.5048 125.167 22.5044 125.167 22.504C125.167 22.5036 125.167 22.5033 125.167 22.5029C125.167 22.5025 125.167 22.5021 125.167 22.5018C125.167 22.5014 125.167 22.501 125.167 22.5006C125.167 22.5003 125.167 22.4999 125.167 22.4995C125.167 22.4991 125.167 22.4988 125.167 22.4984C125.167 22.498 125.167 22.4976 125.167 22.4972C125.167 22.4969 125.167 22.4965 125.167 22.4961C125.167 22.4958 125.167 22.4954 125.167 22.495C125.167 22.4946 125.167 22.4943 125.167 22.4939C125.167 22.4935 125.167 22.4931 125.167 22.4928C125.167 22.4924 125.167 22.492 125.167 22.4917C125.167 22.4913 125.167 22.4909 125.167 22.4905C125.167 22.4902 125.167 22.4898 125.167 22.4894C125.167 22.4891 125.167 22.4887 125.167 22.4883C125.167 22.4879 125.167 22.4876 125.167 22.4872C125.167 22.4868 125.167 22.4865 125.167 22.4861C125.167 22.4857 125.167 22.4854 125.167 22.485C125.167 22.4846 125.167 22.4842 125.167 22.4839C125.167 22.4835 125.167 22.4831 125.167 22.4828C125.167 22.4824 125.167 22.482 125.167 22.4817C125.167 22.4813 125.167 22.4809 125.167 22.4806C125.167 22.4802 125.167 22.4798 125.167 22.4795C125.167 22.4791 125.167 22.4787 125.167 22.4784C125.167 22.478 125.167 22.4777 125.167 22.4773C125.167 22.4769 125.167 22.4766 125.167 22.4762C125.167 22.4758 125.167 22.4755 125.167 22.4751C125.167 22.4747 125.167 22.4744 125.167 22.474C125.167 22.4736 125.167 22.4733 125.167 22.4729C125.167 22.4726 125.167 22.4722 125.167 22.4718C125.167 22.4715 125.167 22.4711 125.167 22.4708C125.167 22.4704 125.167 22.47 125.167 22.4697C125.167 22.4693 125.167 22.4689 125.167 22.4686C125.167 22.4682 125.167 22.4679 125.167 22.4675C125.167 22.4671 125.167 22.4668 125.167 22.4664C125.167 22.4661 125.167 22.4657 125.167 22.4653C125.167 22.465 125.167 22.4646 125.167 22.4643C125.167 22.4639 125.167 22.4636 125.167 22.4632C125.167 22.4628 125.167 22.4625 125.167 22.4621C125.167 22.4618 125.167 22.4614 125.167 22.4611C125.167 22.4607 125.167 22.4603 125.167 22.46C125.167 22.4596 125.167 22.4593 125.167 22.4589C125.167 22.4586 125.167 22.4582 125.167 22.4579C125.167 22.4575 125.167 22.4571 125.167 22.4568C125.167 22.4564 125.167 22.4561 125.167 22.4557C125.167 22.4554 125.167 22.455 125.167 22.4547C125.167 22.4543 125.167 22.454 125.167 22.4536C125.167 22.4533 125.167 22.4529 125.167 22.4526C125.167 22.4522 125.167 22.4519 125.167 22.4515C125.167 22.4511 125.167 22.4508 125.167 22.4504C125.167 22.4501 125.167 22.4497 125.167 22.4494C125.167 22.449 125.167 22.4487 125.167 22.4483C125.167 22.448 125.167 22.4476 125.167 22.4473C125.167 22.4469 125.167 22.4466 125.167 22.4462C125.167 22.4459 125.167 22.4455 125.167 22.4452C125.167 22.4449 125.167 22.4445 125.167 22.4442C125.167 22.4438 125.167 22.4435 125.167 22.4431C125.167 22.4428 125.167 22.4424 125.167 22.4421C125.167 22.4417 125.167 22.4414 125.167 22.441C125.167 22.4407 125.167 22.4403 125.167 22.44C125.167 22.4397 125.167 22.4393 125.167 22.439C125.167 22.4386 125.167 22.4383 125.167 22.4379C125.167 22.4376 125.167 22.4372 125.167 22.4369C125.167 22.4366 125.167 22.4362 125.167 22.4359C125.167 22.4355 125.167 22.4352 125.167 22.4348C125.167 22.4345 125.167 22.4342 125.167 22.4338C125.167 22.4335 125.167 22.4331 125.167 22.4328C125.167 22.4324 125.167 22.4321 125.167 22.4318C125.167 22.4314 125.167 22.4311 125.167 22.4307C125.167 22.4304 125.167 22.4301 125.167 22.4297C125.167 22.4294 125.167 22.429 125.167 22.4287C125.167 22.4284 125.167 22.428 125.167 22.4277C125.167 22.4273 125.167 22.427 125.167 22.4267C125.167 22.4263 125.167 22.426 125.167 22.4256C125.167 22.4253 125.167 22.425 125.167 22.4246C125.167 22.4243 125.167 22.424 125.167 22.4236C125.167 22.4233 125.167 22.423 125.167 22.4226C125.167 22.4223 125.167 22.4219 125.167 22.4216C125.167 22.4213 125.167 22.4209 125.167 22.4206C125.167 22.4203 125.167 22.4199 125.167 22.4196C125.167 22.4193 125.167 22.4189 125.167 22.4186C125.167 22.4183 125.167 22.4179 125.167 22.4176C125.167 22.4173 125.167 22.4169 125.167 22.4166C125.167 22.4163 125.167 22.4159 125.167 22.4156C125.167 22.4153 125.167 22.4149 125.167 22.4146C125.167 22.4143 125.167 22.4139 125.167 22.4136C125.167 22.4133 125.167 22.4129 125.167 22.4126C125.167 22.4123 125.167 22.412 125.167 22.4116C125.167 22.4113 125.167 22.411 125.167 22.4106C125.167 22.4103 125.167 22.41 125.167 22.4096C125.167 22.4093 125.167 22.409 125.167 22.4087C125.167 22.4083 125.167 22.408 125.167 22.4077C125.167 22.4073 125.167 22.407 125.167 22.4067C125.167 22.4064 125.167 22.406 125.167 22.4057C125.167 22.4054 125.167 22.4051 125.167 22.4047C125.167 22.4044 125.167 22.4041 125.167 22.4037C125.167 22.4034 125.167 22.4031 125.167 22.4028C125.167 22.4024 125.167 22.4021 125.167 22.4018C125.167 22.4015 125.167 22.4011 125.167 22.4008C125.167 22.4005 125.167 22.4002 125.167 22.3999C125.167 22.3995 125.167 22.3992 125.167 22.3989C125.167 22.3986 125.167 22.3982 125.167 22.3979C125.167 22.3976 125.167 22.3973 125.167 22.3969C125.167 22.3966 125.167 22.3963 125.167 22.396C125.167 22.3957 125.167 22.3953 125.167 22.395C125.167 22.3947 125.167 22.3944 125.167 22.3941C125.167 22.3937 125.167 22.3934 125.167 22.3931C125.167 22.3928 125.167 22.3925 125.167 22.3921C125.167 22.3918 125.167 22.3915 125.167 22.3912C125.167 22.3909 125.167 22.3905 125.167 22.3902C125.167 22.3899 125.167 22.3896 125.167 22.3893C125.167 22.389 125.167 22.3886 125.167 22.3883C125.167 22.388 125.167 22.3877 125.167 22.3874C125.167 22.3871 125.167 22.3867 125.167 22.3864C125.167 22.3861 125.167 22.3858 125.167 22.3855C125.167 22.3852 125.167 22.3848 125.167 22.3845C125.167 22.3842 125.167 22.3839 125.167 22.3836C125.167 22.3833 125.167 22.383 125.167 22.3826C125.167 22.3823 125.167 22.382 125.167 22.3817C125.167 22.3814 125.167 22.3811 125.167 22.3808C125.167 22.3805 125.167 22.3801 125.167 22.3798C125.167 22.3795 125.167 22.3792 125.167 22.3789C125.167 22.3786 125.167 22.3783 125.167 22.378C125.167 22.3777 125.167 22.3773 125.167 22.377C125.167 22.3767 125.167 22.3764 125.167 22.3761C125.167 22.3758 125.167 22.3755 125.167 22.3752C125.167 22.3749 125.167 22.3746 125.167 22.3742C125.167 22.3739 125.167 22.3736 125.167 22.3733C125.167 22.373 125.167 22.3727 125.167 22.3724C125.167 22.3721 125.167 22.3718 125.167 22.3715C125.167 22.3712 125.167 22.3709 125.167 22.3706C125.167 22.3702 125.167 22.3699 125.167 22.3696C125.167 22.3693 125.167 22.369 125.167 22.3687C125.167 22.3684 125.167 22.3681 125.167 22.3678C125.167 22.3675 125.167 22.3672 125.167 22.3669C125.167 22.3666 125.167 22.3663 125.167 22.366C125.167 22.3657 125.167 22.3654 125.167 22.3651C125.167 22.3648 125.167 22.3645 125.167 22.3642C125.167 22.3639 125.167 22.3636 125.167 22.3633C125.167 22.3629 125.167 22.3626 125.167 22.3623C125.167 22.362 125.167 22.3617 125.167 22.3614C125.167 22.3611 125.167 22.3608 125.167 22.3605C125.167 22.3602 125.167 22.3599 125.167 22.3596C125.167 22.3593 125.167 22.359 125.167 22.3587C125.167 22.3584 125.167 22.3581 125.167 22.3578C125.167 22.3575 125.167 22.3572 125.167 22.3569C125.167 22.3566 125.167 22.3564 125.167 22.3561C125.167 22.3558 125.167 22.3555 125.167 22.3552C125.167 22.3549 125.167 22.3546 125.167 22.3543C125.167 22.354 125.167 22.3537 125.167 22.3534C125.167 22.3531 125.167 22.3528 125.167 22.3525C125.167 22.3522 125.167 22.3519 125.167 22.3516C125.167 22.3513 125.167 22.351 125.167 22.3507C125.167 22.3504 125.167 22.3501 125.167 22.3498C125.167 22.3495 125.167 22.3493 125.167 22.349C125.167 22.3487 125.167 22.3484 125.167 22.3481C125.167 22.3478 125.167 22.3475 125.167 22.3472C125.167 22.3469 125.167 22.3466 125.167 22.3463C125.167 22.346 125.167 22.3457 125.167 22.3455C125.167 22.3452 125.167 22.3449 125.167 22.3446C125.167 22.3443 125.167 22.344 125.167 22.3437C125.167 22.3434 125.167 22.3431 125.167 22.3428C125.167 22.3426 125.167 22.3423 125.167 22.342C125.167 22.3417 125.167 22.3414 125.167 22.3411C125.167 22.3408 125.167 22.3405 125.167 22.3402C125.167 22.34 125.167 22.3397 125.167 22.3394C125.167 22.3391 125.167 22.3388 125.167 22.3385C125.167 22.3382 125.167 22.3379 125.167 22.3377C125.167 22.3374 125.167 22.3371 125.167 22.3368C125.167 22.3365 125.167 22.3362 125.167 22.3359C125.167 22.3357 125.167 22.3354 125.167 22.3351C125.167 22.3348 125.167 22.3345 125.167 22.3342C125.167 22.334 125.167 22.3337 125.167 22.3334C125.167 22.3331 125.167 22.3328 125.167 22.3325C125.167 22.3323 125.167 22.332 125.167 22.3317C125.167 22.3314 125.167 22.3311 125.167 22.3308C125.167 22.3306 125.167 22.3303 125.167 22.33C125.167 22.3297 125.167 22.3294 125.167 22.3292C125.167 22.3289 125.167 22.3286 125.167 22.3283C125.167 22.328 125.167 22.3278 125.167 22.3275C125.167 22.3272 125.167 22.3269 125.167 22.3266C125.167 22.3264 125.167 22.3261 125.167 22.3258C125.167 22.3255 125.167 22.3252 125.167 22.325C125.167 22.3247 125.167 22.3244 125.167 22.3241C125.167 22.3239 125.167 22.3236 125.167 22.3233C125.167 22.323 125.167 22.3227 125.167 22.3225C125.167 22.3222 125.167 22.3219 125.167 22.3216C125.167 22.3214 125.167 22.3211 125.167 22.3208C125.167 22.3205 125.167 22.3203 125.167 22.32C125.167 22.3197 125.167 22.3194 125.167 22.3192C125.167 22.3189 125.167 22.3186 125.167 22.3183C125.167 22.3181 125.167 22.3178 125.167 22.3175C125.167 22.3173 125.167 22.317 125.167 22.3167C125.167 22.3164 125.167 22.3162 125.167 22.3159C125.167 22.3156 125.167 22.3154 125.167 22.3151C125.167 22.3148 125.167 22.3145 125.167 22.3143C125.167 22.314 125.167 22.3137 125.167 22.3135C125.167 22.3132 125.167 22.3129 125.167 22.3126C125.167 22.3124 125.167 22.3121 125.167 22.3118C125.167 22.3116 125.167 22.3113 125.167 22.311C125.167 22.3108 125.167 22.3105 125.167 22.3102C125.167 22.31 125.167 22.3097 125.167 22.3094C125.167 22.3092 125.167 22.3089 125.167 22.3086C125.167 22.3084 125.167 22.3081 125.167 22.3078C125.167 22.3076 125.167 22.3073 125.167 22.307C125.167 22.3068 125.167 22.3065 125.167 22.3062C125.167 22.306 125.167 22.3057 125.167 22.3054C125.167 22.3052 125.167 22.3049 125.167 22.3046C125.167 22.3044 125.167 22.3041 125.167 22.3038C125.167 22.3036 125.167 22.3033 125.167 22.3031C125.167 22.3028 125.167 22.3025 125.167 22.3023C125.167 22.302 125.167 22.3017 125.167 22.3015C125.167 22.3012 125.167 22.301 125.167 22.3007C125.167 22.3004 125.167 22.3002 125.167 22.2999C125.167 22.2996 125.167 22.2994 125.167 22.2991C125.167 22.2989 125.167 22.2986 125.167 22.2983C125.167 22.2981 125.167 22.2978 125.167 22.2976C125.167 22.2973 125.167 22.2971 125.167 22.2968C125.167 22.2965 125.167 22.2963 125.167 22.296C125.167 22.2958 125.167 22.2955 125.167 22.2952C125.167 22.295 125.167 22.2947 125.167 22.2945C125.167 22.2942 125.167 22.294 125.167 22.2937C125.167 22.2934 125.167 22.2932 125.167 22.2929C125.167 22.2927 125.167 22.2924 125.167 22.2922C125.167 22.2919 125.167 22.2917 125.167 22.2914C125.167 22.2911 125.167 22.2909 125.167 22.2906C125.167 22.2904 125.167 22.2901 125.167 22.2899C125.167 22.2896 125.167 22.2894 125.167 22.2891C125.167 22.2889 125.167 22.2886 125.167 22.2884C125.167 22.2881 125.167 22.2878 125.167 22.2876C125.167 22.2873 125.167 22.2871 125.167 22.2868C125.167 22.2866 125.167 22.2863 125.167 22.2861C125.167 22.2858 125.167 22.2856 125.167 22.2853C125.167 22.2851 125.167 22.2848 125.167 22.2846C125.167 22.2843 125.167 22.2841 125.167 22.2838C125.167 22.2836 125.167 22.2833 125.167 22.2831C125.167 22.2828 125.167 22.2826 125.167 22.2823C125.167 22.2821 125.167 22.2818 125.167 22.2816C125.167 22.2813 125.167 22.2811 125.167 22.2809C125.167 22.2806 125.167 22.2804 125.167 22.2801C125.167 22.2799 125.167 22.2796 125.167 22.2794C125.167 22.2791 125.167 22.2789 125.167 22.2786C125.167 22.2784 125.167 22.2781 125.167 22.2779C125.167 22.2777 125.167 22.2774 125.167 22.2772C125.167 22.2769 125.167 22.2767 125.167 22.2764C125.167 22.2762 125.167 22.2759 125.167 22.2757C125.167 22.2755 125.167 22.2752 125.167 22.275C125.167 22.2747 125.167 22.2745 125.167 22.2742C125.167 22.274 125.167 22.2738 125.167 22.2735C125.167 22.2733 125.167 22.273 125.167 22.2728C125.167 22.2726 125.167 22.2723 125.167 22.2721C125.167 22.2718 125.167 22.2716 125.167 22.2714C125.167 22.2711 125.167 22.2709 125.167 22.2706C125.167 22.2704 125.167 22.2702 125.167 22.2699C125.167 22.2697 125.167 22.2694 125.167 22.2692C125.167 22.269 125.167 22.2687 125.167 22.2685C125.167 22.2682 125.167 22.268 125.167 22.2678C125.167 22.2675 125.167 22.2673 125.167 22.2671C125.167 22.2668 125.167 22.2666 125.167 22.2664C125.167 22.2661 125.167 22.2659 125.167 22.2656C125.167 22.2654 125.167 22.2652 125.167 22.2649C125.167 22.2647 125.167 22.2645 125.167 22.2642C125.167 22.264 125.167 22.2638 125.167 22.2635C125.167 22.2633 125.167 22.2631 125.167 22.2628C125.167 22.2626 125.167 22.2624 125.167 22.2621C125.167 22.2619 125.167 22.2617 125.167 22.2614C125.167 22.2612 125.167 22.261 125.167 22.2607C125.167 22.2605 125.167 22.2603 125.167 22.26C125.167 22.2598 125.167 22.2596 125.167 22.2593C125.167 22.2591 125.167 22.2589 125.167 22.2587C125.167 22.2584 125.167 22.2582 125.167 22.258C125.167 22.2577 125.167 22.2575 125.167 22.2573C125.167 22.2571 125.167 22.2568 125.167 22.2566C125.167 22.2564 125.167 22.2561 125.167 22.2559C125.167 22.2557 125.167 22.2555 125.167 22.2552C125.167 22.255 125.167 22.2548 125.167 22.2545C125.167 22.2543 125.167 22.2541 125.167 22.2539C125.167 22.2536 125.167 22.2534 125.167 22.2532C125.167 22.253 125.167 22.2527 125.167 22.2525C125.167 22.2523 125.167 22.2521 125.167 22.2518C125.167 22.2516 125.167 22.2514 125.167 22.2512C125.167 22.2509 125.167 22.2507 125.167 22.2505C125.167 22.2503 125.167 22.25 125.167 22.2498C125.167 22.2496 125.167 22.2494 125.167 22.2492C125.167 22.2489 125.167 22.2487 125.167 22.2485C125.167 22.2483 125.167 22.248 125.167 22.2478C125.167 22.2476 125.167 22.2474 125.167 22.2472C125.167 22.2469 125.167 22.2467 125.167 22.2465C125.167 22.2463 125.167 22.2461 125.167 22.2458C125.167 22.2456 125.167 22.2454 125.167 22.2452C125.167 22.245 125.167 22.2447 125.167 22.2445C125.167 22.2443 125.167 22.2441 125.167 22.2439C125.167 22.2436 125.167 22.2434 125.167 22.2432C125.167 22.243 125.167 22.2428 125.167 22.2426C125.167 22.2423 125.167 22.2421 125.167 22.2419C125.167 22.2417 125.167 22.2415 125.167 22.2413C125.167 22.241 125.167 22.2408 125.167 22.2406C125.167 22.2404 125.167 22.2402 125.167 22.24C125.167 22.2398 125.167 22.2395 125.167 22.2393C125.167 22.2391 125.167 22.2389 125.167 22.2387C125.167 22.2385 125.167 22.2383 125.167 22.238C125.167 22.2378 125.167 22.2376 125.167 22.2374C125.167 22.2372 125.167 22.237 125.167 22.2368C125.167 22.2366 125.167 22.2363 125.167 22.2361C125.167 22.2359 125.167 22.2357 125.167 22.2355C125.167 22.2353 125.167 22.2351 125.167 22.2349C125.167 22.2347 125.167 22.2344 125.167 22.2342C125.167 22.234 125.167 22.2338 125.167 22.2336C125.167 22.2334 125.167 22.2332 125.167 22.233C125.167 22.2328 125.167 22.2326 125.167 22.2324C125.167 22.2321 125.167 22.2319 125.167 22.2317C125.167 22.2315 125.167 22.2313 125.167 22.2311C125.167 22.2309 125.167 22.2307 125.167 22.2305C125.167 22.2303 125.167 22.2301 125.167 22.2299C125.167 22.2297 125.167 22.2295 125.167 22.2293C125.167 22.229 125.167 22.2288 125.167 22.2286C125.167 22.2284 125.167 22.2282 125.167 22.228C125.167 22.2278 125.167 22.2276 125.167 22.2274C125.167 22.2272 125.167 22.227 125.167 22.2268C125.167 22.2266 125.167 22.2264 125.167 22.2262C125.167 22.226 125.167 22.2258 125.167 22.2256C125.167 22.2254 125.167 22.2252 125.167 22.225C125.167 22.2248 125.167 22.2246 125.167 22.2244C125.167 22.2242 125.167 22.224 125.167 22.2238C125.167 22.2236 125.167 22.2234 125.167 22.2232C125.167 22.223 125.167 22.2228 125.167 22.2226C125.167 22.2224 125.167 22.2222 125.167 22.222C125.167 22.2218 125.167 22.2216 125.167 22.2214C125.167 22.2212 125.167 22.221 125.167 22.2208C125.167 22.2206 125.167 22.2204 125.167 22.2202C125.167 22.22 125.167 22.2198 125.167 22.2196C125.167 22.2194 125.167 22.2192 125.167 22.219C125.167 22.2188 125.167 22.2186 125.167 22.2184C125.167 22.2182 125.167 22.218 125.167 22.2178C125.167 22.2176 125.167 22.2175 125.167 22.2173C125.167 22.2171 125.167 22.2169 125.167 22.2167C125.167 22.2165 125.167 22.2163 125.167 22.2161C125.167 22.2159 125.167 22.2157 125.167 22.2155C125.167 22.2153 125.167 22.2151 125.167 22.2149C125.167 22.2147 125.167 22.2146 125.167 22.2144C125.167 22.2142 125.167 22.214 125.167 22.2138C125.167 22.2136 125.167 22.2134 125.167 22.2132C125.167 22.213 125.167 22.2128 125.167 22.2126C125.167 22.2125 125.167 22.2123 125.167 22.2121C125.167 22.2119 125.167 22.2117 125.167 22.2115C125.167 22.2113 125.167 22.2111 125.167 22.2109C125.167 22.2108 125.167 22.2106 125.167 22.2104C125.167 22.2102 125.167 22.21 125.167 22.2098C125.167 22.2096 125.167 22.2094 125.167 22.2093C125.167 22.2091 125.167 22.2089 125.167 22.2087C125.167 22.2085 125.167 22.2083 125.167 22.2081C125.167 22.2079 125.167 22.2078 125.167 22.2076C125.167 22.2074 125.167 22.2072 125.167 22.207C125.167 22.2068 125.167 22.2067 125.167 22.2065C125.167 22.2063 125.167 22.2061 125.167 22.2059C125.167 22.2057 125.167 22.2056 125.167 22.2054C125.167 22.2052 125.167 22.205 125.167 22.2048C125.167 22.2046 125.167 22.2045 125.167 22.2043C125.167 22.2041 125.167 22.2039 125.167 22.2037C125.167 22.2036 125.167 22.2034 125.167 22.2032C125.167 22.203 125.167 22.2028 125.167 22.2026C125.167 22.2025 125.167 22.2023 125.167 22.2021C125.167 22.2019 125.167 22.2017 125.167 22.2016C125.167 22.2014 125.167 22.2012 125.167 22.201C125.167 22.2009 125.167 22.2007 125.167 22.2005C125.167 22.2003 125.167 22.2001 125.167 22.2C125.167 22.1998 125.167 22.1996 125.167 22.1994C125.167 22.1993 125.167 22.1991 125.167 22.1989C125.167 22.1987 125.167 22.1986 125.167 22.1984C125.167 22.1982 125.167 22.198 125.167 22.1978C125.167 22.1977 125.167 22.1975 125.167 22.1973C125.167 22.1971 125.167 22.197 125.167 22.1968C125.167 22.1966 125.167 22.1965 125.167 22.1963C125.167 22.1961 125.167 22.1959 125.167 22.1958C125.167 22.1956 125.167 22.1954 125.167 22.1952C125.167 22.1951 125.167 22.1949 125.167 22.1947C125.167 22.1946 125.167 22.1944 125.167 22.1942C125.167 22.194 125.167 22.1939 125.167 22.1937C125.167 22.1935 125.167 22.1934 125.167 22.1932C125.167 22.193 125.167 22.1928 125.167 22.1927C125.167 22.1925 125.167 22.1923 125.167 22.1922C125.167 22.192 125.167 22.1918 125.167 22.1917C125.167 22.1915 125.167 22.1913 125.167 22.1912C125.167 22.191 125.167 22.1908 125.167 22.1907C125.167 22.1905 125.167 22.1903 125.167 22.1901C125.167 22.19 125.167 22.1898 125.167 22.1896C125.167 22.1895 125.167 22.1893 125.167 22.1891C125.167 22.189 125.167 22.1888 125.167 22.1887C125.167 22.1885 125.167 22.1883 125.167 22.1882C125.167 22.188 125.167 22.1878 125.167 22.1877C125.167 22.1875 125.167 22.1873 125.167 22.1872C125.167 22.187 125.167 22.1868 125.167 22.1867C125.167 22.1865 125.167 22.1864 125.167 22.1862C125.167 22.186 125.167 22.1859 125.167 22.1857C125.167 22.1855 125.167 22.1854 125.167 22.1852C125.167 22.1851 125.167 22.1849 125.167 22.1847C125.167 22.1846 125.167 22.1844 125.167 22.1843C125.167 22.1841 125.167 22.1839 125.167 22.1838C125.167 22.1836 125.167 22.1835 125.167 22.1833C125.167 22.1831 125.167 22.183 125.167 22.1828C125.167 22.1827 125.167 22.1825 125.167 22.1823C125.167 22.1822 125.167 22.182 125.167 22.1819C125.167 22.1817 125.167 22.1816 125.167 22.1814C125.167 22.1812 125.167 22.1811 125.167 22.1809C125.167 22.1808 125.167 22.1806 125.167 22.1805C125.167 22.1803 125.167 22.1801 125.167 22.18C125.167 22.1798 125.167 22.1797 125.167 22.1795C125.167 22.1794 125.167 22.1792 125.167 22.1791C125.167 22.1789 125.167 22.1788 125.167 22.1786C125.167 22.1784 125.167 22.1783 125.167 22.1781C125.167 22.178 125.167 22.1778 125.167 22.1777C125.167 22.1775 125.167 22.1774 125.167 22.1772C125.167 22.1771 125.167 22.1769 125.167 22.1768C125.167 22.1766 125.167 22.1765 125.167 22.1763C125.167 22.1762 125.167 22.176 125.167 22.1759C125.167 22.1757 125.167 22.1756 125.167 22.1754C125.167 22.1753 125.167 22.1751 125.167 22.175C125.167 22.1748 125.167 22.1747 125.167 22.1745C125.167 22.1744 125.167 22.1742 125.167 22.1741C125.167 22.1739 125.167 22.1738 125.167 22.1736C125.167 22.1735 125.167 22.1733 125.167 22.1732C125.167 22.173 125.167 22.1729 125.167 22.1727C125.167 22.1726 125.167 22.1724 125.167 22.1723C125.167 22.1722 125.167 22.172 125.167 22.1719C125.167 22.1717 125.167 22.1716 125.167 22.1714C125.167 22.1713 125.167 22.1711 125.167 22.171C125.167 22.1708 125.167 22.1707 125.167 22.1706C125.167 22.1704 125.167 22.1703 125.167 22.1701C125.167 22.17 125.167 22.1698 125.167 22.1697C125.167 22.1696 125.167 22.1694 125.167 22.1693C125.167 22.1691 125.167 22.169 125.167 22.1688C125.167 22.1687 125.167 22.1686 125.167 22.1684C125.167 22.1683 125.167 22.1681 125.167 22.168H123.167C123.167 22.1681 123.167 22.1683 123.167 22.1684C123.167 22.1686 123.167 22.1687 123.167 22.1688C123.167 22.169 123.167 22.1691 123.167 22.1693C123.167 22.1694 123.167 22.1696 123.167 22.1697C123.167 22.1698 123.167 22.17 123.167 22.1701C123.167 22.1703 123.167 22.1704 123.167 22.1706C123.167 22.1707 123.167 22.1708 123.167 22.171C123.167 22.1711 123.167 22.1713 123.167 22.1714C123.167 22.1716 123.167 22.1717 123.167 22.1719C123.167 22.172 123.167 22.1722 123.167 22.1723C123.167 22.1724 123.167 22.1726 123.167 22.1727C123.167 22.1729 123.167 22.173 123.167 22.1732C123.167 22.1733 123.167 22.1735 123.167 22.1736C123.167 22.1738 123.167 22.1739 123.167 22.1741C123.167 22.1742 123.167 22.1744 123.167 22.1745C123.167 22.1747 123.167 22.1748 123.167 22.175C123.167 22.1751 123.167 22.1753 123.167 22.1754C123.167 22.1756 123.167 22.1757 123.167 22.1759C123.167 22.176 123.167 22.1762 123.167 22.1763C123.167 22.1765 123.167 22.1766 123.167 22.1768C123.167 22.1769 123.167 22.1771 123.167 22.1772C123.167 22.1774 123.167 22.1775 123.167 22.1777C123.167 22.1778 123.167 22.178 123.167 22.1781C123.167 22.1783 123.167 22.1784 123.167 22.1786C123.167 22.1788 123.167 22.1789 123.167 22.1791C123.167 22.1792 123.167 22.1794 123.167 22.1795C123.167 22.1797 123.167 22.1798 123.167 22.18C123.167 22.1801 123.167 22.1803 123.167 22.1805C123.167 22.1806 123.167 22.1808 123.167 22.1809C123.167 22.1811 123.167 22.1812 123.167 22.1814C123.167 22.1816 123.167 22.1817 123.167 22.1819C123.167 22.182 123.167 22.1822 123.167 22.1823C123.167 22.1825 123.167 22.1827 123.167 22.1828C123.167 22.183 123.167 22.1831 123.167 22.1833C123.167 22.1835 123.167 22.1836 123.167 22.1838C123.167 22.1839 123.167 22.1841 123.167 22.1843C123.167 22.1844 123.167 22.1846 123.167 22.1847C123.167 22.1849 123.167 22.1851 123.167 22.1852C123.167 22.1854 123.167 22.1855 123.167 22.1857C123.167 22.1859 123.167 22.186 123.167 22.1862C123.167 22.1864 123.167 22.1865 123.167 22.1867C123.167 22.1868 123.167 22.187 123.167 22.1872C123.167 22.1873 123.167 22.1875 123.167 22.1877C123.167 22.1878 123.167 22.188 123.167 22.1882C123.167 22.1883 123.167 22.1885 123.167 22.1887C123.167 22.1888 123.167 22.189 123.167 22.1891C123.167 22.1893 123.167 22.1895 123.167 22.1896C123.167 22.1898 123.167 22.19 123.167 22.1901C123.167 22.1903 123.167 22.1905 123.167 22.1907C123.167 22.1908 123.167 22.191 123.167 22.1912C123.167 22.1913 123.167 22.1915 123.167 22.1917C123.167 22.1918 123.167 22.192 123.167 22.1922C123.167 22.1923 123.167 22.1925 123.167 22.1927C123.167 22.1928 123.167 22.193 123.167 22.1932C123.167 22.1934 123.167 22.1935 123.167 22.1937C123.167 22.1939 123.167 22.194 123.167 22.1942C123.167 22.1944 123.167 22.1946 123.167 22.1947C123.167 22.1949 123.167 22.1951 123.167 22.1952C123.167 22.1954 123.167 22.1956 123.167 22.1958C123.167 22.1959 123.167 22.1961 123.167 22.1963C123.167 22.1965 123.167 22.1966 123.167 22.1968C123.167 22.197 123.167 22.1971 123.167 22.1973C123.167 22.1975 123.167 22.1977 123.167 22.1978C123.167 22.198 123.167 22.1982 123.167 22.1984C123.167 22.1986 123.167 22.1987 123.167 22.1989C123.167 22.1991 123.167 22.1993 123.167 22.1994C123.167 22.1996 123.167 22.1998 123.167 22.2C123.167 22.2001 123.167 22.2003 123.167 22.2005C123.167 22.2007 123.167 22.2009 123.167 22.201C123.167 22.2012 123.167 22.2014 123.167 22.2016C123.167 22.2017 123.167 22.2019 123.167 22.2021C123.167 22.2023 123.167 22.2025 123.167 22.2026C123.167 22.2028 123.167 22.203 123.167 22.2032C123.167 22.2034 123.167 22.2036 123.167 22.2037C123.167 22.2039 123.167 22.2041 123.167 22.2043C123.167 22.2045 123.167 22.2046 123.167 22.2048C123.167 22.205 123.167 22.2052 123.167 22.2054C123.167 22.2056 123.167 22.2057 123.167 22.2059C123.167 22.2061 123.167 22.2063 123.167 22.2065C123.167 22.2067 123.167 22.2068 123.167 22.207C123.167 22.2072 123.167 22.2074 123.167 22.2076C123.167 22.2078 123.167 22.2079 123.167 22.2081C123.167 22.2083 123.167 22.2085 123.167 22.2087C123.167 22.2089 123.167 22.2091 123.167 22.2093C123.167 22.2094 123.167 22.2096 123.167 22.2098C123.167 22.21 123.167 22.2102 123.167 22.2104C123.167 22.2106 123.167 22.2108 123.167 22.2109C123.167 22.2111 123.167 22.2113 123.167 22.2115C123.167 22.2117 123.167 22.2119 123.167 22.2121C123.167 22.2123 123.167 22.2125 123.167 22.2126C123.167 22.2128 123.167 22.213 123.167 22.2132C123.167 22.2134 123.167 22.2136 123.167 22.2138C123.167 22.214 123.167 22.2142 123.167 22.2144C123.167 22.2146 123.167 22.2147 123.167 22.2149C123.167 22.2151 123.167 22.2153 123.167 22.2155C123.167 22.2157 123.167 22.2159 123.167 22.2161C123.167 22.2163 123.167 22.2165 123.167 22.2167C123.167 22.2169 123.167 22.2171 123.167 22.2173C123.167 22.2175 123.167 22.2176 123.167 22.2178C123.167 22.218 123.167 22.2182 123.167 22.2184C123.167 22.2186 123.167 22.2188 123.167 22.219C123.167 22.2192 123.167 22.2194 123.167 22.2196C123.167 22.2198 123.167 22.22 123.167 22.2202C123.167 22.2204 123.167 22.2206 123.167 22.2208C123.167 22.221 123.167 22.2212 123.167 22.2214C123.167 22.2216 123.167 22.2218 123.167 22.222C123.167 22.2222 123.167 22.2224 123.167 22.2226C123.167 22.2228 123.167 22.223 123.167 22.2232C123.167 22.2234 123.167 22.2236 123.167 22.2238C123.167 22.224 123.167 22.2242 123.167 22.2244C123.167 22.2246 123.167 22.2248 123.167 22.225C123.167 22.2252 123.167 22.2254 123.167 22.2256C123.167 22.2258 123.167 22.226 123.167 22.2262C123.167 22.2264 123.167 22.2266 123.167 22.2268C123.167 22.227 123.167 22.2272 123.167 22.2274C123.167 22.2276 123.167 22.2278 123.167 22.228C123.167 22.2282 123.167 22.2284 123.167 22.2286C123.167 22.2288 123.167 22.229 123.167 22.2293C123.167 22.2295 123.167 22.2297 123.167 22.2299C123.167 22.2301 123.167 22.2303 123.167 22.2305C123.167 22.2307 123.167 22.2309 123.167 22.2311C123.167 22.2313 123.167 22.2315 123.167 22.2317C123.167 22.2319 123.167 22.2321 123.167 22.2324C123.167 22.2326 123.167 22.2328 123.167 22.233C123.167 22.2332 123.167 22.2334 123.167 22.2336C123.167 22.2338 123.167 22.234 123.167 22.2342C123.167 22.2344 123.167 22.2347 123.167 22.2349C123.167 22.2351 123.167 22.2353 123.167 22.2355C123.167 22.2357 123.167 22.2359 123.167 22.2361C123.167 22.2363 123.167 22.2366 123.167 22.2368C123.167 22.237 123.167 22.2372 123.167 22.2374C123.167 22.2376 123.167 22.2378 123.167 22.238C123.167 22.2383 123.167 22.2385 123.167 22.2387C123.167 22.2389 123.167 22.2391 123.167 22.2393C123.167 22.2395 123.167 22.2398 123.167 22.24C123.167 22.2402 123.167 22.2404 123.167 22.2406C123.167 22.2408 123.167 22.241 123.167 22.2413C123.167 22.2415 123.167 22.2417 123.167 22.2419C123.167 22.2421 123.167 22.2423 123.167 22.2426C123.167 22.2428 123.167 22.243 123.167 22.2432C123.167 22.2434 123.167 22.2436 123.167 22.2439C123.167 22.2441 123.167 22.2443 123.167 22.2445C123.167 22.2447 123.167 22.245 123.167 22.2452C123.167 22.2454 123.167 22.2456 123.167 22.2458C123.167 22.2461 123.167 22.2463 123.167 22.2465C123.167 22.2467 123.167 22.2469 123.167 22.2472C123.167 22.2474 123.167 22.2476 123.167 22.2478C123.167 22.248 123.167 22.2483 123.167 22.2485C123.167 22.2487 123.167 22.2489 123.167 22.2492C123.167 22.2494 123.167 22.2496 123.167 22.2498C123.167 22.25 123.167 22.2503 123.167 22.2505C123.167 22.2507 123.167 22.2509 123.167 22.2512C123.167 22.2514 123.167 22.2516 123.167 22.2518C123.167 22.2521 123.167 22.2523 123.167 22.2525C123.167 22.2527 123.167 22.253 123.167 22.2532C123.167 22.2534 123.167 22.2536 123.167 22.2539C123.167 22.2541 123.167 22.2543 123.167 22.2545C123.167 22.2548 123.167 22.255 123.167 22.2552C123.167 22.2555 123.167 22.2557 123.167 22.2559C123.167 22.2561 123.167 22.2564 123.167 22.2566C123.167 22.2568 123.167 22.2571 123.167 22.2573C123.167 22.2575 123.167 22.2577 123.167 22.258C123.167 22.2582 123.167 22.2584 123.167 22.2587C123.167 22.2589 123.167 22.2591 123.167 22.2593C123.167 22.2596 123.167 22.2598 123.167 22.26C123.167 22.2603 123.167 22.2605 123.167 22.2607C123.167 22.261 123.167 22.2612 123.167 22.2614C123.167 22.2617 123.167 22.2619 123.167 22.2621C123.167 22.2624 123.167 22.2626 123.167 22.2628C123.167 22.2631 123.167 22.2633 123.167 22.2635C123.167 22.2638 123.167 22.264 123.167 22.2642C123.167 22.2645 123.167 22.2647 123.167 22.2649C123.167 22.2652 123.167 22.2654 123.167 22.2656C123.167 22.2659 123.167 22.2661 123.167 22.2664C123.167 22.2666 123.167 22.2668 123.167 22.2671C123.167 22.2673 123.167 22.2675 123.167 22.2678C123.167 22.268 123.167 22.2682 123.167 22.2685C123.167 22.2687 123.167 22.269 123.167 22.2692C123.167 22.2694 123.167 22.2697 123.167 22.2699C123.167 22.2702 123.167 22.2704 123.167 22.2706C123.167 22.2709 123.167 22.2711 123.167 22.2714C123.167 22.2716 123.167 22.2718 123.167 22.2721C123.167 22.2723 123.167 22.2726 123.167 22.2728C123.167 22.273 123.167 22.2733 123.167 22.2735C123.167 22.2738 123.167 22.274 123.167 22.2742C123.167 22.2745 123.167 22.2747 123.167 22.275C123.167 22.2752 123.167 22.2755 123.167 22.2757C123.167 22.2759 123.167 22.2762 123.167 22.2764C123.167 22.2767 123.167 22.2769 123.167 22.2772C123.167 22.2774 123.167 22.2777 123.167 22.2779C123.167 22.2781 123.167 22.2784 123.167 22.2786C123.167 22.2789 123.167 22.2791 123.167 22.2794C123.167 22.2796 123.167 22.2799 123.167 22.2801C123.167 22.2804 123.167 22.2806 123.167 22.2809C123.167 22.2811 123.167 22.2813 123.167 22.2816C123.167 22.2818 123.167 22.2821 123.167 22.2823C123.167 22.2826 123.167 22.2828 123.167 22.2831C123.167 22.2833 123.167 22.2836 123.167 22.2838C123.167 22.2841 123.167 22.2843 123.167 22.2846C123.167 22.2848 123.167 22.2851 123.167 22.2853C123.167 22.2856 123.167 22.2858 123.167 22.2861C123.167 22.2863 123.167 22.2866 123.167 22.2868C123.167 22.2871 123.167 22.2873 123.167 22.2876C123.167 22.2878 123.167 22.2881 123.167 22.2884C123.167 22.2886 123.167 22.2889 123.167 22.2891C123.167 22.2894 123.167 22.2896 123.167 22.2899C123.167 22.2901 123.167 22.2904 123.167 22.2906C123.167 22.2909 123.167 22.2911 123.167 22.2914C123.167 22.2917 123.167 22.2919 123.167 22.2922C123.167 22.2924 123.167 22.2927 123.167 22.2929C123.167 22.2932 123.167 22.2934 123.167 22.2937C123.167 22.294 123.167 22.2942 123.167 22.2945C123.167 22.2947 123.167 22.295 123.167 22.2952C123.167 22.2955 123.167 22.2958 123.167 22.296C123.167 22.2963 123.167 22.2965 123.167 22.2968C123.167 22.2971 123.167 22.2973 123.167 22.2976C123.167 22.2978 123.167 22.2981 123.167 22.2983C123.167 22.2986 123.167 22.2989 123.167 22.2991C123.167 22.2994 123.167 22.2996 123.167 22.2999C123.167 22.3002 123.167 22.3004 123.167 22.3007C123.167 22.301 123.167 22.3012 123.167 22.3015C123.167 22.3017 123.167 22.302 123.167 22.3023C123.167 22.3025 123.167 22.3028 123.167 22.3031C123.167 22.3033 123.167 22.3036 123.167 22.3038C123.167 22.3041 123.167 22.3044 123.167 22.3046C123.167 22.3049 123.167 22.3052 123.167 22.3054C123.167 22.3057 123.167 22.306 123.167 22.3062C123.167 22.3065 123.167 22.3068 123.167 22.307C123.167 22.3073 123.167 22.3076 123.167 22.3078C123.167 22.3081 123.167 22.3084 123.167 22.3086C123.167 22.3089 123.167 22.3092 123.167 22.3094C123.167 22.3097 123.167 22.31 123.167 22.3102C123.167 22.3105 123.167 22.3108 123.167 22.311C123.167 22.3113 123.167 22.3116 123.167 22.3118C123.167 22.3121 123.167 22.3124 123.167 22.3126C123.167 22.3129 123.167 22.3132 123.167 22.3135C123.167 22.3137 123.167 22.314 123.167 22.3143C123.167 22.3145 123.167 22.3148 123.167 22.3151C123.167 22.3154 123.167 22.3156 123.167 22.3159C123.167 22.3162 123.167 22.3164 123.167 22.3167C123.167 22.317 123.167 22.3173 123.167 22.3175C123.167 22.3178 123.167 22.3181 123.167 22.3183C123.167 22.3186 123.167 22.3189 123.167 22.3192C123.167 22.3194 123.167 22.3197 123.167 22.32C123.167 22.3203 123.167 22.3205 123.167 22.3208C123.167 22.3211 123.167 22.3214 123.167 22.3216C123.167 22.3219 123.167 22.3222 123.167 22.3225C123.167 22.3227 123.167 22.323 123.167 22.3233C123.167 22.3236 123.167 22.3239 123.167 22.3241C123.167 22.3244 123.167 22.3247 123.167 22.325C123.167 22.3252 123.167 22.3255 123.167 22.3258C123.167 22.3261 123.167 22.3264 123.167 22.3266C123.167 22.3269 123.167 22.3272 123.167 22.3275C123.167 22.3278 123.167 22.328 123.167 22.3283C123.167 22.3286 123.167 22.3289 123.167 22.3292C123.167 22.3294 123.167 22.3297 123.167 22.33C123.167 22.3303 123.167 22.3306 123.167 22.3308C123.167 22.3311 123.167 22.3314 123.167 22.3317C123.167 22.332 123.167 22.3323 123.167 22.3325C123.167 22.3328 123.167 22.3331 123.167 22.3334C123.167 22.3337 123.167 22.334 123.167 22.3342C123.167 22.3345 123.167 22.3348 123.167 22.3351C123.167 22.3354 123.167 22.3357 123.167 22.3359C123.167 22.3362 123.167 22.3365 123.167 22.3368C123.167 22.3371 123.167 22.3374 123.167 22.3377C123.167 22.3379 123.167 22.3382 123.167 22.3385C123.167 22.3388 123.167 22.3391 123.167 22.3394C123.167 22.3397 123.167 22.34 123.167 22.3402C123.167 22.3405 123.167 22.3408 123.167 22.3411C123.167 22.3414 123.167 22.3417 123.167 22.342C123.167 22.3423 123.167 22.3426 123.167 22.3428C123.167 22.3431 123.167 22.3434 123.167 22.3437C123.167 22.344 123.167 22.3443 123.167 22.3446C123.167 22.3449 123.167 22.3452 123.167 22.3455C123.167 22.3457 123.167 22.346 123.167 22.3463C123.167 22.3466 123.167 22.3469 123.167 22.3472C123.167 22.3475 123.167 22.3478 123.167 22.3481C123.167 22.3484 123.167 22.3487 123.167 22.349C123.167 22.3493 123.167 22.3495 123.167 22.3498C123.167 22.3501 123.167 22.3504 123.167 22.3507C123.167 22.351 123.167 22.3513 123.167 22.3516C123.167 22.3519 123.167 22.3522 123.167 22.3525C123.167 22.3528 123.167 22.3531 123.167 22.3534C123.167 22.3537 123.167 22.354 123.167 22.3543C123.167 22.3546 123.167 22.3549 123.167 22.3552C123.167 22.3555 123.167 22.3558 123.167 22.3561C123.167 22.3564 123.167 22.3566 123.167 22.3569C123.167 22.3572 123.167 22.3575 123.167 22.3578C123.167 22.3581 123.167 22.3584 123.167 22.3587C123.167 22.359 123.167 22.3593 123.167 22.3596C123.167 22.3599 123.167 22.3602 123.167 22.3605C123.167 22.3608 123.167 22.3611 123.167 22.3614C123.167 22.3617 123.167 22.362 123.167 22.3623C123.167 22.3626 123.167 22.3629 123.167 22.3633C123.167 22.3636 123.167 22.3639 123.167 22.3642C123.167 22.3645 123.167 22.3648 123.167 22.3651C123.167 22.3654 123.167 22.3657 123.167 22.366C123.167 22.3663 123.167 22.3666 123.167 22.3669C123.167 22.3672 123.167 22.3675 123.167 22.3678C123.167 22.3681 123.167 22.3684 123.167 22.3687C123.167 22.369 123.167 22.3693 123.167 22.3696C123.167 22.3699 123.167 22.3702 123.167 22.3706C123.167 22.3709 123.167 22.3712 123.167 22.3715C123.167 22.3718 123.167 22.3721 123.167 22.3724C123.167 22.3727 123.167 22.373 123.167 22.3733C123.167 22.3736 123.167 22.3739 123.167 22.3742C123.167 22.3746 123.167 22.3749 123.167 22.3752C123.167 22.3755 123.167 22.3758 123.167 22.3761C123.167 22.3764 123.167 22.3767 123.167 22.377C123.167 22.3773 123.167 22.3777 123.167 22.378C123.167 22.3783 123.167 22.3786 123.167 22.3789C123.167 22.3792 123.167 22.3795 123.167 22.3798C123.167 22.3801 123.167 22.3805 123.167 22.3808C123.167 22.3811 123.167 22.3814 123.167 22.3817C123.167 22.382 123.167 22.3823 123.167 22.3826C123.167 22.383 123.167 22.3833 123.167 22.3836C123.167 22.3839 123.167 22.3842 123.167 22.3845C123.167 22.3848 123.167 22.3852 123.167 22.3855C123.167 22.3858 123.167 22.3861 123.167 22.3864C123.167 22.3867 123.167 22.3871 123.167 22.3874C123.167 22.3877 123.167 22.388 123.167 22.3883C123.167 22.3886 123.167 22.389 123.167 22.3893C123.167 22.3896 123.167 22.3899 123.167 22.3902C123.167 22.3905 123.167 22.3909 123.167 22.3912C123.167 22.3915 123.167 22.3918 123.167 22.3921C123.167 22.3925 123.167 22.3928 123.167 22.3931C123.167 22.3934 123.167 22.3937 123.167 22.3941C123.167 22.3944 123.167 22.3947 123.167 22.395C123.167 22.3953 123.167 22.3957 123.167 22.396C123.167 22.3963 123.167 22.3966 123.167 22.3969C123.167 22.3973 123.167 22.3976 123.167 22.3979C123.167 22.3982 123.167 22.3986 123.167 22.3989C123.167 22.3992 123.167 22.3995 123.167 22.3999C123.167 22.4002 123.167 22.4005 123.167 22.4008C123.167 22.4011 123.167 22.4015 123.167 22.4018C123.167 22.4021 123.167 22.4024 123.167 22.4028C123.167 22.4031 123.167 22.4034 123.167 22.4037C123.167 22.4041 123.167 22.4044 123.167 22.4047C123.167 22.4051 123.167 22.4054 123.167 22.4057C123.167 22.406 123.167 22.4064 123.167 22.4067C123.167 22.407 123.167 22.4073 123.167 22.4077C123.167 22.408 123.167 22.4083 123.167 22.4087C123.167 22.409 123.167 22.4093 123.167 22.4096C123.167 22.41 123.167 22.4103 123.167 22.4106C123.167 22.411 123.167 22.4113 123.167 22.4116C123.167 22.412 123.167 22.4123 123.167 22.4126C123.167 22.4129 123.167 22.4133 123.167 22.4136C123.167 22.4139 123.167 22.4143 123.167 22.4146C123.167 22.4149 123.167 22.4153 123.167 22.4156C123.167 22.4159 123.167 22.4163 123.167 22.4166C123.167 22.4169 123.167 22.4173 123.167 22.4176C123.167 22.4179 123.167 22.4183 123.167 22.4186C123.167 22.4189 123.167 22.4193 123.167 22.4196C123.167 22.4199 123.167 22.4203 123.167 22.4206C123.167 22.4209 123.167 22.4213 123.167 22.4216C123.167 22.4219 123.167 22.4223 123.167 22.4226C123.167 22.423 123.167 22.4233 123.167 22.4236C123.167 22.424 123.167 22.4243 123.167 22.4246C123.167 22.425 123.167 22.4253 123.167 22.4256C123.167 22.426 123.167 22.4263 123.167 22.4267C123.167 22.427 123.167 22.4273 123.167 22.4277C123.167 22.428 123.167 22.4284 123.167 22.4287C123.167 22.429 123.167 22.4294 123.167 22.4297C123.167 22.4301 123.167 22.4304 123.167 22.4307C123.167 22.4311 123.167 22.4314 123.167 22.4318C123.167 22.4321 123.167 22.4324 123.167 22.4328C123.167 22.4331 123.167 22.4335 123.167 22.4338C123.167 22.4342 123.167 22.4345 123.167 22.4348C123.167 22.4352 123.167 22.4355 123.167 22.4359C123.167 22.4362 123.167 22.4366 123.167 22.4369C123.167 22.4372 123.167 22.4376 123.167 22.4379C123.167 22.4383 123.167 22.4386 123.167 22.439C123.167 22.4393 123.167 22.4397 123.167 22.44C123.167 22.4403 123.167 22.4407 123.167 22.441C123.167 22.4414 123.167 22.4417 123.167 22.4421C123.167 22.4424 123.167 22.4428 123.167 22.4431C123.167 22.4435 123.167 22.4438 123.167 22.4442C123.167 22.4445 123.167 22.4449 123.167 22.4452C123.167 22.4455 123.167 22.4459 123.167 22.4462C123.167 22.4466 123.167 22.4469 123.167 22.4473C123.167 22.4476 123.167 22.448 123.167 22.4483C123.167 22.4487 123.167 22.449 123.167 22.4494C123.167 22.4497 123.167 22.4501 123.167 22.4504C123.167 22.4508 123.167 22.4511 123.167 22.4515C123.167 22.4519 123.167 22.4522 123.167 22.4526C123.167 22.4529 123.167 22.4533 123.167 22.4536C123.167 22.454 123.167 22.4543 123.167 22.4547C123.167 22.455 123.167 22.4554 123.167 22.4557C123.167 22.4561 123.167 22.4564 123.167 22.4568C123.167 22.4571 123.167 22.4575 123.167 22.4579C123.167 22.4582 123.167 22.4586 123.167 22.4589C123.167 22.4593 123.167 22.4596 123.167 22.46C123.167 22.4603 123.167 22.4607 123.167 22.4611C123.167 22.4614 123.167 22.4618 123.167 22.4621C123.167 22.4625 123.167 22.4628 123.167 22.4632C123.167 22.4636 123.167 22.4639 123.167 22.4643C123.167 22.4646 123.167 22.465 123.167 22.4653C123.167 22.4657 123.167 22.4661 123.167 22.4664C123.167 22.4668 123.167 22.4671 123.167 22.4675C123.167 22.4679 123.167 22.4682 123.167 22.4686C123.167 22.4689 123.167 22.4693 123.167 22.4697C123.167 22.47 123.167 22.4704 123.167 22.4708C123.167 22.4711 123.167 22.4715 123.167 22.4718C123.167 22.4722 123.167 22.4726 123.167 22.4729C123.167 22.4733 123.167 22.4736 123.167 22.474C123.167 22.4744 123.167 22.4747 123.167 22.4751C123.167 22.4755 123.167 22.4758 123.167 22.4762C123.167 22.4766 123.167 22.4769 123.167 22.4773C123.167 22.4777 123.167 22.478 123.167 22.4784C123.167 22.4787 123.167 22.4791 123.167 22.4795C123.167 22.4798 123.167 22.4802 123.167 22.4806C123.167 22.4809 123.167 22.4813 123.167 22.4817C123.167 22.482 123.167 22.4824 123.167 22.4828C123.167 22.4831 123.167 22.4835 123.167 22.4839C123.167 22.4842 123.167 22.4846 123.167 22.485C123.167 22.4854 123.167 22.4857 123.167 22.4861C123.167 22.4865 123.167 22.4868 123.167 22.4872C123.167 22.4876 123.167 22.4879 123.167 22.4883C123.167 22.4887 123.167 22.4891 123.167 22.4894C123.167 22.4898 123.167 22.4902 123.167 22.4905C123.167 22.4909 123.167 22.4913 123.167 22.4917C123.167 22.492 123.167 22.4924 123.167 22.4928C123.167 22.4931 123.167 22.4935 123.167 22.4939C123.167 22.4943 123.167 22.4946 123.167 22.495C123.167 22.4954 123.167 22.4958 123.167 22.4961C123.167 22.4965 123.167 22.4969 123.167 22.4972C123.167 22.4976 123.167 22.498 123.167 22.4984C123.167 22.4988 123.167 22.4991 123.167 22.4995C123.167 22.4999 123.167 22.5003 123.167 22.5006C123.167 22.501 123.167 22.5014 123.167 22.5018C123.167 22.5021 123.167 22.5025 123.167 22.5029C123.167 22.5033 123.167 22.5036 123.167 22.504C123.167 22.5044 123.167 22.5048 123.167 22.5052C123.167 22.5055 123.167 22.5059 123.167 22.5063C123.167 22.5067 123.167 22.5071 123.167 22.5074C123.167 22.5078 123.167 22.5082 123.167 22.5086C123.167 22.509 123.167 22.5093 123.167 22.5097C123.167 22.5101 123.167 22.5105 123.167 22.5109C123.167 22.5112 123.167 22.5116 123.167 22.512C123.167 22.5124 123.167 22.5128 123.167 22.5131C123.167 22.5135 123.167 22.5139 123.167 22.5143C123.167 22.5147 123.167 22.5151 123.167 22.5154C123.167 22.5158 123.167 22.5162 123.167 22.5166C123.167 22.517 123.167 22.5174 123.167 22.5177C123.167 22.5181 123.167 22.5185 123.167 22.5189C123.167 22.5193 123.167 22.5197 123.167 22.5201C123.167 22.5204 123.167 22.5208 123.167 22.5212C123.167 22.5216 123.167 22.522 123.167 22.5224C123.167 22.5228 123.167 22.5231 123.167 22.5235C123.167 22.5239 123.167 22.5243 123.167 22.5247C123.167 22.5251 123.167 22.5255 123.167 22.5259C123.167 22.5263 123.167 22.5266 123.167 22.527C123.167 22.5274 123.167 22.5278 123.167 22.5282C123.167 22.5286 123.167 22.529 123.167 22.5294C123.167 22.5298 123.167 22.5301 123.167 22.5305C123.167 22.5309 123.167 22.5313 123.167 22.5317C123.167 22.5321 123.167 22.5325 123.167 22.5329C123.167 22.5333 123.167 22.5337 123.167 22.5341C123.167 22.5345 123.167 22.5348 123.167 22.5352C123.167 22.5356 123.167 22.536 123.167 22.5364C123.167 22.5368 123.167 22.5372 123.167 22.5376C123.167 22.538 123.167 22.5384 123.167 22.5388C123.167 22.5392 123.167 22.5396 123.167 22.54C123.167 22.5404 123.167 22.5408 123.167 22.5411C123.167 22.5415 123.167 22.5419 123.167 22.5423C123.167 22.5427 123.167 22.5431 123.167 22.5435C123.167 22.5439 123.167 22.5443 123.167 22.5447C123.167 22.5451 123.167 22.5455 123.167 22.5459C123.167 22.5463 123.167 22.5467 123.167 22.5471C123.167 22.5475 123.167 22.5479 123.167 22.5483C123.167 22.5487 123.167 22.5491 123.167 22.5495C123.167 22.5499 123.167 22.5503 123.167 22.5507C123.167 22.5511 123.167 22.5515 123.167 22.5519C123.167 22.5523 123.167 22.5527 123.167 22.5531C123.167 22.5535 123.167 22.5539 123.167 22.5543C123.167 22.5547 123.167 22.5551 123.167 22.5555C123.167 22.5559 123.167 22.5563 123.167 22.5567C123.167 22.5571 123.167 22.5575 123.167 22.5579C123.167 22.5583 123.167 22.5587 123.167 22.5591C123.167 22.5595 123.167 22.5599 123.167 22.5603C123.167 22.5607 123.167 22.5612 123.167 22.5616C123.167 22.562 123.167 22.5624 123.167 22.5628C123.167 22.5632 123.167 22.5636 123.167 22.564C123.167 22.5644 123.167 22.5648 123.167 22.5652C123.167 22.5656 123.167 22.566 123.167 22.5664C123.167 22.5668 123.167 22.5672 123.167 22.5676C123.167 22.5681 123.167 22.5685 123.167 22.5689C123.167 22.5693 123.167 22.5697 123.167 22.5701C123.167 22.5705 123.167 22.5709 123.167 22.5713C123.167 22.5717 123.167 22.5721 123.167 22.5726C123.167 22.573 123.167 22.5734 123.167 22.5738C123.167 22.5742 123.167 22.5746 123.167 22.575C123.167 22.5754 123.167 22.5758 123.167 22.5763C123.167 22.5767 123.167 22.5771 123.167 22.5775C123.167 22.5779 123.167 22.5783 123.167 22.5787C123.167 22.5791 123.167 22.5795 123.167 22.58C123.167 22.5804 123.167 22.5808 123.167 22.5812C123.167 22.5816 123.167 22.582 123.167 22.5824C123.167 22.5829 123.167 22.5833 123.167 22.5837C123.167 22.5841 123.167 22.5845 123.167 22.5849C123.167 22.5853 123.167 22.5858 123.167 22.5862C123.167 22.5866 123.167 22.587 123.167 22.5874C123.167 22.5878 123.167 22.5883 123.167 22.5887C123.167 22.5891 123.167 22.5895 123.167 22.5899C123.167 22.5903 123.167 22.5908 123.167 22.5912C123.167 22.5916 123.167 22.592 123.167 22.5924C123.167 22.5929 123.167 22.5933 123.167 22.5937C123.167 22.5941 123.167 22.5945 123.167 22.5949C123.167 22.5954 123.167 22.5958 123.167 22.5962C123.167 22.5966 123.167 22.5971 123.167 22.5975C123.167 22.5979 123.167 22.5983 123.167 22.5987C123.167 22.5992 123.167 22.5996 123.167 22.6H125.167ZM125.116 22.4842C125.132 22.4353 125.15 22.3787 125.165 22.3205C125.174 22.2824 125.203 22.1651 125.203 22.024H123.203C123.203 21.9866 123.206 21.956 123.208 21.9346C123.21 21.9127 123.213 21.8948 123.215 21.8821C123.219 21.8575 123.223 21.8409 123.224 21.8355C123.227 21.8253 123.226 21.8287 123.219 21.8518L125.116 22.4842ZM124.203 23.024H128.415V21.024H124.203V23.024ZM127.415 22.024V22.312H129.415V22.024H127.415ZM127.416 22.3376C127.448 23.5972 128.012 24.6183 129.093 25.2599L130.114 23.5401C129.658 23.2697 129.431 22.8988 129.415 22.2864L127.416 22.3376ZM129.125 25.2779C130.101 25.8107 131.261 26.048 132.555 26.048V24.048C131.497 24.048 130.689 23.8533 130.082 23.5221L129.125 25.2779ZM132.555 26.048C133.713 26.048 134.762 25.8643 135.667 25.4554L134.844 23.6326C134.261 23.8957 133.509 24.048 132.555 24.048V26.048ZM135.691 25.4442C136.174 25.2104 136.603 24.8902 136.91 24.454C137.224 24.0081 137.371 23.4974 137.371 22.96H135.371C135.371 23.1187 135.333 23.2199 135.275 23.302C135.21 23.3938 135.081 23.5176 134.82 23.6438L135.691 25.4442ZM137.371 22.96C137.371 22.1245 137.045 21.3915 136.395 20.8561L135.124 22.3999C135.29 22.5365 135.371 22.6915 135.371 22.96H137.371ZM136.421 20.8782C135.894 20.4134 135.263 20.0751 134.552 19.8476L133.943 21.7524C134.432 21.9089 134.809 22.1226 135.098 22.3778L136.421 20.8782ZM134.586 19.8591C133.935 19.6245 133.041 19.3745 131.924 19.1074L131.459 21.0526C132.55 21.3135 133.36 21.5435 133.909 21.7409L134.586 19.8591ZM131.927 19.108C130.461 18.7534 129.279 18.4044 128.371 18.0637L127.668 19.9363C128.68 20.3156 129.946 20.6866 131.456 21.052L131.927 19.108ZM128.378 18.0667C127.597 17.766 126.927 17.2975 126.36 16.6495L124.855 17.9665C125.632 18.8545 126.57 19.514 127.66 19.9333L128.378 18.0667ZM126.36 16.6495C125.881 16.1021 125.599 15.3461 125.599 14.284H123.599C123.599 15.7179 123.99 16.9779 124.855 17.9665L126.36 16.6495ZM125.599 14.284C125.599 12.816 126.178 11.7389 127.383 10.9421L126.28 9.27389C124.509 10.445 123.599 12.152 123.599 14.284H125.599ZM127.383 10.9421C128.661 10.0968 130.384 9.632 132.627 9.632V7.632C130.119 7.632 127.978 8.15118 126.28 9.27389L127.383 10.9421ZM132.627 9.632C133.994 9.632 135.18 9.83359 136.2 10.2163L136.903 8.34367C135.619 7.86241 134.189 7.632 132.627 7.632V9.632ZM136.2 10.2163C137.219 10.5983 137.942 11.115 138.43 11.7349L140.001 10.4971C139.241 9.53299 138.188 8.82569 136.903 8.34367L136.2 10.2163ZM138.451 11.7609C138.946 12.3478 139.187 13.0072 139.187 13.78H141.187C141.187 12.5368 140.78 11.4202 139.98 10.4711L138.451 11.7609ZM139.188 13.7346L139.152 14.5266L141.15 14.6174L141.186 13.8254L139.188 13.7346ZM140.151 13.572H135.939V15.572H140.151V13.572ZM136.939 14.572V14.428H134.939V14.572H136.939ZM136.939 14.428C136.939 13.3456 136.456 12.4553 135.551 11.863L134.456 13.537C134.798 13.7607 134.939 14.0224 134.939 14.428H136.939ZM135.588 11.8885C134.746 11.2827 133.628 11.052 132.375 11.052V13.052C133.427 13.052 134.06 13.2533 134.419 13.5115L135.588 11.8885ZM132.375 11.052C131.171 11.052 130.098 11.2389 129.289 11.744L130.349 13.44C130.693 13.2251 131.324 13.052 132.375 13.052V11.052ZM129.316 11.7282C128.507 12.1996 127.955 12.9372 127.955 13.924H129.955C129.955 13.8068 129.979 13.6564 130.323 13.4558L129.316 11.7282ZM127.955 13.924C127.955 14.4423 128.093 14.9389 128.394 15.3742C128.688 15.8014 129.101 16.1126 129.565 16.3366L130.434 14.5354C130.202 14.4234 130.092 14.3146 130.039 14.2378C129.992 14.1691 129.955 14.0777 129.955 13.924H127.955ZM129.602 16.3536C130.415 16.7059 131.585 17.0343 133.067 17.35L133.484 15.394C132.038 15.0857 131.024 14.7901 130.397 14.5184L129.602 16.3536ZM133.054 17.3471C134.612 17.7013 135.828 18.0596 136.72 18.4165L137.463 16.5595C136.435 16.1484 135.107 15.7627 133.497 15.3969L133.054 17.3471ZM136.748 18.4271C137.577 18.7304 138.294 19.2135 138.907 19.8887L140.387 18.5433C139.561 17.6345 138.574 16.9656 137.435 16.5489L136.748 18.4271ZM138.907 19.8887C139.42 20.4529 139.727 21.2586 139.727 22.42H141.727C141.727 20.8934 141.314 19.5631 140.387 18.5433L138.907 19.8887ZM139.727 22.42C139.727 24.2321 139.095 25.4042 137.923 26.1478L138.995 27.8362C140.848 26.6598 141.727 24.7839 141.727 22.42H139.727ZM137.917 26.1517C136.648 26.9705 134.833 27.432 132.375 27.432V29.432C135.054 29.432 137.295 28.9335 139.002 27.8323L137.917 26.1517ZM145.663 26.02L144.94 26.7108L144.946 26.7163L145.663 26.02ZM145.663 11.044L144.946 10.3477L144.94 10.3533L145.663 11.044ZM159.667 11.044L158.944 11.7348L158.95 11.7403L159.667 11.044ZM159.667 26.02L158.95 25.3237L158.944 25.3293L159.667 26.02ZM156.391 23.428L157.18 24.0433L157.187 24.034L156.391 23.428ZM156.391 13.672L155.596 14.2781L155.603 14.2873L156.391 13.672ZM148.939 13.672L148.144 13.066L148.142 13.0689L148.939 13.672ZM148.939 23.428L148.135 24.0219L148.143 24.0327L148.151 24.0433L148.939 23.428ZM152.683 27.432C149.725 27.432 147.689 26.6715 146.381 25.3237L144.946 26.7163C146.758 28.5845 149.401 29.432 152.683 29.432V27.432ZM146.386 25.3293C145.102 23.9843 144.359 21.7897 144.359 18.532H142.359C142.359 22.0423 143.153 24.8397 144.94 26.7107L146.386 25.3293ZM144.359 18.532C144.359 15.2743 145.102 13.0797 146.386 11.7347L144.94 10.3533C143.153 12.2243 142.359 15.0217 142.359 18.532H144.359ZM146.381 11.7403C147.689 10.3925 149.725 9.632 152.683 9.632V7.632C149.401 7.632 146.758 8.47948 144.946 10.3477L146.381 11.7403ZM152.683 9.632C155.643 9.632 157.663 10.393 158.944 11.7347L160.39 10.3533C158.6 8.479 155.964 7.632 152.683 7.632V9.632ZM158.95 11.7403C160.255 13.0855 161.007 15.2778 161.007 18.532H163.007C163.007 15.0182 162.2 12.2185 160.385 10.3477L158.95 11.7403ZM161.007 18.532C161.007 21.7862 160.255 23.9785 158.95 25.3237L160.385 26.7163C162.2 24.8455 163.007 22.0458 163.007 18.532H161.007ZM158.944 25.3293C157.663 26.671 155.643 27.432 152.683 27.432V29.432C155.964 29.432 158.6 28.585 160.39 26.7107L158.944 25.3293ZM152.683 25.904C154.575 25.904 156.159 25.3512 157.18 24.0433L155.603 22.8127C155.088 23.4728 154.199 23.904 152.683 23.904V25.904ZM157.187 24.034C158.149 22.771 158.543 20.961 158.543 18.784H156.543C156.543 20.783 156.17 22.069 155.596 22.822L157.187 24.034ZM158.543 18.784V18.28H156.543V18.784H158.543ZM158.543 18.28C158.543 16.106 158.15 14.3003 157.18 13.0567L155.603 14.2873C156.168 15.0117 156.543 16.278 156.543 18.28H158.543ZM157.187 13.066C156.169 11.7301 154.583 11.16 152.683 11.16V13.16C154.191 13.16 155.078 13.5979 155.596 14.278L157.187 13.066ZM152.683 11.16C150.765 11.16 149.164 11.7267 148.144 13.066L149.735 14.278C150.25 13.6013 151.146 13.16 152.683 13.16V11.16ZM148.142 13.0689C147.203 14.3106 146.823 16.1107 146.823 18.28H148.823C148.823 16.2733 149.188 15.0014 149.737 14.2751L148.142 13.0689ZM146.823 18.28V18.784H148.823V18.28H146.823ZM146.823 18.784C146.823 20.9563 147.204 22.7608 148.135 24.0219L149.744 22.8341C149.187 22.0792 148.823 20.7877 148.823 18.784H146.823ZM148.151 24.0433C149.174 25.3544 150.773 25.904 152.683 25.904V23.904C151.138 23.904 150.24 23.4696 149.728 22.8127L148.151 24.0433ZM165.744 9.064V8.064H164.744V9.064H165.744ZM170.064 9.064H171.064V8.064H170.064V9.064ZM170.928 23.86L170.236 24.582L170.243 24.589L170.251 24.5959L170.928 23.86ZM176.58 23.392L177.307 24.0786L176.58 23.392ZM177.804 9.064V8.064H176.804V9.064H177.804ZM182.124 9.064H183.124V8.064H182.124V9.064ZM182.124 28V29H183.124V28H182.124ZM178.56 28L177.57 28.1414L177.693 29H178.56V28ZM178.2 25.48L179.19 25.3386L179.067 24.48H178.2V25.48ZM177.948 25.48V24.48H177.445L177.146 24.8833L177.948 25.48ZM175.356 27.676L175.803 28.5705L175.812 28.5662L175.356 27.676ZM171.864 27.432C169.998 27.432 168.777 26.9332 168.007 26.1044C167.224 25.2617 166.744 23.9034 166.744 21.844H164.744C164.744 24.1766 165.284 26.1123 166.541 27.4656C167.811 28.8328 169.65 29.432 171.864 29.432V27.432ZM166.744 21.844V9.064H164.744V21.844H166.744ZM165.744 10.064H170.064V8.064H165.744V10.064ZM169.064 9.064V21.088H171.064V9.064H169.064ZM169.064 21.088C169.064 22.4928 169.37 23.7521 170.236 24.582L171.62 23.138C171.334 22.8639 171.064 22.2752 171.064 21.088H169.064ZM170.251 24.5959C171.1 25.3768 172.257 25.688 173.556 25.688V23.688C172.551 23.688 171.956 23.4472 171.605 23.1241L170.251 24.5959ZM173.556 25.688C175.028 25.688 176.3 25.1448 177.307 24.0786L175.853 22.7054C175.228 23.3672 174.484 23.688 173.556 23.688V25.688ZM177.307 24.0786C178.322 23.0043 178.804 21.6432 178.804 20.08H176.804C176.804 21.2048 176.47 22.0517 175.853 22.7054L177.307 24.0786ZM178.804 20.08V9.064H176.804V20.08H178.804ZM177.804 10.064H182.124V8.064H177.804V10.064ZM181.124 9.064V28H183.124V9.064H181.124ZM182.124 27H178.56V29H182.124V27ZM179.55 27.8586L179.19 25.3386L177.21 25.6214L177.57 28.1414L179.55 27.8586ZM178.2 24.48H177.948V26.48H178.2V24.48ZM177.146 24.8833C176.541 25.6969 175.795 26.3281 174.901 26.7858L175.812 28.5662C176.981 27.9679 177.963 27.1351 178.75 26.0767L177.146 24.8833ZM174.909 26.7816C174.062 27.2052 173.055 27.432 171.864 27.432V29.432C173.313 29.432 174.634 29.1548 175.803 28.5704L174.909 26.7816ZM187.157 9.064V8.064H186.157V9.064H187.157ZM190.721 9.064L191.711 8.92258L191.588 8.064H190.721V9.064ZM191.081 11.584L190.091 11.7254L190.213 12.584H191.081V11.584ZM191.333 11.584V12.584H191.835L192.135 12.1807L191.333 11.584ZM193.889 9.424L194.336 10.3185L194.344 10.3142L193.889 9.424ZM201.917 10.216L201.218 10.9311L201.226 10.939L201.917 10.216ZM203.537 28V29H204.537V28H203.537ZM199.217 28H198.217V29H199.217V28ZM198.317 13.204L197.625 13.926L197.632 13.933L197.64 13.9399L198.317 13.204ZM192.701 13.672L191.974 12.9854V12.9854L192.701 13.672ZM191.477 28V29H192.477V28H191.477ZM187.157 28H186.157V29H187.157V28ZM187.157 10.064H190.721V8.064H187.157V10.064ZM189.731 9.20542L190.091 11.7254L192.071 11.4426L191.711 8.92258L189.731 9.20542ZM191.081 12.584H191.333V10.584H191.081V12.584ZM192.135 12.1807C192.741 11.3659 193.473 10.7499 194.336 10.3184L193.441 8.52957C192.288 9.10611 191.316 9.93015 190.53 10.9873L192.135 12.1807ZM194.344 10.3142C195.217 9.86783 196.233 9.632 197.417 9.632V7.632C195.96 7.632 194.625 7.92417 193.433 8.53375L194.344 10.3142ZM197.417 9.632C199.15 9.632 200.372 10.1037 201.218 10.931L202.616 9.50099C201.302 8.21628 199.524 7.632 197.417 7.632V9.632ZM201.226 10.939C202.023 11.701 202.537 13.0433 202.537 15.22H204.537C204.537 12.7887 203.97 10.795 202.608 9.49301L201.226 10.939ZM202.537 15.22V28H204.537V15.22H202.537ZM203.537 27H199.217V29H203.537V27ZM200.217 28V15.976H198.217V28H200.217ZM200.217 15.976C200.217 14.5615 199.894 13.2963 198.994 12.4681L197.64 13.9399C197.939 14.2157 198.217 14.7985 198.217 15.976H200.217ZM199.009 12.482C198.178 11.6858 197.02 11.376 195.725 11.376V13.376C196.733 13.376 197.304 13.6182 197.625 13.926L199.009 12.482ZM195.725 11.376C194.253 11.376 192.981 11.9192 191.974 12.9854L193.428 14.3586C194.053 13.6968 194.797 13.376 195.725 13.376V11.376ZM191.974 12.9854C190.959 14.0597 190.477 15.4208 190.477 16.984H192.477C192.477 15.8592 192.81 15.0123 193.428 14.3586L191.974 12.9854ZM190.477 16.984V28H192.477V16.984H190.477ZM191.477 27H187.157V29H191.477V27ZM188.157 28V9.064H186.157V28H188.157ZM209.217 25.984L208.44 26.6129L209.217 25.984ZM209.217 11.116L209.999 11.7393L209.217 11.116ZM220.197 11.26L219.362 11.8094L219.658 12.26H220.197V11.26ZM220.413 11.26V12.26H221.413V11.26H220.413ZM220.413 1.972V0.971998H219.413V1.972H220.413ZM224.733 1.972H225.733V0.971998H224.733V1.972ZM224.733 28V29H225.733V28H224.733ZM221.169 28L220.179 28.1414L220.302 29H221.169V28ZM220.809 25.48L221.799 25.3386L221.677 24.48H220.809V25.48ZM220.593 25.48V24.48H220.051L219.755 24.935L220.593 25.48ZM219.369 23.248L220.186 23.8255L220.192 23.8162L219.369 23.248ZM212.709 13.78L213.522 14.3632L213.529 14.3535L212.709 13.78ZM212.709 23.32L211.89 23.8935L211.897 23.9032L212.709 23.32ZM214.797 27.432C212.651 27.432 211.096 26.717 209.995 25.3551L208.44 26.6129C209.978 28.515 212.144 29.432 214.797 29.432V27.432ZM209.995 25.3551C208.883 23.9804 208.237 21.7556 208.237 18.496H206.237C206.237 21.9564 206.912 24.7236 208.44 26.6129L209.995 25.3551ZM208.237 18.496C208.237 15.3424 208.879 13.1449 209.999 11.7393L208.435 10.4927C206.916 12.3991 206.237 15.1216 206.237 18.496H208.237ZM209.999 11.7393C211.12 10.3329 212.591 9.632 214.509 9.632V7.632C212.012 7.632 209.954 8.58714 208.435 10.4927L209.999 11.7393ZM214.509 9.632C216.912 9.632 218.443 10.4123 219.362 11.8094L221.033 10.7106C219.648 8.60369 217.387 7.632 214.509 7.632V9.632ZM220.197 12.26H220.413V10.26H220.197V12.26ZM221.413 11.26V1.972H219.413V11.26H221.413ZM220.413 2.972H224.733V0.971998H220.413V2.972ZM223.733 1.972V28H225.733V1.972H223.733ZM224.733 27H221.169V29H224.733V27ZM222.159 27.8586L221.799 25.3386L219.819 25.6214L220.179 28.1414L222.159 27.8586ZM220.809 24.48H220.593V26.48H220.809V24.48ZM219.755 24.935C219.226 25.7483 218.544 26.3585 217.698 26.7816L218.593 28.5704C219.762 27.9855 220.712 27.1317 221.432 26.025L219.755 24.935ZM217.698 26.7816C216.841 27.2103 215.88 27.432 214.797 27.432V29.432C216.163 29.432 217.434 29.1497 218.593 28.5704L217.698 26.7816ZM216.093 25.724C217.82 25.724 219.258 25.1375 220.186 23.8255L218.553 22.6705C218.089 23.3265 217.343 23.724 216.093 23.724V25.724ZM220.192 23.8162C221.054 22.5677 221.413 20.8422 221.413 18.784H219.413C219.413 20.6618 219.076 21.9123 218.547 22.6798L220.192 23.8162ZM221.413 18.784V18.352H219.413V18.784H221.413ZM221.413 18.352C221.413 16.2583 221.043 14.5081 220.145 13.2595C219.204 11.9498 217.794 11.34 216.093 11.34V13.34C217.273 13.34 218.022 13.7322 218.521 14.4265C219.064 15.1819 219.413 16.4377 219.413 18.352H221.413ZM216.093 11.34C214.309 11.34 212.811 11.8907 211.89 13.2065L213.529 14.3535C213.952 13.7493 214.71 13.34 216.093 13.34V11.34ZM211.897 13.1968C211.038 14.3929 210.701 16.167 210.701 18.316H212.701C212.701 16.289 213.036 15.0391 213.522 14.3632L211.897 13.1968ZM210.701 18.316V18.784H212.701V18.316H210.701ZM210.701 18.784C210.701 20.9155 211.041 22.6799 211.89 23.8935L213.529 22.7465C213.034 22.0401 212.701 20.7805 212.701 18.784H210.701ZM211.897 23.9032C212.822 25.1914 214.318 25.724 216.093 25.724V23.724C214.701 23.724 213.941 23.3207 213.522 22.7368L211.897 23.9032ZM230.738 26.02L229.993 26.6871L230.738 26.02ZM230.738 11.044L229.999 10.3708L229.993 10.3769L230.738 11.044ZM243.302 10.54L242.628 11.2782V11.2782L243.302 10.54ZM245.39 16.156V17.156H246.39V16.156H245.39ZM240.998 16.156H239.998V17.156H240.998V16.156ZM234.014 13.672L234.837 14.2402L234.843 14.2311L234.014 13.672ZM234.014 23.464L233.191 24.0322L233.199 24.0435L233.207 24.0545L234.014 23.464ZM240.242 23.896L239.51 23.2146L239.504 23.2215L239.498 23.2285L240.242 23.896ZM241.214 20.908V19.908H240.214V20.908H241.214ZM245.39 20.908H246.39V19.908H245.39V20.908ZM243.266 26.452L242.584 25.7205L242.578 25.7264L243.266 26.452ZM237.362 27.432C234.559 27.432 232.67 26.678 231.483 25.3529L229.993 26.6871C231.686 28.578 234.214 29.432 237.362 29.432V27.432ZM231.483 25.3529C230.279 24.008 229.578 21.8033 229.578 18.532H227.578C227.578 22.0287 228.318 24.816 229.993 26.6871L231.483 25.3529ZM229.578 18.532C229.578 15.2607 230.279 13.056 231.483 11.7111L229.993 10.3769C228.318 12.248 227.578 15.0353 227.578 18.532H229.578ZM231.478 11.7172C232.691 10.384 234.587 9.632 237.362 9.632V7.632C234.233 7.632 231.713 8.48802 229.999 10.3708L231.478 11.7172ZM237.362 9.632C239.772 9.632 241.478 10.2275 242.628 11.2782L243.977 9.80179C242.342 8.3085 240.088 7.632 237.362 7.632V9.632ZM242.628 11.2782C243.753 12.3065 244.39 13.8728 244.39 16.156H246.39C246.39 13.4952 245.635 11.3175 243.977 9.80179L242.628 11.2782ZM245.39 15.156H240.998V17.156H245.39V15.156ZM241.998 16.156C241.998 14.684 241.672 13.3933 240.844 12.466L239.352 13.798C239.724 14.2147 239.998 14.94 239.998 16.156H241.998ZM240.844 12.466C239.986 11.5055 238.726 11.124 237.29 11.124V13.124C238.398 13.124 239.01 13.4145 239.352 13.798L240.844 12.466ZM237.29 11.124C235.544 11.124 234.105 11.7487 233.185 13.1129L234.843 14.2311C235.315 13.5313 236.06 13.124 237.29 13.124V11.124ZM233.191 13.1038C232.323 14.3612 231.97 16.1676 231.97 18.352H233.97C233.97 16.3124 234.313 14.9988 234.837 14.2402L233.191 13.1038ZM231.97 18.352V18.784H233.97V18.352H231.97ZM231.97 18.784C231.97 20.9684 232.323 22.7748 233.191 24.0322L234.837 22.8958C234.313 22.1371 233.97 20.8236 233.97 18.784H231.97ZM233.207 24.0545C234.17 25.3702 235.672 25.94 237.47 25.94V23.94C236.1 23.94 235.298 23.5258 234.821 22.8735L233.207 24.0545ZM237.47 25.94C238.885 25.94 240.119 25.5317 240.987 24.5635L239.498 23.2285C239.118 23.6523 238.503 23.94 237.47 23.94V25.94ZM240.974 24.5774C241.849 23.638 242.214 22.3638 242.214 20.908H240.214C240.214 22.0442 239.932 22.762 239.51 23.2146L240.974 24.5774ZM241.214 21.908H245.39V19.908H241.214V21.908ZM244.39 20.908C244.39 23.0744 243.753 24.6314 242.584 25.7205L243.948 27.1835C245.612 25.6326 246.39 23.4936 246.39 20.908H244.39ZM242.578 25.7264C241.426 26.8189 239.736 27.432 237.362 27.432V29.432C240.076 29.432 242.322 28.7251 243.954 27.1776L242.578 25.7264ZM249.102 9.064V8.064H248.102V9.064H249.102ZM252.666 9.064L253.657 8.93262L253.542 8.064H252.666V9.064ZM253.062 12.052L252.071 12.1834L252.186 13.052H253.062V12.052ZM253.314 12.052V13.052H254.004L254.249 12.4064L253.314 12.052ZM259.362 8.956H260.362V8.28465L259.741 8.03045L259.362 8.956ZM259.362 13.024V14.024H260.362V13.024H259.362ZM253.422 28V29H254.422V28H253.422ZM249.102 28H248.102V29H249.102V28ZM249.102 10.064H252.666V8.064H249.102V10.064ZM251.675 9.19538L252.071 12.1834L254.053 11.9206L253.657 8.93262L251.675 9.19538ZM253.062 13.052H253.314V11.052H253.062V13.052ZM254.249 12.4064C254.639 11.3779 255.121 10.6925 255.651 10.2659C256.166 9.85114 256.786 9.632 257.562 9.632V7.632C256.37 7.632 255.298 7.98285 254.397 8.70807C253.511 9.42146 252.853 10.4461 252.379 11.6976L254.249 12.4064ZM257.562 9.632C258.127 9.632 258.595 9.72264 258.983 9.88155L259.741 8.03045C259.073 7.75736 258.341 7.632 257.562 7.632V9.632ZM258.362 8.956V13.024H260.362V8.956H258.362ZM259.362 12.024H257.994V14.024H259.362V12.024ZM257.994 12.024C256.285 12.024 254.829 12.5068 253.82 13.6354C252.829 14.7427 252.422 16.3037 252.422 18.136H254.422C254.422 16.5603 254.777 15.5653 255.31 14.9686C255.825 14.3932 256.655 14.024 257.994 14.024V12.024ZM252.422 18.136V28H254.422V18.136H252.422ZM253.422 27H249.102V29H253.422V27ZM250.102 28V9.064H248.102V28H250.102ZM263.47 26.02L262.736 26.6992L263.47 26.02ZM263.47 11.044L262.742 10.359L262.736 10.3648L263.47 11.044ZM276.538 10.972L275.786 11.6313L275.792 11.6378L276.538 10.972ZM278.626 19.576V20.576H279.626V19.576H278.626ZM265.63 19.576V18.576H264.591L264.631 19.6144L265.63 19.576ZM266.818 23.716L266.042 24.3458L266.051 24.3573L266.06 24.3685L266.818 23.716ZM273.262 24.112L273.89 24.8904L273.897 24.8844L273.905 24.8782L273.262 24.112ZM274.378 21.376V20.376H273.378V21.376H274.378ZM278.626 21.376H279.626V20.376H278.626V21.376ZM276.322 26.668L276.93 27.462L276.938 27.456L276.322 26.668ZM274.126 16.516V17.516H275.126V16.516H274.126ZM267.034 13.168L266.327 12.4609L267.034 13.168ZM265.702 16.516L264.708 16.4056L264.585 17.516H265.702V16.516ZM270.31 27.432C267.402 27.432 265.437 26.6728 264.204 25.3408L262.736 26.6992C264.48 28.5832 267.075 29.432 270.31 29.432V27.432ZM264.204 25.3408C262.96 23.9961 262.238 21.7966 262.238 18.532H260.238C260.238 22.0354 261.005 24.8279 262.736 26.6992L264.204 25.3408ZM262.238 18.532C262.238 15.2674 262.96 13.0679 264.204 11.7232L262.736 10.3648C261.005 12.2361 260.238 15.0286 260.238 18.532H262.238ZM264.199 11.729C265.459 10.3892 267.43 9.632 270.31 9.632V7.632C267.095 7.632 264.506 8.48279 262.742 10.359L264.199 11.729ZM270.31 9.632C272.91 9.632 274.667 10.3552 275.786 11.6313L277.29 10.3127C275.673 8.46882 273.279 7.632 270.31 7.632V9.632ZM275.792 11.6378C276.948 12.9334 277.626 15.0772 277.626 18.28H279.626C279.626 14.8588 278.912 12.1306 277.284 10.3062L275.792 11.6378ZM277.626 18.28V19.576H279.626V18.28H277.626ZM278.626 18.576H265.63V20.576H278.626V18.576ZM264.631 19.6144C264.706 21.576 265.123 23.2128 266.042 24.3458L267.595 23.0862C267.074 22.4432 266.698 21.32 266.63 19.5376L264.631 19.6144ZM266.06 24.3685C267.063 25.5323 268.571 26.012 270.346 26.012V24.012C268.906 24.012 268.062 23.6277 267.576 23.0635L266.06 24.3685ZM270.346 26.012C271.715 26.012 272.927 25.6673 273.89 24.8904L272.634 23.3336C272.11 23.7567 271.378 24.012 270.346 24.012V26.012ZM273.905 24.8782C274.928 24.0202 275.378 22.7956 275.378 21.376H273.378C273.378 22.3564 273.085 22.9558 272.62 23.3458L273.905 24.8782ZM274.378 22.376H278.626V20.376H274.378V22.376ZM277.626 21.376C277.626 23.463 276.952 24.9072 275.707 25.88L276.938 27.456C278.765 26.0288 279.626 23.945 279.626 21.376H277.626ZM275.714 25.874C274.396 26.8832 272.624 27.432 270.31 27.432V29.432C272.94 29.432 275.176 28.8048 276.93 27.462L275.714 25.874ZM275.126 16.516C275.126 14.9089 274.786 13.517 273.932 12.5182C273.053 11.4895 271.781 11.052 270.31 11.052V13.052C271.384 13.052 272.02 13.3585 272.412 13.8178C272.83 14.307 273.126 15.1471 273.126 16.516H275.126ZM270.31 11.052C268.705 11.052 267.319 11.4688 266.327 12.4609L267.741 13.8751C268.237 13.3792 269.035 13.052 270.31 13.052V11.052ZM266.327 12.4609C265.384 13.4039 264.89 14.7749 264.708 16.4056L266.696 16.6264C266.851 15.2331 267.244 14.3721 267.741 13.8751L266.327 12.4609ZM265.702 17.516H274.126V15.516H265.702V17.516ZM282.862 27.316L282.331 28.1631L282.34 28.1691L282.35 28.1749L282.862 27.316ZM284.122 17.992L283.692 17.0893L284.122 17.992ZM292.906 16.516V17.516H293.906V16.516H292.906ZM292.186 12.808L291.445 13.4789L291.453 13.4884L291.462 13.4977L292.186 12.808ZM286.966 12.664L286.355 11.8727L286.966 12.664ZM286.174 14.68V15.68H287.174V14.68H286.174ZM281.998 14.68L281.012 14.8444L281.151 15.68H281.998V14.68ZM284.05 10.036L283.499 9.20175L283.492 9.20616L284.05 10.036ZM295.318 10.18L294.681 10.9507L294.688 10.9566L295.318 10.18ZM297.586 24.616L296.917 25.3593L296.939 25.3787L296.961 25.3969L297.586 24.616ZM299.638 24.904H300.638V23.904H299.638V24.904ZM299.638 27.856L300.063 28.7615L300.638 28.4917V27.856H299.638ZM294.598 27.712L295.188 26.9046L294.598 27.712ZM293.338 25.84L294.303 25.5769L294.102 24.84H293.338V25.84ZM293.086 25.84V24.84H292.613L292.313 25.2062L293.086 25.84ZM292.906 19.576H293.906V18.576H292.906V19.576ZM287.434 20.26L287.745 21.2104L287.753 21.2079L287.761 21.2052L287.434 20.26ZM287.038 27.432C285.672 27.432 284.458 27.1034 283.374 26.4571L282.35 28.1749C283.762 29.0166 285.333 29.432 287.038 29.432V27.432ZM283.394 26.4689C282.572 25.9535 282.026 24.9553 282.026 23.104H280.026C280.026 25.3327 280.704 27.1425 282.331 28.1631L283.394 26.4689ZM282.026 23.104C282.026 22.035 282.253 21.1911 282.656 20.526C283.056 19.8646 283.67 19.3154 284.552 18.8947L283.692 17.0893C282.51 17.6526 281.576 18.4474 280.945 19.49C280.316 20.5289 280.026 21.749 280.026 23.104H282.026ZM284.552 18.8947C286.422 18.0036 289.177 17.516 292.906 17.516V15.516C289.051 15.516 285.951 16.0124 283.692 17.0893L284.552 18.8947ZM293.906 16.516V14.932H291.906V16.516H293.906ZM293.906 14.932C293.906 13.8454 293.617 12.8603 292.91 12.1183L291.462 13.4977C291.715 13.7637 291.906 14.1946 291.906 14.932H293.906ZM292.928 12.1371C292.176 11.3068 290.963 11.052 289.666 11.052V13.052C290.817 13.052 291.284 13.3012 291.445 13.4789L292.928 12.1371ZM289.666 11.052C288.345 11.052 287.157 11.2524 286.355 11.8727L287.578 13.4553C287.831 13.2596 288.443 13.052 289.666 13.052V11.052ZM286.355 11.8727C285.613 12.4458 285.174 13.2286 285.174 14.176H287.174C287.174 13.9234 287.263 13.6982 287.578 13.4553L286.355 11.8727ZM285.174 14.176V14.68H287.174V14.176H285.174ZM286.174 13.68H281.998V15.68H286.174V13.68ZM282.985 14.5156C282.976 14.4639 282.962 14.2778 282.962 13.888H280.962C280.962 14.2662 280.972 14.6081 281.012 14.8444L282.985 14.5156ZM282.962 13.888C282.962 12.5999 283.483 11.6223 284.608 10.8658L283.492 9.20616C281.833 10.3217 280.962 11.9121 280.962 13.888H282.962ZM284.602 10.8702C285.804 10.0756 287.464 9.632 289.666 9.632V7.632C287.213 7.632 285.129 8.12436 283.499 9.20178L284.602 10.8702ZM289.666 9.632C292.076 9.632 293.688 10.1297 294.681 10.9506L295.955 9.40935C294.452 8.16627 292.296 7.632 289.666 7.632V9.632ZM294.688 10.9566C295.685 11.765 296.226 12.9314 296.226 14.608H298.226C298.226 12.4446 297.496 10.659 295.948 9.40344L294.688 10.9566ZM296.226 14.608V23.644H298.226V14.608H296.226ZM296.226 23.644C296.226 24.259 296.402 24.8955 296.917 25.3593L298.255 23.8727C298.264 23.8805 298.262 23.8848 298.254 23.8637C298.244 23.8368 298.226 23.77 298.226 23.644H296.226ZM296.961 25.3969C297.408 25.7542 297.94 25.904 298.486 25.904V23.904C298.313 23.904 298.244 23.8618 298.211 23.8351L296.961 25.3969ZM298.486 25.904H299.638V23.904H298.486V25.904ZM298.638 24.904V27.856H300.638V24.904H298.638ZM299.214 26.9505C298.604 27.2363 297.855 27.396 296.938 27.396V29.396C298.086 29.396 299.136 29.1957 300.063 28.7615L299.214 26.9505ZM296.938 27.396C296.169 27.396 295.607 27.2109 295.188 26.9046L294.008 28.5194C294.837 29.1251 295.836 29.396 296.938 29.396V27.396ZM295.188 26.9046C294.759 26.591 294.463 26.1648 294.303 25.5769L292.373 26.1031C292.645 27.0992 293.189 27.921 294.008 28.5194L295.188 26.9046ZM293.338 24.84H293.086V26.84H293.338V24.84ZM292.313 25.2062C291.12 26.6616 289.412 27.432 287.038 27.432V29.432C289.897 29.432 292.22 28.4744 293.86 26.4738L292.313 25.2062ZM288.334 25.976C289.951 25.976 291.345 25.5035 292.389 24.4591L290.975 23.0449C290.387 23.6325 289.549 23.976 288.334 23.976V25.976ZM292.389 24.4591C293.43 23.4179 293.906 22.0388 293.906 20.44H291.906C291.906 21.6252 291.566 22.4541 290.975 23.0449L292.389 24.4591ZM293.906 20.44V19.576H291.906V20.44H293.906ZM292.906 18.576C290.531 18.576 288.58 18.8063 287.108 19.3148L287.761 21.2052C288.929 20.8017 290.625 20.576 292.906 20.576V18.576ZM287.123 19.3096C286.341 19.5655 285.661 19.9617 285.176 20.5525C284.68 21.1566 284.454 21.8846 284.454 22.672H286.454C286.454 22.2834 286.558 22.0214 286.722 21.8215C286.897 21.6083 287.207 21.3865 287.745 21.2104L287.123 19.3096ZM284.454 22.672C284.454 23.6607 284.774 24.5606 285.549 25.1809C286.282 25.767 287.267 25.976 288.334 25.976V23.976C287.481 23.976 287.026 23.801 286.799 23.6191C286.614 23.4714 286.454 23.2193 286.454 22.672H284.454ZM303.73 27.1L302.935 27.7067L302.944 27.7184L302.953 27.7298L303.73 27.1ZM302.686 12.592H303.686V11.592H302.686V12.592ZM300.382 12.592H299.382V13.592H300.382V12.592ZM300.382 9.064V8.064H299.382V9.064H300.382ZM302.758 9.064V10.064H303.62L303.747 9.21201L302.758 9.064ZM303.55 3.772V2.772H302.689L302.561 3.62399L303.55 3.772ZM307.006 3.772H308.006V2.772H307.006V3.772ZM307.006 9.064H306.006V10.064H307.006V9.064ZM310.246 9.064H311.246V8.064H310.246V9.064ZM310.246 12.592V13.592H311.246V12.592H310.246ZM307.006 12.592V11.592H306.006V12.592H307.006ZM310.246 24.904H311.246V23.904H310.246V24.904ZM310.246 27.856L310.597 28.7923L311.246 28.549V27.856H310.246ZM308.806 28.252L308.602 27.273L308.806 28.252ZM307.222 27.432C305.787 27.432 304.969 27.0397 304.507 26.4702L302.953 27.7298C303.932 28.9363 305.441 29.432 307.222 29.432V27.432ZM304.525 26.4933C303.984 25.7843 303.686 24.8798 303.686 23.716H301.686C301.686 25.2402 302.084 26.5917 302.935 27.7067L304.525 26.4933ZM303.686 23.716V12.592H301.686V23.716H303.686ZM302.686 11.592H300.382V13.592H302.686V11.592ZM301.382 12.592V9.064H299.382V12.592H301.382ZM300.382 10.064H302.758V8.064H300.382V10.064ZM303.747 9.21201L304.539 3.92001L302.561 3.62399L301.769 8.91599L303.747 9.21201ZM303.55 4.772H307.006V2.772H303.55V4.772ZM306.006 3.772V9.064H308.006V3.772H306.006ZM307.006 10.064H310.246V8.064H307.006V10.064ZM309.246 9.064V12.592H311.246V9.064H309.246ZM310.246 11.592H307.006V13.592H310.246V11.592ZM306.006 12.592V23.284H308.006V12.592H306.006ZM306.006 23.284C306.006 23.9671 306.169 24.665 306.67 25.1899C307.18 25.7232 307.872 25.904 308.554 25.904V23.904C308.204 23.904 308.122 23.8148 308.116 23.8081C308.102 23.793 308.006 23.6809 308.006 23.284H306.006ZM308.554 25.904H310.246V23.904H308.554V25.904ZM309.246 24.904V27.856H311.246V24.904H309.246ZM309.895 26.9197C309.574 27.0398 309.148 27.1594 308.602 27.273L309.01 29.231C309.617 29.1046 310.15 28.9602 310.597 28.7923L309.895 26.9197ZM308.602 27.273C308.079 27.382 307.62 27.432 307.222 27.432V29.432C307.784 29.432 308.381 29.362 309.01 29.231L308.602 27.273ZM314.798 26.02L314.064 26.6992L314.798 26.02ZM314.798 11.044L314.07 10.359L314.064 10.3648L314.798 11.044ZM327.866 10.972L327.115 11.6313L327.12 11.6378L327.866 10.972ZM329.954 19.576V20.576H330.954V19.576H329.954ZM316.958 19.576V18.576H315.919L315.959 19.6144L316.958 19.576ZM318.146 23.716L317.37 24.3458L317.379 24.3573L317.389 24.3685L318.146 23.716ZM324.59 24.112L325.218 24.8904L325.226 24.8844L325.233 24.8782L324.59 24.112ZM325.706 21.376V20.376H324.706V21.376H325.706ZM329.954 21.376H330.954V20.376H329.954V21.376ZM327.65 26.668L328.258 27.462L328.266 27.456L327.65 26.668ZM325.454 16.516V17.516H326.454V16.516H325.454ZM318.362 13.168L317.655 12.4609L318.362 13.168ZM317.03 16.516L316.036 16.4056L315.913 17.516H317.03V16.516ZM321.638 27.432C318.73 27.432 316.765 26.6728 315.532 25.3408L314.064 26.6992C315.808 28.5832 318.403 29.432 321.638 29.432V27.432ZM315.532 25.3408C314.288 23.9961 313.566 21.7966 313.566 18.532H311.566C311.566 22.0354 312.333 24.8279 314.064 26.6992L315.532 25.3408ZM313.566 18.532C313.566 15.2674 314.288 13.0679 315.532 11.7232L314.064 10.3648C312.333 12.2361 311.566 15.0286 311.566 18.532H313.566ZM315.527 11.729C316.787 10.3892 318.758 9.632 321.638 9.632V7.632C318.423 7.632 315.834 8.48279 314.07 10.359L315.527 11.729ZM321.638 9.632C324.238 9.632 325.995 10.3552 327.115 11.6313L328.618 10.3127C327.001 8.46882 324.607 7.632 321.638 7.632V9.632ZM327.12 11.6378C328.276 12.9334 328.954 15.0772 328.954 18.28H330.954C330.954 14.8588 330.24 12.1306 328.613 10.3062L327.12 11.6378ZM328.954 18.28V19.576H330.954V18.28H328.954ZM329.954 18.576H316.958V20.576H329.954V18.576ZM315.959 19.6144C316.035 21.576 316.451 23.2128 317.37 24.3458L318.923 23.0862C318.402 22.4432 318.026 21.32 317.958 19.5376L315.959 19.6144ZM317.389 24.3685C318.391 25.5323 319.899 26.012 321.674 26.012V24.012C320.234 24.012 319.39 23.6277 318.904 23.0635L317.389 24.3685ZM321.674 26.012C323.043 26.012 324.255 25.6673 325.218 24.8904L323.963 23.3336C323.438 23.7567 322.706 24.012 321.674 24.012V26.012ZM325.233 24.8782C326.256 24.0202 326.706 22.7956 326.706 21.376H324.706C324.706 22.3564 324.413 22.9558 323.948 23.3458L325.233 24.8782ZM325.706 22.376H329.954V20.376H325.706V22.376ZM328.954 21.376C328.954 23.463 328.28 24.9072 327.035 25.88L328.266 27.456C330.093 26.0288 330.954 23.945 330.954 21.376H328.954ZM327.042 25.874C325.724 26.8832 323.952 27.432 321.638 27.432V29.432C324.268 29.432 326.504 28.8048 328.258 27.462L327.042 25.874ZM326.454 16.516C326.454 14.9089 326.114 13.517 325.26 12.5182C324.381 11.4895 323.109 11.052 321.638 11.052V13.052C322.712 13.052 323.348 13.3585 323.74 13.8178C324.159 14.307 324.454 15.1471 324.454 16.516H326.454ZM321.638 11.052C320.033 11.052 318.647 11.4688 317.655 12.4609L319.069 13.8751C319.565 13.3792 320.364 13.052 321.638 13.052V11.052ZM317.655 12.4609C316.712 13.4039 316.218 14.7749 316.036 16.4056L318.024 16.6264C318.179 15.2331 318.572 14.3721 319.069 13.8751L317.655 12.4609ZM317.03 17.516H325.454V15.516H317.03V17.516ZM334.658 9.064V8.064H333.658V9.064H334.658ZM339.122 9.064H340.122V8.064H339.122V9.064ZM339.122 13.636V14.636H340.122V13.636H339.122ZM334.658 13.636H333.658V14.636H334.658V13.636ZM334.658 23.428V22.428H333.658V23.428H334.658ZM339.122 23.428H340.122V22.428H339.122V23.428ZM339.122 28V29H340.122V28H339.122ZM334.658 28H333.658V29H334.658V28ZM334.658 10.064H339.122V8.064H334.658V10.064ZM338.122 9.064V13.636H340.122V9.064H338.122ZM339.122 12.636H334.658V14.636H339.122V12.636ZM335.658 13.636V9.064H333.658V13.636H335.658ZM334.658 24.428H339.122V22.428H334.658V24.428ZM338.122 23.428V28H340.122V23.428H338.122ZM339.122 27H334.658V29H339.122V27ZM335.658 28V23.428H333.658V28H335.658Z" fill="#858484"/>
</svg>
