<svg width="195" height="36" viewBox="0 0 195 36" fill="none" xmlns="http://www.w3.org/2000/svg">
<path opacity="0.8" d="M3.492 26.02L2.74705 26.6871L3.492 26.02ZM3.492 11.044L2.75253 10.3708L2.74705 10.3769L3.492 11.044ZM16.056 10.54L15.3814 11.2782L15.3814 11.2782L16.056 10.54ZM18.144 16.156V17.156H19.144V16.156H18.144ZM13.752 16.156H12.752V17.156H13.752V16.156ZM6.768 13.672L7.59095 14.2402L7.59707 14.2311L6.768 13.672ZM6.768 23.464L5.9451 24.0322L5.95288 24.0435L5.96097 24.0545L6.768 23.464ZM12.996 23.896L12.2641 23.2146L12.2577 23.2215L12.2514 23.2285L12.996 23.896ZM13.968 20.908V19.908H12.968V20.908H13.968ZM18.144 20.908H19.144V19.908H18.144V20.908ZM16.02 26.452L15.3381 25.7205L15.3319 25.7264L16.02 26.452ZM10.116 27.432C7.31248 27.432 5.42361 26.678 4.23695 25.3529L2.74705 26.6871C4.44039 28.578 6.96752 29.432 10.116 29.432V27.432ZM4.23695 25.3529C3.03255 24.008 2.332 21.8033 2.332 18.532H0.332C0.332 22.0287 1.07145 24.816 2.74705 26.6871L4.23695 25.3529ZM2.332 18.532C2.332 15.2607 3.03255 13.056 4.23695 11.7111L2.74705 10.3769C1.07145 12.248 0.332 15.0353 0.332 18.532H2.332ZM4.23144 11.7172C5.44529 10.384 7.34064 9.632 10.116 9.632V7.632C6.98736 7.632 4.46671 8.48802 2.75256 10.3708L4.23144 11.7172ZM10.116 9.632C12.5257 9.632 14.2316 10.2275 15.3814 11.2782L16.7306 9.80179C15.0964 8.3085 12.8423 7.632 10.116 7.632V9.632ZM15.3814 11.2782C16.5067 12.3065 17.144 13.8728 17.144 16.156H19.144C19.144 13.4952 18.3893 11.3175 16.7306 9.80179L15.3814 11.2782ZM18.144 15.156H13.752V17.156H18.144V15.156ZM14.752 16.156C14.752 14.684 14.4259 13.3933 13.5979 12.466L12.1061 13.798C12.4781 14.2147 12.752 14.94 12.752 16.156H14.752ZM13.5979 12.466C12.7404 11.5055 11.48 11.124 10.044 11.124V13.124C11.152 13.124 11.7637 13.4145 12.1061 13.798L13.5979 12.466ZM10.044 11.124C8.29811 11.124 6.85896 11.7487 5.93893 13.1129L7.59707 14.2311C8.06904 13.5313 8.81389 13.124 10.044 13.124V11.124ZM5.9451 13.1038C5.07694 14.3612 4.724 16.1676 4.724 18.352H6.724C6.724 16.3124 7.06706 14.9988 7.5909 14.2402L5.9451 13.1038ZM4.724 18.352V18.784H6.724V18.352H4.724ZM4.724 18.784C4.724 20.9684 5.07694 22.7748 5.9451 24.0322L7.5909 22.8958C7.06706 22.1371 6.724 20.8236 6.724 18.784H4.724ZM5.96097 24.0545C6.92367 25.3702 8.42597 25.94 10.224 25.94V23.94C8.85403 23.94 8.05233 23.5258 7.57503 22.8735L5.96097 24.0545ZM10.224 25.94C11.6391 25.94 12.8726 25.5317 13.7406 24.5635L12.2514 23.2285C11.8714 23.6523 11.2569 23.94 10.224 23.94V25.94ZM13.7279 24.5774C14.6026 23.638 14.968 22.3638 14.968 20.908H12.968C12.968 22.0442 12.6854 22.762 12.2641 23.2146L13.7279 24.5774ZM13.968 21.908H18.144V19.908H13.968V21.908ZM17.144 20.908C17.144 23.0744 16.5065 24.6314 15.3381 25.7205L16.7019 27.1835C18.3655 25.6326 19.144 23.4936 19.144 20.908H17.144ZM15.3319 25.7264C14.1798 26.8189 12.4897 27.432 10.116 27.432V29.432C12.8303 29.432 15.0762 28.7251 16.7081 27.1776L15.3319 25.7264ZM22.9719 26.02L22.2488 26.7108L22.2542 26.7163L22.9719 26.02ZM22.9719 11.044L22.2542 10.3477L22.2488 10.3533L22.9719 11.044ZM36.9759 11.044L36.2528 11.7348L36.2582 11.7403L36.9759 11.044ZM36.9759 26.02L36.2582 25.3237L36.2528 25.3293L36.9759 26.02ZM33.6999 23.428L34.4883 24.0433L34.4954 24.034L33.6999 23.428ZM33.6999 13.672L32.9045 14.2781L32.9116 14.2873L33.6999 13.672ZM26.2479 13.672L25.4525 13.066L25.4503 13.0689L26.2479 13.672ZM26.2479 23.428L25.4434 24.0219L25.4513 24.0327L25.4596 24.0433L26.2479 23.428ZM29.9919 27.432C27.0339 27.432 24.9972 26.6715 23.6897 25.3237L22.2542 26.7163C24.0666 28.5845 26.71 29.432 29.9919 29.432V27.432ZM23.695 25.3293C22.4103 23.9843 21.6679 21.7897 21.6679 18.532H19.6679C19.6679 22.0423 20.4616 24.8397 22.2488 26.7107L23.695 25.3293ZM21.6679 18.532C21.6679 15.2743 22.4103 13.0797 23.695 11.7347L22.2488 10.3533C20.4616 12.2243 19.6679 15.0217 19.6679 18.532H21.6679ZM23.6897 11.7403C24.9972 10.3925 27.0339 9.632 29.9919 9.632V7.632C26.71 7.632 24.0666 8.47948 22.2542 10.3477L23.6897 11.7403ZM29.9919 9.632C32.9512 9.632 34.9712 10.393 36.2528 11.7347L37.699 10.3533C35.9087 8.479 33.2726 7.632 29.9919 7.632V9.632ZM36.2582 11.7403C37.5632 13.0855 38.3159 15.2778 38.3159 18.532H40.3159C40.3159 15.0182 39.5086 12.2185 37.6937 10.3477L36.2582 11.7403ZM38.3159 18.532C38.3159 21.7862 37.5632 23.9785 36.2582 25.3237L37.6937 26.7163C39.5086 24.8455 40.3159 22.0458 40.3159 18.532H38.3159ZM36.2528 25.3293C34.9712 26.671 32.9512 27.432 29.9919 27.432V29.432C33.2726 29.432 35.9087 28.585 37.699 26.7107L36.2528 25.3293ZM29.9919 25.904C31.8839 25.904 33.4675 25.3512 34.4883 24.0433L32.9116 22.8127C32.3964 23.4728 31.508 23.904 29.9919 23.904V25.904ZM34.4954 24.034C35.4577 22.771 35.8519 20.961 35.8519 18.784H33.8519C33.8519 20.783 33.4782 22.069 32.9045 22.822L34.4954 24.034ZM35.8519 18.784V18.28H33.8519V18.784H35.8519ZM35.8519 18.28C35.8519 16.106 35.4589 14.3003 34.4883 13.0567L32.9116 14.2873C33.477 15.0117 33.8519 16.278 33.8519 18.28H35.8519ZM34.4954 13.066C33.4776 11.7301 31.8921 11.16 29.9919 11.16V13.16C31.4998 13.16 32.3863 13.5979 32.9045 14.278L34.4954 13.066ZM29.9919 11.16C28.0736 11.16 26.4729 11.7267 25.4525 13.066L27.0434 14.278C27.559 13.6013 28.4543 13.16 29.9919 13.16V11.16ZM25.4503 13.0689C24.5114 14.3106 24.1319 16.1107 24.1319 18.28H26.1319C26.1319 16.2733 26.4965 15.0014 27.0456 14.2751L25.4503 13.0689ZM24.1319 18.28V18.784H26.1319V18.28H24.1319ZM24.1319 18.784C24.1319 20.9563 24.5126 22.7608 25.4434 24.0219L27.0525 22.8341C26.4953 22.0792 26.1319 20.7877 26.1319 18.784H24.1319ZM25.4596 24.0433C26.483 25.3544 28.0817 25.904 29.9919 25.904V23.904C28.4462 23.904 27.5489 23.4696 27.0363 22.8127L25.4596 24.0433ZM43.1606 9.064V8.064H42.1606V9.064H43.1606ZM46.7246 9.064L47.7146 8.92258L47.5919 8.064H46.7246V9.064ZM47.0846 11.584L46.0947 11.7254L46.2173 12.584H47.0846V11.584ZM47.3366 11.584V12.584H47.8641L48.1619 12.1487L47.3366 11.584ZM49.6406 9.424L49.1493 8.55297L49.1396 8.55857L49.6406 9.424ZM57.7766 11.584L56.861 11.986L57.1235 12.584H57.7766V11.584ZM58.0646 11.584V12.584H58.5841L58.8828 12.1589L58.0646 11.584ZM60.4766 9.46L60.9494 10.3412L60.9577 10.3367L60.9659 10.3321L60.4766 9.46ZM68.0006 10.144L68.6994 9.42862L68.0006 10.144ZM69.5486 28V29H70.5486V28H69.5486ZM65.2286 28H64.2286V29H65.2286V28ZM59.5766 13.672L58.8084 13.0318L58.8031 13.0382L58.7979 13.0447L59.5766 13.672ZM58.5326 28V29H59.5326V28H58.5326ZM54.2126 28H53.2126V29H54.2126V28ZM48.5606 13.672L47.7924 13.0318L48.5606 13.672ZM47.4806 28V29H48.4806V28H47.4806ZM43.1606 28H42.1606V29H43.1606V28ZM43.1606 10.064H46.7246V8.064H43.1606V10.064ZM45.7347 9.20542L46.0947 11.7254L48.0746 11.4426L47.7146 8.92258L45.7347 9.20542ZM47.0846 12.584H47.3366V10.584H47.0846V12.584ZM48.1619 12.1487C48.7058 11.3537 49.3651 10.739 50.1417 10.2894L49.1396 8.55857C48.0921 9.165 47.2154 9.99026 46.5113 11.0193L48.1619 12.1487ZM50.1319 10.295C50.9011 9.86109 51.7963 9.632 52.8446 9.632V7.632C51.493 7.632 50.2521 7.93091 49.1493 8.55302L50.1319 10.295ZM52.8446 9.632C53.9231 9.632 54.7514 9.85057 55.382 10.228C56.0046 10.6007 56.5018 11.1679 56.861 11.986L58.6923 11.182C58.1874 10.0321 57.4307 9.12334 56.4092 8.51195C55.3959 7.90543 54.1902 7.632 52.8446 7.632V9.632ZM57.7766 12.584H58.0646V10.584H57.7766V12.584ZM58.8828 12.1589C59.4145 11.4023 60.0988 10.7976 60.9494 10.3412L60.0038 8.57884C58.8865 9.17837 57.9627 9.98968 57.2464 11.0091L58.8828 12.1589ZM60.9659 10.3321C61.7909 9.86932 62.7127 9.632 63.7526 9.632V7.632C62.3926 7.632 61.1303 7.94668 59.9874 8.58786L60.9659 10.3321ZM63.7526 9.632C65.3596 9.632 66.5004 10.0765 67.3019 10.8594L68.6994 9.42862C67.4369 8.19552 65.7456 7.632 63.7526 7.632V9.632ZM67.3019 10.8594C68.0597 11.5996 68.5486 12.8887 68.5486 14.968H70.5486C70.5486 12.6313 70.0055 10.7044 68.6994 9.42862L67.3019 10.8594ZM68.5486 14.968V28H70.5486V14.968H68.5486ZM69.5486 27H65.2286V29H69.5486V27ZM66.2286 28V15.832H64.2286V28H66.2286ZM66.2286 15.832C66.2286 14.5586 65.9565 13.4169 65.2381 12.586C64.4956 11.7272 63.4318 11.376 62.2406 11.376V13.376C63.0415 13.376 63.4716 13.6008 63.7252 13.894C64.0027 14.2151 64.2286 14.8014 64.2286 15.832H66.2286ZM62.2406 11.376C60.8665 11.376 59.7043 11.9568 58.8084 13.0318L60.3448 14.3122C60.889 13.6592 61.5028 13.376 62.2406 13.376V11.376ZM58.7979 13.0447C57.9302 14.1217 57.5326 15.4617 57.5326 16.984H59.5326C59.5326 15.8183 59.831 14.9503 60.3554 14.2993L58.7979 13.0447ZM57.5326 16.984V28H59.5326V16.984H57.5326ZM58.5326 27H54.2126V29H58.5326V27ZM55.2126 28V15.832H53.2126V28H55.2126ZM55.2126 15.832C55.2126 14.5586 54.9405 13.4169 54.2221 12.586C53.4796 11.7272 52.4158 11.376 51.2246 11.376V13.376C52.0255 13.376 52.4556 13.6008 52.7092 13.894C52.9867 14.2151 53.2126 14.8014 53.2126 15.832H55.2126ZM51.2246 11.376C49.8505 11.376 48.6883 11.9568 47.7924 13.0318L49.3288 14.3122C49.873 13.6592 50.4868 13.376 51.2246 13.376V11.376ZM47.7924 13.0318C46.8948 14.109 46.4806 15.4537 46.4806 16.984H48.4806C48.4806 15.8263 48.7865 14.963 49.3288 14.3122L47.7924 13.0318ZM46.4806 16.984V28H48.4806V16.984H46.4806ZM47.4806 27H43.1606V29H47.4806V27ZM44.1606 28V9.064H42.1606V28H44.1606ZM74.4848 9.064V8.064H73.4848V9.064H74.4848ZM78.0488 9.064L79.0388 8.92258L78.9161 8.064H78.0488V9.064ZM78.4088 11.584L77.4189 11.7254L77.5415 12.584H78.4088V11.584ZM78.6248 11.584V12.584H79.1675L79.4633 12.129L78.6248 11.584ZM81.0728 9.388L81.5201 10.2824V10.2824L81.0728 9.388ZM90.0008 11.08L90.7784 10.4511L90.0008 11.08ZM90.0008 25.948L90.7828 26.5713L90.0008 25.948ZM79.0208 25.804L79.8564 25.2546L79.5601 24.804H79.0208V25.804ZM78.8048 25.804V24.804H77.8048V25.804H78.8048ZM78.8048 34.228V35.228H79.8048V34.228H78.8048ZM74.4848 34.228H73.4848V35.228H74.4848V34.228ZM86.5088 23.32L87.3212 23.9032L87.3281 23.8935L86.5088 23.32ZM86.5088 13.78L85.6896 14.3535L85.6965 14.3632L86.5088 13.78ZM79.8488 13.852L80.6717 14.4202L79.8488 13.852ZM79.8488 23.212L79.0259 23.7802L79.8488 23.212ZM74.4848 10.064H78.0488V8.064H74.4848V10.064ZM77.0589 9.20542L77.4189 11.7254L79.3988 11.4426L79.0388 8.92258L77.0589 9.20542ZM78.4088 12.584H78.6248V10.584H78.4088V12.584ZM79.4633 12.129C79.9919 11.3157 80.6739 10.7055 81.5201 10.2824L80.6256 8.49357C79.4558 9.07849 78.5058 9.9323 77.7864 11.039L79.4633 12.129ZM81.5201 10.2824C82.3775 9.8537 83.3385 9.632 84.4208 9.632V7.632C83.0552 7.632 81.7842 7.9143 80.6256 8.49357L81.5201 10.2824ZM84.4208 9.632C86.5677 9.632 88.1219 10.347 89.2233 11.7089L90.7784 10.4511C89.2398 8.54895 87.074 7.632 84.4208 7.632V9.632ZM89.2233 11.7089C90.3353 13.0836 90.9808 15.3084 90.9808 18.568H92.9808C92.9808 15.1076 92.3064 12.3404 90.7784 10.4511L89.2233 11.7089ZM90.9808 18.568C90.9808 21.7216 90.3393 23.9191 89.2189 25.3247L90.7828 26.5713C92.3024 24.6649 92.9808 21.9424 92.9808 18.568H90.9808ZM89.2189 25.3247C88.0978 26.7311 86.6275 27.432 84.7088 27.432V29.432C87.2062 29.432 89.2639 28.4769 90.7828 26.5713L89.2189 25.3247ZM84.7088 27.432C82.3066 27.432 80.775 26.6517 79.8564 25.2546L78.1853 26.3534C79.5706 28.4603 81.8311 29.432 84.7088 29.432V27.432ZM79.0208 24.804H78.8048V26.804H79.0208V24.804ZM77.8048 25.804V34.228H79.8048V25.804H77.8048ZM78.8048 33.228H74.4848V35.228H78.8048V33.228ZM75.4848 34.228V9.064H73.4848V34.228H75.4848ZM83.1248 25.724C84.9005 25.724 86.3963 25.1914 87.3212 23.9032L85.6965 22.7368C85.2773 23.3207 84.5172 23.724 83.1248 23.724V25.724ZM87.3281 23.8935C88.1776 22.6799 88.5168 20.9155 88.5168 18.784H86.5168C86.5168 20.7805 86.1841 22.0401 85.6896 22.7465L87.3281 23.8935ZM88.5168 18.784V18.316H86.5168V18.784H88.5168ZM88.5168 18.316C88.5168 16.167 88.1799 14.3929 87.3212 13.1968L85.6965 14.3632C86.1818 15.0391 86.5168 16.289 86.5168 18.316H88.5168ZM87.3281 13.2065C86.407 11.8907 84.9097 11.34 83.1248 11.34V13.34C84.5079 13.34 85.2667 13.7493 85.6896 14.3535L87.3281 13.2065ZM83.1248 11.34C81.3885 11.34 79.95 11.9455 79.0259 13.2838L80.6717 14.4202C81.1397 13.7425 81.8852 13.34 83.1248 13.34V11.34ZM79.0259 13.2838C78.1639 14.5323 77.8048 16.2578 77.8048 18.316H79.8048C79.8048 16.4382 80.1418 15.1877 80.6717 14.4202L79.0259 13.2838ZM77.8048 18.316V18.748H79.8048V18.316H77.8048ZM77.8048 18.748C77.8048 20.8062 78.1639 22.5317 79.0259 23.7802L80.6717 22.6438C80.1418 21.8763 79.8048 20.6258 79.8048 18.748H77.8048ZM79.0259 23.7802C79.95 25.1185 81.3885 25.724 83.1248 25.724V23.724C81.8852 23.724 81.1397 23.3215 80.6717 22.6438L79.0259 23.7802ZM96.9055 26.02L96.1824 26.7108L96.1878 26.7163L96.9055 26.02ZM96.9055 11.044L96.1878 10.3477L96.1824 10.3533L96.9055 11.044ZM110.91 11.044L110.186 11.7348L110.192 11.7403L110.91 11.044ZM110.91 26.02L110.192 25.3237L110.186 25.3293L110.91 26.02ZM107.634 23.428L108.422 24.0433L108.429 24.034L107.634 23.428ZM107.634 13.672L106.838 14.2781L106.845 14.2873L107.634 13.672ZM100.182 13.672L99.3861 13.066L99.3839 13.0689L100.182 13.672ZM100.182 23.428L99.377 24.0219L99.3849 24.0327L99.3932 24.0433L100.182 23.428ZM103.926 27.432C100.967 27.432 98.9308 26.6715 97.6233 25.3237L96.1878 26.7163C98.0002 28.5845 100.644 29.432 103.926 29.432V27.432ZM97.6286 25.3293C96.3439 23.9843 95.6015 21.7897 95.6015 18.532H93.6015C93.6015 22.0423 94.3952 24.8397 96.1824 26.7107L97.6286 25.3293ZM95.6015 18.532C95.6015 15.2743 96.3439 13.0797 97.6286 11.7347L96.1824 10.3533C94.3952 12.2243 93.6015 15.0217 93.6015 18.532H95.6015ZM97.6233 11.7403C98.9308 10.3925 100.967 9.632 103.926 9.632V7.632C100.644 7.632 98.0002 8.47948 96.1878 10.3477L97.6233 11.7403ZM103.926 9.632C106.885 9.632 108.905 10.393 110.186 11.7347L111.633 10.3533C109.842 8.479 107.206 7.632 103.926 7.632V9.632ZM110.192 11.7403C111.497 13.0855 112.25 15.2778 112.25 18.532H114.25C114.25 15.0182 113.442 12.2185 111.627 10.3477L110.192 11.7403ZM112.25 18.532C112.25 21.7862 111.497 23.9785 110.192 25.3237L111.627 26.7163C113.442 24.8455 114.25 22.0458 114.25 18.532H112.25ZM110.186 25.3293C108.905 26.671 106.885 27.432 103.926 27.432V29.432C107.206 29.432 109.842 28.585 111.633 26.7107L110.186 25.3293ZM103.926 25.904C105.817 25.904 107.401 25.3512 108.422 24.0433L106.845 22.8127C106.33 23.4728 105.442 23.904 103.926 23.904V25.904ZM108.429 24.034C109.391 22.771 109.786 20.961 109.786 18.784H107.786C107.786 20.783 107.412 22.069 106.838 22.822L108.429 24.034ZM109.786 18.784V18.28H107.786V18.784H109.786ZM109.786 18.28C109.786 16.106 109.392 14.3003 108.422 13.0567L106.845 14.2873C107.411 15.0117 107.786 16.278 107.786 18.28H109.786ZM108.429 13.066C107.411 11.7301 105.826 11.16 103.926 11.16V13.16C105.433 13.16 106.32 13.5979 106.838 14.278L108.429 13.066ZM103.926 11.16C102.007 11.16 100.406 11.7267 99.3861 13.066L100.977 14.278C101.493 13.6013 102.388 13.16 103.926 13.16V11.16ZM99.3839 13.0689C98.445 14.3106 98.0655 16.1107 98.0655 18.28H100.066C100.066 16.2733 100.43 15.0014 100.979 14.2751L99.3839 13.0689ZM98.0655 18.28V18.784H100.066V18.28H98.0655ZM98.0655 18.784C98.0655 20.9563 98.4462 22.7608 99.377 24.0219L100.986 22.8341C100.429 22.0792 100.066 20.7877 100.066 18.784H98.0655ZM99.3932 24.0433C100.417 25.3544 102.015 25.904 103.926 25.904V23.904C102.38 23.904 101.483 23.4696 100.97 22.8127L99.3932 24.0433ZM118.174 26.812L117.568 27.6071L117.574 27.612L118.174 26.812ZM116.05 22.168L115.102 21.8518L115.05 22.0057V22.168H116.05ZM116.086 22.024V21.024H115.086V22.024H116.086ZM120.298 22.024H121.298V21.024H120.298V22.024ZM120.298 22.312H119.298V22.3248L119.299 22.3376L120.298 22.312ZM121.486 24.4L120.976 25.2599L120.991 25.2692L121.007 25.2779L121.486 24.4ZM127.138 24.544L127.55 25.4554L127.562 25.4499L127.574 25.4442L127.138 24.544ZM127.642 21.628L126.981 22.3778L126.993 22.3891L127.007 22.3999L127.642 21.628ZM126.13 20.8L125.791 21.7409L125.808 21.747L125.825 21.7524L126.13 20.8ZM123.574 20.08L123.339 21.052L123.342 21.0526L123.574 20.08ZM119.902 19L119.543 19.9334L119.551 19.9363L119.902 19ZM117.49 17.308L116.738 17.9665L117.49 17.308ZM118.714 10.108L119.266 10.9421L118.714 10.108ZM131.098 11.116L130.313 11.7349L130.323 11.748L130.334 11.7609L131.098 11.116ZM132.07 13.78L133.069 13.8254L133.07 13.8027V13.78H132.07ZM132.034 14.572V15.572H132.99L133.033 14.6174L132.034 14.572ZM127.822 14.572H126.822V15.572H127.822V14.572ZM126.886 12.7L126.302 13.5115L126.32 13.5247L126.339 13.537L126.886 12.7ZM121.702 12.592L122.206 13.4558L122.219 13.4481L122.232 13.44L121.702 12.592ZM121.882 15.436L121.447 16.3366L121.466 16.3454L121.485 16.3536L121.882 15.436ZM125.158 16.372L125.38 15.3968L125.367 15.394L125.158 16.372ZM128.974 17.488L128.603 18.4165L128.617 18.422L128.631 18.4271L128.974 17.488ZM131.53 19.216L130.79 19.8887L131.53 19.216ZM130.342 26.992L129.806 26.1478L129.8 26.1517L130.342 26.992ZM124.258 27.432C121.764 27.432 119.978 26.9151 118.774 26.012L117.574 27.612C119.25 28.8689 121.52 29.432 124.258 29.432V27.432ZM118.781 26.0169C117.604 25.1193 117.05 24.0051 117.05 22.6H115.05C115.05 24.6509 115.913 26.3447 117.568 27.6071L118.781 26.0169ZM117.05 22.6C117.05 22.5996 117.05 22.5992 117.05 22.5987C117.05 22.5983 117.05 22.5979 117.05 22.5975C117.05 22.5971 117.05 22.5966 117.05 22.5962C117.05 22.5958 117.05 22.5954 117.05 22.5949C117.05 22.5945 117.05 22.5941 117.05 22.5937C117.05 22.5933 117.05 22.5929 117.05 22.5924C117.05 22.592 117.05 22.5916 117.05 22.5912C117.05 22.5908 117.05 22.5903 117.05 22.5899C117.05 22.5895 117.05 22.5891 117.05 22.5887C117.05 22.5883 117.05 22.5878 117.05 22.5874C117.05 22.587 117.05 22.5866 117.05 22.5862C117.05 22.5858 117.05 22.5853 117.05 22.5849C117.05 22.5845 117.05 22.5841 117.05 22.5837C117.05 22.5833 117.05 22.5829 117.05 22.5824C117.05 22.582 117.05 22.5816 117.05 22.5812C117.05 22.5808 117.05 22.5804 117.05 22.58C117.05 22.5795 117.05 22.5791 117.05 22.5787C117.05 22.5783 117.05 22.5779 117.05 22.5775C117.05 22.5771 117.05 22.5767 117.05 22.5763C117.05 22.5758 117.05 22.5754 117.05 22.575C117.05 22.5746 117.05 22.5742 117.05 22.5738C117.05 22.5734 117.05 22.573 117.05 22.5726C117.05 22.5721 117.05 22.5717 117.05 22.5713C117.05 22.5709 117.05 22.5705 117.05 22.5701C117.05 22.5697 117.05 22.5693 117.05 22.5689C117.05 22.5685 117.05 22.5681 117.05 22.5676C117.05 22.5672 117.05 22.5668 117.05 22.5664C117.05 22.566 117.05 22.5656 117.05 22.5652C117.05 22.5648 117.05 22.5644 117.05 22.564C117.05 22.5636 117.05 22.5632 117.05 22.5628C117.05 22.5624 117.05 22.562 117.05 22.5616C117.05 22.5612 117.05 22.5607 117.05 22.5603C117.05 22.5599 117.05 22.5595 117.05 22.5591C117.05 22.5587 117.05 22.5583 117.05 22.5579C117.05 22.5575 117.05 22.5571 117.05 22.5567C117.05 22.5563 117.05 22.5559 117.05 22.5555C117.05 22.5551 117.05 22.5547 117.05 22.5543C117.05 22.5539 117.05 22.5535 117.05 22.5531C117.05 22.5527 117.05 22.5523 117.05 22.5519C117.05 22.5515 117.05 22.5511 117.05 22.5507C117.05 22.5503 117.05 22.5499 117.05 22.5495C117.05 22.5491 117.05 22.5487 117.05 22.5483C117.05 22.5479 117.05 22.5475 117.05 22.5471C117.05 22.5467 117.05 22.5463 117.05 22.5459C117.05 22.5455 117.05 22.5451 117.05 22.5447C117.05 22.5443 117.05 22.5439 117.05 22.5435C117.05 22.5431 117.05 22.5427 117.05 22.5423C117.05 22.5419 117.05 22.5415 117.05 22.5411C117.05 22.5408 117.05 22.5404 117.05 22.54C117.05 22.5396 117.05 22.5392 117.05 22.5388C117.05 22.5384 117.05 22.538 117.05 22.5376C117.05 22.5372 117.05 22.5368 117.05 22.5364C117.05 22.536 117.05 22.5356 117.05 22.5352C117.05 22.5348 117.05 22.5345 117.05 22.5341C117.05 22.5337 117.05 22.5333 117.05 22.5329C117.05 22.5325 117.05 22.5321 117.05 22.5317C117.05 22.5313 117.05 22.5309 117.05 22.5305C117.05 22.5301 117.05 22.5298 117.05 22.5294C117.05 22.529 117.05 22.5286 117.05 22.5282C117.05 22.5278 117.05 22.5274 117.05 22.527C117.05 22.5266 117.05 22.5263 117.05 22.5259C117.05 22.5255 117.05 22.5251 117.05 22.5247C117.05 22.5243 117.05 22.5239 117.05 22.5235C117.05 22.5231 117.05 22.5228 117.05 22.5224C117.05 22.522 117.05 22.5216 117.05 22.5212C117.05 22.5208 117.05 22.5204 117.05 22.5201C117.05 22.5197 117.05 22.5193 117.05 22.5189C117.05 22.5185 117.05 22.5181 117.05 22.5177C117.05 22.5174 117.05 22.517 117.05 22.5166C117.05 22.5162 117.05 22.5158 117.05 22.5154C117.05 22.5151 117.05 22.5147 117.05 22.5143C117.05 22.5139 117.05 22.5135 117.05 22.5131C117.05 22.5128 117.05 22.5124 117.05 22.512C117.05 22.5116 117.05 22.5112 117.05 22.5109C117.05 22.5105 117.05 22.5101 117.05 22.5097C117.05 22.5093 117.05 22.509 117.05 22.5086C117.05 22.5082 117.05 22.5078 117.05 22.5074C117.05 22.5071 117.05 22.5067 117.05 22.5063C117.05 22.5059 117.05 22.5055 117.05 22.5052C117.05 22.5048 117.05 22.5044 117.05 22.504C117.05 22.5036 117.05 22.5033 117.05 22.5029C117.05 22.5025 117.05 22.5021 117.05 22.5018C117.05 22.5014 117.05 22.501 117.05 22.5006C117.05 22.5003 117.05 22.4999 117.05 22.4995C117.05 22.4991 117.05 22.4988 117.05 22.4984C117.05 22.498 117.05 22.4976 117.05 22.4972C117.05 22.4969 117.05 22.4965 117.05 22.4961C117.05 22.4958 117.05 22.4954 117.05 22.495C117.05 22.4946 117.05 22.4943 117.05 22.4939C117.05 22.4935 117.05 22.4931 117.05 22.4928C117.05 22.4924 117.05 22.492 117.05 22.4917C117.05 22.4913 117.05 22.4909 117.05 22.4905C117.05 22.4902 117.05 22.4898 117.05 22.4894C117.05 22.4891 117.05 22.4887 117.05 22.4883C117.05 22.4879 117.05 22.4876 117.05 22.4872C117.05 22.4868 117.05 22.4865 117.05 22.4861C117.05 22.4857 117.05 22.4854 117.05 22.485C117.05 22.4846 117.05 22.4842 117.05 22.4839C117.05 22.4835 117.05 22.4831 117.05 22.4828C117.05 22.4824 117.05 22.482 117.05 22.4817C117.05 22.4813 117.05 22.4809 117.05 22.4806C117.05 22.4802 117.05 22.4798 117.05 22.4795C117.05 22.4791 117.05 22.4787 117.05 22.4784C117.05 22.478 117.05 22.4777 117.05 22.4773C117.05 22.4769 117.05 22.4766 117.05 22.4762C117.05 22.4758 117.05 22.4755 117.05 22.4751C117.05 22.4747 117.05 22.4744 117.05 22.474C117.05 22.4736 117.05 22.4733 117.05 22.4729C117.05 22.4726 117.05 22.4722 117.05 22.4718C117.05 22.4715 117.05 22.4711 117.05 22.4708C117.05 22.4704 117.05 22.47 117.05 22.4697C117.05 22.4693 117.05 22.4689 117.05 22.4686C117.05 22.4682 117.05 22.4679 117.05 22.4675C117.05 22.4671 117.05 22.4668 117.05 22.4664C117.05 22.4661 117.05 22.4657 117.05 22.4653C117.05 22.465 117.05 22.4646 117.05 22.4643C117.05 22.4639 117.05 22.4636 117.05 22.4632C117.05 22.4628 117.05 22.4625 117.05 22.4621C117.05 22.4618 117.05 22.4614 117.05 22.4611C117.05 22.4607 117.05 22.4603 117.05 22.46C117.05 22.4596 117.05 22.4593 117.05 22.4589C117.05 22.4586 117.05 22.4582 117.05 22.4579C117.05 22.4575 117.05 22.4571 117.05 22.4568C117.05 22.4564 117.05 22.4561 117.05 22.4557C117.05 22.4554 117.05 22.455 117.05 22.4547C117.05 22.4543 117.05 22.454 117.05 22.4536C117.05 22.4533 117.05 22.4529 117.05 22.4526C117.05 22.4522 117.05 22.4519 117.05 22.4515C117.05 22.4511 117.05 22.4508 117.05 22.4504C117.05 22.4501 117.05 22.4497 117.05 22.4494C117.05 22.449 117.05 22.4487 117.05 22.4483C117.05 22.448 117.05 22.4476 117.05 22.4473C117.05 22.4469 117.05 22.4466 117.05 22.4462C117.05 22.4459 117.05 22.4455 117.05 22.4452C117.05 22.4449 117.05 22.4445 117.05 22.4442C117.05 22.4438 117.05 22.4435 117.05 22.4431C117.05 22.4428 117.05 22.4424 117.05 22.4421C117.05 22.4417 117.05 22.4414 117.05 22.441C117.05 22.4407 117.05 22.4403 117.05 22.44C117.05 22.4397 117.05 22.4393 117.05 22.439C117.05 22.4386 117.05 22.4383 117.05 22.4379C117.05 22.4376 117.05 22.4372 117.05 22.4369C117.05 22.4366 117.05 22.4362 117.05 22.4359C117.05 22.4355 117.05 22.4352 117.05 22.4348C117.05 22.4345 117.05 22.4342 117.05 22.4338C117.05 22.4335 117.05 22.4331 117.05 22.4328C117.05 22.4324 117.05 22.4321 117.05 22.4318C117.05 22.4314 117.05 22.4311 117.05 22.4307C117.05 22.4304 117.05 22.4301 117.05 22.4297C117.05 22.4294 117.05 22.429 117.05 22.4287C117.05 22.4284 117.05 22.428 117.05 22.4277C117.05 22.4273 117.05 22.427 117.05 22.4267C117.05 22.4263 117.05 22.426 117.05 22.4256C117.05 22.4253 117.05 22.425 117.05 22.4246C117.05 22.4243 117.05 22.424 117.05 22.4236C117.05 22.4233 117.05 22.423 117.05 22.4226C117.05 22.4223 117.05 22.4219 117.05 22.4216C117.05 22.4213 117.05 22.4209 117.05 22.4206C117.05 22.4203 117.05 22.4199 117.05 22.4196C117.05 22.4193 117.05 22.4189 117.05 22.4186C117.05 22.4183 117.05 22.4179 117.05 22.4176C117.05 22.4173 117.05 22.4169 117.05 22.4166C117.05 22.4163 117.05 22.4159 117.05 22.4156C117.05 22.4153 117.05 22.4149 117.05 22.4146C117.05 22.4143 117.05 22.4139 117.05 22.4136C117.05 22.4133 117.05 22.4129 117.05 22.4126C117.05 22.4123 117.05 22.412 117.05 22.4116C117.05 22.4113 117.05 22.411 117.05 22.4106C117.05 22.4103 117.05 22.41 117.05 22.4096C117.05 22.4093 117.05 22.409 117.05 22.4087C117.05 22.4083 117.05 22.408 117.05 22.4077C117.05 22.4073 117.05 22.407 117.05 22.4067C117.05 22.4064 117.05 22.406 117.05 22.4057C117.05 22.4054 117.05 22.4051 117.05 22.4047C117.05 22.4044 117.05 22.4041 117.05 22.4037C117.05 22.4034 117.05 22.4031 117.05 22.4028C117.05 22.4024 117.05 22.4021 117.05 22.4018C117.05 22.4015 117.05 22.4011 117.05 22.4008C117.05 22.4005 117.05 22.4002 117.05 22.3999C117.05 22.3995 117.05 22.3992 117.05 22.3989C117.05 22.3986 117.05 22.3982 117.05 22.3979C117.05 22.3976 117.05 22.3973 117.05 22.3969C117.05 22.3966 117.05 22.3963 117.05 22.396C117.05 22.3957 117.05 22.3953 117.05 22.395C117.05 22.3947 117.05 22.3944 117.05 22.3941C117.05 22.3937 117.05 22.3934 117.05 22.3931C117.05 22.3928 117.05 22.3925 117.05 22.3921C117.05 22.3918 117.05 22.3915 117.05 22.3912C117.05 22.3909 117.05 22.3905 117.05 22.3902C117.05 22.3899 117.05 22.3896 117.05 22.3893C117.05 22.389 117.05 22.3886 117.05 22.3883C117.05 22.388 117.05 22.3877 117.05 22.3874C117.05 22.3871 117.05 22.3867 117.05 22.3864C117.05 22.3861 117.05 22.3858 117.05 22.3855C117.05 22.3852 117.05 22.3848 117.05 22.3845C117.05 22.3842 117.05 22.3839 117.05 22.3836C117.05 22.3833 117.05 22.383 117.05 22.3826C117.05 22.3823 117.05 22.382 117.05 22.3817C117.05 22.3814 117.05 22.3811 117.05 22.3808C117.05 22.3805 117.05 22.3801 117.05 22.3798C117.05 22.3795 117.05 22.3792 117.05 22.3789C117.05 22.3786 117.05 22.3783 117.05 22.378C117.05 22.3777 117.05 22.3773 117.05 22.377C117.05 22.3767 117.05 22.3764 117.05 22.3761C117.05 22.3758 117.05 22.3755 117.05 22.3752C117.05 22.3749 117.05 22.3746 117.05 22.3742C117.05 22.3739 117.05 22.3736 117.05 22.3733C117.05 22.373 117.05 22.3727 117.05 22.3724C117.05 22.3721 117.05 22.3718 117.05 22.3715C117.05 22.3712 117.05 22.3709 117.05 22.3706C117.05 22.3702 117.05 22.3699 117.05 22.3696C117.05 22.3693 117.05 22.369 117.05 22.3687C117.05 22.3684 117.05 22.3681 117.05 22.3678C117.05 22.3675 117.05 22.3672 117.05 22.3669C117.05 22.3666 117.05 22.3663 117.05 22.366C117.05 22.3657 117.05 22.3654 117.05 22.3651C117.05 22.3648 117.05 22.3645 117.05 22.3642C117.05 22.3639 117.05 22.3636 117.05 22.3633C117.05 22.3629 117.05 22.3626 117.05 22.3623C117.05 22.362 117.05 22.3617 117.05 22.3614C117.05 22.3611 117.05 22.3608 117.05 22.3605C117.05 22.3602 117.05 22.3599 117.05 22.3596C117.05 22.3593 117.05 22.359 117.05 22.3587C117.05 22.3584 117.05 22.3581 117.05 22.3578C117.05 22.3575 117.05 22.3572 117.05 22.3569C117.05 22.3566 117.05 22.3564 117.05 22.3561C117.05 22.3558 117.05 22.3555 117.05 22.3552C117.05 22.3549 117.05 22.3546 117.05 22.3543C117.05 22.354 117.05 22.3537 117.05 22.3534C117.05 22.3531 117.05 22.3528 117.05 22.3525C117.05 22.3522 117.05 22.3519 117.05 22.3516C117.05 22.3513 117.05 22.351 117.05 22.3507C117.05 22.3504 117.05 22.3501 117.05 22.3498C117.05 22.3495 117.05 22.3493 117.05 22.349C117.05 22.3487 117.05 22.3484 117.05 22.3481C117.05 22.3478 117.05 22.3475 117.05 22.3472C117.05 22.3469 117.05 22.3466 117.05 22.3463C117.05 22.346 117.05 22.3457 117.05 22.3455C117.05 22.3452 117.05 22.3449 117.05 22.3446C117.05 22.3443 117.05 22.344 117.05 22.3437C117.05 22.3434 117.05 22.3431 117.05 22.3428C117.05 22.3426 117.05 22.3423 117.05 22.342C117.05 22.3417 117.05 22.3414 117.05 22.3411C117.05 22.3408 117.05 22.3405 117.05 22.3402C117.05 22.34 117.05 22.3397 117.05 22.3394C117.05 22.3391 117.05 22.3388 117.05 22.3385C117.05 22.3382 117.05 22.3379 117.05 22.3377C117.05 22.3374 117.05 22.3371 117.05 22.3368C117.05 22.3365 117.05 22.3362 117.05 22.3359C117.05 22.3357 117.05 22.3354 117.05 22.3351C117.05 22.3348 117.05 22.3345 117.05 22.3342C117.05 22.334 117.05 22.3337 117.05 22.3334C117.05 22.3331 117.05 22.3328 117.05 22.3325C117.05 22.3323 117.05 22.332 117.05 22.3317C117.05 22.3314 117.05 22.3311 117.05 22.3308C117.05 22.3306 117.05 22.3303 117.05 22.33C117.05 22.3297 117.05 22.3294 117.05 22.3292C117.05 22.3289 117.05 22.3286 117.05 22.3283C117.05 22.328 117.05 22.3278 117.05 22.3275C117.05 22.3272 117.05 22.3269 117.05 22.3266C117.05 22.3264 117.05 22.3261 117.05 22.3258C117.05 22.3255 117.05 22.3252 117.05 22.325C117.05 22.3247 117.05 22.3244 117.05 22.3241C117.05 22.3239 117.05 22.3236 117.05 22.3233C117.05 22.323 117.05 22.3227 117.05 22.3225C117.05 22.3222 117.05 22.3219 117.05 22.3216C117.05 22.3214 117.05 22.3211 117.05 22.3208C117.05 22.3205 117.05 22.3203 117.05 22.32C117.05 22.3197 117.05 22.3194 117.05 22.3192C117.05 22.3189 117.05 22.3186 117.05 22.3183C117.05 22.3181 117.05 22.3178 117.05 22.3175C117.05 22.3173 117.05 22.317 117.05 22.3167C117.05 22.3164 117.05 22.3162 117.05 22.3159C117.05 22.3156 117.05 22.3154 117.05 22.3151C117.05 22.3148 117.05 22.3145 117.05 22.3143C117.05 22.314 117.05 22.3137 117.05 22.3135C117.05 22.3132 117.05 22.3129 117.05 22.3126C117.05 22.3124 117.05 22.3121 117.05 22.3118C117.05 22.3116 117.05 22.3113 117.05 22.311C117.05 22.3108 117.05 22.3105 117.05 22.3102C117.05 22.31 117.05 22.3097 117.05 22.3094C117.05 22.3092 117.05 22.3089 117.05 22.3086C117.05 22.3084 117.05 22.3081 117.05 22.3078C117.05 22.3076 117.05 22.3073 117.05 22.307C117.05 22.3068 117.05 22.3065 117.05 22.3062C117.05 22.306 117.05 22.3057 117.05 22.3054C117.05 22.3052 117.05 22.3049 117.05 22.3046C117.05 22.3044 117.05 22.3041 117.05 22.3038C117.05 22.3036 117.05 22.3033 117.05 22.3031C117.05 22.3028 117.05 22.3025 117.05 22.3023C117.05 22.302 117.05 22.3017 117.05 22.3015C117.05 22.3012 117.05 22.301 117.05 22.3007C117.05 22.3004 117.05 22.3002 117.05 22.2999C117.05 22.2996 117.05 22.2994 117.05 22.2991C117.05 22.2989 117.05 22.2986 117.05 22.2983C117.05 22.2981 117.05 22.2978 117.05 22.2976C117.05 22.2973 117.05 22.2971 117.05 22.2968C117.05 22.2965 117.05 22.2963 117.05 22.296C117.05 22.2958 117.05 22.2955 117.05 22.2952C117.05 22.295 117.05 22.2947 117.05 22.2945C117.05 22.2942 117.05 22.294 117.05 22.2937C117.05 22.2934 117.05 22.2932 117.05 22.2929C117.05 22.2927 117.05 22.2924 117.05 22.2922C117.05 22.2919 117.05 22.2917 117.05 22.2914C117.05 22.2911 117.05 22.2909 117.05 22.2906C117.05 22.2904 117.05 22.2901 117.05 22.2899C117.05 22.2896 117.05 22.2894 117.05 22.2891C117.05 22.2889 117.05 22.2886 117.05 22.2884C117.05 22.2881 117.05 22.2878 117.05 22.2876C117.05 22.2873 117.05 22.2871 117.05 22.2868C117.05 22.2866 117.05 22.2863 117.05 22.2861C117.05 22.2858 117.05 22.2856 117.05 22.2853C117.05 22.2851 117.05 22.2848 117.05 22.2846C117.05 22.2843 117.05 22.2841 117.05 22.2838C117.05 22.2836 117.05 22.2833 117.05 22.2831C117.05 22.2828 117.05 22.2826 117.05 22.2823C117.05 22.2821 117.05 22.2818 117.05 22.2816C117.05 22.2813 117.05 22.2811 117.05 22.2809C117.05 22.2806 117.05 22.2804 117.05 22.2801C117.05 22.2799 117.05 22.2796 117.05 22.2794C117.05 22.2791 117.05 22.2789 117.05 22.2786C117.05 22.2784 117.05 22.2781 117.05 22.2779C117.05 22.2777 117.05 22.2774 117.05 22.2772C117.05 22.2769 117.05 22.2767 117.05 22.2764C117.05 22.2762 117.05 22.2759 117.05 22.2757C117.05 22.2755 117.05 22.2752 117.05 22.275C117.05 22.2747 117.05 22.2745 117.05 22.2742C117.05 22.274 117.05 22.2738 117.05 22.2735C117.05 22.2733 117.05 22.273 117.05 22.2728C117.05 22.2726 117.05 22.2723 117.05 22.2721C117.05 22.2718 117.05 22.2716 117.05 22.2714C117.05 22.2711 117.05 22.2709 117.05 22.2706C117.05 22.2704 117.05 22.2702 117.05 22.2699C117.05 22.2697 117.05 22.2694 117.05 22.2692C117.05 22.269 117.05 22.2687 117.05 22.2685C117.05 22.2682 117.05 22.268 117.05 22.2678C117.05 22.2675 117.05 22.2673 117.05 22.2671C117.05 22.2668 117.05 22.2666 117.05 22.2664C117.05 22.2661 117.05 22.2659 117.05 22.2656C117.05 22.2654 117.05 22.2652 117.05 22.2649C117.05 22.2647 117.05 22.2645 117.05 22.2642C117.05 22.264 117.05 22.2638 117.05 22.2635C117.05 22.2633 117.05 22.2631 117.05 22.2628C117.05 22.2626 117.05 22.2624 117.05 22.2621C117.05 22.2619 117.05 22.2617 117.05 22.2614C117.05 22.2612 117.05 22.261 117.05 22.2607C117.05 22.2605 117.05 22.2603 117.05 22.26C117.05 22.2598 117.05 22.2596 117.05 22.2593C117.05 22.2591 117.05 22.2589 117.05 22.2587C117.05 22.2584 117.05 22.2582 117.05 22.258C117.05 22.2577 117.05 22.2575 117.05 22.2573C117.05 22.2571 117.05 22.2568 117.05 22.2566C117.05 22.2564 117.05 22.2561 117.05 22.2559C117.05 22.2557 117.05 22.2555 117.05 22.2552C117.05 22.255 117.05 22.2548 117.05 22.2545C117.05 22.2543 117.05 22.2541 117.05 22.2539C117.05 22.2536 117.05 22.2534 117.05 22.2532C117.05 22.253 117.05 22.2527 117.05 22.2525C117.05 22.2523 117.05 22.2521 117.05 22.2518C117.05 22.2516 117.05 22.2514 117.05 22.2512C117.05 22.2509 117.05 22.2507 117.05 22.2505C117.05 22.2503 117.05 22.25 117.05 22.2498C117.05 22.2496 117.05 22.2494 117.05 22.2492C117.05 22.2489 117.05 22.2487 117.05 22.2485C117.05 22.2483 117.05 22.248 117.05 22.2478C117.05 22.2476 117.05 22.2474 117.05 22.2472C117.05 22.2469 117.05 22.2467 117.05 22.2465C117.05 22.2463 117.05 22.2461 117.05 22.2458C117.05 22.2456 117.05 22.2454 117.05 22.2452C117.05 22.245 117.05 22.2447 117.05 22.2445C117.05 22.2443 117.05 22.2441 117.05 22.2439C117.05 22.2436 117.05 22.2434 117.05 22.2432C117.05 22.243 117.05 22.2428 117.05 22.2426C117.05 22.2423 117.05 22.2421 117.05 22.2419C117.05 22.2417 117.05 22.2415 117.05 22.2413C117.05 22.241 117.05 22.2408 117.05 22.2406C117.05 22.2404 117.05 22.2402 117.05 22.24C117.05 22.2398 117.05 22.2395 117.05 22.2393C117.05 22.2391 117.05 22.2389 117.05 22.2387C117.05 22.2385 117.05 22.2383 117.05 22.238C117.05 22.2378 117.05 22.2376 117.05 22.2374C117.05 22.2372 117.05 22.237 117.05 22.2368C117.05 22.2366 117.05 22.2363 117.05 22.2361C117.05 22.2359 117.05 22.2357 117.05 22.2355C117.05 22.2353 117.05 22.2351 117.05 22.2349C117.05 22.2347 117.05 22.2344 117.05 22.2342C117.05 22.234 117.05 22.2338 117.05 22.2336C117.05 22.2334 117.05 22.2332 117.05 22.233C117.05 22.2328 117.05 22.2326 117.05 22.2324C117.05 22.2321 117.05 22.2319 117.05 22.2317C117.05 22.2315 117.05 22.2313 117.05 22.2311C117.05 22.2309 117.05 22.2307 117.05 22.2305C117.05 22.2303 117.05 22.2301 117.05 22.2299C117.05 22.2297 117.05 22.2295 117.05 22.2293C117.05 22.229 117.05 22.2288 117.05 22.2286C117.05 22.2284 117.05 22.2282 117.05 22.228C117.05 22.2278 117.05 22.2276 117.05 22.2274C117.05 22.2272 117.05 22.227 117.05 22.2268C117.05 22.2266 117.05 22.2264 117.05 22.2262C117.05 22.226 117.05 22.2258 117.05 22.2256C117.05 22.2254 117.05 22.2252 117.05 22.225C117.05 22.2248 117.05 22.2246 117.05 22.2244C117.05 22.2242 117.05 22.224 117.05 22.2238C117.05 22.2236 117.05 22.2234 117.05 22.2232C117.05 22.223 117.05 22.2228 117.05 22.2226C117.05 22.2224 117.05 22.2222 117.05 22.222C117.05 22.2218 117.05 22.2216 117.05 22.2214C117.05 22.2212 117.05 22.221 117.05 22.2208C117.05 22.2206 117.05 22.2204 117.05 22.2202C117.05 22.22 117.05 22.2198 117.05 22.2196C117.05 22.2194 117.05 22.2192 117.05 22.219C117.05 22.2188 117.05 22.2186 117.05 22.2184C117.05 22.2182 117.05 22.218 117.05 22.2178C117.05 22.2176 117.05 22.2175 117.05 22.2173C117.05 22.2171 117.05 22.2169 117.05 22.2167C117.05 22.2165 117.05 22.2163 117.05 22.2161C117.05 22.2159 117.05 22.2157 117.05 22.2155C117.05 22.2153 117.05 22.2151 117.05 22.2149C117.05 22.2147 117.05 22.2146 117.05 22.2144C117.05 22.2142 117.05 22.214 117.05 22.2138C117.05 22.2136 117.05 22.2134 117.05 22.2132C117.05 22.213 117.05 22.2128 117.05 22.2126C117.05 22.2125 117.05 22.2123 117.05 22.2121C117.05 22.2119 117.05 22.2117 117.05 22.2115C117.05 22.2113 117.05 22.2111 117.05 22.2109C117.05 22.2108 117.05 22.2106 117.05 22.2104C117.05 22.2102 117.05 22.21 117.05 22.2098C117.05 22.2096 117.05 22.2094 117.05 22.2093C117.05 22.2091 117.05 22.2089 117.05 22.2087C117.05 22.2085 117.05 22.2083 117.05 22.2081C117.05 22.2079 117.05 22.2078 117.05 22.2076C117.05 22.2074 117.05 22.2072 117.05 22.207C117.05 22.2068 117.05 22.2067 117.05 22.2065C117.05 22.2063 117.05 22.2061 117.05 22.2059C117.05 22.2057 117.05 22.2056 117.05 22.2054C117.05 22.2052 117.05 22.205 117.05 22.2048C117.05 22.2046 117.05 22.2045 117.05 22.2043C117.05 22.2041 117.05 22.2039 117.05 22.2037C117.05 22.2036 117.05 22.2034 117.05 22.2032C117.05 22.203 117.05 22.2028 117.05 22.2026C117.05 22.2025 117.05 22.2023 117.05 22.2021C117.05 22.2019 117.05 22.2017 117.05 22.2016C117.05 22.2014 117.05 22.2012 117.05 22.201C117.05 22.2009 117.05 22.2007 117.05 22.2005C117.05 22.2003 117.05 22.2001 117.05 22.2C117.05 22.1998 117.05 22.1996 117.05 22.1994C117.05 22.1993 117.05 22.1991 117.05 22.1989C117.05 22.1987 117.05 22.1986 117.05 22.1984C117.05 22.1982 117.05 22.198 117.05 22.1978C117.05 22.1977 117.05 22.1975 117.05 22.1973C117.05 22.1971 117.05 22.197 117.05 22.1968C117.05 22.1966 117.05 22.1965 117.05 22.1963C117.05 22.1961 117.05 22.1959 117.05 22.1958C117.05 22.1956 117.05 22.1954 117.05 22.1952C117.05 22.1951 117.05 22.1949 117.05 22.1947C117.05 22.1946 117.05 22.1944 117.05 22.1942C117.05 22.194 117.05 22.1939 117.05 22.1937C117.05 22.1935 117.05 22.1934 117.05 22.1932C117.05 22.193 117.05 22.1928 117.05 22.1927C117.05 22.1925 117.05 22.1923 117.05 22.1922C117.05 22.192 117.05 22.1918 117.05 22.1917C117.05 22.1915 117.05 22.1913 117.05 22.1912C117.05 22.191 117.05 22.1908 117.05 22.1907C117.05 22.1905 117.05 22.1903 117.05 22.1901C117.05 22.19 117.05 22.1898 117.05 22.1896C117.05 22.1895 117.05 22.1893 117.05 22.1891C117.05 22.189 117.05 22.1888 117.05 22.1887C117.05 22.1885 117.05 22.1883 117.05 22.1882C117.05 22.188 117.05 22.1878 117.05 22.1877C117.05 22.1875 117.05 22.1873 117.05 22.1872C117.05 22.187 117.05 22.1868 117.05 22.1867C117.05 22.1865 117.05 22.1864 117.05 22.1862C117.05 22.186 117.05 22.1859 117.05 22.1857C117.05 22.1855 117.05 22.1854 117.05 22.1852C117.05 22.1851 117.05 22.1849 117.05 22.1847C117.05 22.1846 117.05 22.1844 117.05 22.1843C117.05 22.1841 117.05 22.1839 117.05 22.1838C117.05 22.1836 117.05 22.1835 117.05 22.1833C117.05 22.1831 117.05 22.183 117.05 22.1828C117.05 22.1827 117.05 22.1825 117.05 22.1823C117.05 22.1822 117.05 22.182 117.05 22.1819C117.05 22.1817 117.05 22.1816 117.05 22.1814C117.05 22.1812 117.05 22.1811 117.05 22.1809C117.05 22.1808 117.05 22.1806 117.05 22.1805C117.05 22.1803 117.05 22.1801 117.05 22.18C117.05 22.1798 117.05 22.1797 117.05 22.1795C117.05 22.1794 117.05 22.1792 117.05 22.1791C117.05 22.1789 117.05 22.1788 117.05 22.1786C117.05 22.1784 117.05 22.1783 117.05 22.1781C117.05 22.178 117.05 22.1778 117.05 22.1777C117.05 22.1775 117.05 22.1774 117.05 22.1772C117.05 22.1771 117.05 22.1769 117.05 22.1768C117.05 22.1766 117.05 22.1765 117.05 22.1763C117.05 22.1762 117.05 22.176 117.05 22.1759C117.05 22.1757 117.05 22.1756 117.05 22.1754C117.05 22.1753 117.05 22.1751 117.05 22.175C117.05 22.1748 117.05 22.1747 117.05 22.1745C117.05 22.1744 117.05 22.1742 117.05 22.1741C117.05 22.1739 117.05 22.1738 117.05 22.1736C117.05 22.1735 117.05 22.1733 117.05 22.1732C117.05 22.173 117.05 22.1729 117.05 22.1727C117.05 22.1726 117.05 22.1724 117.05 22.1723C117.05 22.1722 117.05 22.172 117.05 22.1719C117.05 22.1717 117.05 22.1716 117.05 22.1714C117.05 22.1713 117.05 22.1711 117.05 22.171C117.05 22.1708 117.05 22.1707 117.05 22.1706C117.05 22.1704 117.05 22.1703 117.05 22.1701C117.05 22.17 117.05 22.1698 117.05 22.1697C117.05 22.1696 117.05 22.1694 117.05 22.1693C117.05 22.1691 117.05 22.169 117.05 22.1688C117.05 22.1687 117.05 22.1686 117.05 22.1684C117.05 22.1683 117.05 22.1681 117.05 22.168H115.05C115.05 22.1681 115.05 22.1683 115.05 22.1684C115.05 22.1686 115.05 22.1687 115.05 22.1688C115.05 22.169 115.05 22.1691 115.05 22.1693C115.05 22.1694 115.05 22.1696 115.05 22.1697C115.05 22.1698 115.05 22.17 115.05 22.1701C115.05 22.1703 115.05 22.1704 115.05 22.1706C115.05 22.1707 115.05 22.1708 115.05 22.171C115.05 22.1711 115.05 22.1713 115.05 22.1714C115.05 22.1716 115.05 22.1717 115.05 22.1719C115.05 22.172 115.05 22.1722 115.05 22.1723C115.05 22.1724 115.05 22.1726 115.05 22.1727C115.05 22.1729 115.05 22.173 115.05 22.1732C115.05 22.1733 115.05 22.1735 115.05 22.1736C115.05 22.1738 115.05 22.1739 115.05 22.1741C115.05 22.1742 115.05 22.1744 115.05 22.1745C115.05 22.1747 115.05 22.1748 115.05 22.175C115.05 22.1751 115.05 22.1753 115.05 22.1754C115.05 22.1756 115.05 22.1757 115.05 22.1759C115.05 22.176 115.05 22.1762 115.05 22.1763C115.05 22.1765 115.05 22.1766 115.05 22.1768C115.05 22.1769 115.05 22.1771 115.05 22.1772C115.05 22.1774 115.05 22.1775 115.05 22.1777C115.05 22.1778 115.05 22.178 115.05 22.1781C115.05 22.1783 115.05 22.1784 115.05 22.1786C115.05 22.1788 115.05 22.1789 115.05 22.1791C115.05 22.1792 115.05 22.1794 115.05 22.1795C115.05 22.1797 115.05 22.1798 115.05 22.18C115.05 22.1801 115.05 22.1803 115.05 22.1805C115.05 22.1806 115.05 22.1808 115.05 22.1809C115.05 22.1811 115.05 22.1812 115.05 22.1814C115.05 22.1816 115.05 22.1817 115.05 22.1819C115.05 22.182 115.05 22.1822 115.05 22.1823C115.05 22.1825 115.05 22.1827 115.05 22.1828C115.05 22.183 115.05 22.1831 115.05 22.1833C115.05 22.1835 115.05 22.1836 115.05 22.1838C115.05 22.1839 115.05 22.1841 115.05 22.1843C115.05 22.1844 115.05 22.1846 115.05 22.1847C115.05 22.1849 115.05 22.1851 115.05 22.1852C115.05 22.1854 115.05 22.1855 115.05 22.1857C115.05 22.1859 115.05 22.186 115.05 22.1862C115.05 22.1864 115.05 22.1865 115.05 22.1867C115.05 22.1868 115.05 22.187 115.05 22.1872C115.05 22.1873 115.05 22.1875 115.05 22.1877C115.05 22.1878 115.05 22.188 115.05 22.1882C115.05 22.1883 115.05 22.1885 115.05 22.1887C115.05 22.1888 115.05 22.189 115.05 22.1891C115.05 22.1893 115.05 22.1895 115.05 22.1896C115.05 22.1898 115.05 22.19 115.05 22.1901C115.05 22.1903 115.05 22.1905 115.05 22.1907C115.05 22.1908 115.05 22.191 115.05 22.1912C115.05 22.1913 115.05 22.1915 115.05 22.1917C115.05 22.1918 115.05 22.192 115.05 22.1922C115.05 22.1923 115.05 22.1925 115.05 22.1927C115.05 22.1928 115.05 22.193 115.05 22.1932C115.05 22.1934 115.05 22.1935 115.05 22.1937C115.05 22.1939 115.05 22.194 115.05 22.1942C115.05 22.1944 115.05 22.1946 115.05 22.1947C115.05 22.1949 115.05 22.1951 115.05 22.1952C115.05 22.1954 115.05 22.1956 115.05 22.1958C115.05 22.1959 115.05 22.1961 115.05 22.1963C115.05 22.1965 115.05 22.1966 115.05 22.1968C115.05 22.197 115.05 22.1971 115.05 22.1973C115.05 22.1975 115.05 22.1977 115.05 22.1978C115.05 22.198 115.05 22.1982 115.05 22.1984C115.05 22.1986 115.05 22.1987 115.05 22.1989C115.05 22.1991 115.05 22.1993 115.05 22.1994C115.05 22.1996 115.05 22.1998 115.05 22.2C115.05 22.2001 115.05 22.2003 115.05 22.2005C115.05 22.2007 115.05 22.2009 115.05 22.201C115.05 22.2012 115.05 22.2014 115.05 22.2016C115.05 22.2017 115.05 22.2019 115.05 22.2021C115.05 22.2023 115.05 22.2025 115.05 22.2026C115.05 22.2028 115.05 22.203 115.05 22.2032C115.05 22.2034 115.05 22.2036 115.05 22.2037C115.05 22.2039 115.05 22.2041 115.05 22.2043C115.05 22.2045 115.05 22.2046 115.05 22.2048C115.05 22.205 115.05 22.2052 115.05 22.2054C115.05 22.2056 115.05 22.2057 115.05 22.2059C115.05 22.2061 115.05 22.2063 115.05 22.2065C115.05 22.2067 115.05 22.2068 115.05 22.207C115.05 22.2072 115.05 22.2074 115.05 22.2076C115.05 22.2078 115.05 22.2079 115.05 22.2081C115.05 22.2083 115.05 22.2085 115.05 22.2087C115.05 22.2089 115.05 22.2091 115.05 22.2093C115.05 22.2094 115.05 22.2096 115.05 22.2098C115.05 22.21 115.05 22.2102 115.05 22.2104C115.05 22.2106 115.05 22.2108 115.05 22.2109C115.05 22.2111 115.05 22.2113 115.05 22.2115C115.05 22.2117 115.05 22.2119 115.05 22.2121C115.05 22.2123 115.05 22.2125 115.05 22.2126C115.05 22.2128 115.05 22.213 115.05 22.2132C115.05 22.2134 115.05 22.2136 115.05 22.2138C115.05 22.214 115.05 22.2142 115.05 22.2144C115.05 22.2146 115.05 22.2147 115.05 22.2149C115.05 22.2151 115.05 22.2153 115.05 22.2155C115.05 22.2157 115.05 22.2159 115.05 22.2161C115.05 22.2163 115.05 22.2165 115.05 22.2167C115.05 22.2169 115.05 22.2171 115.05 22.2173C115.05 22.2175 115.05 22.2176 115.05 22.2178C115.05 22.218 115.05 22.2182 115.05 22.2184C115.05 22.2186 115.05 22.2188 115.05 22.219C115.05 22.2192 115.05 22.2194 115.05 22.2196C115.05 22.2198 115.05 22.22 115.05 22.2202C115.05 22.2204 115.05 22.2206 115.05 22.2208C115.05 22.221 115.05 22.2212 115.05 22.2214C115.05 22.2216 115.05 22.2218 115.05 22.222C115.05 22.2222 115.05 22.2224 115.05 22.2226C115.05 22.2228 115.05 22.223 115.05 22.2232C115.05 22.2234 115.05 22.2236 115.05 22.2238C115.05 22.224 115.05 22.2242 115.05 22.2244C115.05 22.2246 115.05 22.2248 115.05 22.225C115.05 22.2252 115.05 22.2254 115.05 22.2256C115.05 22.2258 115.05 22.226 115.05 22.2262C115.05 22.2264 115.05 22.2266 115.05 22.2268C115.05 22.227 115.05 22.2272 115.05 22.2274C115.05 22.2276 115.05 22.2278 115.05 22.228C115.05 22.2282 115.05 22.2284 115.05 22.2286C115.05 22.2288 115.05 22.229 115.05 22.2293C115.05 22.2295 115.05 22.2297 115.05 22.2299C115.05 22.2301 115.05 22.2303 115.05 22.2305C115.05 22.2307 115.05 22.2309 115.05 22.2311C115.05 22.2313 115.05 22.2315 115.05 22.2317C115.05 22.2319 115.05 22.2321 115.05 22.2324C115.05 22.2326 115.05 22.2328 115.05 22.233C115.05 22.2332 115.05 22.2334 115.05 22.2336C115.05 22.2338 115.05 22.234 115.05 22.2342C115.05 22.2344 115.05 22.2347 115.05 22.2349C115.05 22.2351 115.05 22.2353 115.05 22.2355C115.05 22.2357 115.05 22.2359 115.05 22.2361C115.05 22.2363 115.05 22.2366 115.05 22.2368C115.05 22.237 115.05 22.2372 115.05 22.2374C115.05 22.2376 115.05 22.2378 115.05 22.238C115.05 22.2383 115.05 22.2385 115.05 22.2387C115.05 22.2389 115.05 22.2391 115.05 22.2393C115.05 22.2395 115.05 22.2398 115.05 22.24C115.05 22.2402 115.05 22.2404 115.05 22.2406C115.05 22.2408 115.05 22.241 115.05 22.2413C115.05 22.2415 115.05 22.2417 115.05 22.2419C115.05 22.2421 115.05 22.2423 115.05 22.2426C115.05 22.2428 115.05 22.243 115.05 22.2432C115.05 22.2434 115.05 22.2436 115.05 22.2439C115.05 22.2441 115.05 22.2443 115.05 22.2445C115.05 22.2447 115.05 22.245 115.05 22.2452C115.05 22.2454 115.05 22.2456 115.05 22.2458C115.05 22.2461 115.05 22.2463 115.05 22.2465C115.05 22.2467 115.05 22.2469 115.05 22.2472C115.05 22.2474 115.05 22.2476 115.05 22.2478C115.05 22.248 115.05 22.2483 115.05 22.2485C115.05 22.2487 115.05 22.2489 115.05 22.2492C115.05 22.2494 115.05 22.2496 115.05 22.2498C115.05 22.25 115.05 22.2503 115.05 22.2505C115.05 22.2507 115.05 22.2509 115.05 22.2512C115.05 22.2514 115.05 22.2516 115.05 22.2518C115.05 22.2521 115.05 22.2523 115.05 22.2525C115.05 22.2527 115.05 22.253 115.05 22.2532C115.05 22.2534 115.05 22.2536 115.05 22.2539C115.05 22.2541 115.05 22.2543 115.05 22.2545C115.05 22.2548 115.05 22.255 115.05 22.2552C115.05 22.2555 115.05 22.2557 115.05 22.2559C115.05 22.2561 115.05 22.2564 115.05 22.2566C115.05 22.2568 115.05 22.2571 115.05 22.2573C115.05 22.2575 115.05 22.2577 115.05 22.258C115.05 22.2582 115.05 22.2584 115.05 22.2587C115.05 22.2589 115.05 22.2591 115.05 22.2593C115.05 22.2596 115.05 22.2598 115.05 22.26C115.05 22.2603 115.05 22.2605 115.05 22.2607C115.05 22.261 115.05 22.2612 115.05 22.2614C115.05 22.2617 115.05 22.2619 115.05 22.2621C115.05 22.2624 115.05 22.2626 115.05 22.2628C115.05 22.2631 115.05 22.2633 115.05 22.2635C115.05 22.2638 115.05 22.264 115.05 22.2642C115.05 22.2645 115.05 22.2647 115.05 22.2649C115.05 22.2652 115.05 22.2654 115.05 22.2656C115.05 22.2659 115.05 22.2661 115.05 22.2664C115.05 22.2666 115.05 22.2668 115.05 22.2671C115.05 22.2673 115.05 22.2675 115.05 22.2678C115.05 22.268 115.05 22.2682 115.05 22.2685C115.05 22.2687 115.05 22.269 115.05 22.2692C115.05 22.2694 115.05 22.2697 115.05 22.2699C115.05 22.2702 115.05 22.2704 115.05 22.2706C115.05 22.2709 115.05 22.2711 115.05 22.2714C115.05 22.2716 115.05 22.2718 115.05 22.2721C115.05 22.2723 115.05 22.2726 115.05 22.2728C115.05 22.273 115.05 22.2733 115.05 22.2735C115.05 22.2738 115.05 22.274 115.05 22.2742C115.05 22.2745 115.05 22.2747 115.05 22.275C115.05 22.2752 115.05 22.2755 115.05 22.2757C115.05 22.2759 115.05 22.2762 115.05 22.2764C115.05 22.2767 115.05 22.2769 115.05 22.2772C115.05 22.2774 115.05 22.2777 115.05 22.2779C115.05 22.2781 115.05 22.2784 115.05 22.2786C115.05 22.2789 115.05 22.2791 115.05 22.2794C115.05 22.2796 115.05 22.2799 115.05 22.2801C115.05 22.2804 115.05 22.2806 115.05 22.2809C115.05 22.2811 115.05 22.2813 115.05 22.2816C115.05 22.2818 115.05 22.2821 115.05 22.2823C115.05 22.2826 115.05 22.2828 115.05 22.2831C115.05 22.2833 115.05 22.2836 115.05 22.2838C115.05 22.2841 115.05 22.2843 115.05 22.2846C115.05 22.2848 115.05 22.2851 115.05 22.2853C115.05 22.2856 115.05 22.2858 115.05 22.2861C115.05 22.2863 115.05 22.2866 115.05 22.2868C115.05 22.2871 115.05 22.2873 115.05 22.2876C115.05 22.2878 115.05 22.2881 115.05 22.2884C115.05 22.2886 115.05 22.2889 115.05 22.2891C115.05 22.2894 115.05 22.2896 115.05 22.2899C115.05 22.2901 115.05 22.2904 115.05 22.2906C115.05 22.2909 115.05 22.2911 115.05 22.2914C115.05 22.2917 115.05 22.2919 115.05 22.2922C115.05 22.2924 115.05 22.2927 115.05 22.2929C115.05 22.2932 115.05 22.2934 115.05 22.2937C115.05 22.294 115.05 22.2942 115.05 22.2945C115.05 22.2947 115.05 22.295 115.05 22.2952C115.05 22.2955 115.05 22.2958 115.05 22.296C115.05 22.2963 115.05 22.2965 115.05 22.2968C115.05 22.2971 115.05 22.2973 115.05 22.2976C115.05 22.2978 115.05 22.2981 115.05 22.2983C115.05 22.2986 115.05 22.2989 115.05 22.2991C115.05 22.2994 115.05 22.2996 115.05 22.2999C115.05 22.3002 115.05 22.3004 115.05 22.3007C115.05 22.301 115.05 22.3012 115.05 22.3015C115.05 22.3017 115.05 22.302 115.05 22.3023C115.05 22.3025 115.05 22.3028 115.05 22.3031C115.05 22.3033 115.05 22.3036 115.05 22.3038C115.05 22.3041 115.05 22.3044 115.05 22.3046C115.05 22.3049 115.05 22.3052 115.05 22.3054C115.05 22.3057 115.05 22.306 115.05 22.3062C115.05 22.3065 115.05 22.3068 115.05 22.307C115.05 22.3073 115.05 22.3076 115.05 22.3078C115.05 22.3081 115.05 22.3084 115.05 22.3086C115.05 22.3089 115.05 22.3092 115.05 22.3094C115.05 22.3097 115.05 22.31 115.05 22.3102C115.05 22.3105 115.05 22.3108 115.05 22.311C115.05 22.3113 115.05 22.3116 115.05 22.3118C115.05 22.3121 115.05 22.3124 115.05 22.3126C115.05 22.3129 115.05 22.3132 115.05 22.3135C115.05 22.3137 115.05 22.314 115.05 22.3143C115.05 22.3145 115.05 22.3148 115.05 22.3151C115.05 22.3154 115.05 22.3156 115.05 22.3159C115.05 22.3162 115.05 22.3164 115.05 22.3167C115.05 22.317 115.05 22.3173 115.05 22.3175C115.05 22.3178 115.05 22.3181 115.05 22.3183C115.05 22.3186 115.05 22.3189 115.05 22.3192C115.05 22.3194 115.05 22.3197 115.05 22.32C115.05 22.3203 115.05 22.3205 115.05 22.3208C115.05 22.3211 115.05 22.3214 115.05 22.3216C115.05 22.3219 115.05 22.3222 115.05 22.3225C115.05 22.3227 115.05 22.323 115.05 22.3233C115.05 22.3236 115.05 22.3239 115.05 22.3241C115.05 22.3244 115.05 22.3247 115.05 22.325C115.05 22.3252 115.05 22.3255 115.05 22.3258C115.05 22.3261 115.05 22.3264 115.05 22.3266C115.05 22.3269 115.05 22.3272 115.05 22.3275C115.05 22.3278 115.05 22.328 115.05 22.3283C115.05 22.3286 115.05 22.3289 115.05 22.3292C115.05 22.3294 115.05 22.3297 115.05 22.33C115.05 22.3303 115.05 22.3306 115.05 22.3308C115.05 22.3311 115.05 22.3314 115.05 22.3317C115.05 22.332 115.05 22.3323 115.05 22.3325C115.05 22.3328 115.05 22.3331 115.05 22.3334C115.05 22.3337 115.05 22.334 115.05 22.3342C115.05 22.3345 115.05 22.3348 115.05 22.3351C115.05 22.3354 115.05 22.3357 115.05 22.3359C115.05 22.3362 115.05 22.3365 115.05 22.3368C115.05 22.3371 115.05 22.3374 115.05 22.3377C115.05 22.3379 115.05 22.3382 115.05 22.3385C115.05 22.3388 115.05 22.3391 115.05 22.3394C115.05 22.3397 115.05 22.34 115.05 22.3402C115.05 22.3405 115.05 22.3408 115.05 22.3411C115.05 22.3414 115.05 22.3417 115.05 22.342C115.05 22.3423 115.05 22.3426 115.05 22.3428C115.05 22.3431 115.05 22.3434 115.05 22.3437C115.05 22.344 115.05 22.3443 115.05 22.3446C115.05 22.3449 115.05 22.3452 115.05 22.3455C115.05 22.3457 115.05 22.346 115.05 22.3463C115.05 22.3466 115.05 22.3469 115.05 22.3472C115.05 22.3475 115.05 22.3478 115.05 22.3481C115.05 22.3484 115.05 22.3487 115.05 22.349C115.05 22.3493 115.05 22.3495 115.05 22.3498C115.05 22.3501 115.05 22.3504 115.05 22.3507C115.05 22.351 115.05 22.3513 115.05 22.3516C115.05 22.3519 115.05 22.3522 115.05 22.3525C115.05 22.3528 115.05 22.3531 115.05 22.3534C115.05 22.3537 115.05 22.354 115.05 22.3543C115.05 22.3546 115.05 22.3549 115.05 22.3552C115.05 22.3555 115.05 22.3558 115.05 22.3561C115.05 22.3564 115.05 22.3566 115.05 22.3569C115.05 22.3572 115.05 22.3575 115.05 22.3578C115.05 22.3581 115.05 22.3584 115.05 22.3587C115.05 22.359 115.05 22.3593 115.05 22.3596C115.05 22.3599 115.05 22.3602 115.05 22.3605C115.05 22.3608 115.05 22.3611 115.05 22.3614C115.05 22.3617 115.05 22.362 115.05 22.3623C115.05 22.3626 115.05 22.3629 115.05 22.3633C115.05 22.3636 115.05 22.3639 115.05 22.3642C115.05 22.3645 115.05 22.3648 115.05 22.3651C115.05 22.3654 115.05 22.3657 115.05 22.366C115.05 22.3663 115.05 22.3666 115.05 22.3669C115.05 22.3672 115.05 22.3675 115.05 22.3678C115.05 22.3681 115.05 22.3684 115.05 22.3687C115.05 22.369 115.05 22.3693 115.05 22.3696C115.05 22.3699 115.05 22.3702 115.05 22.3706C115.05 22.3709 115.05 22.3712 115.05 22.3715C115.05 22.3718 115.05 22.3721 115.05 22.3724C115.05 22.3727 115.05 22.373 115.05 22.3733C115.05 22.3736 115.05 22.3739 115.05 22.3742C115.05 22.3746 115.05 22.3749 115.05 22.3752C115.05 22.3755 115.05 22.3758 115.05 22.3761C115.05 22.3764 115.05 22.3767 115.05 22.377C115.05 22.3773 115.05 22.3777 115.05 22.378C115.05 22.3783 115.05 22.3786 115.05 22.3789C115.05 22.3792 115.05 22.3795 115.05 22.3798C115.05 22.3801 115.05 22.3805 115.05 22.3808C115.05 22.3811 115.05 22.3814 115.05 22.3817C115.05 22.382 115.05 22.3823 115.05 22.3826C115.05 22.383 115.05 22.3833 115.05 22.3836C115.05 22.3839 115.05 22.3842 115.05 22.3845C115.05 22.3848 115.05 22.3852 115.05 22.3855C115.05 22.3858 115.05 22.3861 115.05 22.3864C115.05 22.3867 115.05 22.3871 115.05 22.3874C115.05 22.3877 115.05 22.388 115.05 22.3883C115.05 22.3886 115.05 22.389 115.05 22.3893C115.05 22.3896 115.05 22.3899 115.05 22.3902C115.05 22.3905 115.05 22.3909 115.05 22.3912C115.05 22.3915 115.05 22.3918 115.05 22.3921C115.05 22.3925 115.05 22.3928 115.05 22.3931C115.05 22.3934 115.05 22.3937 115.05 22.3941C115.05 22.3944 115.05 22.3947 115.05 22.395C115.05 22.3953 115.05 22.3957 115.05 22.396C115.05 22.3963 115.05 22.3966 115.05 22.3969C115.05 22.3973 115.05 22.3976 115.05 22.3979C115.05 22.3982 115.05 22.3986 115.05 22.3989C115.05 22.3992 115.05 22.3995 115.05 22.3999C115.05 22.4002 115.05 22.4005 115.05 22.4008C115.05 22.4011 115.05 22.4015 115.05 22.4018C115.05 22.4021 115.05 22.4024 115.05 22.4028C115.05 22.4031 115.05 22.4034 115.05 22.4037C115.05 22.4041 115.05 22.4044 115.05 22.4047C115.05 22.4051 115.05 22.4054 115.05 22.4057C115.05 22.406 115.05 22.4064 115.05 22.4067C115.05 22.407 115.05 22.4073 115.05 22.4077C115.05 22.408 115.05 22.4083 115.05 22.4087C115.05 22.409 115.05 22.4093 115.05 22.4096C115.05 22.41 115.05 22.4103 115.05 22.4106C115.05 22.411 115.05 22.4113 115.05 22.4116C115.05 22.412 115.05 22.4123 115.05 22.4126C115.05 22.4129 115.05 22.4133 115.05 22.4136C115.05 22.4139 115.05 22.4143 115.05 22.4146C115.05 22.4149 115.05 22.4153 115.05 22.4156C115.05 22.4159 115.05 22.4163 115.05 22.4166C115.05 22.4169 115.05 22.4173 115.05 22.4176C115.05 22.4179 115.05 22.4183 115.05 22.4186C115.05 22.4189 115.05 22.4193 115.05 22.4196C115.05 22.4199 115.05 22.4203 115.05 22.4206C115.05 22.4209 115.05 22.4213 115.05 22.4216C115.05 22.4219 115.05 22.4223 115.05 22.4226C115.05 22.423 115.05 22.4233 115.05 22.4236C115.05 22.424 115.05 22.4243 115.05 22.4246C115.05 22.425 115.05 22.4253 115.05 22.4256C115.05 22.426 115.05 22.4263 115.05 22.4267C115.05 22.427 115.05 22.4273 115.05 22.4277C115.05 22.428 115.05 22.4284 115.05 22.4287C115.05 22.429 115.05 22.4294 115.05 22.4297C115.05 22.4301 115.05 22.4304 115.05 22.4307C115.05 22.4311 115.05 22.4314 115.05 22.4318C115.05 22.4321 115.05 22.4324 115.05 22.4328C115.05 22.4331 115.05 22.4335 115.05 22.4338C115.05 22.4342 115.05 22.4345 115.05 22.4348C115.05 22.4352 115.05 22.4355 115.05 22.4359C115.05 22.4362 115.05 22.4366 115.05 22.4369C115.05 22.4372 115.05 22.4376 115.05 22.4379C115.05 22.4383 115.05 22.4386 115.05 22.439C115.05 22.4393 115.05 22.4397 115.05 22.44C115.05 22.4403 115.05 22.4407 115.05 22.441C115.05 22.4414 115.05 22.4417 115.05 22.4421C115.05 22.4424 115.05 22.4428 115.05 22.4431C115.05 22.4435 115.05 22.4438 115.05 22.4442C115.05 22.4445 115.05 22.4449 115.05 22.4452C115.05 22.4455 115.05 22.4459 115.05 22.4462C115.05 22.4466 115.05 22.4469 115.05 22.4473C115.05 22.4476 115.05 22.448 115.05 22.4483C115.05 22.4487 115.05 22.449 115.05 22.4494C115.05 22.4497 115.05 22.4501 115.05 22.4504C115.05 22.4508 115.05 22.4511 115.05 22.4515C115.05 22.4519 115.05 22.4522 115.05 22.4526C115.05 22.4529 115.05 22.4533 115.05 22.4536C115.05 22.454 115.05 22.4543 115.05 22.4547C115.05 22.455 115.05 22.4554 115.05 22.4557C115.05 22.4561 115.05 22.4564 115.05 22.4568C115.05 22.4571 115.05 22.4575 115.05 22.4579C115.05 22.4582 115.05 22.4586 115.05 22.4589C115.05 22.4593 115.05 22.4596 115.05 22.46C115.05 22.4603 115.05 22.4607 115.05 22.4611C115.05 22.4614 115.05 22.4618 115.05 22.4621C115.05 22.4625 115.05 22.4628 115.05 22.4632C115.05 22.4636 115.05 22.4639 115.05 22.4643C115.05 22.4646 115.05 22.465 115.05 22.4653C115.05 22.4657 115.05 22.4661 115.05 22.4664C115.05 22.4668 115.05 22.4671 115.05 22.4675C115.05 22.4679 115.05 22.4682 115.05 22.4686C115.05 22.4689 115.05 22.4693 115.05 22.4697C115.05 22.47 115.05 22.4704 115.05 22.4708C115.05 22.4711 115.05 22.4715 115.05 22.4718C115.05 22.4722 115.05 22.4726 115.05 22.4729C115.05 22.4733 115.05 22.4736 115.05 22.474C115.05 22.4744 115.05 22.4747 115.05 22.4751C115.05 22.4755 115.05 22.4758 115.05 22.4762C115.05 22.4766 115.05 22.4769 115.05 22.4773C115.05 22.4777 115.05 22.478 115.05 22.4784C115.05 22.4787 115.05 22.4791 115.05 22.4795C115.05 22.4798 115.05 22.4802 115.05 22.4806C115.05 22.4809 115.05 22.4813 115.05 22.4817C115.05 22.482 115.05 22.4824 115.05 22.4828C115.05 22.4831 115.05 22.4835 115.05 22.4839C115.05 22.4842 115.05 22.4846 115.05 22.485C115.05 22.4854 115.05 22.4857 115.05 22.4861C115.05 22.4865 115.05 22.4868 115.05 22.4872C115.05 22.4876 115.05 22.4879 115.05 22.4883C115.05 22.4887 115.05 22.4891 115.05 22.4894C115.05 22.4898 115.05 22.4902 115.05 22.4905C115.05 22.4909 115.05 22.4913 115.05 22.4917C115.05 22.492 115.05 22.4924 115.05 22.4928C115.05 22.4931 115.05 22.4935 115.05 22.4939C115.05 22.4943 115.05 22.4946 115.05 22.495C115.05 22.4954 115.05 22.4958 115.05 22.4961C115.05 22.4965 115.05 22.4969 115.05 22.4972C115.05 22.4976 115.05 22.498 115.05 22.4984C115.05 22.4988 115.05 22.4991 115.05 22.4995C115.05 22.4999 115.05 22.5003 115.05 22.5006C115.05 22.501 115.05 22.5014 115.05 22.5018C115.05 22.5021 115.05 22.5025 115.05 22.5029C115.05 22.5033 115.05 22.5036 115.05 22.504C115.05 22.5044 115.05 22.5048 115.05 22.5052C115.05 22.5055 115.05 22.5059 115.05 22.5063C115.05 22.5067 115.05 22.5071 115.05 22.5074C115.05 22.5078 115.05 22.5082 115.05 22.5086C115.05 22.509 115.05 22.5093 115.05 22.5097C115.05 22.5101 115.05 22.5105 115.05 22.5109C115.05 22.5112 115.05 22.5116 115.05 22.512C115.05 22.5124 115.05 22.5128 115.05 22.5131C115.05 22.5135 115.05 22.5139 115.05 22.5143C115.05 22.5147 115.05 22.5151 115.05 22.5154C115.05 22.5158 115.05 22.5162 115.05 22.5166C115.05 22.517 115.05 22.5174 115.05 22.5177C115.05 22.5181 115.05 22.5185 115.05 22.5189C115.05 22.5193 115.05 22.5197 115.05 22.5201C115.05 22.5204 115.05 22.5208 115.05 22.5212C115.05 22.5216 115.05 22.522 115.05 22.5224C115.05 22.5228 115.05 22.5231 115.05 22.5235C115.05 22.5239 115.05 22.5243 115.05 22.5247C115.05 22.5251 115.05 22.5255 115.05 22.5259C115.05 22.5263 115.05 22.5266 115.05 22.527C115.05 22.5274 115.05 22.5278 115.05 22.5282C115.05 22.5286 115.05 22.529 115.05 22.5294C115.05 22.5298 115.05 22.5301 115.05 22.5305C115.05 22.5309 115.05 22.5313 115.05 22.5317C115.05 22.5321 115.05 22.5325 115.05 22.5329C115.05 22.5333 115.05 22.5337 115.05 22.5341C115.05 22.5345 115.05 22.5348 115.05 22.5352C115.05 22.5356 115.05 22.536 115.05 22.5364C115.05 22.5368 115.05 22.5372 115.05 22.5376C115.05 22.538 115.05 22.5384 115.05 22.5388C115.05 22.5392 115.05 22.5396 115.05 22.54C115.05 22.5404 115.05 22.5408 115.05 22.5411C115.05 22.5415 115.05 22.5419 115.05 22.5423C115.05 22.5427 115.05 22.5431 115.05 22.5435C115.05 22.5439 115.05 22.5443 115.05 22.5447C115.05 22.5451 115.05 22.5455 115.05 22.5459C115.05 22.5463 115.05 22.5467 115.05 22.5471C115.05 22.5475 115.05 22.5479 115.05 22.5483C115.05 22.5487 115.05 22.5491 115.05 22.5495C115.05 22.5499 115.05 22.5503 115.05 22.5507C115.05 22.5511 115.05 22.5515 115.05 22.5519C115.05 22.5523 115.05 22.5527 115.05 22.5531C115.05 22.5535 115.05 22.5539 115.05 22.5543C115.05 22.5547 115.05 22.5551 115.05 22.5555C115.05 22.5559 115.05 22.5563 115.05 22.5567C115.05 22.5571 115.05 22.5575 115.05 22.5579C115.05 22.5583 115.05 22.5587 115.05 22.5591C115.05 22.5595 115.05 22.5599 115.05 22.5603C115.05 22.5607 115.05 22.5612 115.05 22.5616C115.05 22.562 115.05 22.5624 115.05 22.5628C115.05 22.5632 115.05 22.5636 115.05 22.564C115.05 22.5644 115.05 22.5648 115.05 22.5652C115.05 22.5656 115.05 22.566 115.05 22.5664C115.05 22.5668 115.05 22.5672 115.05 22.5676C115.05 22.5681 115.05 22.5685 115.05 22.5689C115.05 22.5693 115.05 22.5697 115.05 22.5701C115.05 22.5705 115.05 22.5709 115.05 22.5713C115.05 22.5717 115.05 22.5721 115.05 22.5726C115.05 22.573 115.05 22.5734 115.05 22.5738C115.05 22.5742 115.05 22.5746 115.05 22.575C115.05 22.5754 115.05 22.5758 115.05 22.5763C115.05 22.5767 115.05 22.5771 115.05 22.5775C115.05 22.5779 115.05 22.5783 115.05 22.5787C115.05 22.5791 115.05 22.5795 115.05 22.58C115.05 22.5804 115.05 22.5808 115.05 22.5812C115.05 22.5816 115.05 22.582 115.05 22.5824C115.05 22.5829 115.05 22.5833 115.05 22.5837C115.05 22.5841 115.05 22.5845 115.05 22.5849C115.05 22.5853 115.05 22.5858 115.05 22.5862C115.05 22.5866 115.05 22.587 115.05 22.5874C115.05 22.5878 115.05 22.5883 115.05 22.5887C115.05 22.5891 115.05 22.5895 115.05 22.5899C115.05 22.5903 115.05 22.5908 115.05 22.5912C115.05 22.5916 115.05 22.592 115.05 22.5924C115.05 22.5929 115.05 22.5933 115.05 22.5937C115.05 22.5941 115.05 22.5945 115.05 22.5949C115.05 22.5954 115.05 22.5958 115.05 22.5962C115.05 22.5966 115.05 22.5971 115.05 22.5975C115.05 22.5979 115.05 22.5983 115.05 22.5987C115.05 22.5992 115.05 22.5996 115.05 22.6H117.05ZM116.999 22.4842C117.015 22.4353 117.033 22.3787 117.047 22.3205C117.057 22.2824 117.086 22.1651 117.086 22.024H115.086C115.086 21.9866 115.088 21.956 115.091 21.9346C115.093 21.9127 115.095 21.8948 115.098 21.8821C115.102 21.8575 115.106 21.8409 115.107 21.8355C115.11 21.8253 115.109 21.8287 115.102 21.8518L116.999 22.4842ZM116.086 23.024H120.298V21.024H116.086V23.024ZM119.298 22.024V22.312H121.298V22.024H119.298ZM119.299 22.3376C119.331 23.5972 119.895 24.6183 120.976 25.2599L121.997 23.5401C121.541 23.2697 121.314 22.8988 121.298 22.2864L119.299 22.3376ZM121.007 25.2779C121.984 25.8107 123.144 26.048 124.438 26.048V24.048C123.38 24.048 122.572 23.8533 121.965 23.5221L121.007 25.2779ZM124.438 26.048C125.596 26.048 126.644 25.8643 127.55 25.4554L126.727 23.6326C126.144 23.8957 125.392 24.048 124.438 24.048V26.048ZM127.574 25.4442C128.057 25.2104 128.485 24.8902 128.793 24.454C129.107 24.0081 129.254 23.4974 129.254 22.96H127.254C127.254 23.1187 127.216 23.2199 127.158 23.302C127.093 23.3938 126.964 23.5176 126.703 23.6438L127.574 25.4442ZM129.254 22.96C129.254 22.1245 128.928 21.3915 128.278 20.8561L127.007 22.3999C127.172 22.5365 127.254 22.6915 127.254 22.96H129.254ZM128.304 20.8782C127.777 20.4134 127.146 20.0751 126.435 19.8476L125.825 21.7524C126.314 21.9089 126.691 22.1226 126.981 22.3778L128.304 20.8782ZM126.469 19.8591C125.817 19.6245 124.924 19.3745 123.807 19.1074L123.342 21.0526C124.433 21.3135 125.243 21.5435 125.791 21.7409L126.469 19.8591ZM123.809 19.108C122.344 18.7534 121.162 18.4044 120.253 18.0637L119.551 19.9363C120.563 20.3156 121.829 20.6866 123.339 21.052L123.809 19.108ZM120.261 18.0667C119.48 17.766 118.81 17.2975 118.243 16.6495L116.738 17.9665C117.515 18.8545 118.453 19.514 119.543 19.9333L120.261 18.0667ZM118.243 16.6495C117.764 16.1021 117.482 15.3461 117.482 14.284H115.482C115.482 15.7179 115.873 16.9779 116.738 17.9665L118.243 16.6495ZM117.482 14.284C117.482 12.816 118.061 11.7389 119.266 10.9421L118.163 9.27389C116.392 10.445 115.482 12.152 115.482 14.284H117.482ZM119.266 10.9421C120.544 10.0968 122.267 9.632 124.51 9.632V7.632C122.002 7.632 119.86 8.15118 118.163 9.27389L119.266 10.9421ZM124.51 9.632C125.877 9.632 127.062 9.83359 128.083 10.2163L128.785 8.34367C127.502 7.86241 126.072 7.632 124.51 7.632V9.632ZM128.083 10.2163C129.102 10.5983 129.824 11.115 130.313 11.7349L131.884 10.4971C131.124 9.53299 130.071 8.82569 128.785 8.34367L128.083 10.2163ZM130.334 11.7609C130.829 12.3478 131.07 13.0072 131.07 13.78H133.07C133.07 12.5368 132.663 11.4202 131.863 10.4711L130.334 11.7609ZM131.071 13.7346L131.035 14.5266L133.033 14.6174L133.069 13.8254L131.071 13.7346ZM132.034 13.572H127.822V15.572H132.034V13.572ZM128.822 14.572V14.428H126.822V14.572H128.822ZM128.822 14.428C128.822 13.3456 128.339 12.4553 127.433 11.863L126.339 13.537C126.681 13.7607 126.822 14.0224 126.822 14.428H128.822ZM127.471 11.8885C126.629 11.2827 125.511 11.052 124.258 11.052V13.052C125.31 13.052 125.943 13.2533 126.302 13.5115L127.471 11.8885ZM124.258 11.052C123.054 11.052 121.98 11.2389 121.172 11.744L122.232 13.44C122.576 13.2251 123.207 13.052 124.258 13.052V11.052ZM121.198 11.7282C120.39 12.1996 119.838 12.9372 119.838 13.924H121.838C121.838 13.8068 121.862 13.6564 122.206 13.4558L121.198 11.7282ZM119.838 13.924C119.838 14.4423 119.976 14.9389 120.276 15.3742C120.571 15.8014 120.984 16.1126 121.447 16.3366L122.317 14.5354C122.085 14.4234 121.975 14.3146 121.922 14.2378C121.875 14.1691 121.838 14.0777 121.838 13.924H119.838ZM121.485 16.3536C122.298 16.7059 123.468 17.0343 124.95 17.35L125.367 15.394C123.92 15.0857 122.907 14.7901 122.28 14.5184L121.485 16.3536ZM124.937 17.3471C126.495 17.7013 127.711 18.0596 128.603 18.4165L129.346 16.5595C128.318 16.1484 126.99 15.7627 125.38 15.3969L124.937 17.3471ZM128.631 18.4271C129.46 18.7304 130.176 19.2135 130.79 19.8887L132.27 18.5433C131.444 17.6345 130.457 16.9656 129.318 16.5489L128.631 18.4271ZM130.79 19.8887C131.303 20.4529 131.61 21.2586 131.61 22.42H133.61C133.61 20.8934 133.197 19.5631 132.27 18.5433L130.79 19.8887ZM131.61 22.42C131.61 24.2321 130.977 25.4042 129.806 26.1478L130.878 27.8362C132.731 26.6598 133.61 24.7839 133.61 22.42H131.61ZM129.8 26.1517C128.531 26.9705 126.716 27.432 124.258 27.432V29.432C126.937 29.432 129.177 28.9335 130.884 27.8323L129.8 26.1517ZM136.43 1.972V0.971998H135.43V1.972H136.43ZM140.678 1.972H141.678V0.971998H140.678V1.972ZM140.678 6.22V7.22H141.678V6.22H140.678ZM136.43 6.22H135.43V7.22H136.43V6.22ZM136.43 9.064V8.064H135.43V9.064H136.43ZM140.75 9.064H141.75V8.064H140.75V9.064ZM140.75 28V29H141.75V28H140.75ZM136.43 28H135.43V29H136.43V28ZM136.43 2.972H140.678V0.971998H136.43V2.972ZM139.678 1.972V6.22H141.678V1.972H139.678ZM140.678 5.22H136.43V7.22H140.678V5.22ZM137.43 6.22V1.972H135.43V6.22H137.43ZM136.43 10.064H140.75V8.064H136.43V10.064ZM139.75 9.064V28H141.75V9.064H139.75ZM140.75 27H136.43V29H140.75V27ZM137.43 28V9.064H135.43V28H137.43ZM145.747 9.064V8.064H144.747V9.064H145.747ZM149.311 9.064L150.301 8.92258L150.178 8.064H149.311V9.064ZM149.671 11.584L148.681 11.7254L148.803 12.584H149.671V11.584ZM149.923 11.584V12.584H150.425L150.725 12.1807L149.923 11.584ZM152.479 9.424L152.926 10.3185L152.934 10.3142L152.479 9.424ZM160.507 10.216L159.807 10.9311L159.816 10.939L160.507 10.216ZM162.127 28V29H163.127V28H162.127ZM157.807 28H156.807V29H157.807V28ZM156.907 13.204L156.215 13.926L156.222 13.933L156.23 13.9399L156.907 13.204ZM151.291 13.672L150.564 12.9854V12.9854L151.291 13.672ZM150.067 28V29H151.067V28H150.067ZM145.747 28H144.747V29H145.747V28ZM145.747 10.064H149.311V8.064H145.747V10.064ZM148.321 9.20542L148.681 11.7254L150.661 11.4426L150.301 8.92258L148.321 9.20542ZM149.671 12.584H149.923V10.584H149.671V12.584ZM150.725 12.1807C151.331 11.3659 152.063 10.7499 152.926 10.3184L152.031 8.52957C150.878 9.10611 149.906 9.93015 149.12 10.9873L150.725 12.1807ZM152.934 10.3142C153.807 9.86783 154.823 9.632 156.007 9.632V7.632C154.55 7.632 153.215 7.92417 152.023 8.53375L152.934 10.3142ZM156.007 9.632C157.739 9.632 158.961 10.1037 159.807 10.931L161.206 9.50099C159.892 8.21628 158.114 7.632 156.007 7.632V9.632ZM159.816 10.939C160.613 11.701 161.127 13.0433 161.127 15.22H163.127C163.127 12.7887 162.56 10.795 161.197 9.49301L159.816 10.939ZM161.127 15.22V28H163.127V15.22H161.127ZM162.127 27H157.807V29H162.127V27ZM158.807 28V15.976H156.807V28H158.807ZM158.807 15.976C158.807 14.5615 158.484 13.2963 157.584 12.4681L156.23 13.9399C156.529 14.2157 156.807 14.7985 156.807 15.976H158.807ZM157.598 12.482C156.768 11.6858 155.61 11.376 154.315 11.376V13.376C155.323 13.376 155.893 13.6182 156.215 13.926L157.598 12.482ZM154.315 11.376C152.842 11.376 151.571 11.9192 150.564 12.9854L152.018 14.3586C152.643 13.6968 153.387 13.376 154.315 13.376V11.376ZM150.564 12.9854C149.549 14.0597 149.067 15.4208 149.067 16.984H151.067C151.067 15.8592 151.4 15.0123 152.018 14.3586L150.564 12.9854ZM149.067 16.984V28H151.067V16.984H149.067ZM150.067 27H145.747V29H150.067V27ZM146.747 28V9.064H144.747V28H146.747ZM166.727 33.364L167.364 32.5926L167.362 32.5909L166.727 33.364ZM168.275 26.2L168.687 27.1115L170.526 26.2817L168.752 25.3207L168.275 26.2ZM166.907 25.012L166.088 25.5855L166.907 25.012ZM167.339 21.232L166.691 20.4708L166.684 20.4768L166.677 20.483L167.339 21.232ZM169.679 20.08L169.91 21.0531L172.208 20.5088L170.218 19.2373L169.679 20.08ZM167.663 17.956L166.779 18.4228L166.784 18.4323L166.789 18.4416L167.663 17.956ZM169.103 10.36L169.726 11.1422L169.728 11.1409L169.103 10.36ZM178.859 9.208L178.518 10.1478L178.963 10.3096L179.37 10.0679L178.859 9.208ZM180.551 7.66L181.399 8.19L181.404 8.18229L181.409 8.17449L180.551 7.66ZM181.163 5.932V4.932H180.246L180.167 5.84537L181.163 5.932ZM185.339 5.932H186.339V4.932H185.339V5.932ZM184.295 9.028L185.056 9.67695V9.67695L184.295 9.028ZM181.415 10.648L181.204 9.67048L179.345 10.0715L180.729 11.3758L181.415 10.648ZM181.199 19.756L180.562 18.9856L181.199 19.756ZM171.191 21.808L170.591 21.008L171.191 21.808ZM171.155 23.608L170.483 24.3479L170.502 24.3655L170.522 24.382L171.155 23.608ZM184.007 25.336L183.291 26.0339L183.3 26.0431L184.007 25.336ZM184.547 31.708L183.704 31.1696L183.698 31.1801L184.547 31.708ZM182.171 33.796L181.732 32.8974L181.724 32.9016L182.171 33.796ZM178.031 17.56L178.696 18.3074L178.703 18.3007L178.711 18.2938L178.031 17.56ZM178.031 12.556L177.352 13.2898L177.359 13.2967L177.367 13.3034L178.031 12.556ZM172.271 12.556L172.936 13.3034L172.943 13.2967L172.951 13.2898L172.271 12.556ZM172.271 17.56L172.936 16.8126L172.271 17.56ZM180.371 30.88L179.778 30.0749L179.765 30.0848L179.752 30.0951L180.371 30.88ZM170.219 28.144L169.535 27.4145L169.524 27.4255L169.512 27.4369L170.219 28.144ZM170.219 30.88L170.903 30.1505L170.902 30.1489L170.219 30.88ZM170.183 33.552C169.052 33.552 168.13 33.2246 167.364 32.5926L166.091 34.1354C167.245 35.0874 168.627 35.552 170.183 35.552V33.552ZM167.362 32.5909C166.693 32.0426 166.323 31.2668 166.323 30.124H164.323C164.323 31.7652 164.889 33.1494 166.093 34.1371L167.362 32.5909ZM166.323 30.124C166.323 29.464 166.506 28.9188 166.86 28.4482C167.224 27.9647 167.809 27.5077 168.687 27.1115L167.864 25.2885C166.774 25.7803 165.882 26.4213 165.262 27.2458C164.632 28.0832 164.323 29.056 164.323 30.124H166.323ZM168.752 25.3207C168.296 25.0738 167.963 24.777 167.726 24.4385L166.088 25.5855C166.523 26.207 167.103 26.7022 167.799 27.0793L168.752 25.3207ZM167.726 24.4385C167.521 24.1443 167.403 23.7856 167.403 23.32H165.403C165.403 24.1504 165.622 24.9197 166.088 25.5855L167.726 24.4385ZM167.403 23.32C167.403 22.7638 167.594 22.3414 168.002 21.981L166.677 20.483C165.836 21.2266 165.403 22.1962 165.403 23.32H167.403ZM167.988 21.9932C168.503 21.554 169.136 21.2363 169.91 21.0531L169.449 19.1069C168.398 19.3557 167.471 19.806 166.691 20.4708L167.988 21.9932ZM170.218 19.2373C169.488 18.7712 168.934 18.1838 168.537 17.4704L166.789 18.4416C167.353 19.4562 168.142 20.2848 169.141 20.9227L170.218 19.2373ZM168.548 17.4892C168.175 16.7838 167.979 15.9748 167.979 15.04H165.979C165.979 16.2652 166.239 17.4002 166.779 18.4228L168.548 17.4892ZM167.979 15.04C167.979 13.3176 168.575 12.0597 169.726 11.1422L168.48 9.57784C166.8 10.9163 165.979 12.7784 165.979 15.04H167.979ZM169.728 11.1409C170.932 10.1773 172.686 9.632 175.115 9.632V7.632C172.408 7.632 170.154 8.23872 168.479 9.57913L169.728 11.1409ZM175.115 9.632C176.47 9.632 177.597 9.81306 178.518 10.1478L179.201 8.26821C178.01 7.83494 176.641 7.632 175.115 7.632V9.632ZM179.37 10.0679C180.233 9.5551 180.932 8.9371 181.399 8.19L179.703 7.13C179.45 7.5349 179.021 7.9489 178.349 8.34814L179.37 10.0679ZM181.409 8.17449C181.827 7.47753 182.095 6.75635 182.159 6.01863L180.167 5.84537C180.135 6.21165 179.996 6.64247 179.694 7.1455L181.409 8.17449ZM181.163 6.932H185.339V4.932H181.163V6.932ZM184.339 5.932C184.339 6.98321 184.051 7.77302 183.534 8.37905L185.056 9.67695C185.931 8.65098 186.339 7.37679 186.339 5.932H184.339ZM183.534 8.37905C183.004 9.00128 182.251 9.44467 181.204 9.67048L181.626 11.6255C183.027 11.3233 184.195 10.6867 185.056 9.67695L183.534 8.37905ZM180.729 11.3758C181.772 12.3582 182.287 13.5568 182.287 15.04H184.287C184.287 13.0192 183.554 11.2898 182.101 9.92021L180.729 11.3758ZM182.287 15.04C182.287 16.7686 181.699 18.0446 180.562 18.9856L181.837 20.5264C183.484 19.1634 184.287 17.2954 184.287 15.04H182.287ZM180.562 18.9856C179.408 19.9401 177.709 20.484 175.331 20.484V22.484C177.993 22.484 180.206 21.8759 181.837 20.5264L180.562 18.9856ZM175.331 20.484H172.379V22.484H175.331V20.484ZM172.379 20.484C171.743 20.484 171.11 20.6193 170.591 21.008L171.791 22.608C171.849 22.5647 172.007 22.484 172.379 22.484V20.484ZM170.591 21.008C170.033 21.427 169.759 22.0337 169.759 22.708H171.759C171.759 22.6428 171.771 22.6234 171.769 22.6277C171.768 22.6286 171.768 22.6291 171.769 22.6277C171.77 22.6261 171.776 22.6191 171.791 22.608L170.591 21.008ZM169.759 22.708C169.759 23.3468 170.008 23.9165 170.483 24.3479L171.828 22.8681C171.775 22.8195 171.759 22.7892 171.759 22.708H169.759ZM170.522 24.382C171.017 24.7869 171.626 24.932 172.235 24.932V22.932C171.932 22.932 171.822 22.8611 171.788 22.834L170.522 24.382ZM172.235 24.932H180.515V22.932H172.235V24.932ZM180.515 24.932C181.686 24.932 182.584 25.3082 183.291 26.0339L184.723 24.6381C183.607 23.4918 182.176 22.932 180.515 22.932V24.932ZM183.3 26.0431C184.005 26.7483 184.375 27.6487 184.375 28.828H186.375C186.375 27.1753 185.833 25.7477 184.714 24.6289L183.3 26.0431ZM184.375 28.828C184.375 29.6992 184.151 30.4714 183.705 31.1696L185.39 32.2464C186.048 31.2166 186.375 30.0688 186.375 28.828H184.375ZM183.698 31.1801C183.255 31.8929 182.613 32.4675 181.732 32.8974L182.61 34.6946C183.794 34.1165 184.736 33.2991 185.397 32.2359L183.698 31.1801ZM181.724 32.9016C180.877 33.3252 179.871 33.552 178.679 33.552V35.552C180.128 35.552 181.45 35.2748 182.618 34.6904L181.724 32.9016ZM178.679 33.552H170.183V35.552H178.679V33.552ZM175.151 19.424C176.556 19.424 177.795 19.1077 178.696 18.3074L177.367 16.8126C176.971 17.1643 176.29 17.424 175.151 17.424V19.424ZM178.711 18.2938C179.607 17.4634 180.003 16.3317 180.003 15.04H178.003C178.003 15.9083 177.751 16.4566 177.352 16.8262L178.711 18.2938ZM180.003 15.04C180.003 13.75 179.608 12.6194 178.696 11.8086L177.367 13.3034C177.751 13.6446 178.003 14.17 178.003 15.04H180.003ZM178.711 11.8222C177.81 10.9886 176.565 10.656 175.151 10.656V12.656C176.281 12.656 176.956 12.9234 177.352 13.2898L178.711 11.8222ZM175.151 10.656C173.737 10.656 172.492 10.9886 171.592 11.8222L172.951 13.2898C173.346 12.9234 174.021 12.656 175.151 12.656V10.656ZM171.607 11.8086C170.695 12.6194 170.299 13.75 170.299 15.04H172.299C172.299 14.17 172.552 13.6446 172.936 13.3034L171.607 11.8086ZM170.299 15.04C170.299 16.3461 170.69 17.4924 171.607 18.3074L172.936 16.8126C172.556 16.4756 172.299 15.9419 172.299 15.04H170.299ZM171.607 18.3074C172.507 19.1077 173.746 19.424 175.151 19.424V17.424C174.012 17.424 173.331 17.1643 172.936 16.8126L171.607 18.3074ZM178.679 32.42C179.539 32.42 180.331 32.1855 180.991 31.6649L179.752 30.0951C179.499 30.2945 179.163 30.42 178.679 30.42V32.42ZM180.964 31.6851C181.681 31.1568 182.055 30.3994 182.055 29.512H180.055C180.055 29.7766 179.973 29.9312 179.778 30.0749L180.964 31.6851ZM182.055 29.512C182.055 28.6795 181.778 27.9152 181.138 27.3554L179.821 28.8606C179.949 28.9728 180.055 29.1445 180.055 29.512H182.055ZM181.138 27.3554C180.533 26.8264 179.777 26.604 178.967 26.604V28.604C179.405 28.604 179.657 28.7176 179.821 28.8606L181.138 27.3554ZM178.967 26.604H171.695V28.604H178.967V26.604ZM171.695 26.604C170.879 26.604 170.131 26.8562 169.535 27.4145L170.903 28.8735C171.076 28.7118 171.311 28.604 171.695 28.604V26.604ZM169.512 27.4369C168.948 28.0012 168.679 28.7194 168.679 29.512H170.679C170.679 29.2006 170.771 29.0068 170.926 28.8511L169.512 27.4369ZM168.679 29.512C168.679 30.3139 168.94 31.0536 169.537 31.6111L170.902 30.1489C170.779 30.0344 170.679 29.8621 170.679 29.512H168.679ZM169.535 31.6095C170.131 32.1678 170.879 32.42 171.695 32.42V30.42C171.311 30.42 171.076 30.3122 170.903 30.1505L169.535 31.6095ZM171.695 32.42H178.679V30.42H171.695V32.42ZM188.608 23.428V22.428H187.608V23.428H188.608ZM193.108 23.428H194.108V22.428H193.108V23.428ZM193.108 28V29H194.108V28H193.108ZM188.608 28H187.608V29H188.608V28ZM188.608 24.428H193.108V22.428H188.608V24.428ZM192.108 23.428V28H194.108V23.428H192.108ZM193.108 27H188.608V29H193.108V27ZM189.608 28V23.428H187.608V28H189.608Z" fill="#858484"/>
</svg>
