<svg width="532" height="288" viewBox="0 0 532 288" fill="none" xmlns="http://www.w3.org/2000/svg">
<rect width="532" height="176.306" rx="3" fill="#3E3E3E"/>
<rect width="71.8787" height="106.274" rx="3" transform="matrix(1 0 0 -1 10.4736 288)" fill="#3E3E3E"/>
<rect width="13.6912" height="106.274" rx="3" transform="matrix(1 0 0 -1 509.996 287.966)" fill="#3E3E3E"/>
<path d="M48.4101 245.851C56.5116 245.851 63.0792 239.273 63.0792 231.159C63.0792 223.045 56.5116 216.467 48.4101 216.467C40.3085 216.467 33.7409 223.045 33.7409 231.159C33.7409 239.273 40.3085 245.851 48.4101 245.851Z" fill="#1D1D1B"/>
<path d="M38.6298 245.851C45.111 245.851 50.3651 240.589 50.3651 234.098C50.3651 227.606 45.111 222.344 38.6298 222.344C32.1486 222.344 26.8945 227.606 26.8945 234.098C26.8945 240.589 32.1486 245.851 38.6298 245.851Z" fill="#FCFCFC" fill-opacity="0.8"/>
<rect x="84.5918" y="181.693" width="29.3382" height="106.274" rx="0.802254" fill="#FCFCFC" fill-opacity="0.8"/>
<rect x="114.908" y="181.693" width="29.3382" height="106.274" rx="0.802254" fill="#FCFCFC" fill-opacity="0.8"/>
<rect x="145.225" y="181.693" width="29.3382" height="106.274" rx="0.802254" fill="#FCFCFC" fill-opacity="0.8"/>
<rect x="175.541" y="181.693" width="29.3382" height="106.274" rx="0.802254" fill="#FCFCFC" fill-opacity="0.8"/>
<rect x="205.856" y="181.693" width="29.3382" height="106.274" rx="0.802254" fill="#FCFCFC" fill-opacity="0.8"/>
<rect x="236.173" y="181.693" width="29.3382" height="106.274" rx="0.802254" fill="#FCFCFC" fill-opacity="0.8"/>
<rect x="266.489" y="181.693" width="29.3382" height="106.274" rx="0.802254" fill="#FCFCFC" fill-opacity="0.8"/>
<rect x="296.805" y="181.693" width="29.3382" height="106.274" rx="0.802254" fill="#FCFCFC" fill-opacity="0.8"/>
<rect x="327.122" y="181.693" width="29.3382" height="106.274" rx="0.802254" fill="#FCFCFC" fill-opacity="0.8"/>
<rect x="357.438" y="181.693" width="29.3382" height="106.274" rx="0.802254" fill="#FCFCFC" fill-opacity="0.8"/>
<rect x="387.753" y="181.693" width="29.3382" height="106.274" rx="0.802254" fill="#FCFCFC" fill-opacity="0.8"/>
<rect x="418.07" y="181.693" width="29.3382" height="106.274" rx="0.802254" fill="#FCFCFC" fill-opacity="0.8"/>
<rect x="448.385" y="181.693" width="29.3382" height="106.274" rx="0.802254" fill="#FCFCFC" fill-opacity="0.8"/>
<rect x="478.702" y="181.693" width="29.3382" height="106.274" rx="0.802254" fill="#FCFCFC" fill-opacity="0.8"/>
<path d="M148.206 181.693L153.243 184.477V227.298H137.733L133.309 218.424H148.206" fill="black"/>
<path d="M148.206 181.693L153.243 184.477V227.298H137.733L133.309 218.424H148.206" stroke="#3C3C3C" stroke-width="0.401127"/>
<path d="M148.205 218.425L153.242 227.299L148.205 218.425Z" fill="black"/>
<path d="M148.205 218.425L153.242 227.299" stroke="#3C3C3C" stroke-width="0.401127"/>
<path d="M134.806 181.693H148.206V218.424H133.309V181.693H134.806Z" fill="black" stroke="#3C3C3C" stroke-width="0.401127"/>
<path d="M114.735 181.726L119.772 184.509V227.33H104.262L99.838 218.456H114.735" fill="black"/>
<path d="M114.735 181.726L119.772 184.509V227.33H104.262L99.838 218.456H114.735" stroke="#3B3B3B" stroke-width="0.401127"/>
<path d="M114.46 218.242L119.436 227.211" stroke="#3B3B3B" stroke-width="0.401127"/>
<path d="M101.066 181.693H114.466V218.424H99.5688V181.693H101.066Z" fill="black" stroke="#3C3C3C" stroke-width="0.401127"/>
<path d="M212.172 181.726L216.32 184.016V227.331H200.122L198.279 218.457H212.172" fill="black"/>
<path d="M212.172 181.726L216.32 184.016V227.331H200.122L198.279 218.457H212.172" stroke="#3C3C3C" stroke-width="0.401127"/>
<path d="M212.365 218.422L216.513 227.296L212.365 218.422Z" fill="black"/>
<path d="M212.365 218.422L216.513 227.296" stroke="#3C3C3C" stroke-width="0.401127"/>
<path d="M243.083 181.727L246.494 185.539L246.833 227.331H229.305H228.997V218.457" fill="black"/>
<path d="M243.083 181.727L246.494 185.539L246.833 227.331H229.305H228.997V218.457" stroke="#3C3C3C" stroke-width="0.401127"/>
<path d="M198.47 181.695H212.364V218.425H198.47V181.695Z" fill="black"/>
<path d="M198.47 181.695V181.494H198.269V181.695H198.47ZM212.364 181.695H212.564V181.494H212.364V181.695ZM212.364 218.425V218.626H212.564V218.425H212.364ZM198.47 218.425H198.269V218.626H198.47V218.425ZM198.47 181.895H212.364V181.494H198.47V181.895ZM212.163 181.695V218.425H212.564V181.695H212.163ZM212.364 218.224H198.47V218.626H212.364V218.224ZM198.67 218.425V181.695H198.269V218.425H198.67Z" fill="#3C3C3C"/>
<path d="M228.767 181.693H242.854V218.424H228.767V181.693Z" fill="black" stroke="#3C3C3C" stroke-width="0.401127"/>
<path d="M242.96 218.072L246.451 227.159L242.96 218.072Z" fill="black"/>
<path d="M242.96 218.072L246.451 227.159" stroke="#3C3C3C" stroke-width="0.401127"/>
<rect x="273.823" y="23.4202" width="244.485" height="119.496" rx="3" fill="#D0D0CF"/>
<path d="M307.071 47.9075C308.422 47.9075 309.516 46.811 309.516 45.4585C309.516 44.106 308.422 43.0095 307.071 43.0095C305.721 43.0095 304.627 44.106 304.627 45.4585C304.627 46.811 305.721 47.9075 307.071 47.9075Z" fill="#1D1D1B"/>
<path fill-rule="evenodd" clip-rule="evenodd" d="M305.116 35.1733H297.292V43.0092H301.205V39.0914H305.116V35.1733Z" fill="#1D1D1B"/>
<path fill-rule="evenodd" clip-rule="evenodd" d="M309.028 35.1731H316.851V43.0089H312.939V39.0912H309.028V35.1731Z" fill="#1D1D1B"/>
<path fill-rule="evenodd" clip-rule="evenodd" d="M309.028 54.7622H316.851V46.9264H312.939V50.8427H309.028V54.7622Z" fill="#1D1D1B"/>
<path fill-rule="evenodd" clip-rule="evenodd" d="M305.115 54.7622H297.291V46.9264H301.205V50.8427H305.115V54.7622Z" fill="#1D1D1B"/>
<path d="M307.073 73.3735C308.424 73.3735 309.518 72.2771 309.518 70.9246C309.518 69.572 308.424 68.4756 307.073 68.4756C305.723 68.4756 304.628 69.572 304.628 70.9246C304.628 72.2771 305.723 73.3735 307.073 73.3735Z" fill="#1D1D1B"/>
<path fill-rule="evenodd" clip-rule="evenodd" d="M305.117 60.6396H297.293V68.4755H305.117V60.6396ZM305.116 64.5557H301.204V68.4741H305.116V64.5557Z" fill="#1D1D1B"/>
<path fill-rule="evenodd" clip-rule="evenodd" d="M309.029 60.6392H316.853V68.475H309.029V60.6392ZM309.03 64.5562H312.942V68.4746H309.03V64.5562Z" fill="#1D1D1B"/>
<path fill-rule="evenodd" clip-rule="evenodd" d="M309.029 80.2281H316.853V72.3923H312.942V76.3105H309.03V72.3923H309.029V80.2281Z" fill="#1D1D1B"/>
<path fill-rule="evenodd" clip-rule="evenodd" d="M305.117 80.2281H297.293V72.3923H301.203V76.3105H305.115V72.3923H305.117V80.2281Z" fill="#1D1D1B"/>
<path d="M307.072 98.8406C308.423 98.8406 309.517 97.7441 309.517 96.3916C309.517 95.0391 308.423 93.9426 307.072 93.9426C305.722 93.9426 304.627 95.0391 304.627 96.3916C304.627 97.7441 305.722 98.8406 307.072 98.8406Z" fill="#1D1D1B"/>
<path fill-rule="evenodd" clip-rule="evenodd" d="M305.118 86.1066H297.294V93.9424H301.206V90.0244H305.118V93.9424H305.118V86.1066Z" fill="#1D1D1B"/>
<path fill-rule="evenodd" clip-rule="evenodd" d="M309.028 86.1063H316.852V93.9422H312.941V90.0252H309.03V93.9422H309.028V86.1063Z" fill="#1D1D1B"/>
<path fill-rule="evenodd" clip-rule="evenodd" d="M309.027 105.697H316.851V97.8613H312.94V101.778H309.029V97.8613H309.027V105.697Z" fill="#1D1D1B"/>
<path fill-rule="evenodd" clip-rule="evenodd" d="M305.115 105.697H297.291V97.8613H301.202V101.778H305.113V97.8613H305.115V105.697Z" fill="#1D1D1B"/>
<path d="M307.074 124.308C308.425 124.308 309.519 123.212 309.519 121.86C309.519 120.507 308.425 119.411 307.074 119.411C305.724 119.411 304.629 120.507 304.629 121.86C304.629 123.212 305.724 124.308 307.074 124.308Z" fill="#1D1D1B"/>
<path fill-rule="evenodd" clip-rule="evenodd" d="M305.118 111.576H297.295V119.412H305.118V119.411H301.207V115.493H305.118V111.576Z" fill="#1D1D1B"/>
<path fill-rule="evenodd" clip-rule="evenodd" d="M309.03 111.574H316.854V119.41H312.943V115.492H309.031V119.41H309.03V111.574Z" fill="#1D1D1B"/>
<path fill-rule="evenodd" clip-rule="evenodd" d="M309.03 131.163H316.854V123.327H312.943V127.245H309.031V123.327H309.03V131.163Z" fill="#1D1D1B"/>
<path fill-rule="evenodd" clip-rule="evenodd" d="M305.118 131.163H297.294V123.327H301.205V127.245H305.117V123.327H305.118V131.163Z" fill="#1D1D1B"/>
<path d="M332.5 47.9075C333.85 47.9075 334.945 46.811 334.945 45.4585C334.945 44.106 333.85 43.0095 332.5 43.0095C331.15 43.0095 330.055 44.106 330.055 45.4585C330.055 46.811 331.15 47.9075 332.5 47.9075Z" fill="#1D1D1B"/>
<path fill-rule="evenodd" clip-rule="evenodd" d="M330.543 35.1733H322.719V43.0092H326.631V39.0914H330.543V35.1733Z" fill="#1D1D1B"/>
<path fill-rule="evenodd" clip-rule="evenodd" d="M334.454 35.1731H342.278V43.0089H338.365V39.0912H334.454V35.1731Z" fill="#1D1D1B"/>
<path fill-rule="evenodd" clip-rule="evenodd" d="M334.455 54.7632H342.279V46.9273H338.365V50.8437H334.455V54.7632Z" fill="#1D1D1B"/>
<path fill-rule="evenodd" clip-rule="evenodd" d="M330.544 54.7622H322.72V46.9264H326.631V50.8427H330.543V46.9264H330.544V54.7622Z" fill="#1D1D1B"/>
<path d="M332.5 73.3716C333.85 73.3716 334.945 72.2751 334.945 70.9226C334.945 69.5701 333.85 68.4736 332.5 68.4736C331.15 68.4736 330.055 69.5701 330.055 70.9226C330.055 72.2751 331.15 73.3716 332.5 73.3716Z" fill="#1D1D1B"/>
<path fill-rule="evenodd" clip-rule="evenodd" d="M330.544 60.6375H322.72V68.4733H330.544V60.6375ZM330.543 64.5545H326.631V68.4729H330.543V64.5545Z" fill="#1D1D1B"/>
<path fill-rule="evenodd" clip-rule="evenodd" d="M334.455 60.6372H342.279V68.473H338.366V64.5553H334.455V60.6372Z" fill="#1D1D1B"/>
<path fill-rule="evenodd" clip-rule="evenodd" d="M334.455 80.2272H342.279V72.3913H338.366V76.3095H334.455V80.2272Z" fill="#1D1D1B"/>
<path fill-rule="evenodd" clip-rule="evenodd" d="M330.544 80.2281H322.72V72.3923H326.632V76.3095H330.544V80.2281Z" fill="#1D1D1B"/>
<path d="M332.499 98.8406C333.849 98.8406 334.944 97.7441 334.944 96.3916C334.944 95.0391 333.849 93.9426 332.499 93.9426C331.149 93.9426 330.054 95.0391 330.054 96.3916C330.054 97.7441 331.149 98.8406 332.499 98.8406Z" fill="#1D1D1B"/>
<path fill-rule="evenodd" clip-rule="evenodd" d="M330.545 86.1066H322.721V93.9424H326.631V90.0244H330.543V93.9424H330.545V86.1066Z" fill="#1D1D1B"/>
<path fill-rule="evenodd" clip-rule="evenodd" d="M334.454 86.1063H342.278V93.9422H338.365V90.0252H334.454V86.1063Z" fill="#1D1D1B"/>
<path fill-rule="evenodd" clip-rule="evenodd" d="M334.454 105.696H342.278V97.8603H338.365V101.777H334.454V105.696Z" fill="#1D1D1B"/>
<path fill-rule="evenodd" clip-rule="evenodd" d="M330.544 105.697H322.72V97.8613H326.631V101.778H330.543V97.8613H330.544V105.697Z" fill="#1D1D1B"/>
<path d="M332.499 124.309C333.849 124.309 334.944 123.213 334.944 121.86C334.944 120.508 333.849 119.411 332.499 119.411C331.149 119.411 330.054 120.508 330.054 121.86C330.054 123.213 331.149 124.309 332.499 124.309Z" fill="#1D1D1B"/>
<path fill-rule="evenodd" clip-rule="evenodd" d="M330.545 111.576H322.721V119.412H330.545V111.576ZM330.544 115.492H326.632V119.41H330.544V115.492Z" fill="#1D1D1B"/>
<path fill-rule="evenodd" clip-rule="evenodd" d="M334.454 111.575H342.278V119.411H338.365V115.493H334.454V111.575Z" fill="#1D1D1B"/>
<path fill-rule="evenodd" clip-rule="evenodd" d="M334.454 131.164H342.278V123.328H338.365V127.246H334.454V131.164Z" fill="#1D1D1B"/>
<path fill-rule="evenodd" clip-rule="evenodd" d="M330.543 131.163H322.719V123.327H326.631V127.245H330.543V131.163Z" fill="#1D1D1B"/>
<path d="M357.925 47.9075C359.275 47.9075 360.369 46.811 360.369 45.4585C360.369 44.106 359.275 43.0095 357.925 43.0095C356.574 43.0095 355.48 44.106 355.48 45.4585C355.48 46.811 356.574 47.9075 357.925 47.9075Z" fill="#1D1D1B"/>
<path fill-rule="evenodd" clip-rule="evenodd" d="M355.971 35.175H348.147V43.0109H352.058V39.0933H355.97V43.0109H355.971V35.175Z" fill="#1D1D1B"/>
<path fill-rule="evenodd" clip-rule="evenodd" d="M359.882 35.1731H367.705V43.0089H363.793V39.0912H359.882V35.1731Z" fill="#1D1D1B"/>
<path fill-rule="evenodd" clip-rule="evenodd" d="M359.882 54.7632H367.705V46.9273H363.793V50.8437H359.882V54.7632Z" fill="#1D1D1B"/>
<path fill-rule="evenodd" clip-rule="evenodd" d="M355.968 54.7622H348.145V46.9264H352.055V50.8427H355.967V46.9264H355.968V54.7622Z" fill="#1D1D1B"/>
<path d="M357.925 73.3726C359.275 73.3726 360.37 72.2761 360.37 70.9236C360.37 69.5711 359.275 68.4746 357.925 68.4746C356.575 68.4746 355.48 69.5711 355.48 70.9236C355.48 72.2761 356.575 73.3726 357.925 73.3726Z" fill="#1D1D1B"/>
<path fill-rule="evenodd" clip-rule="evenodd" d="M355.97 60.6384H348.147V68.4743H355.97V68.4729H352.059V64.5545H355.97V60.6384Z" fill="#1D1D1B"/>
<path fill-rule="evenodd" clip-rule="evenodd" d="M359.882 60.6382H367.706V68.474H359.882V68.4736H363.793V64.5553H359.882V60.6382Z" fill="#1D1D1B"/>
<path fill-rule="evenodd" clip-rule="evenodd" d="M359.881 80.2272H367.705V72.3913H363.793V76.3095H359.881V72.3913H359.881V80.2272Z" fill="#1D1D1B"/>
<path fill-rule="evenodd" clip-rule="evenodd" d="M355.968 80.2262H348.145V72.3904H355.968V80.2262ZM355.967 76.3095H352.055V72.3911H355.967V76.3095Z" fill="#1D1D1B"/>
<path d="M357.926 98.8396C359.276 98.8396 360.371 97.7432 360.371 96.3906C360.371 95.0381 359.276 93.9417 357.926 93.9417C356.576 93.9417 355.481 95.0381 355.481 96.3906C355.481 97.7432 356.576 98.8396 357.926 98.8396Z" fill="#1D1D1B"/>
<path fill-rule="evenodd" clip-rule="evenodd" d="M355.969 86.1085H348.145V93.9444H355.969V93.944H352.058V90.0257H355.969V86.1085Z" fill="#1D1D1B"/>
<path fill-rule="evenodd" clip-rule="evenodd" d="M359.881 86.1063H367.705V93.9422H363.793V90.0242H359.881V93.9422H359.881V86.1063Z" fill="#1D1D1B"/>
<path fill-rule="evenodd" clip-rule="evenodd" d="M359.881 105.695H367.705V97.8594H363.794V101.777H359.882V97.8594H359.881V105.695Z" fill="#1D1D1B"/>
<path fill-rule="evenodd" clip-rule="evenodd" d="M355.969 105.696H348.146V97.8603H352.056V101.777H355.968V97.8603H355.969V105.696Z" fill="#1D1D1B"/>
<path d="M357.925 124.308C359.275 124.308 360.37 123.212 360.37 121.86C360.37 120.507 359.275 119.411 357.925 119.411C356.575 119.411 355.48 120.507 355.48 121.86C355.48 123.212 356.575 124.308 357.925 124.308Z" fill="#1D1D1B"/>
<path fill-rule="evenodd" clip-rule="evenodd" d="M355.971 111.577H348.148V119.413H355.971V119.412H352.06V115.494H355.971V111.577Z" fill="#1D1D1B"/>
<path fill-rule="evenodd" clip-rule="evenodd" d="M359.881 111.574H367.705V119.41H363.793V115.492H359.881V119.41H359.881V111.574Z" fill="#1D1D1B"/>
<path fill-rule="evenodd" clip-rule="evenodd" d="M359.881 131.164H367.705V123.328H363.793V127.246H359.881V123.328H359.881V131.164Z" fill="#1D1D1B"/>
<path fill-rule="evenodd" clip-rule="evenodd" d="M355.968 131.164H348.145V123.328H352.055V127.246H355.967V123.328H355.968V131.164Z" fill="#1D1D1B"/>
<path d="M383.352 47.9075C384.702 47.9075 385.797 46.811 385.797 45.4585C385.797 44.106 384.702 43.0095 383.352 43.0095C382.002 43.0095 380.907 44.106 380.907 45.4585C380.907 46.811 382.002 47.9075 383.352 47.9075Z" fill="#1D1D1B"/>
<path fill-rule="evenodd" clip-rule="evenodd" d="M381.397 35.1733H373.574V43.0092H377.483V39.0914H381.395V43.0092H381.397V35.1733Z" fill="#1D1D1B"/>
<path fill-rule="evenodd" clip-rule="evenodd" d="M385.309 35.1731H393.133V43.0089H389.223V39.0912H385.311V43.0089H385.309V35.1731Z" fill="#1D1D1B"/>
<path fill-rule="evenodd" clip-rule="evenodd" d="M385.309 54.7632H393.133V46.9273H389.223V50.8427H385.311V46.9273H385.309V54.7632Z" fill="#1D1D1B"/>
<path fill-rule="evenodd" clip-rule="evenodd" d="M381.395 54.7632H373.572V46.9273H377.481V50.8437H381.393V46.9273H381.395V54.7632Z" fill="#1D1D1B"/>
<path d="M383.352 73.3726C384.702 73.3726 385.797 72.2761 385.797 70.9236C385.797 69.5711 384.702 68.4746 383.352 68.4746C382.001 68.4746 380.907 69.5711 380.907 70.9236C380.907 72.2761 382.001 73.3726 383.352 73.3726Z" fill="#1D1D1B"/>
<path fill-rule="evenodd" clip-rule="evenodd" d="M381.395 60.6384H373.571V68.4743H381.395V60.6384ZM381.392 64.5555H377.48V68.4739H381.392V64.5555Z" fill="#1D1D1B"/>
<path fill-rule="evenodd" clip-rule="evenodd" d="M385.308 60.6382H393.131V68.474H389.222V64.5562H385.31V68.474H385.308V60.6382Z" fill="#1D1D1B"/>
<path fill-rule="evenodd" clip-rule="evenodd" d="M385.308 80.2291H393.131V72.3933H389.222V76.3105H385.31V72.3933H385.308V80.2291Z" fill="#1D1D1B"/>
<path fill-rule="evenodd" clip-rule="evenodd" d="M381.394 80.2291H373.571V72.3933H377.482V76.3105H381.394V72.3933H381.394V80.2291Z" fill="#1D1D1B"/>
<path d="M383.351 98.8396C384.701 98.8396 385.796 97.7432 385.796 96.3906C385.796 95.0381 384.701 93.9417 383.351 93.9417C382 93.9417 380.906 95.0381 380.906 96.3906C380.906 97.7432 382 98.8396 383.351 98.8396Z" fill="#1D1D1B"/>
<path fill-rule="evenodd" clip-rule="evenodd" d="M381.396 86.1082H373.572V93.944H381.396V86.1082ZM381.394 90.0251H377.482V93.9434H381.394V90.0251Z" fill="#1D1D1B"/>
<path fill-rule="evenodd" clip-rule="evenodd" d="M385.308 86.1063H393.131V93.9422H385.308V86.1063ZM385.31 90.0232H389.222V93.9416H385.31V90.0232Z" fill="#1D1D1B"/>
<path fill-rule="evenodd" clip-rule="evenodd" d="M385.308 105.695H393.131V97.8594H389.221V101.777H385.309V97.8594H385.308V105.695Z" fill="#1D1D1B"/>
<path fill-rule="evenodd" clip-rule="evenodd" d="M381.394 105.696H373.571V97.8603H377.482V101.777H381.394V97.8603H381.394V105.696Z" fill="#1D1D1B"/>
<path d="M383.352 124.308C384.702 124.308 385.797 123.212 385.797 121.86C385.797 120.507 384.702 119.411 383.352 119.411C382.001 119.411 380.907 120.507 380.907 121.86C380.907 123.212 382.001 124.308 383.352 124.308Z" fill="#1D1D1B"/>
<path fill-rule="evenodd" clip-rule="evenodd" d="M381.398 111.575H373.574V119.411H381.398V111.575ZM381.395 115.492H377.483V119.41H381.395V115.492Z" fill="#1D1D1B"/>
<path fill-rule="evenodd" clip-rule="evenodd" d="M385.309 111.574H393.132V119.41H389.223V115.492H385.311V119.41H385.309V111.574Z" fill="#1D1D1B"/>
<path fill-rule="evenodd" clip-rule="evenodd" d="M385.309 131.164H393.132V123.328H389.223V127.246H385.311V123.328H385.309V131.164Z" fill="#1D1D1B"/>
<path fill-rule="evenodd" clip-rule="evenodd" d="M381.395 131.164H373.572V123.328H377.483V127.246H381.395V123.328H381.395V131.164Z" fill="#1D1D1B"/>
<path d="M408.78 47.9075C410.13 47.9075 411.224 46.811 411.224 45.4585C411.224 44.106 410.13 43.0095 408.78 43.0095C407.429 43.0095 406.335 44.106 406.335 45.4585C406.335 46.811 407.429 47.9075 408.78 47.9075Z" fill="#1D1D1B"/>
<path fill-rule="evenodd" clip-rule="evenodd" d="M406.823 35.1738H399V43.0097H402.912V39.0919H406.823V35.1738Z" fill="#1D1D1B"/>
<path fill-rule="evenodd" clip-rule="evenodd" d="M410.736 35.1731H418.559V43.0089H414.648V39.0912H410.736V43.0089H410.736V35.1731Z" fill="#1D1D1B"/>
<path fill-rule="evenodd" clip-rule="evenodd" d="M410.736 54.7632H418.559V46.9273H414.648V50.8437H410.736V46.9273H410.736V54.7632Z" fill="#1D1D1B"/>
<path fill-rule="evenodd" clip-rule="evenodd" d="M406.823 54.7632H399V46.9273H402.912V50.8437H406.823V54.7632Z" fill="#1D1D1B"/>
<path d="M408.779 73.3735C410.13 73.3735 411.224 72.2771 411.224 70.9246C411.224 69.572 410.13 68.4756 408.779 68.4756C407.429 68.4756 406.335 69.572 406.335 70.9246C406.335 72.2771 407.429 73.3735 408.779 73.3735Z" fill="#1D1D1B"/>
<path fill-rule="evenodd" clip-rule="evenodd" d="M406.823 60.6394H399V68.4752H406.823V68.4739H402.912V64.5555H406.823V60.6394Z" fill="#1D1D1B"/>
<path fill-rule="evenodd" clip-rule="evenodd" d="M410.736 60.6392H418.559V68.475H410.736V60.6392ZM410.736 64.5562H414.647V68.4746H410.736V64.5562Z" fill="#1D1D1B"/>
<path fill-rule="evenodd" clip-rule="evenodd" d="M410.736 80.2281H418.559V72.3923H414.647V76.3105H410.736V72.3923H410.736V80.2281Z" fill="#1D1D1B"/>
<path fill-rule="evenodd" clip-rule="evenodd" d="M406.823 80.2281H398.999V72.3923H402.912V76.3105H406.823V80.2281Z" fill="#1D1D1B"/>
<path d="M408.779 98.8396C410.13 98.8396 411.224 97.7432 411.224 96.3906C411.224 95.0381 410.13 93.9417 408.779 93.9417C407.429 93.9417 406.335 95.0381 406.335 96.3906C406.335 97.7432 407.429 98.8396 408.779 98.8396Z" fill="#1D1D1B"/>
<path fill-rule="evenodd" clip-rule="evenodd" d="M406.823 86.1069H399V93.9428H402.912V90.0268H406.823V86.1069Z" fill="#1D1D1B"/>
<path fill-rule="evenodd" clip-rule="evenodd" d="M410.736 86.1053H418.559V93.9412H414.647V90.0232H410.736V93.9412H410.736V86.1053Z" fill="#1D1D1B"/>
<path fill-rule="evenodd" clip-rule="evenodd" d="M410.736 105.695H418.559V97.8594H414.647V101.777H410.736V97.8594H410.736V105.695Z" fill="#1D1D1B"/>
<path fill-rule="evenodd" clip-rule="evenodd" d="M406.823 105.695H398.999V97.8594H402.912V101.777H406.823V105.695Z" fill="#1D1D1B"/>
<path d="M408.78 124.308C410.131 124.308 411.225 123.212 411.225 121.86C411.225 120.507 410.131 119.411 408.78 119.411C407.43 119.411 406.336 120.507 406.336 121.86C406.336 123.212 407.43 124.308 408.78 124.308Z" fill="#1D1D1B"/>
<path fill-rule="evenodd" clip-rule="evenodd" d="M406.824 111.575H399V119.411H406.824V119.409H402.913V115.491H406.824V111.575Z" fill="#1D1D1B"/>
<path fill-rule="evenodd" clip-rule="evenodd" d="M410.737 111.574H418.56V119.41H414.648V115.492H410.737V119.41H410.737V111.574Z" fill="#1D1D1B"/>
<path fill-rule="evenodd" clip-rule="evenodd" d="M410.737 131.163H418.56V123.327H414.648V127.245H410.737V123.327H410.737V131.163Z" fill="#1D1D1B"/>
<path fill-rule="evenodd" clip-rule="evenodd" d="M406.824 131.163H399V123.327H402.913V127.245H406.824V131.163Z" fill="#1D1D1B"/>
<path d="M434.208 47.9075C435.558 47.9075 436.652 46.811 436.652 45.4585C436.652 44.106 435.558 43.0095 434.208 43.0095C432.857 43.0095 431.763 44.106 431.763 45.4585C431.763 46.811 432.857 47.9075 434.208 47.9075Z" fill="#1D1D1B"/>
<path fill-rule="evenodd" clip-rule="evenodd" d="M432.251 35.175H424.428V43.0109H428.339V39.0933H432.251V43.0109H432.251V35.175Z" fill="#1D1D1B"/>
<path fill-rule="evenodd" clip-rule="evenodd" d="M436.164 35.1731H443.987V43.0089H440.073V39.0912H436.164V35.1731Z" fill="#1D1D1B"/>
<path fill-rule="evenodd" clip-rule="evenodd" d="M436.164 54.7622H443.987V46.9264H440.073V50.8427H436.164V54.7622Z" fill="#1D1D1B"/>
<path fill-rule="evenodd" clip-rule="evenodd" d="M432.251 54.7622H424.427V46.9264H428.34V50.8427H432.251V54.7622Z" fill="#1D1D1B"/>
<path d="M434.207 73.3716C435.558 73.3716 436.652 72.2751 436.652 70.9226C436.652 69.5701 435.558 68.4736 434.207 68.4736C432.857 68.4736 431.763 69.5701 431.763 70.9226C431.763 72.2751 432.857 73.3716 434.207 73.3716Z" fill="#1D1D1B"/>
<path fill-rule="evenodd" clip-rule="evenodd" d="M432.251 60.6375H424.427V68.4733H432.251V60.6375ZM432.249 64.5545H428.338V68.4729H432.249V64.5545Z" fill="#1D1D1B"/>
<path fill-rule="evenodd" clip-rule="evenodd" d="M436.164 60.6372H443.987V68.473H440.073V64.5553H436.164V60.6372Z" fill="#1D1D1B"/>
<path fill-rule="evenodd" clip-rule="evenodd" d="M436.164 80.2281H443.987V72.3923H440.073V76.3095H436.164V80.2281Z" fill="#1D1D1B"/>
<path fill-rule="evenodd" clip-rule="evenodd" d="M432.251 80.2281H424.427V72.3923H428.339V76.3095H432.251V80.2281Z" fill="#1D1D1B"/>
<path d="M434.207 98.8396C435.558 98.8396 436.652 97.7432 436.652 96.3906C436.652 95.0381 435.558 93.9417 434.207 93.9417C432.857 93.9417 431.763 95.0381 431.763 96.3906C431.763 97.7432 432.857 98.8396 434.207 98.8396Z" fill="#1D1D1B"/>
<path fill-rule="evenodd" clip-rule="evenodd" d="M432.252 86.1072H424.428V93.943H432.252V86.1072ZM432.25 90.0241H428.338V93.9424H432.25V90.0241Z" fill="#1D1D1B"/>
<path fill-rule="evenodd" clip-rule="evenodd" d="M436.164 86.1053H443.987V93.9412H440.073V90.0232H436.164V86.1053Z" fill="#1D1D1B"/>
<path fill-rule="evenodd" clip-rule="evenodd" d="M436.164 105.696H443.987V97.8603H440.072V101.777H436.164V105.696Z" fill="#1D1D1B"/>
<path fill-rule="evenodd" clip-rule="evenodd" d="M432.251 105.696H424.427V97.8603H428.34V101.777H432.251V105.696Z" fill="#1D1D1B"/>
<path d="M434.207 124.308C435.558 124.308 436.652 123.212 436.652 121.86C436.652 120.507 435.558 119.411 434.207 119.411C432.857 119.411 431.763 120.507 431.763 121.86C431.763 123.212 432.857 124.308 434.207 124.308Z" fill="#1D1D1B"/>
<path fill-rule="evenodd" clip-rule="evenodd" d="M432.252 111.576H424.428V119.412H432.252V111.576ZM432.251 115.493H428.339V119.411H432.251V115.493Z" fill="#1D1D1B"/>
<path fill-rule="evenodd" clip-rule="evenodd" d="M436.164 111.574H443.987V119.41H440.073V115.492H436.164V111.574Z" fill="#1D1D1B"/>
<path fill-rule="evenodd" clip-rule="evenodd" d="M436.164 131.163H443.987V123.327H440.073V127.245H436.164V131.163Z" fill="#1D1D1B"/>
<path fill-rule="evenodd" clip-rule="evenodd" d="M432.251 131.163H424.427V123.327H428.339V127.245H432.251V131.163Z" fill="#1D1D1B"/>
<path d="M459.631 47.9075C460.981 47.9075 462.076 46.811 462.076 45.4585C462.076 44.106 460.981 43.0095 459.631 43.0095C458.281 43.0095 457.186 44.106 457.186 45.4585C457.186 46.811 458.281 47.9075 459.631 47.9075Z" fill="#1D1D1B"/>
<path fill-rule="evenodd" clip-rule="evenodd" d="M457.676 35.1741H449.853V43.0099H453.764V39.0922H457.676V43.0099H457.676V35.1741Z" fill="#1D1D1B"/>
<path fill-rule="evenodd" clip-rule="evenodd" d="M461.587 35.1731H469.411V43.0089H465.499V39.0912H461.587V43.0089H461.587V35.1731Z" fill="#1D1D1B"/>
<path fill-rule="evenodd" clip-rule="evenodd" d="M461.587 54.7632H469.411V46.9273H465.499V50.8437H461.587V46.9273H461.587V54.7632Z" fill="#1D1D1B"/>
<path fill-rule="evenodd" clip-rule="evenodd" d="M457.675 54.7632H449.852V46.9273H453.764V50.8437H457.675V54.7632Z" fill="#1D1D1B"/>
<path d="M459.63 73.3735C460.981 73.3735 462.075 72.2771 462.075 70.9246C462.075 69.572 460.981 68.4756 459.63 68.4756C458.28 68.4756 457.186 69.572 457.186 70.9246C457.186 72.2771 458.28 73.3735 459.63 73.3735Z" fill="#1D1D1B"/>
<path fill-rule="evenodd" clip-rule="evenodd" d="M457.674 60.6404H449.85V68.4762H457.674V60.6404ZM457.671 64.5555H453.76V68.4739H457.671V64.5555Z" fill="#1D1D1B"/>
<path fill-rule="evenodd" clip-rule="evenodd" d="M461.587 60.6392H469.41V68.475H461.587V68.4746H465.497V64.5562H461.587V60.6392Z" fill="#1D1D1B"/>
<path fill-rule="evenodd" clip-rule="evenodd" d="M461.586 80.2272H469.409V72.3913H465.496V76.3095H461.586V80.2272Z" fill="#1D1D1B"/>
<path fill-rule="evenodd" clip-rule="evenodd" d="M457.674 80.2272H449.85V72.3913H453.762V76.3095H457.674V80.2272Z" fill="#1D1D1B"/>
<path d="M459.629 98.8405C460.98 98.8405 462.074 97.744 462.074 96.3915C462.074 95.039 460.98 93.9425 459.629 93.9425C458.279 93.9425 457.185 95.039 457.185 96.3915C457.185 97.744 458.279 98.8405 459.629 98.8405Z" fill="#1D1D1B"/>
<path fill-rule="evenodd" clip-rule="evenodd" d="M457.674 86.1074H449.85V93.9433H457.674V93.9417H453.763V90.0233H457.674V86.1074Z" fill="#1D1D1B"/>
<path fill-rule="evenodd" clip-rule="evenodd" d="M461.588 86.1072H469.411V93.943H461.588V93.9424H465.497V90.0241H461.588V86.1072Z" fill="#1D1D1B"/>
<path fill-rule="evenodd" clip-rule="evenodd" d="M461.587 105.697H469.411V97.8612H465.496V101.778H461.587V105.697Z" fill="#1D1D1B"/>
<path fill-rule="evenodd" clip-rule="evenodd" d="M457.676 105.697H449.852V97.8612H453.762V101.777H457.674V97.8612H457.676V105.697Z" fill="#1D1D1B"/>
<path d="M459.631 124.308C460.982 124.308 462.076 123.212 462.076 121.86C462.076 120.507 460.982 119.411 459.631 119.411C458.281 119.411 457.187 120.507 457.187 121.86C457.187 123.212 458.281 124.308 459.631 124.308Z" fill="#1D1D1B"/>
<path fill-rule="evenodd" clip-rule="evenodd" d="M457.676 111.574H449.852V119.409H453.765V115.492H457.676V111.574Z" fill="#1D1D1B"/>
<path fill-rule="evenodd" clip-rule="evenodd" d="M461.588 111.573H469.411V119.409H465.497V115.491H461.588V111.573Z" fill="#1D1D1B"/>
<path fill-rule="evenodd" clip-rule="evenodd" d="M461.587 131.165H469.411V123.329H465.497V127.247H461.587V131.165Z" fill="#1D1D1B"/>
<path fill-rule="evenodd" clip-rule="evenodd" d="M457.675 131.165H449.851V123.329H453.763V127.247H457.675V131.165Z" fill="#1D1D1B"/>
<path d="M485.059 47.9075C486.409 47.9075 487.504 46.811 487.504 45.4585C487.504 44.106 486.409 43.0095 485.059 43.0095C483.709 43.0095 482.614 44.106 482.614 45.4585C482.614 46.811 483.709 47.9075 485.059 47.9075Z" fill="#1D1D1B"/>
<path fill-rule="evenodd" clip-rule="evenodd" d="M483.103 35.1731H475.28V43.0089H479.192V39.0912H483.103V35.1731Z" fill="#1D1D1B"/>
<path fill-rule="evenodd" clip-rule="evenodd" d="M487.015 35.1731H494.839V43.0089H490.927V39.0912H487.015V43.0089H487.015V35.1731Z" fill="#1D1D1B"/>
<path fill-rule="evenodd" clip-rule="evenodd" d="M487.015 54.7632H494.839V46.9273H490.927V50.8437H487.015V46.9273H487.015V54.7632Z" fill="#1D1D1B"/>
<path fill-rule="evenodd" clip-rule="evenodd" d="M483.103 54.7632H475.279V46.9273H479.19V50.8437H483.102V46.9273H483.103V54.7632Z" fill="#1D1D1B"/>
<path d="M485.057 73.3735C486.407 73.3735 487.502 72.2771 487.502 70.9246C487.502 69.572 486.407 68.4756 485.057 68.4756C483.707 68.4756 482.612 69.572 482.612 70.9246C482.612 72.2771 483.707 73.3735 485.057 73.3735Z" fill="#1D1D1B"/>
<path fill-rule="evenodd" clip-rule="evenodd" d="M483.102 60.6394H475.278V68.4752H483.102V60.6394ZM483.099 64.5555H479.187V68.4739H483.099V64.5555Z" fill="#1D1D1B"/>
<path fill-rule="evenodd" clip-rule="evenodd" d="M487.013 60.6392H494.837V68.475H487.013V60.6392ZM487.014 64.5562H490.926V68.4746H487.014V64.5562Z" fill="#1D1D1B"/>
<path fill-rule="evenodd" clip-rule="evenodd" d="M487.013 80.2281H494.837V72.3923H490.926V76.3105H487.014V72.3923H487.013V80.2281Z" fill="#1D1D1B"/>
<path fill-rule="evenodd" clip-rule="evenodd" d="M483.101 80.2281H475.277V72.3923H479.187V76.3105H483.099V72.3923H483.101V80.2281Z" fill="#1D1D1B"/>
<path d="M485.058 98.8416C486.408 98.8416 487.503 97.7451 487.503 96.3926C487.503 95.04 486.408 93.9436 485.058 93.9436C483.708 93.9436 482.613 95.04 482.613 96.3926C482.613 97.7451 483.708 98.8416 485.058 98.8416Z" fill="#1D1D1B"/>
<path fill-rule="evenodd" clip-rule="evenodd" d="M483.102 86.1066H475.279V93.9424H483.102V86.1066ZM483.102 90.0235H479.19V93.9418H483.102V90.0235Z" fill="#1D1D1B"/>
<path fill-rule="evenodd" clip-rule="evenodd" d="M487.014 86.1063H494.838V93.9422H490.925V90.0252H487.014V86.1063Z" fill="#1D1D1B"/>
<path fill-rule="evenodd" clip-rule="evenodd" d="M487.015 105.697H494.839V97.8613H490.926V101.778H487.015V105.697Z" fill="#1D1D1B"/>
<path fill-rule="evenodd" clip-rule="evenodd" d="M483.102 105.697H475.278V97.8613H479.188V101.778H483.1V97.8613H483.102V105.697Z" fill="#1D1D1B"/>
<path d="M485.058 124.308C486.408 124.308 487.503 123.212 487.503 121.86C487.503 120.507 486.408 119.411 485.058 119.411C483.708 119.411 482.613 120.507 482.613 121.86C482.613 123.212 483.708 124.308 485.058 124.308Z" fill="#1D1D1B"/>
<path fill-rule="evenodd" clip-rule="evenodd" d="M483.104 111.576H475.281V119.412H483.104V111.576ZM483.102 115.491H479.19V119.409H483.102V115.491Z" fill="#1D1D1B"/>
<path fill-rule="evenodd" clip-rule="evenodd" d="M487.014 111.574H494.838V119.41H490.927V115.492H487.015V119.41H487.014V111.574Z" fill="#1D1D1B"/>
<path fill-rule="evenodd" clip-rule="evenodd" d="M487.014 131.163H494.838V123.327H490.927V127.245H487.015V123.327H487.014V131.163Z" fill="#1D1D1B"/>
<path fill-rule="evenodd" clip-rule="evenodd" d="M483.102 131.163H475.278V123.327H479.189V127.245H483.101V123.327H483.102V131.163Z" fill="#1D1D1B"/>
<path d="M272.975 181.693L276.06 185.068V227.298H260.678L258.793 218.424" fill="black"/>
<path d="M272.975 181.693L276.06 185.068V227.298H260.678L258.793 218.424" stroke="#3C3C3C" stroke-width="0.401127"/>
<path d="M272.974 218.422L276.059 227.296L272.974 218.422Z" fill="black"/>
<path d="M272.974 218.422L276.059 227.296" stroke="#3C3C3C" stroke-width="0.401127"/>
<path d="M332.907 181.693L334.382 185.282V226.008H318.321L317.125 218.424" fill="black"/>
<path d="M332.907 181.693L334.382 185.282V226.008H318.321L317.125 218.424" stroke="#3C3C3C" stroke-width="0.401127"/>
<path d="M332.907 218.422L334.382 226.006L332.907 218.422Z" fill="black"/>
<path d="M332.907 218.422L334.382 226.006" stroke="#3C3C3C" stroke-width="0.401127"/>
<path d="M258.793 181.693H272.975V218.424H258.793V181.693Z" fill="black" stroke="#3C3C3C" stroke-width="0.401127"/>
<path d="M416.018 181.693L410.247 187.323V225.348H424.404L427.85 216.465" fill="black"/>
<path d="M416.018 181.693L410.247 187.323V225.348H424.404L427.85 216.465" stroke="#3B3B3B" stroke-width="0.401127"/>
<path d="M416.018 181.693H427.85V216.465H416.018V181.693Z" fill="black" stroke="#3C3C3C" stroke-width="0.401127"/>
<path d="M416.018 216.465L410.247 225.348L416.018 216.465Z" fill="#3B3B3B"/>
<path d="M416.018 216.465L410.247 225.348" stroke="#3B3B3B" stroke-width="0.401127"/>
<path d="M447.392 181.693L440.943 185.895V225.348L456.276 225.001L458.936 216.465H447.392" fill="black"/>
<path d="M447.392 181.693L440.943 185.895V225.348L456.276 225.001L458.936 216.465H447.392" stroke="#3B3B3B" stroke-width="0.401127"/>
<path d="M447.39 181.693H458.934V216.465H447.39V181.693Z" fill="black" stroke="#3C3C3C" stroke-width="0.401127"/>
<path d="M318.321 181.693H332.907V218.424H317.125V181.693H318.321Z" fill="black" stroke="#3C3C3C" stroke-width="0.401127"/>
<path d="M447.392 216.465L440.943 225.348" stroke="#3B3B3B" stroke-width="0.401127"/>
<path d="M355.019 181.726L350.478 184.807V226.041H365.9L367.494 218.457" fill="black"/>
<path d="M355.019 181.726L350.478 184.807V226.041H365.9L367.494 218.457" stroke="#3C3C3C" stroke-width="0.401127"/>
<path d="M354.994 181.693H367.469V218.424H354.994V181.693Z" fill="black" stroke="#3C3C3C" stroke-width="0.401127"/>
<path d="M354.994 218.422L351.082 226.006L354.994 218.422Z" fill="black"/>
<path d="M354.994 218.422L351.082 226.006" stroke="#3C3C3C" stroke-width="0.401127"/>
<path d="M478.932 181.693L472.007 184.425V225.348H486.602L491.471 216.465" fill="black"/>
<path d="M478.932 181.693L472.007 184.425V225.348H486.602L491.471 216.465" stroke="#3B3B3B" stroke-width="0.401127"/>
<path d="M478.931 181.693H491.47V216.465H478.931V181.693Z" fill="black" stroke="#3C3C3C" stroke-width="0.401127"/>
<path d="M478.932 216.465L472.007 225.348" stroke="#3B3B3B" stroke-width="0.401127"/>
<rect x="186.323" y="102.624" width="73.1437" height="33.1458" rx="16.5729" transform="rotate(-24.9006 186.323 102.624)" fill="#F1862A" stroke="white" stroke-width="2.09453"/>
<path d="M205.606 113.974C205.307 114.113 205.012 114.177 204.721 114.167C204.43 114.157 204.168 114.077 203.937 113.926C203.709 113.773 203.532 113.563 203.407 113.294C203.282 113.025 203.236 112.755 203.269 112.486C203.303 112.212 203.411 111.962 203.593 111.736C203.773 111.507 204.012 111.323 204.311 111.185C204.617 111.043 204.912 110.987 205.196 111.016C205.478 111.043 205.72 111.15 205.921 111.34L205.362 112.053C205.127 111.868 204.891 111.83 204.655 111.939C204.486 112.018 204.371 112.14 204.311 112.305C204.253 112.469 204.271 112.65 204.364 112.85C204.458 113.052 204.586 113.186 204.75 113.252C204.915 113.312 205.083 113.303 205.252 113.224C205.488 113.115 205.611 112.91 205.621 112.611L206.527 112.645C206.542 112.92 206.469 113.176 206.308 113.412C206.146 113.645 205.912 113.832 205.606 113.974ZM208.07 109.44C208.518 109.232 208.908 109.176 209.239 109.273C209.569 109.366 209.832 109.623 210.027 110.045L210.723 111.544L209.842 111.954L209.68 111.605C209.666 111.93 209.461 112.185 209.066 112.368C208.856 112.466 208.658 112.513 208.472 112.511C208.285 112.509 208.123 112.465 207.987 112.379C207.852 112.288 207.747 112.163 207.673 112.004C207.554 111.748 207.561 111.505 207.692 111.274C207.822 111.041 208.091 110.829 208.499 110.639L209.037 110.39C208.888 110.112 208.631 110.058 208.265 110.227C208.136 110.287 208.015 110.37 207.902 110.475C207.788 110.576 207.701 110.685 207.642 110.801L207.025 110.307C207.128 110.138 207.273 109.977 207.461 109.825C207.651 109.669 207.854 109.54 208.07 109.44ZM209.052 111.648C209.162 111.597 209.246 111.526 209.304 111.434C209.362 111.343 209.386 111.237 209.375 111.117L209.266 110.883L208.857 111.072C208.582 111.2 208.486 111.356 208.571 111.538C208.61 111.621 208.672 111.673 208.758 111.694C208.845 111.714 208.942 111.699 209.052 111.648ZM213.915 106.781L214.054 110.132C214.072 110.527 214.013 110.837 213.879 111.06C213.746 111.287 213.539 111.466 213.257 111.598C213.114 111.664 212.959 111.708 212.791 111.729C212.628 111.752 212.485 111.748 212.361 111.716L212.382 110.901C212.459 110.926 212.54 110.935 212.625 110.928C212.715 110.922 212.799 110.902 212.875 110.867C212.965 110.825 213.029 110.773 213.069 110.71C213.111 110.646 213.134 110.564 213.137 110.466L210.712 108.268L211.683 107.817L213.111 109.158L213.013 107.2L213.915 106.781ZM215.218 106.176L216.16 105.739L216.625 106.74L217.596 106.289L217.131 105.288L218.078 104.849L219.331 107.549L218.384 107.988L217.945 107.042L216.974 107.493L217.413 108.439L216.472 108.876L215.218 106.176ZM223.807 104.551L224.418 105.866L223.541 106.273L223.282 105.715L221.583 106.503L221.842 107.061L220.96 107.47L220.35 106.155L220.45 106.109C220.611 106.03 220.683 105.89 220.666 105.688C220.647 105.483 220.571 105.219 220.438 104.897L220.036 103.94L222.532 102.781L223.433 104.724L223.807 104.551ZM221.322 104.572C221.425 104.819 221.497 105.022 221.538 105.18C221.579 105.338 221.584 105.478 221.551 105.598L222.487 105.163L221.934 103.973L221.212 104.308L221.322 104.572ZM226.381 103.108L226.062 103.256L226.508 104.217L225.562 104.656L224.308 101.957L225.255 101.517L225.717 102.514L226.056 102.356L226.256 101.052L227.257 100.588L226.952 102.304L228.57 103.26L227.454 103.778L226.381 103.108ZM230.305 99.1185C230.551 99.0044 230.8 98.9593 231.053 98.983C231.308 99.0019 231.543 99.0906 231.758 99.2492C231.975 99.4029 232.148 99.6192 232.277 99.8982C232.407 100.177 232.461 100.451 232.44 100.719C232.421 100.982 232.337 101.219 232.189 101.429C232.042 101.634 231.846 101.794 231.6 101.908C231.284 102.054 230.99 102.076 230.716 101.973L231.275 103.179L230.329 103.618L228.627 99.9518L229.529 99.5333L229.654 99.8023C229.732 99.5114 229.95 99.2835 230.305 99.1185ZM231.051 101.248C231.217 101.171 231.327 101.052 231.381 100.889C231.434 100.724 231.413 100.541 231.321 100.342C231.228 100.143 231.103 100.011 230.944 99.9479C230.784 99.881 230.621 99.8861 230.455 99.9632C230.289 100.04 230.18 100.162 230.127 100.327C230.073 100.489 230.093 100.67 230.185 100.869C230.278 101.069 230.404 101.202 230.564 101.269C230.723 101.332 230.885 101.325 231.051 101.248ZM233.101 97.8748L234.043 97.4378L234.7 98.8525L235.174 96.9129L236.045 96.5082L237.299 99.2081L236.352 99.6475L235.693 98.2278L235.231 100.168L234.355 100.575L233.101 97.8748ZM238.637 95.2327C238.936 95.0939 239.231 95.0296 239.522 95.0397C239.813 95.0498 240.073 95.1311 240.301 95.2835C240.533 95.4344 240.712 95.6459 240.838 95.9183C240.965 96.1906 241.011 96.4655 240.979 96.743C240.949 97.019 240.845 97.2715 240.664 97.5005C240.484 97.7295 240.245 97.9133 239.946 98.0521C239.673 98.1785 239.408 98.247 239.151 98.2575C238.892 98.2647 238.652 98.2168 238.43 98.1137L238.742 97.3635C239.033 97.4867 239.312 97.4866 239.577 97.3632C239.737 97.2892 239.857 97.1912 239.937 97.069C240.021 96.9453 240.06 96.808 240.055 96.6572L239.049 97.1243L238.757 96.4966L239.759 96.0319C239.65 95.937 239.522 95.8833 239.375 95.8708C239.23 95.8535 239.079 95.8811 238.923 95.9535C238.657 96.0768 238.478 96.2895 238.384 96.5914L237.612 96.3503C237.676 96.1147 237.795 95.9019 237.969 95.712C238.142 95.5189 238.365 95.3591 238.637 95.2327ZM241.651 93.9059L242.593 93.4689L243.25 94.8836L243.724 92.944L244.595 92.5394L245.849 95.2392L244.902 95.6786L244.243 94.2589L243.781 96.1989L242.905 96.6058L241.651 93.9059ZM242.941 92.9925C242.622 93.1405 242.355 93.1836 242.141 93.1216C241.928 93.0548 241.756 92.8827 241.623 92.6053L242.236 92.3209C242.293 92.4356 242.36 92.5113 242.438 92.5479C242.514 92.5813 242.607 92.5725 242.716 92.5216C242.826 92.4707 242.893 92.4031 242.919 92.3187C242.947 92.2327 242.936 92.1332 242.883 92.0203L243.506 91.7313C243.635 92.0102 243.654 92.254 243.561 92.4626C243.47 92.6664 243.263 92.843 242.941 92.9925ZM248.988 91.4145L248.121 91.8169L249.026 93.7646L248.084 94.2016L247.18 92.2539L246.308 92.6585L245.959 91.9064L248.639 90.6623L248.988 91.4145Z" fill="#252523"/>
<g filter="url(#filter0_d)">
<path d="M181.605 92.2303C194.434 94.4443 206.628 85.8395 208.842 73.0111C211.056 60.1827 202.451 47.9884 189.622 45.7745C176.794 43.5606 164.6 52.1654 162.386 64.9938C160.172 77.8222 168.777 90.0164 181.605 92.2303Z" fill="#252523"/>
</g>
<path fill-rule="evenodd" clip-rule="evenodd" d="M175.337 61.1901C177.531 61.1822 179.336 61.6202 180.752 62.5044C182.168 63.3885 182.896 64.7031 182.935 66.4483L182.936 66.7475L177.775 66.7663L177.775 66.6665C177.773 66.1679 177.589 65.753 177.222 65.4219C176.855 65.0908 176.298 64.9266 175.55 64.9293C174.818 64.932 174.258 65.042 173.868 65.2596C173.478 65.4771 173.284 65.7437 173.285 66.0595C173.287 66.5083 173.554 66.8398 174.086 67.0539C174.619 67.2681 175.476 67.4894 176.657 67.7178C178.037 67.9953 179.173 68.2862 180.063 68.5905C180.954 68.8948 181.733 69.3948 182.4 70.0905C183.067 70.7861 183.412 71.7323 183.432 72.9291C183.44 74.9569 182.76 76.4637 181.392 77.4493C180.024 78.435 178.194 78.932 175.9 78.9404C173.224 78.9501 171.14 78.5089 169.649 77.6167C168.159 76.7245 167.409 75.1399 167.401 72.8627L172.612 72.8437C172.615 73.7081 172.841 74.2849 173.291 74.5741C173.741 74.8634 174.439 75.0063 175.387 75.0028C176.085 75.0003 176.662 74.9234 177.119 74.7721C177.575 74.6209 177.803 74.3125 177.801 73.8471C177.8 73.4316 177.545 73.1208 177.037 72.9149C176.53 72.709 175.702 72.4918 174.554 72.2632C173.157 71.9691 172.001 71.6617 171.085 71.3409C170.17 71.0201 169.37 70.4869 168.686 69.7414C168.002 68.9959 167.657 67.9832 167.653 66.7033C167.646 64.8251 168.368 63.4387 169.819 62.5441C171.27 61.6496 173.109 61.1982 175.337 61.1901ZM194.533 61.1116C197.072 61.1024 199.083 61.7308 200.565 62.997C202.047 64.2632 202.793 66.0765 202.801 68.4368L197.547 68.4559C197.544 67.4586 197.279 66.67 196.754 66.0901C196.229 65.5103 195.485 65.2221 194.523 65.2256C193.41 65.2296 192.594 65.5817 192.074 66.2817C191.553 66.9817 191.295 67.955 191.3 69.2017L191.306 70.7973C191.31 72.0274 191.575 72.9946 192.101 73.6991C192.626 74.4037 193.428 74.754 194.507 74.75C195.57 74.7462 196.374 74.469 196.92 73.9185C197.466 73.368 197.737 72.5941 197.733 71.5968L202.813 71.5783C202.821 73.922 202.11 75.7197 200.678 76.9716C199.247 78.2234 197.22 78.8541 194.597 78.8637C191.675 78.8743 189.461 78.1344 187.953 76.6439C186.445 75.1534 185.686 72.9454 185.675 70.02C185.665 67.0945 186.408 64.8811 187.905 63.3797C189.402 61.8783 191.611 61.1222 194.533 61.1116Z" fill="#FCFCFC"/>
<path d="M198.221 57.9875L196.58 67.4966L203.474 65.0104L197.436 68.7989L205.514 69.0386L197.143 70.5004L202.927 73.5678L196.174 71.6835L197.58 77.6485L194.812 72.1672L192.204 79.1913L192.973 71.8498L187.943 74.6077L192.03 70.5011L185.56 70.2983L191.704 68.7675L185.47 62.8825L193.26 67.6602L193.505 61.9552L194.905 66.4874L198.221 57.9875Z" fill="#F1862A"/>
<g filter="url(#filter1_d)">
<path d="M100 131C113.807 131 125 119.807 125 106C125 92.1929 113.807 81 100 81C86.1929 81 75 92.1929 75 106C75 119.807 86.1929 131 100 131Z" fill="#252523"/>
</g>
<rect x="78.9616" y="105.189" width="0.524999" height="4.00312" fill="white"/>
<rect x="79.8802" y="105.583" width="0.524999" height="3.14999" fill="white"/>
<rect x="80.7987" y="106.37" width="0.524999" height="1.64062" fill="white"/>
<rect x="81.7173" y="105.583" width="0.524999" height="3.14999" fill="white"/>
<rect x="82.6361" y="106.108" width="0.524999" height="2.16562" fill="white"/>
<rect x="78.0427" y="106.173" width="0.524999" height="1.96875" fill="white"/>
<rect x="84.4738" y="104.271" width="0.524999" height="5.77499" fill="white"/>
<rect x="85.3929" y="104.926" width="0.524999" height="4.52812" fill="white"/>
<rect x="86.3112" y="105.976" width="0.524999" height="2.3625" fill="white"/>
<rect x="87.2301" y="104.926" width="0.524999" height="4.52812" fill="white"/>
<rect x="88.1489" y="105.649" width="0.524999" height="3.08437" fill="white"/>
<rect x="83.5555" y="105.78" width="0.524999" height="2.82187" fill="white"/>
<rect x="89.9861" y="102.958" width="0.524999" height="8.46561" fill="white"/>
<rect x="90.9054" y="103.877" width="0.524999" height="6.62811" fill="white"/>
<rect x="91.8237" y="105.452" width="0.524999" height="3.47812" fill="white"/>
<rect x="92.7423" y="103.877" width="0.524999" height="6.62811" fill="white"/>
<rect x="93.6616" y="104.926" width="0.524999" height="4.52812" fill="white"/>
<rect x="89.0675" y="105.123" width="0.524999" height="4.13437" fill="white"/>
<rect x="95.4941" y="105.189" width="0.524999" height="4.00312" fill="white"/>
<rect x="96.4127" y="105.583" width="0.524999" height="3.14999" fill="white"/>
<rect x="97.331" y="106.37" width="0.524999" height="1.64062" fill="white"/>
<rect x="98.2499" y="105.583" width="0.524999" height="3.14999" fill="white"/>
<rect x="99.1689" y="106.108" width="0.524999" height="2.16562" fill="white"/>
<rect x="94.5753" y="106.173" width="0.524999" height="1.96875" fill="white"/>
<rect x="101.006" y="104.271" width="0.524999" height="5.77499" fill="white"/>
<rect x="101.925" y="104.926" width="0.524999" height="4.52812" fill="white"/>
<rect x="102.844" y="105.976" width="0.524999" height="2.3625" fill="white"/>
<rect x="103.763" y="104.926" width="0.524999" height="4.52812" fill="white"/>
<rect x="104.681" y="105.649" width="0.524999" height="3.08437" fill="white"/>
<rect x="100.088" y="105.78" width="0.524999" height="2.82187" fill="white"/>
<rect x="106.519" y="102.958" width="0.524999" height="8.46561" fill="white"/>
<rect x="107.438" y="103.877" width="0.524999" height="6.62811" fill="white"/>
<rect x="108.356" y="105.452" width="0.524999" height="3.47812" fill="white"/>
<rect x="109.275" y="103.877" width="0.524999" height="6.62811" fill="white"/>
<rect x="110.194" y="104.926" width="0.524999" height="4.52812" fill="white"/>
<rect x="105.6" y="105.123" width="0.524999" height="4.13437" fill="white"/>
<g filter="url(#filter2_d)">
<path d="M155.055 83.0159C155.055 100.146 143.402 114.032 129.027 114.032C114.653 114.032 103 100.146 103 83.0159C103 65.8863 114.653 52 129.027 52C136.029 52 142.386 55.295 147.064 60.6548C151.989 66.2981 155.055 74.2304 155.055 83.0159Z" fill="#FCFCFC"/>
</g>
<path d="M152.772 83.0152C152.772 98.8807 142.141 111.742 129.027 111.742C115.914 111.742 105.283 98.8807 105.283 83.0152C105.283 67.1498 115.914 54.2883 129.027 54.2883C135.415 54.2883 141.214 57.3402 145.482 62.3044C149.975 67.5312 152.772 74.8781 152.772 83.0152Z" fill="#CCC2B3"/>
<path d="M152.772 83.0152C152.772 98.8807 142.141 111.742 129.027 111.742C115.914 111.742 105.283 98.8807 105.283 83.0152C105.283 67.1498 115.914 54.2883 129.027 54.2883C135.415 54.2883 141.214 57.3402 145.482 62.3044C149.975 67.5312 152.772 74.8781 152.772 83.0152Z" fill="#CCC2B3"/>
<path fill-rule="evenodd" clip-rule="evenodd" d="M123.512 78.5317C122.247 78.4395 118.473 79.6987 117.017 78.7771C115.652 77.65 114.251 77.3025 113.273 78.8167C112.4 79.4366 110.98 78.6727 109.997 78.5663C110.125 80.0299 110.962 81.8396 112.945 81.4014C114.246 81.2398 114.401 80.1798 115.784 80.053C116.98 80.1205 117.478 81.0185 118.483 81.0858C119.213 80.9345 119.36 80.3137 120.368 80.1887C121.952 79.9926 123.624 79.4503 123.512 78.5317Z" fill="#F1862A"/>
<path d="M127.202 111.513L126.631 111.056C119.211 108.538 109.964 100.412 110.193 99.0384H109.279C115.782 92.2305 116.219 92.168 128.078 87.2526C131.656 85.5535 131.089 82.1594 129.089 82.0388C125.932 82.1786 124.646 82.3862 121.543 81.9264C120.777 81.7092 120.5 80.9641 120.604 80.1906C121.712 80.0313 124.346 79.1672 123.279 78.2617C118.349 79.1897 115.741 79.02 116.074 74.8474C116.262 73.2224 116.327 72.9635 117.875 71.7538C121.512 69.1176 125.124 66.6562 129.757 65.1793C130.782 63.8294 130.252 60.9147 131.625 60.9286C132.672 60.5559 133.681 63.2314 133.757 64.5434C134.594 61.3784 137.683 59.2996 140.19 60.668C142.919 62.674 142.891 65.922 142.668 69.7736C143.396 68.4743 143.235 66.8542 143.031 65.475C147.392 67.6911 149.431 72.6072 149.431 76.3197C149.304 81.9518 146.942 86.2876 143.293 90.6159C133.979 99.545 130.492 101.719 127.202 111.513Z" fill="#252523"/>
<path fill-rule="evenodd" clip-rule="evenodd" d="M138.689 63.9085C137.734 63.2947 136.338 64.405 136.361 66.0306C138.073 65.7136 138.581 66.5243 138.88 68.9373C140.113 67.7522 140.132 64.7441 138.689 63.9085ZM130.661 83.4265C130.305 82.0593 129.358 81.9125 127.231 82.1536C128.481 82.2435 128.621 83.7137 127.873 84.6097C125.625 87.3036 119.115 90.7183 114.117 94.7852C118.522 91.581 123.517 89.0702 128.86 86.8364C130.195 86.0046 130.938 85.0343 130.661 83.4265ZM117.569 71.8573C116.572 72.1918 115.479 72.1335 114.694 73.1812C113.855 75.2458 115.836 76.7385 116.017 76.2704C116.043 75.5519 115.967 74.5147 116.371 74.3116C116.797 74.14 117.034 74.8028 117.167 75.1818C117.633 74.3793 117.685 73.582 117.569 71.8573ZM126.249 69.4168C124.857 70.0162 124.219 70.7959 124.338 71.9182C124.457 73.0404 126.438 72.8104 127.83 72.211C129.221 71.6117 129.739 70.5453 129.382 69.6675C129.025 68.7903 127.64 68.8175 126.249 69.4168ZM126.53 69.8032C125.945 69.8032 125.469 70.2538 125.469 70.807C125.469 71.3596 125.945 71.8103 126.53 71.8103C127.115 71.8103 127.592 71.3596 127.592 70.807C127.592 70.2538 127.115 69.8032 126.53 69.8032Z" fill="#FCFCFC"/>
<path d="M151.631 83.0162C151.631 98.4603 141.32 110.599 129.028 110.599C116.736 110.599 106.425 98.4603 106.425 83.0162C106.425 67.5722 116.736 55.4338 129.028 55.4338C135.034 55.4338 140.532 58.3001 144.618 63.0526C148.922 68.0598 151.631 75.1373 151.631 83.0162Z" stroke="#CCC2B3" stroke-width="2.32095"/>
<g filter="url(#filter3_d)">
<path fill-rule="evenodd" clip-rule="evenodd" d="M54.0145 58.8327C57.3362 71.0407 69.6781 78.3117 81.5809 75.0731C85.69 73.955 89.2096 71.7305 91.9204 68.7945L101.039 70.965L95.6217 63.3719C97.9852 58.5246 98.6627 52.7806 97.1182 47.1045C93.7965 34.8965 81.4546 27.6255 69.5519 30.8641C57.6491 34.1028 50.6928 46.6248 54.0145 58.8327Z" fill="#FCFCFC"/>
</g>
<path d="M65.74 48.8898C65.4863 48.7908 65.2468 48.666 65.0216 48.5155C64.7964 48.3649 64.6247 48.2164 64.5064 48.07L65.1596 47.3916C65.2648 47.5287 65.4024 47.6576 65.5725 47.7783C65.7425 47.899 65.9163 47.994 66.0939 48.0633C66.2353 48.1184 66.3373 48.1458 66.4002 48.1452C66.4681 48.1425 66.5112 48.1176 66.5296 48.0705C66.548 48.0234 66.5245 47.9766 66.4591 47.9302C66.3973 47.8852 66.2902 47.8225 66.1378 47.7421C65.9063 47.6184 65.7139 47.5015 65.5605 47.3915C65.4086 47.2779 65.2929 47.1304 65.2133 46.949C65.1374 46.7691 65.1468 46.5577 65.2416 46.3149C65.3166 46.1228 65.4418 45.9733 65.6171 45.8663C65.7925 45.7594 66.0121 45.7052 66.2757 45.7037C66.543 45.7036 66.838 45.7665 67.1605 45.8924C67.3852 45.9801 67.596 46.0875 67.7928 46.2144C67.9947 46.3391 68.1562 46.4711 68.2773 46.6102L67.6241 47.2887C67.4197 47.0418 67.1617 46.8576 66.85 46.736C66.5819 46.6313 66.4294 46.626 66.3926 46.7203C66.3742 46.7674 66.397 46.816 66.461 46.866C66.5264 46.9124 66.6335 46.9751 66.7823 47.054C67.0138 47.1778 67.2037 47.2958 67.352 47.408C67.5039 47.5216 67.6179 47.6683 67.6938 47.8483C67.7733 48.0297 67.7657 48.2418 67.6709 48.4846C67.5988 48.6695 67.475 48.8153 67.2996 48.9223C67.1243 49.0292 66.9029 49.0827 66.6356 49.0828C66.3683 49.0829 66.0698 49.0185 65.74 48.8898ZM70.3086 50.6731C69.9788 50.5444 69.7071 50.3631 69.4935 50.1294C69.2849 49.8935 69.1516 49.6305 69.0935 49.3406C69.0369 49.047 69.0666 48.7517 69.1826 48.4545C69.2985 48.1573 69.4761 47.9218 69.7152 47.7478C69.9558 47.5703 70.232 47.4672 70.5438 47.4385C70.8593 47.4113 71.1819 47.4621 71.5117 47.5908C71.8451 47.721 72.1168 47.9022 72.3268 48.1345C72.5405 48.3682 72.6738 48.6312 72.7268 48.9233C72.7849 49.2133 72.7559 49.5068 72.6399 49.804C72.5239 50.1012 72.3456 50.3385 72.1051 50.5161C71.8696 50.6915 71.5934 50.7946 71.2765 50.8254C70.9647 50.854 70.642 50.8032 70.3086 50.6731ZM70.6821 49.7163C70.8234 49.7715 70.9592 49.766 71.0894 49.6999C71.221 49.6302 71.3229 49.5029 71.395 49.3181C71.4672 49.1333 71.4778 48.9724 71.4268 48.8356C71.3758 48.6988 71.2796 48.6028 71.1383 48.5476C70.9969 48.4924 70.8612 48.4979 70.7309 48.564C70.6007 48.6301 70.4996 48.7556 70.4274 48.9404C70.3553 49.1252 70.344 49.2879 70.3936 49.4283C70.4446 49.5652 70.5407 49.6612 70.6821 49.7163ZM77.9417 50.1633L76.781 53.1368L75.6123 52.6806L75.7226 52.3979C75.57 52.4679 75.41 52.5035 75.2424 52.5049C75.0762 52.5027 74.9115 52.4697 74.7485 52.4061C74.3716 52.259 74.1135 52.0267 73.9743 51.7093C73.8365 51.3882 73.8582 50.9957 74.0392 50.5319L74.68 48.8902L75.9086 49.3697L75.3505 50.7994C75.2713 51.0023 75.2474 51.16 75.2786 51.2725C75.3099 51.3849 75.389 51.4659 75.5158 51.5154C75.6354 51.5621 75.7535 51.5539 75.87 51.4908C75.9879 51.424 76.0872 51.2874 76.1678 51.0808L76.7131 49.6837L77.9417 50.1633ZM81.6608 51.5523C82.0268 51.6952 82.2772 51.9203 82.412 52.2276C82.5504 52.5364 82.5326 52.9137 82.3586 53.3594L81.6966 55.0555L80.468 54.576L81.0473 53.0919C81.1803 52.7512 81.1253 52.5335 80.8825 52.4387C80.7448 52.385 80.6134 52.3901 80.4882 52.454C80.3681 52.5157 80.2677 52.6498 80.1871 52.8564L79.6417 54.2534L78.4132 53.7739L79.5738 50.8004L80.7426 51.2566L80.628 51.5501C80.7893 51.4794 80.9573 51.4448 81.1321 51.4462C81.307 51.4476 81.4832 51.483 81.6608 51.5523ZM88.2337 52.959L86.6593 56.9926L85.4905 56.5364L85.586 56.2918C85.3306 56.4218 85.0199 56.4153 84.6539 56.2725C84.3929 56.1706 84.176 56.0149 84.003 55.8054C83.8351 55.5937 83.7319 55.3446 83.6933 55.0581C83.6584 54.773 83.7011 54.4765 83.8214 54.1684C83.9416 53.8604 84.1104 53.6152 84.3278 53.4327C84.5502 53.2481 84.7942 53.1366 85.0597 53.0982C85.3303 53.0577 85.596 53.0883 85.857 53.1902C86.1868 53.3189 86.4054 53.5024 86.5129 53.7406L87.0051 52.4795L88.2337 52.959ZM85.3209 55.4303C85.4622 55.4855 85.598 55.48 85.7282 55.4139C85.8598 55.3441 85.9617 55.2169 86.0338 55.032C86.106 54.8472 86.1166 54.6864 86.0656 54.5495C86.0146 54.4127 85.9184 54.3167 85.7771 54.2615C85.6357 54.2064 85.5 54.2118 85.3698 54.2779C85.2395 54.344 85.1384 54.4695 85.0662 54.6543C84.9941 54.8392 84.9828 55.0018 85.0324 55.1423C85.0834 55.2791 85.1795 55.3751 85.3209 55.4303ZM63.5849 53.416C63.2479 53.2845 62.9707 53.1011 62.7535 52.866C62.5398 52.6323 62.4029 52.3679 62.3426 52.0729C62.286 51.7794 62.3157 51.484 62.4317 51.1868C62.5477 50.8897 62.7252 50.6541 62.9643 50.4802C63.2085 50.304 63.4883 50.2023 63.8038 50.1751C64.1229 50.1493 64.451 50.2022 64.788 50.3338C65.1504 50.4752 65.4299 50.6741 65.6263 50.9304C65.8228 51.1866 65.9162 51.4716 65.9066 51.7852L64.7728 51.8814C64.7587 51.5752 64.6374 51.3775 64.4091 51.2884C64.2642 51.2318 64.123 51.2352 63.9855 51.2984C63.8517 51.3631 63.7487 51.4879 63.6765 51.6727C63.603 51.8612 63.5935 52.0245 63.6481 52.1628C63.7064 52.3025 63.808 52.4006 63.9529 52.4572C64.1812 52.5463 64.4043 52.483 64.6221 52.2673L65.391 53.1062C65.1856 53.3434 64.9239 53.4897 64.6057 53.5451C64.2876 53.6005 63.9473 53.5575 63.5849 53.416ZM68.6438 52.271C68.9589 52.1059 69.3284 52.106 69.7524 52.2715L69.3281 53.3587C69.2359 53.3061 69.1481 53.2634 69.0648 53.2309C68.6444 53.0668 68.3507 53.1986 68.1838 53.6262L67.6682 54.9472L66.4396 54.4677L67.6003 51.4941L68.769 51.9503L68.6438 52.271ZM73.7246 55.5948C73.7176 55.6129 73.6746 55.7068 73.5959 55.8765L71.5302 55.0702C71.5298 55.1996 71.5683 55.3148 71.6458 55.416C71.7246 55.5136 71.8401 55.5921 71.9923 55.6515C72.1228 55.7025 72.2379 55.7286 72.3376 55.7299C72.4409 55.7327 72.5607 55.7147 72.6969 55.676L73.0859 56.5733C72.6715 56.779 72.1762 56.7694 71.5999 56.5445C71.2411 56.4045 70.9513 56.2162 70.7304 55.9796C70.511 55.7394 70.3729 55.4726 70.3163 55.179C70.2596 54.8854 70.2886 54.5919 70.4032 54.2983C70.5192 54.0012 70.6949 53.7649 70.9304 53.5895C71.171 53.412 71.4435 53.3075 71.7481 53.276C72.0564 53.246 72.3699 53.2932 72.6889 53.4177C72.9897 53.5351 73.2399 53.7017 73.4397 53.9175C73.6431 54.1347 73.772 54.3876 73.8264 54.6761C73.8845 54.966 73.8505 55.2723 73.7246 55.5948ZM72.373 54.2591C72.2461 54.2096 72.1276 54.203 72.0174 54.2393C71.9071 54.2756 71.8146 54.3523 71.7397 54.4692L72.6965 54.8427C72.7192 54.7095 72.7023 54.5923 72.6458 54.4909C72.5908 54.3859 72.4998 54.3086 72.373 54.2591ZM77.0523 55.1209C77.5741 55.3246 77.9268 55.5979 78.1103 55.941C78.2952 56.2805 78.2929 56.693 78.1033 57.1786L77.4795 58.7768L76.3379 58.3312L76.4907 57.9398C76.2333 58.1818 75.8945 58.2208 75.4741 58.0567C75.2385 57.9648 75.0529 57.8464 74.9174 57.7016C74.7868 57.5546 74.7049 57.3952 74.6717 57.2236C74.6435 57.0497 74.6634 56.8758 74.7313 56.7018C74.8458 56.4083 75.0452 56.2293 75.3293 56.1648C75.6134 56.1002 75.9838 56.1571 76.4404 56.3353L76.9351 56.5284C76.9858 56.2809 76.8444 56.0921 76.511 55.962C76.3769 55.9096 76.2325 55.8783 76.0778 55.8681C75.9245 55.8542 75.7848 55.8644 75.6587 55.8987L75.5834 54.9359C75.7948 54.8973 76.0314 54.8957 76.2932 54.9311C76.5601 54.9642 76.8131 55.0275 77.0523 55.1209ZM76.1323 57.4617C76.2193 57.4956 76.3064 57.5025 76.3936 57.4823C76.4809 57.462 76.5592 57.4112 76.6286 57.3297L76.7092 57.1231L76.4048 57.0043C76.1548 56.9067 75.9972 56.9412 75.9321 57.1079C75.9052 57.1768 75.908 57.2447 75.9403 57.3116C75.9777 57.3763 76.0417 57.4263 76.1323 57.4617ZM81.3287 60.1603C81.1029 60.1932 80.8305 60.1475 80.5116 60.023C80.0948 59.8603 79.813 59.6355 79.6661 59.3484C79.5206 59.0578 79.5264 58.7113 79.6834 58.309L79.9804 57.548L79.5727 57.3889L79.9228 56.4919L80.3306 56.651L80.6552 55.8193L81.8838 56.2989L81.5591 57.1306L82.168 57.3682L81.8178 58.2652L81.209 58.0275L80.9162 58.7777C80.8808 58.8683 80.8768 58.9482 80.9041 59.0173C80.9314 59.0864 80.9831 59.1358 81.0592 59.1656C81.1643 59.2066 81.2673 59.2155 81.3683 59.1922L81.3287 60.1603ZM86.3508 60.5231C86.3437 60.5413 86.3008 60.6352 86.2221 60.8049L84.1563 59.9986C84.156 60.1279 84.1945 60.2432 84.2719 60.3444C84.3508 60.442 84.4663 60.5205 84.6185 60.5799C84.749 60.6308 84.8641 60.657 84.9638 60.6583C85.0671 60.661 85.1869 60.6431 85.3231 60.6044L85.7121 61.5016C85.2976 61.7074 84.8023 61.6978 84.2261 61.4729C83.8673 61.3328 83.5775 61.1445 83.3566 60.908C83.1371 60.6678 82.9991 60.4009 82.9425 60.1074C82.8858 59.8138 82.9148 59.5202 83.0294 59.2267C83.1454 58.9295 83.3211 58.6933 83.5566 58.5179C83.7971 58.3403 84.0697 58.2358 84.3743 58.2044C84.6826 58.1743 84.9961 58.2216 85.315 58.3461C85.6158 58.4635 85.8661 58.6301 86.0659 58.8458C86.2693 59.063 86.3982 59.3159 86.4526 59.6044C86.5106 59.8944 86.4767 60.2006 86.3508 60.5231ZM84.9991 59.1875C84.8723 59.1379 84.7538 59.1314 84.6435 59.1677C84.5333 59.204 84.4408 59.2806 84.3659 59.3976L85.3226 59.771C85.3454 59.6379 85.3285 59.5206 85.272 59.4192C85.2169 59.3142 85.126 59.237 84.9991 59.1875Z" fill="#252523"/>
<defs>
<filter id="filter0_d" x="159.949" y="43.8598" width="51.3302" height="51.3302" filterUnits="userSpaceOnUse" color-interpolation-filters="sRGB">
<feFlood flood-opacity="0" result="BackgroundImageFix"/>
<feColorMatrix in="SourceAlpha" type="matrix" values="0 0 0 0 0 0 0 0 0 0 0 0 0 0 0 0 0 0 127 0"/>
<feOffset dy="0.52249"/>
<feGaussianBlur stdDeviation="1.04498"/>
<feColorMatrix type="matrix" values="0 0 0 0 0 0 0 0 0 0 0 0 0 0 0 0 0 0 0.16 0"/>
<feBlend mode="normal" in2="BackgroundImageFix" result="effect1_dropShadow"/>
<feBlend mode="normal" in="SourceGraphic" in2="effect1_dropShadow" result="shape"/>
</filter>
<filter id="filter1_d" x="72.6658" y="79.2493" width="54.6684" height="54.6684" filterUnits="userSpaceOnUse" color-interpolation-filters="sRGB">
<feFlood flood-opacity="0" result="BackgroundImageFix"/>
<feColorMatrix in="SourceAlpha" type="matrix" values="0 0 0 0 0 0 0 0 0 0 0 0 0 0 0 0 0 0 127 0"/>
<feOffset dy="0.583553"/>
<feGaussianBlur stdDeviation="1.16711"/>
<feColorMatrix type="matrix" values="0 0 0 0 0 0 0 0 0 0 0 0 0 0 0 0 0 0 0.16 0"/>
<feBlend mode="normal" in2="BackgroundImageFix" result="effect1_dropShadow"/>
<feBlend mode="normal" in="SourceGraphic" in2="effect1_dropShadow" result="shape"/>
</filter>
<filter id="filter2_d" x="100.666" y="50.2493" width="56.723" height="66.7002" filterUnits="userSpaceOnUse" color-interpolation-filters="sRGB">
<feFlood flood-opacity="0" result="BackgroundImageFix"/>
<feColorMatrix in="SourceAlpha" type="matrix" values="0 0 0 0 0 0 0 0 0 0 0 0 0 0 0 0 0 0 127 0"/>
<feOffset dy="0.583553"/>
<feGaussianBlur stdDeviation="1.16711"/>
<feColorMatrix type="matrix" values="0 0 0 0 0 0 0 0 0 0 0 0 0 0 0 0 0 0 0.16 0"/>
<feBlend mode="normal" in2="BackgroundImageFix" result="effect1_dropShadow"/>
<feBlend mode="normal" in="SourceGraphic" in2="effect1_dropShadow" result="shape"/>
</filter>
<filter id="filter3_d" x="46.051" y="23.5383" width="59.3312" height="60.9396" filterUnits="userSpaceOnUse" color-interpolation-filters="sRGB">
<feFlood flood-opacity="0" result="BackgroundImageFix"/>
<feColorMatrix in="SourceAlpha" type="matrix" values="0 0 0 0 0 0 0 0 0 0 0 0 0 0 0 0 0 0 127 0"/>
<feOffset dy="0.487246"/>
<feGaussianBlur stdDeviation="0.974492"/>
<feColorMatrix type="matrix" values="0 0 0 0 0 0 0 0 0 0 0 0 0 0 0 0 0 0 0.16 0"/>
<feBlend mode="normal" in2="BackgroundImageFix" result="effect1_dropShadow"/>
<feBlend mode="normal" in="SourceGraphic" in2="effect1_dropShadow" result="shape"/>
</filter>
</defs>
</svg>
